<?xml version="1.0" encoding="iso-8859-1"?>
<!-- Generator: Adobe Illustrator 19.0.0, SVG Export Plug-In . SVG Version: 6.00 Build 0)  -->
<svg xmlns="http://www.w3.org/2000/svg" xmlns:xlink="http://www.w3.org/1999/xlink" version="1.1" id="Layer_1" x="0px" y="0px" viewBox="0 0 512 512" style="enable-background:new 0 0 512 512;" xml:space="preserve">
<path style="fill:#134A79;" d="M260.197,22.49L8.393,167.869c-4.014,2.318-5.39,7.451-3.072,11.465  c2.318,4.015,7.452,5.387,11.465,3.072L268.591,37.027L260.197,22.49z"/>
<path style="fill:#092339;" d="M474.973,243.409L329.594,495.213c-2.318,4.014-0.942,9.148,3.072,11.465  c4.015,2.318,9.148,0.943,11.465-3.072l145.379-251.804L474.973,243.409z"/>
<path style="fill:#77AAD4;" d="M464.052,50.401L312.478,199.522l150.355,87.048C527.977,221.427,528.388,116.051,464.052,50.401z"/>
<path style="fill:#A5C6E3;" d="M439.093,262.829l-126.615-63.308L225.43,49.166c65.555-65.555,171.848-65.555,237.403,0  c0.412,0.412,0.815,0.815,1.219,1.234C515.11,103.105,504.133,197.789,439.093,262.829z"/>
<path style="fill:#185E98;" d="M225.43,49.168c-8.127,8.127-15.257,16.888-21.366,26.115l22.601,212.508  c65.65,64.336,171.025,63.925,236.169-1.219L225.43,49.168z"/>
<path style="fill:#4A8DC6;" d="M204.064,75.281L413.453,284.67c-62.422,44.98-140.677,47.789-186.788,3.118  c-0.42-0.404-0.823-0.807-1.234-1.219C168.003,229.142,160.881,140.464,204.064,75.281z"/>
<g>
	<circle style="fill:#092339;" cx="450.964" cy="227.217" r="8.393"/>
	<circle style="fill:#092339;" cx="367.868" cy="144.122" r="8.393"/>
	<circle style="fill:#092339;" cx="284.784" cy="61.038" r="8.393"/>
	<circle style="fill:#092339;" cx="403.479" cy="274.702" r="8.393"/>
	<circle style="fill:#092339;" cx="320.395" cy="191.607" r="8.393"/>
	<circle style="fill:#092339;" cx="237.3" cy="108.523" r="8.393"/>
</g>
<path style="fill:#134A79;" d="M288.375,128.332L3.01,366.903c-3.557,2.972-4.029,8.267-1.055,11.822  c2.974,3.557,8.266,4.031,11.822,1.055l285.365-238.569L288.375,128.332z"/>
<path style="fill:#092339;" d="M368.952,215.055L132.219,498.223c-2.974,3.557-2.5,8.85,1.055,11.822  c3.555,2.972,8.85,2.501,11.822-1.055l236.734-283.169L368.952,215.055z"/>
<path style="fill:#134A79;" d="M359.768,79.588c-5.959-7.111-16.536-8.055-23.646-2.112L310.364,99.01l21.534,25.758l25.758-21.534  C364.766,97.29,365.712,86.697,359.768,79.588z"/>
<path style="fill:#0E3759;" d="M331.899,124.768l-40.766,34.082l-21.534-25.759l40.766-34.082  c7.109-5.944,17.687-4.999,23.646,2.112C339.954,108.232,339.007,118.824,331.899,124.768z"/>
<path style="fill:#134A79;" d="M432.419,152.225c7.111,5.959,8.055,16.536,2.112,23.646l-21.534,25.758l-25.758-21.534  l21.534-25.758C414.716,147.227,425.31,146.281,432.419,152.225z"/>
<path style="fill:#0E3759;" d="M387.238,180.094l-34.082,40.766l25.758,21.534l34.082-40.766c5.944-7.109,4.999-17.687-2.112-23.646  C403.776,172.039,393.182,172.986,387.238,180.094z"/>
<g>
</g>
<g>
</g>
<g>
</g>
<g>
</g>
<g>
</g>
<g>
</g>
<g>
</g>
<g>
</g>
<g>
</g>
<g>
</g>
<g>
</g>
<g>
</g>
<g>
</g>
<g>
</g>
<g>
</g>
</svg>
