<?xml version="1.0" encoding="iso-8859-1"?>
<!-- Generator: Adobe Illustrator 19.0.0, SVG Export Plug-In . SVG Version: 6.00 Build 0)  -->
<svg xmlns="http://www.w3.org/2000/svg" xmlns:xlink="http://www.w3.org/1999/xlink" version="1.1" id="Layer_1" x="0px" y="0px" viewBox="0 0 512 512" style="enable-background:new 0 0 512 512;" xml:space="preserve">
<path style="fill:#77AAD4;" d="M426.667,270.791c-4.713,0-8.533,3.82-8.533,8.533v34.133H435.2v-34.133  C435.2,274.611,431.379,270.791,426.667,270.791z"/>
<path style="fill:#0E3759;" d="M426.667,378.88h-73.956l-22.756-17.067h88.178v-36.978H435.2v45.511  C435.2,375.06,431.379,378.88,426.667,378.88z"/>
<polygon style="fill:#A5C6E3;" points="261.222,0 352.711,133.12 199.111,178.631 247.421,0 "/>
<g>
	<path style="fill:#D2E3F1;" d="M247.421,0l71.157,133.12l-119.467,45.511l-153.6-45.511L137,0H247.421z"/>
	<polygon style="fill:#D2E3F1;" points="352.711,133.12 352.711,167.253 284.444,201.387 318.578,133.12  "/>
</g>
<polygon style="fill:#FFFFFF;" points="318.578,133.12 318.578,235.52 45.511,167.253 45.511,133.12 "/>
<path style="fill:#134A79;" d="M386.844,302.08h79.644c-4.563,19.627-20.662,34.133-39.822,34.133  C407.507,336.213,391.407,321.707,386.844,302.08z"/>
<path style="fill:#0E3759;" d="M216.178,34.133h-34.133v64.853h34.133c9.387,0,17.067-7.68,17.067-17.067V51.2  C233.244,41.813,225.564,34.133,216.178,34.133z"/>
<path style="fill:#185E98;" d="M199.111,51.2v30.72c0,9.387-7.68,17.067-17.067,17.067s-17.067-7.68-17.067-17.067V51.2  c0-9.387,7.68-17.067,17.067-17.067S199.111,41.813,199.111,51.2z"/>
<polygon style="fill:#134A79;" points="281.236,455.111 295.822,512 261.689,512 199.111,420.978 "/>
<polygon style="fill:#1D71B8;" points="252.257,455.111 261.689,512 102.4,512 116.986,455.111 199.111,420.978 "/>
<polygon style="fill:#0E3759;" points="261.689,378.88 281.236,455.111 199.111,455.111 199.111,344.747 "/>
<polygon style="fill:#185E98;" points="252.257,455.111 116.986,455.111 136.533,378.88 199.111,344.747 239.605,378.88 "/>
<polygon style="fill:#4A8DC6;" points="352.711,167.253 352.711,378.88 318.578,378.88 250.311,273.067 318.578,167.253 "/>
<polygon style="fill:#77AAD4;" points="45.511,167.253 45.511,201.387 91.022,273.067 45.511,344.747 45.511,378.88 318.578,378.88   318.578,167.253 "/>
<path style="fill:#4A8DC6;" d="M170.667,293.547H128V276.48h34.133v-58.027H128v-17.067h42.667c4.713,0,8.533,3.82,8.533,8.533  v75.093C179.2,289.727,175.379,293.547,170.667,293.547z"/>
<polygon style="fill:#A5C6E3;" points="136.533,201.387 136.533,344.747 102.4,344.747 68.267,273.067 102.4,201.387 "/>
<rect x="45.511" y="201.387" style="fill:#D2E3F1;" width="56.889" height="143.36"/>
<circle style="fill:#185E98;" cx="267.378" cy="98.987" r="8.533"/>
<g>
</g>
<g>
</g>
<g>
</g>
<g>
</g>
<g>
</g>
<g>
</g>
<g>
</g>
<g>
</g>
<g>
</g>
<g>
</g>
<g>
</g>
<g>
</g>
<g>
</g>
<g>
</g>
<g>
</g>
</svg>
