<svg id="Capa_1" enable-background="new 0 0 512 512" height="512" viewBox="0 0 512 512" width="512" xmlns="http://www.w3.org/2000/svg"><g><g><path d="m495.35 412.098h-478.7v-333.008c0-11.495 9.318-20.813 20.813-20.813h437.073c11.495 0 20.813 9.318 20.813 20.813v333.008z" fill="#dab46b"/><path d="m16.65 389.203h478.699v22.894h-478.699z" fill="#cba763"/><path d="m49.951 368.495v-266.616c0-5.69 4.612-10.302 10.302-10.302h391.494c5.69 0 10.302 4.612 10.302 10.302v266.616c0 5.69-4.612 10.302-10.302 10.302h-391.494c-5.689 0-10.302-4.613-10.302-10.302z" fill="#a2f4c1"/><path d="m501.594 453.724h-491.187c-5.748 0-10.407-4.66-10.407-10.407v-20.813c0-5.747 4.659-10.407 10.407-10.407h491.187c5.747 0 10.406 4.659 10.406 10.407v20.813c0 5.747-4.659 10.407-10.406 10.407z" fill="#f1d59d"/><path d="m501.594 412.098h-34.341c5.747 0 10.406 4.659 10.406 10.407v20.813c0 5.747-4.659 10.406-10.406 10.406h34.341c5.747 0 10.406-4.659 10.406-10.406v-20.813c0-5.748-4.659-10.407-10.406-10.407z" fill="#efcb84"/></g><path d="m347.577 378.797h114.472v16.65c0 9.196-7.455 16.65-16.65 16.65h-81.171c-9.196 0-16.65-7.455-16.65-16.65v-16.65z" fill="#dddaec"/><path d="m462.049 378.797h-114.472v-16.65c0-9.196 7.455-16.65 16.65-16.65h81.171c9.196 0 16.65 7.455 16.65 16.65v16.65z" fill="#ac80dd"/></g></svg>