<svg id="Capa_1" enable-background="new 0 0 512 512" height="512" viewBox="0 0 512 512" width="512" xmlns="http://www.w3.org/2000/svg"><g><g><path d="m256 512c-4.204 0-7.611-3.407-7.611-7.612v-52.41c0-4.204 3.408-7.612 7.611-7.612 4.204 0 7.612 3.407 7.612 7.612v52.41c0 4.205-3.408 7.612-7.612 7.612z" fill="#ac80dd"/></g><g><path d="m497.942 326.007h-483.884c-5.662 0-10.252-4.59-10.252-10.252v-20.504c0-5.662 4.59-10.252 10.252-10.252h483.885c5.662 0 10.252 4.59 10.252 10.252v20.504c-.001 5.662-4.591 10.252-10.253 10.252z" fill="#df75a5"/></g><g><path d="m461.036 259.76v25.24h-410.072v-25.24c0-9.667 3.404-18.812 9.319-26.019h391.434c5.915 7.207 9.319 16.352 9.319 26.019z" fill="#ffe07d"/></g><g><path d="m451.717 233.741h-391.434c3.783-4.613 8.591-8.427 14.199-11.072.01 0 .021-.01.031-.01l63.592-29.925h235.791l63.592 29.925c.01 0 .021.01.031.01 5.607 2.645 10.415 6.459 14.198 11.072z" fill="#a2f4c1"/></g><g><path d="m373.896 192.734h-235.792l87.141-41.007h61.51z" fill="#ac80dd"/></g><g><path d="m415.928 233.741v51.259h45.108v-25.24c0-9.667-3.404-18.812-9.319-26.019z" fill="#ffd064"/></g><g><path d="m437.655 222.738-63.759-30.004h-45.108l87.14 41.007h35.789c-3.752-4.575-8.514-8.361-14.062-11.003z" fill="#86f1a7"/></g><g><path d="m286.755 151.727h-45.108l87.141 41.007h45.108z" fill="#9d66d5"/></g><g><path d="m225.245 151.727v-120.972c0-16.985 13.769-30.755 30.755-30.755 16.986 0 30.755 13.77 30.755 30.755v120.971h-61.51z" fill="#e7a561"/></g><g><path d="m256 0c-3.215 0-6.314.495-9.227 1.41 12.477 3.919 21.529 15.574 21.529 29.345v120.971h18.453v-120.971c0-16.985-13.769-30.755-30.755-30.755z" fill="#e49542"/></g><g><path d="m497.942 285h-46.133c5.662 0 10.252 4.59 10.252 10.252v20.504c0 5.662-4.59 10.252-10.252 10.252h46.133c5.662 0 10.252-4.59 10.252-10.252v-20.504c0-5.662-4.59-10.252-10.252-10.252z" fill="#dd5790"/></g><g><path d="m437.472 388.341-177.155 83.263c-2.734 1.285-5.899 1.285-8.634 0l-177.155-83.263c-14.382-6.76-23.564-21.221-23.564-37.112v-25.222h410.072v25.222c0 15.892-9.182 30.353-23.564 37.112z" fill="#f1d59d"/></g><g><path d="m420.029 326.007v53.309c0 6.971-1.768 13.666-4.966 19.557l22.409-10.532c14.383-6.76 23.564-21.221 23.564-37.112v-25.222z" fill="#efcb84"/></g></g></svg>