<?xml version="1.0" encoding="iso-8859-1"?>
<!-- Generator: Adobe Illustrator 19.0.0, SVG Export Plug-In . SVG Version: 6.00 Build 0)  -->
<svg xmlns="http://www.w3.org/2000/svg" xmlns:xlink="http://www.w3.org/1999/xlink" version="1.1" id="Layer_1" x="0px" y="0px" viewBox="0 0 512 512" style="enable-background:new 0 0 512 512;" xml:space="preserve">
<circle style="fill:#0E3759;" cx="256" cy="256" r="256"/>
<circle style="fill:#185E98;" cx="256" cy="256" r="187.733"/>
<circle style="fill:#77AAD4;" cx="256" cy="256" r="119.467"/>
<path style="fill:#FB7A5B;" d="M256,190.578c-4.713,0-8.533,3.821-8.533,8.533v25.042l-12.521-21.687  c-2.356-4.082-7.575-5.48-11.657-3.123s-5.48,7.575-3.123,11.657l12.521,21.687L211,220.166c-4.081-2.357-9.3-0.959-11.657,3.123  c-2.356,4.081-0.958,9.3,3.123,11.657l21.687,12.521h-25.042c-4.713,0-8.533,3.821-8.533,8.533c0,4.713,3.821,8.533,8.533,8.533  h25.042l-21.687,12.521c-4.081,2.356-5.48,7.575-3.123,11.657c1.58,2.737,4.449,4.268,7.398,4.268c1.447,0,2.915-0.369,4.259-1.145  l21.687-12.521L220.166,301c-2.356,4.081-0.958,9.3,3.123,11.657c1.344,0.776,2.811,1.145,4.259,1.145  c2.949,0,5.817-1.53,7.398-4.268l28.444-49.267l1.143-4.267v-56.889C264.533,194.398,260.713,190.578,256,190.578z"/>
<path style="fill:#FD5F6E;" d="M321.422,256c0-4.713-3.821-8.533-8.533-8.533h-25.042l21.687-12.521  c4.081-2.356,5.48-7.575,3.123-11.657c-2.356-4.082-7.575-5.48-11.657-3.123l-21.687,12.521L291.834,211  c2.356-4.081,0.958-9.3-3.123-11.657c-4.081-2.357-9.3-0.958-11.657,3.123l-28.444,49.267L247.467,256v56.889  c0,4.713,3.821,8.533,8.533,8.533c4.713,0,8.533-3.821,8.533-8.533v-25.042l12.521,21.687c1.58,2.738,4.449,4.268,7.398,4.268  c1.447,0,2.915-0.369,4.259-1.145c4.081-2.356,5.48-7.575,3.123-11.657l-12.521-21.687L301,291.834  c1.344,0.776,2.811,1.145,4.259,1.145c2.949,0,5.817-1.53,7.398-4.268c2.356-4.081,0.958-9.3-3.123-11.657l-21.687-12.521h25.042  C317.602,264.533,321.422,260.713,321.422,256z"/>
<path style="fill:#FF2796;" d="M74.176,40.043L62.799,74.176l11.378,34.133c18.852,0,34.133-15.283,34.133-34.133  S93.027,40.043,74.176,40.043z"/>
<path style="fill:#FE4382;" d="M40.043,74.176c0,18.851,15.281,34.133,34.133,34.133V40.043  C55.324,40.043,40.043,55.324,40.043,74.176z"/>
<path style="fill:#FD5F6E;" d="M68.267,227.556L56.889,256l11.378,28.444c15.709,0,28.444-12.735,28.444-28.444  S83.976,227.556,68.267,227.556z"/>
<path style="fill:#FB7A5B;" d="M39.822,256c0,15.709,12.735,28.444,28.444,28.444v-56.889C52.557,227.556,39.822,240.291,39.822,256  z"/>
<path style="fill:#FE4382;" d="M256,347.022l-11.378,28.444L256,403.911c15.709,0,28.444-12.735,28.444-28.444  S271.709,347.022,256,347.022z"/>
<path style="fill:#FD5F6E;" d="M227.556,375.467c0,15.709,12.735,28.444,28.444,28.444v-56.889  C240.291,347.022,227.556,359.757,227.556,375.467z"/>
<g>
	<circle style="fill:#FFFFFF;" cx="256" cy="34.133" r="8.533"/>
	<circle style="fill:#FFFFFF;" cx="477.867" cy="256" r="8.533"/>
	<circle style="fill:#FFFFFF;" cx="412.888" cy="412.888" r="8.533"/>
	<circle style="fill:#FFFFFF;" cx="256" cy="477.867" r="8.533"/>
</g>
<g>
	<circle style="fill:#77AAD4;" cx="461.153" cy="50.845" r="8.533"/>
	<circle style="fill:#77AAD4;" cx="461.153" cy="461.153" r="8.533"/>
	<circle style="fill:#77AAD4;" cx="50.845" cy="461.153" r="8.533"/>
</g>
<circle style="fill:#FFFFFF;" cx="409.6" cy="256" r="8.533"/>
<circle style="fill:#FEECCC;" cx="147.388" cy="364.612" r="8.533"/>
<g>
	<circle style="fill:#FFFFFF;" cx="147.388" cy="147.388" r="8.533"/>
	<circle style="fill:#FFFFFF;" cx="256" cy="102.4" r="8.533"/>
	<circle style="fill:#FFFFFF;" cx="412.888" cy="99.112" r="8.533"/>
</g>
<path style="fill:#FA9647;" d="M256,210.489v91.022c25.135,0,45.511-20.376,45.511-45.511  C301.511,230.865,281.135,210.489,256,210.489z"/>
<path style="fill:#F9B233;" d="M267.378,256c0-25.135-5.094-45.511-11.378-45.511c-25.135,0-45.511,20.376-45.511,45.511  c0,25.135,20.376,45.511,45.511,45.511C262.284,301.511,267.378,281.135,267.378,256z"/>
<g>
</g>
<g>
</g>
<g>
</g>
<g>
</g>
<g>
</g>
<g>
</g>
<g>
</g>
<g>
</g>
<g>
</g>
<g>
</g>
<g>
</g>
<g>
</g>
<g>
</g>
<g>
</g>
<g>
</g>
</svg>
