<?xml version="1.0" encoding="iso-8859-1"?>
<!-- Generator: Adobe Illustrator 19.0.0, SVG Export Plug-In . SVG Version: 6.00 Build 0)  -->
<svg xmlns="http://www.w3.org/2000/svg" xmlns:xlink="http://www.w3.org/1999/xlink" version="1.1" id="Layer_1" x="0px" y="0px" viewBox="0 0 512 512" style="enable-background:new 0 0 512 512;" xml:space="preserve">
<polygon style="fill:#FCD999;" points="381.156,0 290.133,341.333 415.289,341.333 415.289,0 "/>
<rect x="96.711" style="fill:#FEECCC;" width="284.444" height="341.333"/>
<path style="fill:#D2E3F1;" d="M328.067,140.891c-3.163-15.349-10.172-29.298-19.991-40.767c-3.8,1.468-7.93,2.276-12.254,2.276  c-1.001,0-1.991-0.046-2.97-0.137l-25.475,239.07l49.755-34.133c28.001-15.519,46.956-45.363,46.956-79.644v-26.487  C364.089,175.024,349.503,152.394,328.067,140.891z"/>
<path style="fill:#FFFFFF;" d="M305.311,140.891c-2.025-14.404-6.383-27.58-12.459-38.628  c-16.509-1.411-29.639-14.575-31.027-31.095c-7.316-1.889-14.985-2.901-22.892-2.901c-38.423,0-71.282,23.814-84.639,57.481  c0.023,0.011-6.383,67.675-6.383,67.675v34.133c0,34.281,18.955,64.125,46.956,79.644l72.511,34.133l30.447-34.133  c19.16-15.519,32.131-45.363,32.131-79.644v-26.487C329.956,175.024,319.977,152.394,305.311,140.891z"/>
<circle style="fill:#D2E3F1;" cx="316.689" cy="203.469" r="8.533"/>
<path style="fill:#77AAD4;" d="M216.178,204.8v68.267c18.842,0,34.133-15.28,34.133-34.133S235.019,204.8,216.178,204.8z"/>
<g>
	<path style="fill:#A5C6E3;" d="M216.178,204.8c6.281,0,11.378,15.28,11.378,34.133s-5.097,34.133-11.378,34.133   c-18.853,0-34.133-15.28-34.133-34.133S197.325,204.8,216.178,204.8z"/>
	<circle style="fill:#A5C6E3;" cx="282.556" cy="163.647" r="17.067"/>
	<path style="fill:#A5C6E3;" d="M154.317,125.759c15.781,3.004,27.728,16.873,27.728,33.53c0,18.853-15.28,34.133-34.133,34.133   v-34.133C147.911,147.445,150.175,136.124,154.317,125.759z"/>
</g>
<polygon style="fill:#FD5F6E;" points="398.222,307.2 314.027,409.6 398.222,512 432.356,512 432.356,307.2 "/>
<polygon style="fill:#FB7A5B;" points="79.644,307.2 79.644,512 398.222,512 398.222,398.222 375.467,369.778 398.222,341.333   398.222,307.2 "/>
<polygon style="fill:#D2E3F1;" points="364.089,341.333 325.404,369.778 364.089,398.222 398.222,398.222 398.222,341.333 "/>
<rect x="290.133" y="341.333" style="fill:#FFFFFF;" width="73.956" height="56.889"/>
<g>
</g>
<g>
</g>
<g>
</g>
<g>
</g>
<g>
</g>
<g>
</g>
<g>
</g>
<g>
</g>
<g>
</g>
<g>
</g>
<g>
</g>
<g>
</g>
<g>
</g>
<g>
</g>
<g>
</g>
</svg>
