<svg id="Capa_1" enable-background="new 0 0 497 497" height="512" viewBox="0 0 497 497" width="512" xmlns="http://www.w3.org/2000/svg"><g><path d="m428.275 142.086-27.021-17.742 25.504-38.843c4.899-7.462 14.92-9.539 22.382-4.64 7.462 4.899 9.539 14.92 4.64 22.382z" fill="#ffe07d"/><path d="m403.922 225.188-69.242-45.464 35.262-53.704c5.634-8.581 17.158-10.97 25.74-5.336l38.166 25.06c8.581 5.634 10.97 17.158 5.336 25.74z" fill="#a2f4c1"/><g><path d="m495.44 263.23h-370.18l123.24-81.72 40.3-26.72c13.53-8.97 31.13-8.97 44.66 0l159.07 105.47c.05.03.1.06.14.1 1.12.77 2.06 1.75 2.77 2.87z" fill="#dab46b"/><path d="m125.26 263.228h286.695l-143.347-95.046z" fill="#cba763"/></g><path d="m371.74 263.23h-370.18c.7-1.11 1.63-2.09 2.74-2.85.05-.04.11-.08.17-.12l159.07-105.47c13.204-8.922 31.422-8.955 44.66 0l40.3 26.72z" fill="#efcb84"/><path d="m209.1 202.62c-16.86 27.6-22.67 28.31-23.19 60.61h-184.35c.7-1.11 1.63-2.09 2.74-2.85.05-.04.11-.08.17-.12l159.07-105.47c6.575-4.384 14.441-6.737 22.33-6.73v.01s45.46 18.18 23.23 54.55z" fill="#f1d59d"/><path d="m497 268.6v28.97h-497v-28.97c0-1.93.55-3.79 1.56-5.37h493.88c1.01 1.58 1.56 3.44 1.56 5.37z" fill="#df75a5"/><path d="m497 268.6v28.97h-22.22v-34.34h20.66c1.01 1.58 1.56 3.44 1.56 5.37z" fill="#dd5790"/><path d="m487 418.793h-477c-5.523 0-10-4.477-10-10v-111.22h497v111.22c0 5.522-4.477 10-10 10z" fill="#30579d"/><path d="m487 418.793h-12.224v-121.22h22.224v111.22c0 5.522-4.477 10-10 10z" fill="#26457d"/><g fill="#dab46b"><circle cx="143.443" cy="208.679" r="8.081"/><circle cx="167.687" cy="229.892" r="8.081"/><circle cx="114.148" cy="229.892" r="8.081"/></g></g></svg>