<?xml version="1.0" encoding="iso-8859-1"?>
<!-- Generator: Adobe Illustrator 19.0.0, SVG Export Plug-In . SVG Version: 6.00 Build 0)  -->
<svg xmlns="http://www.w3.org/2000/svg" xmlns:xlink="http://www.w3.org/1999/xlink" version="1.1" id="Layer_1" x="0px" y="0px" viewBox="0 0 512 512" style="enable-background:new 0 0 512 512;" xml:space="preserve">
<polygon style="fill:#0E3759;" points="512,365.227 512,477.867 466.489,477.867 443.733,421.547 466.489,365.227 "/>
<polygon style="fill:#134A79;" points="466.489,365.227 466.489,477.867 420.978,477.867 398.222,421.547 420.978,365.227 "/>
<g>
	<polygon style="fill:#0E3759;" points="420.978,365.227 420.978,477.867 375.467,477.867 341.333,365.227  "/>
	<polygon style="fill:#0E3759;" points="0,365.227 0,477.867 45.511,477.867 68.267,421.547 45.511,365.227  "/>
</g>
<polygon style="fill:#134A79;" points="45.511,365.227 45.511,477.867 91.022,477.867 113.778,421.547 91.022,365.227 "/>
<polygon style="fill:#0E3759;" points="91.022,365.227 91.022,477.867 136.533,477.867 170.667,365.227 "/>
<polygon style="fill:#A5C6E3;" points="375.467,443.733 375.467,477.867 318.578,500.622 318.578,409.6 "/>
<polygon style="fill:#D2E3F1;" points="341.333,420.978 341.333,500.622 136.533,477.867 136.533,443.733 "/>
<polygon style="fill:#185E98;" points="348.729,0 348.729,34.133 280.462,68.267 314.596,0 "/>
<polygon style="fill:#1D71B8;" points="314.596,0 314.596,68.267 163.271,34.133 163.271,0 "/>
<path style="fill:#4A8DC6;" d="M348.729,34.133h-34.133L256,238.933l92.729-34.133c16.293-22.687,26.738-52.622,26.738-85.333  S365.022,56.821,348.729,34.133z"/>
<g>
	<path style="fill:#77AAD4;" d="M314.596,34.133c16.293,22.687,26.738,52.622,26.738,85.333s-10.445,62.646-26.738,85.333   L256,238.933L163.271,204.8c-16.293-22.687-26.738-52.622-26.738-85.333s10.445-62.646,26.738-85.333H314.596z"/>
	<polygon style="fill:#77AAD4;" points="341.333,477.867 352.711,512 125.156,512 136.533,477.867  "/>
</g>
<polygon style="fill:#4A8DC6;" points="375.467,329.956 375.467,443.733 341.333,443.733 307.2,284.444 "/>
<polygon style="fill:#77AAD4;" points="341.333,273.067 341.333,443.733 136.533,443.733 136.533,329.956 "/>
<path style="fill:#A5C6E3;" d="M348.729,204.8h-34.133l26.738,125.156h34.133v-56.889  C375.467,246.898,365.022,222.948,348.729,204.8z"/>
<polygon style="fill:#4A8DC6;" points="375.467,477.867 386.844,512 352.711,512 341.333,477.867 "/>
<path style="fill:#D2E3F1;" d="M341.333,273.067l-45.511,56.889H136.533v-56.889c0-26.169,10.445-50.119,26.738-68.267h151.324  C330.889,222.948,341.333,246.898,341.333,273.067z"/>
<rect x="295.822" y="273.067" style="fill:#0E3759;" width="45.511" height="56.889"/>
<path style="fill:#A5C6E3;" d="M256,85.33v68.267c18.853,0,34.133-15.28,34.133-34.133S274.853,85.33,256,85.33z"/>
<path style="fill:#D2E3F1;" d="M256,85.33c6.281,0,11.378,15.28,11.378,34.133s-5.097,34.133-11.378,34.133  c-18.853,0-34.133-15.28-34.133-34.133S237.147,85.33,256,85.33z"/>
<g>
</g>
<g>
</g>
<g>
</g>
<g>
</g>
<g>
</g>
<g>
</g>
<g>
</g>
<g>
</g>
<g>
</g>
<g>
</g>
<g>
</g>
<g>
</g>
<g>
</g>
<g>
</g>
<g>
</g>
</svg>
