<?xml version="1.0" encoding="iso-8859-1"?>
<!-- Generator: Adobe Illustrator 19.0.0, SVG Export Plug-In . SVG Version: 6.00 Build 0)  -->
<svg xmlns="http://www.w3.org/2000/svg" xmlns:xlink="http://www.w3.org/1999/xlink" version="1.1" id="Layer_1" x="0px" y="0px" viewBox="0 0 512 512" style="enable-background:new 0 0 512 512;" xml:space="preserve">
<path style="fill:#484686;" d="M256,68.817v374.366c103.378,0,187.183-83.805,187.183-187.183S359.378,68.817,256,68.817z"/>
<path style="fill:#6858AD;" d="M410.151,256c0-103.378-69.015-187.183-154.151-187.183C152.622,68.817,68.817,152.622,68.817,256  S152.622,443.183,256,443.183C341.135,443.183,410.151,359.378,410.151,256z"/>
<path style="fill:#092339;" d="M256,134.882v242.237c66.891,0,121.118-54.227,121.118-121.118S322.891,134.882,256,134.882z"/>
<g>
	<path style="fill:#293560;" d="M344.086,256c0-66.891-39.437-121.118-88.086-121.118c-66.891,0-121.118,54.227-121.118,121.118   S189.109,377.118,256,377.118C304.649,377.118,344.086,322.891,344.086,256z"/>
	<path style="fill:#293560;" d="M479.842,394.197c3.225-3.225,3.225-8.454,0-11.678c-3.226-3.225-8.454-3.225-11.679,0   c-53.669,53.67-126.682,76.48-196.804,68.453L256,434.925c-98.66,0-178.925-80.265-178.925-178.925S157.34,77.075,256,77.075   l47.729-2.342l76.098,42.33l3.18-9.787c-46.869-41.665-106.594-64.454-169.829-64.454c-68.381,0-132.667,26.63-181.02,74.981   c-3.225,3.225-3.225,8.454,0,11.678c3.226,3.225,8.454,3.225,11.679,0c53.669-53.669,126.681-76.478,196.801-68.453   C178.036,64.709,119.693,90.827,74.98,135.54C26.63,183.892,0,248.179,0,316.559c0,4.561,3.696,8.258,8.258,8.258   s8.258-3.697,8.258-8.258c0-75.899,35.499-143.657,90.758-187.566C65.61,175.863,42.822,235.586,42.822,298.821   c0,68.381,26.63,132.667,74.981,181.019c1.613,1.612,3.727,2.419,5.84,2.419c2.113,0,4.227-0.806,5.84-2.419   c3.225-3.225,3.225-8.454,0-11.678C84.25,422.93,59.339,362.79,59.339,298.821c0-9.497,0.563-18.907,1.645-28.199   c3.518,62.881,29.668,121.507,74.557,166.397C183.893,485.372,248.179,512,316.559,512c4.562,0,8.258-3.697,8.258-8.258   c0-4.561-3.696-8.258-8.258-8.258c-75.9,0-143.657-35.5-187.566-90.758c46.869,41.665,106.594,64.454,169.829,64.454   C367.202,469.178,431.489,442.55,479.842,394.197z"/>
</g>
<g>
	<circle style="fill:#F9B233;" cx="462.452" cy="462.452" r="8.258"/>
	<circle style="fill:#F9B233;" cx="495.484" cy="82.581" r="8.258"/>
	<circle style="fill:#F9B233;" cx="462.452" cy="49.548" r="8.258"/>
	<circle style="fill:#F9B233;" cx="49.548" cy="49.548" r="8.258"/>
</g>
<path style="fill:#092339;" d="M503.742,187.183c-4.562,0-8.258,3.697-8.258,8.258c0,75.899-35.499,143.657-90.758,187.566  c41.665-46.87,64.453-106.593,64.453-169.828c0-68.381-26.63-132.667-74.981-181.019c-3.226-3.225-8.454-3.225-11.679,0  s-3.225,8.454,0,11.678c45.233,45.232,70.144,105.372,70.144,169.341c0,9.497-0.563,18.907-1.645,28.199  c-3.518-62.881-29.668-121.507-74.557-166.397C328.107,26.628,263.821,0,195.441,0c-4.562,0-8.258,3.697-8.258,8.258  s3.696,8.258,8.258,8.258c75.9,0,143.657,35.5,187.566,90.758l0.559,0.776C349.307,78.471,304.707,60.559,256,60.559v16.516  c98.66,0,178.925,80.265,178.925,178.925S354.66,434.925,256,434.925v16.516c5.184,0,10.319-0.207,15.403-0.606l-0.044,0.137  c62.603-3.681,120.947-29.798,165.661-74.512C485.371,328.108,512,263.821,512,195.441C512,190.88,508.304,187.183,503.742,187.183z  "/>
<g>
</g>
<g>
</g>
<g>
</g>
<g>
</g>
<g>
</g>
<g>
</g>
<g>
</g>
<g>
</g>
<g>
</g>
<g>
</g>
<g>
</g>
<g>
</g>
<g>
</g>
<g>
</g>
<g>
</g>
</svg>
