<?xml version="1.0" encoding="iso-8859-1"?>
<!-- Generator: Adobe Illustrator 19.0.0, SVG Export Plug-In . SVG Version: 6.00 Build 0)  -->
<svg xmlns="http://www.w3.org/2000/svg" xmlns:xlink="http://www.w3.org/1999/xlink" version="1.1" id="Layer_1" x="0px" y="0px" viewBox="0 0 512 512" style="enable-background:new 0 0 512 512;" xml:space="preserve">
<path style="fill:#FCD999;" d="M257.479,0.011L256,80.782l88.929-34.133C325.689,18.842,293.74,0.501,257.479,0.011z"/>
<path style="fill:#FEECCC;" d="M331.241,46.649L256,80.782l-88.929-34.133C186.573,18.466,219.125,0,256,0  c0.489,0,0.99,0,1.479,0.011C288.074,0.592,315.005,18.91,331.241,46.649z"/>
<path style="fill:#A5C6E3;" d="M345.714,47.787l132.153,191.147L256,295.822l75.913-248.036c-0.216-0.375-0.432-0.762-0.671-1.138  h13.687C345.202,47.024,345.452,47.411,345.714,47.787z"/>
<path style="fill:#D2E3F1;" d="M331.913,47.787l111.821,191.147L256,295.822L34.133,238.933L166.286,47.787  c0.262-0.375,0.512-0.762,0.785-1.138h164.17C331.48,47.024,331.696,47.411,331.913,47.787z"/>
<polygon style="fill:#0E3759;" points="341.333,147.911 341.333,204.8 307.2,204.8 284.444,176.356 307.2,147.911 "/>
<polygon style="fill:#185E98;" points="307.2,147.911 307.2,204.8 273.067,204.8 250.311,176.356 273.067,147.911 "/>
<g>
	<path style="fill:#77AAD4;" d="M34.133,238.933l34.133,102.4L0,307.2v-34.133C0,254.293,15.36,238.933,34.133,238.933z"/>
	<path style="fill:#77AAD4;" d="M512,273.067V307.2l-68.267,34.133l34.133-102.4C496.64,238.933,512,254.293,512,273.067z"/>
</g>
<g>
	<rect y="307.2" style="fill:#A5C6E3;" width="68.267" height="180.907"/>
	<rect x="443.733" y="307.2" style="fill:#A5C6E3;" width="68.267" height="180.907"/>
</g>
<polygon style="fill:#1D71B8;" points="409.6,273.067 443.733,512 477.867,512 477.867,307.2 "/>
<g>
	<polygon style="fill:#4A8DC6;" points="443.733,273.067 443.733,512 341.333,512 307.2,273.067  "/>
	<polygon style="fill:#4A8DC6;" points="204.8,273.067 170.667,512 34.133,512 34.133,488.107 34.133,307.2  "/>
</g>
<polygon style="fill:#FCD999;" points="477.867,238.933 477.867,307.2 443.733,307.2 409.6,273.067 443.733,238.933 "/>
<rect x="34.133" y="238.933" style="fill:#FEECCC;" width="409.6" height="68.267"/>
<path style="fill:#A5C6E3;" d="M307.2,273.067h-34.133L307.2,512h34.133V307.2C341.333,288.427,325.973,273.067,307.2,273.067z"/>
<path style="fill:#D2E3F1;" d="M307.2,307.2V512H170.667V307.2c0-18.773,15.36-34.133,34.133-34.133h68.267  C291.84,273.067,307.2,288.427,307.2,307.2z"/>
<polygon style="fill:#4A8DC6;" points="273.067,147.911 273.067,204.8 238.933,204.8 216.178,176.356 238.933,147.911 "/>
<rect x="170.667" y="147.911" style="fill:#185E98;" width="68.267" height="56.889"/>
<circle style="fill:#A5C6E3;" cx="256" cy="426.667" r="8.533"/>
<g>
	<circle style="fill:#4A8DC6;" cx="375.467" cy="204.8" r="8.533"/>
	<circle style="fill:#4A8DC6;" cx="375.467" cy="170.667" r="8.533"/>
</g>
<path style="fill:#0E3759;" d="M256,324.267v68.267c18.853,0,34.133-15.28,34.133-34.133  C290.133,339.547,274.853,324.267,256,324.267z"/>
<path style="fill:#185E98;" d="M256,324.267c6.281,0,11.378,15.28,11.378,34.133c0,18.853-5.097,34.133-11.378,34.133  c-18.853,0-34.133-15.28-34.133-34.133C221.867,339.547,237.147,324.267,256,324.267z"/>
<g>
	<path style="fill:#1D71B8;" d="M136.533,486.4c-4.713,0-8.533-3.82-8.533-8.533V341.333c0-4.714,3.821-8.533,8.533-8.533   s8.533,3.819,8.533,8.533v136.533C145.067,482.581,141.246,486.4,136.533,486.4z"/>
	<path style="fill:#1D71B8;" d="M102.4,486.4c-4.713,0-8.533-3.82-8.533-8.533V341.333c0-4.714,3.821-8.533,8.533-8.533   c4.713,0,8.533,3.819,8.533,8.533v136.533C110.933,482.581,107.113,486.4,102.4,486.4z"/>
	<path style="fill:#1D71B8;" d="M68.267,486.4c-4.713,0-8.533-3.82-8.533-8.533V341.333c0-4.714,3.821-8.533,8.533-8.533   c4.713,0,8.533,3.819,8.533,8.533v136.533C76.8,482.581,72.979,486.4,68.267,486.4z"/>
	<path style="fill:#1D71B8;" d="M375.467,486.4c-4.714,0-8.533-3.82-8.533-8.533V341.333c0-4.714,3.82-8.533,8.533-8.533   S384,336.62,384,341.333v136.533C384,482.581,380.18,486.4,375.467,486.4z"/>
	<path style="fill:#1D71B8;" d="M409.6,486.4c-4.714,0-8.533-3.82-8.533-8.533V341.333c0-4.714,3.82-8.533,8.533-8.533   c4.714,0,8.533,3.819,8.533,8.533v136.533C418.133,482.581,414.314,486.4,409.6,486.4z"/>
	<path style="fill:#1D71B8;" d="M443.733,486.4c-4.714,0-8.533-3.82-8.533-8.533V341.333c0-4.714,3.82-8.533,8.533-8.533   c4.714,0,8.533,3.819,8.533,8.533v136.533C452.267,482.581,448.447,486.4,443.733,486.4z"/>
</g>
<g>
</g>
<g>
</g>
<g>
</g>
<g>
</g>
<g>
</g>
<g>
</g>
<g>
</g>
<g>
</g>
<g>
</g>
<g>
</g>
<g>
</g>
<g>
</g>
<g>
</g>
<g>
</g>
<g>
</g>
</svg>
