<?xml version="1.0" encoding="iso-8859-1"?>
<!-- Generator: Adobe Illustrator 19.0.0, SVG Export Plug-In . SVG Version: 6.00 Build 0)  -->
<svg xmlns="http://www.w3.org/2000/svg" xmlns:xlink="http://www.w3.org/1999/xlink" version="1.1" id="Layer_1" x="0px" y="0px" viewBox="0 0 512 512" style="enable-background:new 0 0 512 512;" xml:space="preserve">
<polygon style="fill:#134A79;" points="444.284,429.419 444.284,445.935 382.624,445.935 360.602,429.419 "/>
<g>
	<path style="fill:#1D71B8;" d="M450.466,495.484h8.66l-93.121-186.242l16.619-3.693l94.968,189.935h16.918   c4.562,0,8.258,3.697,8.258,8.258c0,4.561-3.696,8.258-8.258,8.258h-44.043c-4.562,0-8.258-3.697-8.258-8.258   C442.208,499.181,445.906,495.484,450.466,495.484z"/>
	<polygon style="fill:#1D71B8;" points="67.716,429.419 67.716,445.935 129.376,445.935 151.398,429.419  "/>
</g>
<path style="fill:#4A8DC6;" d="M61.534,495.484h-8.66l93.121-186.242l-16.619-3.693L34.409,495.484H17.491  c-4.562,0-8.258,3.697-8.258,8.258c0,4.561,3.696,8.258,8.258,8.258h44.043c4.562,0,8.258-3.697,8.258-8.258  C69.792,499.181,66.094,495.484,61.534,495.484z"/>
<g>
	<path style="fill:#134A79;" d="M256,0c-4.562,0-8.258,3.697-8.258,8.258v33.138h16.516V8.258C264.258,3.697,260.562,0,256,0z"/>
	<polygon style="fill:#134A79;" points="305.548,30.28 283.527,74.323 233.979,96.344 272.516,30.28  "/>
</g>
<polygon style="fill:#77AAD4;" points="129.376,118.366 129.376,261.505 195.441,305.548 228.473,189.935 195.441,74.323 "/>
<polygon style="fill:#4A8DC6;" points="316.559,74.323 316.559,305.548 382.624,261.505 382.624,118.366 "/>
<polygon style="fill:#77AAD4;" points="349.591,118.366 349.591,261.505 316.559,305.548 261.505,189.935 316.559,74.323 "/>
<polygon style="fill:#1D71B8;" points="272.516,30.28 265.172,74.323 246.823,96.344 228.473,74.323 206.452,30.28 "/>
<polygon style="fill:#D2E3F1;" points="195.441,74.323 195.441,195.441 256,228.473 316.559,195.441 316.559,74.323 "/>
<polygon style="fill:#A5C6E3;" points="195.441,195.441 195.441,272.516 256,305.548 316.559,272.516 316.559,195.441 "/>
<rect x="195.441" y="272.516" style="fill:#D2E3F1;" width="121.118" height="66.065"/>
<polygon style="fill:#F9B233;" points="382.624,305.548 382.624,445.935 349.591,445.935 305.548,371.613 349.591,305.548 "/>
<rect x="129.376" y="305.548" style="fill:#FBC566;" width="220.215" height="140.387"/>
<path style="fill:#FA9647;" d="M256,107.355v55.054c15.206,0,27.527-12.321,27.527-27.527  C283.527,119.687,271.206,107.355,256,107.355z"/>
<path style="fill:#F9B233;" d="M256,107.355c3.039,0,5.505,12.332,5.505,27.527c0,15.206-2.466,27.527-5.505,27.527  c-15.206,0-27.527-12.321-27.527-27.527C228.473,119.687,240.794,107.355,256,107.355z"/>
<path style="fill:#134A79;" d="M294.538,297.29c-4.562,0-8.258,3.697-8.258,8.258v24.774H225.72v-24.774  c0-4.561-3.696-8.258-8.258-8.258c-4.562,0-8.258,3.697-8.258,8.258v198.194c0,4.561,3.696,8.258,8.258,8.258  c4.562,0,8.258-3.697,8.258-8.258v-24.774h60.559v24.774c0,4.561,3.696,8.258,8.258,8.258c4.562,0,8.258-3.697,8.258-8.258V305.548  C302.796,300.988,299.099,297.29,294.538,297.29z M225.72,379.871h60.559v16.516H225.72V379.871z M225.72,412.903h60.559v16.516  H225.72V412.903z M286.28,346.839v16.516H225.72v-16.516H286.28z M225.72,462.452v-16.516h60.559v16.516H225.72z"/>
<g>
</g>
<g>
</g>
<g>
</g>
<g>
</g>
<g>
</g>
<g>
</g>
<g>
</g>
<g>
</g>
<g>
</g>
<g>
</g>
<g>
</g>
<g>
</g>
<g>
</g>
<g>
</g>
<g>
</g>
</svg>
