<?xml version="1.0" encoding="iso-8859-1"?>
<!-- Generator: Adobe Illustrator 19.0.0, SVG Export Plug-In . SVG Version: 6.00 Build 0)  -->
<svg xmlns="http://www.w3.org/2000/svg" xmlns:xlink="http://www.w3.org/1999/xlink" version="1.1" id="Layer_1" x="0px" y="0px" viewBox="0 0 512 512" style="enable-background:new 0 0 512 512;" xml:space="preserve">
<g>
	<rect x="376.627" y="128.649" style="fill:#A5C6E3;" width="17.067" height="221.377"/>
	<polygon style="fill:#A5C6E3;" points="385.161,287.523 385.161,384.769 326.269,384.769 349.025,287.523  "/>
</g>
<rect x="312.889" y="287.528" style="fill:#D2E3F1;" width="36.136" height="97.246"/>
<polygon style="fill:#4A8DC6;" points="256,339.258 256,384.769 221.867,384.769 199.111,316.502 "/>
<rect x="96.711" y="316.507" style="fill:#77AAD4;" width="125.156" height="68.267"/>
<g>
	<path style="fill:#FBC566;" d="M153.6,190.209v119.888H96.711l22.756-119.888c0-9.421,7.646-17.067,17.067-17.067   S153.6,180.788,153.6,190.209z"/>
	<polygon style="fill:#FBC566;" points="256,275.963 256,339.258 221.867,339.258 199.111,307.611 221.867,275.963  "/>
</g>
<rect x="96.711" y="275.968" style="fill:#FCD999;" width="125.156" height="63.295"/>
<path style="fill:#FA9647;" d="M267.378,267.435H108.089v17.067h159.289c4.713,0,8.533-3.821,8.533-8.533  S272.09,267.435,267.378,267.435z"/>
<rect x="85.333" y="190.214" style="fill:#A5C6E3;" width="34.133" height="194.56"/>
<g>
	<path style="fill:#77AAD4;" d="M474.206,62.356c-3.331-3.333-8.735-3.333-12.067,0l-58.96,58.96l12.067,12.067l58.96-58.96   C477.539,71.092,477.539,65.688,474.206,62.356z"/>
	<path style="fill:#77AAD4;" d="M51.2,147.542H28.444c-4.713,0-8.533,3.821-8.533,8.533s3.821,8.533,8.533,8.533H51.2   c14.116,0,25.6,11.484,25.6,25.6v149.049h17.067V190.209C93.867,166.682,74.727,147.542,51.2,147.542z"/>
</g>
<path style="fill:#A5C6E3;" d="M321.422,205.569v-32.427c0-4.713-3.821-8.533-8.533-8.533s-8.533,3.821-8.533,8.533v32.427  c-4.713,0-8.533,3.821-8.533,8.533s3.821,8.533,8.533,8.533v173.511h17.067V222.636c4.713,0,8.533-3.821,8.533-8.533  S326.135,205.569,321.422,205.569z"/>
<polygon style="fill:#FBC566;" points="365.798,373.391 365.798,407.525 308.909,407.525 286.153,390.458 308.909,373.391 "/>
<rect x="160.996" y="373.396" style="fill:#FCD999;" width="147.911" height="34.133"/>
<path style="fill:#0E3759;" d="M85.333,305.125v170.667c47.127,0,85.333-38.207,85.333-85.333S132.46,305.125,85.333,305.125z"/>
<path style="fill:#185E98;" d="M85.333,305.125c34.566,0,62.578,38.207,62.578,85.333s-28.012,85.333-62.578,85.333  C38.207,475.791,0,437.585,0,390.458S38.207,305.125,85.333,305.125z"/>
<path style="fill:#A5C6E3;" d="M85.333,350.636v79.644c21.959,0,39.822-17.863,39.822-39.822S107.292,350.636,85.333,350.636z"/>
<path style="fill:#D2E3F1;" d="M85.333,350.636c3.14,0,5.689,17.863,5.689,39.822s-2.549,39.822-5.689,39.822  c-21.959,0-39.822-17.863-39.822-39.822S63.374,350.636,85.333,350.636z"/>
<path style="fill:#0E3759;" d="M426.667,305.125v170.667c47.127,0,85.333-38.207,85.333-85.333S473.793,305.125,426.667,305.125z"/>
<path style="fill:#185E98;" d="M426.667,305.125c34.566,0,62.578,38.207,62.578,85.333s-28.012,85.333-62.578,85.333  c-47.127,0-85.333-38.207-85.333-85.333S379.54,305.125,426.667,305.125z"/>
<path style="fill:#A5C6E3;" d="M426.667,350.636v79.644c21.959,0,39.822-17.863,39.822-39.822S448.626,350.636,426.667,350.636z"/>
<path style="fill:#D2E3F1;" d="M426.667,350.636c3.14,0,5.689,17.863,5.689,39.822s-2.549,39.822-5.689,39.822  c-21.959,0-39.822-17.863-39.822-39.822S404.708,350.636,426.667,350.636z"/>
<path style="fill:#A5C6E3;" d="M476.218,148.843l-91.056,2.559c31.151,31.151,77.179,38.336,115.193,21.577L476.218,148.843z"/>
<path style="fill:#D2E3F1;" d="M363.584,36.209l112.634,112.634c-34.265,20.507-70.903,22.712-91.056,2.559  C354.009,120.251,346.825,74.223,363.584,36.209z"/>
<g>
</g>
<g>
</g>
<g>
</g>
<g>
</g>
<g>
</g>
<g>
</g>
<g>
</g>
<g>
</g>
<g>
</g>
<g>
</g>
<g>
</g>
<g>
</g>
<g>
</g>
<g>
</g>
<g>
</g>
</svg>
