<?xml version="1.0" encoding="iso-8859-1"?>
<!-- Generator: Adobe Illustrator 19.0.0, SVG Export Plug-In . SVG Version: 6.00 Build 0)  -->
<svg xmlns="http://www.w3.org/2000/svg" xmlns:xlink="http://www.w3.org/1999/xlink" version="1.1" id="Layer_1" x="0px" y="0px" viewBox="0 0 512.001 512.001" style="enable-background:new 0 0 512.001 512.001;" xml:space="preserve">
<path style="fill:#1D71B8;" d="M25.745,25.745C-18.476,69.966-3.776,161.106,54.877,256L256.001,54.878  C161.106-3.776,69.966-18.476,25.745,25.745z"/>
<path style="fill:#134A79;" d="M457.124,256.001L256.001,457.124c94.895,58.653,186.033,73.353,230.255,29.132  C530.477,442.034,515.777,350.895,457.124,256.001z"/>
<path style="fill:#185E98;" d="M486.256,25.745C442.034-18.476,350.895-3.776,256.001,54.878l201.123,201.123  C515.777,161.106,530.477,69.966,486.256,25.745z"/>
<path style="fill:#4A8DC6;" d="M54.878,256.001c-58.653,94.895-73.353,186.033-29.132,230.255s135.361,29.521,230.255-29.132  L54.878,256.001z"/>
<path style="fill:#77AAD4;" d="M457.124,256.001c-23.213-37.557-53.305-75.702-89.363-111.759s-74.203-66.15-111.759-89.363  c-37.557,23.213-75.702,53.304-111.759,89.363s-66.15,74.203-89.363,111.759c23.213,37.557,53.305,75.702,89.363,111.759  s74.203,66.15,111.759,89.363c37.557-23.213,75.702-53.304,111.759-89.363S433.909,293.557,457.124,256.001z"/>
<path style="fill:#FB7A5B;" d="M264.534,182.044c0-4.713-3.821-8.533-8.533-8.533c-4.713,0-8.533,3.821-8.533,8.533l0.001,47.694  l-28.034-38.585c-2.769-3.813-8.106-4.658-11.919-1.888c-3.813,2.771-4.658,8.107-1.888,11.919l28.034,38.585l-45.36-14.738  c-4.481-1.455-9.296,0.997-10.752,5.478s0.997,9.297,5.478,10.752l45.36,14.738l-45.36,14.739c-4.481,1.458-6.935,6.27-5.478,10.752  c1.456,4.483,6.27,6.935,10.752,5.478l45.36-14.739l-28.034,38.586c-2.768,3.813-1.924,9.149,1.889,11.919  c3.813,2.771,9.149,1.925,11.919-1.888l43.392-59.725l1.709-5.254L264.534,182.044z"/>
<path style="fill:#FD5F6E;" d="M328.976,270.739l-45.361-14.738l45.358-14.738c4.482-1.456,6.936-6.27,5.478-10.752  c-1.455-4.483-6.274-6.935-10.752-5.478L278.34,239.77l28.033-38.585c2.771-3.813,1.925-9.149-1.888-11.919  c-3.81-2.768-9.148-1.926-11.919,1.888l-43.394,59.728l-1.704,5.251l-0.001,73.824c0,4.713,3.821,8.533,8.533,8.533  s8.533-3.821,8.533-8.533l0.001-47.693l28.035,38.586c2.771,3.81,8.107,4.657,11.919,1.888c3.813-2.771,4.658-8.107,1.888-11.92  l-28.035-38.586l45.361,14.739c4.481,1.455,9.296-0.997,10.752-5.478C335.911,277.009,333.458,272.195,328.976,270.739z"/>
<path style="fill:#FA9647;" d="M256.001,193.422v125.157c34.562,0,62.578-28.017,62.578-62.578S290.561,193.422,256.001,193.422z"/>
<path style="fill:#F9B233;" d="M256.001,193.422c-34.56,0-62.578,28.017-62.578,62.578s28.018,62.578,62.578,62.578  c15.71,0,28.445-28.017,28.445-62.578S271.71,193.422,256.001,193.422z"/>
<path style="fill:#FD5F6E;" d="M144.24,110.107l-11.378,34.134l11.378,34.134c18.852,0,34.134-15.283,34.134-34.134  C178.374,125.389,163.092,110.107,144.24,110.107z"/>
<path style="fill:#FB7A5B;" d="M110.107,144.24c0,18.851,15.282,34.134,34.134,34.134v-68.267  C125.389,110.107,110.107,125.389,110.107,144.24z"/>
<g>
	<circle style="fill:#FFFFFF;" cx="409.946" cy="102.06" r="8.533"/>
	<circle style="fill:#FFFFFF;" cx="444.08" cy="67.928" r="8.533"/>
</g>
<path style="fill:#FF2796;" d="M144.24,327.938l-13.275,39.823l13.275,39.823c21.993,0,39.823-17.829,39.823-39.823  S166.234,327.938,144.24,327.938z"/>
<path style="fill:#FE4382;" d="M104.418,367.76c0,21.993,17.829,39.823,39.823,39.823v-79.645  C122.247,327.938,104.418,345.767,104.418,367.76z"/>
<g>
	<circle style="fill:#FFFFFF;" cx="67.928" cy="444.069" r="8.533"/>
	<circle style="fill:#FFFFFF;" cx="409.946" cy="409.946" r="8.533"/>
	<circle style="fill:#FFFFFF;" cx="444.08" cy="444.08" r="8.533"/>
	<circle style="fill:#FFFFFF;" cx="67.929" cy="67.925" r="8.533"/>
</g>
<g>
</g>
<g>
</g>
<g>
</g>
<g>
</g>
<g>
</g>
<g>
</g>
<g>
</g>
<g>
</g>
<g>
</g>
<g>
</g>
<g>
</g>
<g>
</g>
<g>
</g>
<g>
</g>
<g>
</g>
</svg>
