<svg id="Capa_1" enable-background="new 0 0 512 512" height="512" viewBox="0 0 512 512" width="512" xmlns="http://www.w3.org/2000/svg"><g><path d="m10.302 197.85h54.218v-41.626h-54.218c-5.69 0-10.302 4.612-10.302 10.301v21.022c0 5.69 4.612 10.303 10.302 10.303z" fill="#ffe07d"/><path d="m10.302 355.902h54.218v41.626h-54.218c-5.69 0-10.302-4.612-10.302-10.302v-21.022c0-5.689 4.612-10.302 10.302-10.302z" fill="#ffe07d"/><path d="m10.302 297.689h54.218v-41.626h-54.218c-5.69 0-10.302 4.612-10.302 10.302v21.022c0 5.69 4.612 10.302 10.302 10.302z" fill="#ffe07d"/><path d="m501.698 197.85h-54.219v-41.626h54.219c5.69 0 10.302 4.612 10.302 10.302v21.022c0 5.689-4.613 10.302-10.302 10.302z" fill="#ffe07d"/><path d="m501.698 355.902h-54.219v41.626h54.219c5.69 0 10.302-4.612 10.302-10.302v-21.022c0-5.689-4.613-10.302-10.302-10.302z" fill="#ffe07d"/><path d="m501.698 297.689h-54.219v-41.626h54.219c5.69 0 10.302 4.612 10.302 10.302v21.022c0 5.69-4.613 10.302-10.302 10.302z" fill="#ffe07d"/><path d="m297.626 156.224h66.602v41.626h-66.602z" fill="#ffd064" transform="matrix(-1 0 0 -1 661.853 354.073)"/><path d="m297.626 355.902h66.602v41.626h-66.602z" fill="#ffd064" transform="matrix(-1 0 0 -1 661.853 753.431)"/><path d="m297.626 256.063h66.602v41.626h-66.602z" fill="#ffd064" transform="matrix(-1 0 0 -1 661.853 553.752)"/><path d="m147.772 156.224h66.602v41.626h-66.602z" fill="#ffd064" transform="matrix(-1 0 0 -1 362.146 354.073)"/><path d="m147.772 355.902h66.602v41.626h-66.602z" fill="#ffd064" transform="matrix(-1 0 0 -1 362.146 753.431)"/><path d="m147.772 256.063h66.602v41.626h-66.602z" fill="#ffd064" transform="matrix(-1 0 0 -1 362.146 553.752)"/><path d="m214.374 437.178v-330.209c0-23.341 19.101-42.887 42.438-42.44 22.615.433 40.814 18.9 40.814 41.618v331.031c0 5.69-4.612 10.302-10.302 10.302h-62.648c-5.69-.001-10.302-4.613-10.302-10.302z" fill="#df75a5"/><path d="m364.227 437.178v-330.209c0-23.341 19.101-42.887 42.438-42.44 22.615.433 40.814 18.9 40.814 41.618v331.031c0 5.69-4.612 10.302-10.302 10.302h-62.648c-5.689-.001-10.302-4.613-10.302-10.302z" fill="#a2f4c1"/><path d="m406.085 64.521c-4.434-.024-8.707.647-12.72 1.908 16.888 5.304 29.138 21.079 29.138 39.717v341.333h14.674c5.69 0 10.302-4.612 10.302-10.302v-330.251c0-23.028-18.366-42.279-41.394-42.405z" fill="#86f1a7"/><path d="m256.232 64.521c-4.434-.024-8.707.647-12.72 1.908 16.888 5.304 29.138 21.079 29.138 39.717v341.333h14.674c5.69 0 10.302-4.612 10.302-10.302v-330.251c0-23.028-18.367-42.279-41.394-42.405z" fill="#dd5790"/><path d="m147.772 437.178v-330.209c0-23.341-19.101-42.887-42.438-42.44-22.615.433-40.814 18.9-40.814 41.618v331.031c0 5.69 4.612 10.302 10.302 10.302h62.648c5.69-.001 10.302-4.613 10.302-10.302z" fill="#e7a561"/><path d="m106.378 64.521c-4.434-.024-8.707.647-12.72 1.908 16.888 5.304 29.138 21.079 29.138 39.717v341.333h14.674c5.69 0 10.302-4.612 10.302-10.302v-330.251c0-23.028-18.367-42.279-41.394-42.405z" fill="#e49542"/><g fill="#30579d"><circle cx="405.853" cy="177.037" r="10.406"/><circle cx="405.853" cy="276.876" r="10.406"/><circle cx="405.853" cy="376.715" r="10.406"/><circle cx="256" cy="177.037" r="10.406"/><circle cx="256" cy="276.876" r="10.406"/><circle cx="256" cy="376.715" r="10.406"/><circle cx="106.146" cy="177.037" r="10.406"/><circle cx="106.146" cy="276.876" r="10.406"/><circle cx="106.146" cy="376.715" r="10.406"/></g></g></svg>