<svg id="Capa_1" enable-background="new 0 0 512 512" height="512" viewBox="0 0 512 512" width="512" xmlns="http://www.w3.org/2000/svg"><g><g><path d="m297.626 93.659h-83.252c-11.495 0-20.813 9.318-20.813 20.813v42.667h124.878v-42.667c0-11.495-9.318-20.813-20.813-20.813z" fill="#ac80dd"/><path d="m193.561 447.48v43.707c0 11.495 9.318 20.813 20.813 20.813h83.252c11.495 0 20.813-9.318 20.813-20.813v-43.707z" fill="#ac80dd"/><g fill="#9d66d5"><path d="m298.667 114.472v42.667h19.772v-42.667c0-11.495-9.318-20.813-20.813-20.813h-19.772c11.494 0 20.813 9.318 20.813 20.813z"/><path d="m298.667 448.52v42.667c0 11.495-9.318 20.813-20.813 20.813h19.772c11.495 0 20.813-9.318 20.813-20.813v-42.667z"/></g><path d="m193.561 364.231v84.289h124.878v-291.386h-124.878v171.04z" fill="#dddaec"/><path d="m298.667 157.138h19.772v291.382h-19.772z" fill="#beb9dd"/><path d="m226.862 386.081v-166.504c0-16.093 13.046-29.138 29.138-29.138 16.093 0 29.138 13.046 29.138 29.138v166.504c0 16.093-13.046 29.138-29.138 29.138-16.093.001-29.138-13.045-29.138-29.138z" fill="#ac80dd"/><path d="m256 0c-6.215 0-11.732 3.977-13.697 9.872l-27.929 83.786h83.252l-27.929-83.786c-1.965-5.895-7.482-9.872-13.697-9.872z" fill="#ac80dd"/><path d="m221.312 72.846-6.938 20.813h83.252l-6.938-20.813z" fill="#9d66d5"/></g><g><path d="m455.805 93.659h-83.252c-11.495 0-20.813 9.318-20.813 20.813v42.667h124.878v-42.667c0-11.495-9.318-20.813-20.813-20.813z" fill="#df75a5"/><path d="m351.74 447.48v43.707c0 11.495 9.318 20.813 20.813 20.813h83.252c11.495 0 20.813-9.318 20.813-20.813v-43.707z" fill="#df75a5"/><g fill="#dd5790"><path d="m456.846 114.472v42.667h19.772v-42.667c0-11.495-9.318-20.813-20.813-20.813h-19.772c11.494 0 20.813 9.318 20.813 20.813z"/><path d="m456.846 448.52v42.667c0 11.495-9.318 20.813-20.813 20.813h19.772c11.495 0 20.813-9.318 20.813-20.813v-42.667z"/></g><path d="m268.488 240.39h291.382v124.878h-291.382z" fill="#f9c6da" transform="matrix(0 1 -1 0 717.008 -111.35)"/><path d="m456.846 157.138h19.772v291.382h-19.772z" fill="#efa5c3"/><path d="m385.041 386.081v-166.504c0-16.093 13.046-29.138 29.138-29.138 16.093 0 29.138 13.046 29.138 29.138v166.504c0 16.093-13.046 29.138-29.138 29.138-16.093.001-29.138-13.045-29.138-29.138z" fill="#df75a5"/><path d="m414.179 0c-6.215 0-11.732 3.977-13.697 9.872l-27.929 83.786h83.252l-27.929-83.786c-1.965-5.895-7.482-9.872-13.697-9.872z" fill="#df75a5"/><path d="m379.491 72.846-6.938 20.813h83.252l-6.938-20.813z" fill="#dd5790"/></g><g><path d="m139.447 93.659h-83.252c-11.495 0-20.813 9.318-20.813 20.813v42.667h124.878v-42.667c0-11.495-9.318-20.813-20.813-20.813z" fill="#e7a561"/><path d="m35.382 447.48v43.707c0 11.495 9.318 20.813 20.813 20.813h83.252c11.495 0 20.813-9.318 20.813-20.813v-43.707z" fill="#e7a561"/><g fill="#e49542"><path d="m140.488 114.472v42.667h19.772v-42.667c0-11.495-9.318-20.813-20.813-20.813h-19.772c11.495 0 20.813 9.318 20.813 20.813z"/><path d="m140.488 448.52v42.667c0 11.495-9.318 20.813-20.813 20.813h19.772c11.495 0 20.813-9.318 20.813-20.813v-42.667z"/></g><path d="m-47.87 240.39h291.382v124.878h-291.382z" fill="#f6e7c6" transform="matrix(0 1 -1 0 400.65 205.008)"/><path d="m140.488 157.138h19.772v291.382h-19.772z" fill="#f4d8a5"/><path d="m68.683 386.081v-166.504c0-16.093 13.046-29.138 29.138-29.138 16.093 0 29.138 13.046 29.138 29.138v166.504c0 16.093-13.046 29.138-29.138 29.138-16.092.001-29.138-13.045-29.138-29.138z" fill="#e7a561"/><path d="m97.821 0c-6.215 0-11.732 3.977-13.697 9.872l-27.929 83.787h83.252l-27.929-83.787c-1.965-5.895-7.482-9.872-13.697-9.872z" fill="#e7a561"/><path d="m63.133 72.846-6.938 20.813h83.252l-6.938-20.813z" fill="#e49542"/></g></g></svg>