<?xml version="1.0" encoding="iso-8859-1"?>
<!-- Generator: Adobe Illustrator 19.0.0, SVG Export Plug-In . SVG Version: 6.00 Build 0)  -->
<svg xmlns="http://www.w3.org/2000/svg" xmlns:xlink="http://www.w3.org/1999/xlink" version="1.1" id="Layer_1" x="0px" y="0px" viewBox="0 0 512 512" style="enable-background:new 0 0 512 512;" xml:space="preserve">
<rect x="401.067" y="196.267" style="fill:#0E3759;" width="17.067" height="119.467"/>
<rect x="93.867" y="196.267" style="fill:#092339;" width="17.067" height="119.467"/>
<polygon style="fill:#4A8DC6;" points="113.778,238.933 91.022,256 113.778,273.067 489.244,273.067 489.244,238.933 "/>
<rect x="22.756" y="238.933" style="fill:#77AAD4;" width="91.022" height="34.133"/>
<rect x="480.711" y="196.267" style="fill:#092339;" width="17.067" height="119.467"/>
<rect x="14.222" y="196.267" style="fill:#0E3759;" width="17.067" height="119.467"/>
<polygon style="fill:#77AAD4;" points="244.622,278.756 244.622,358.4 290.133,347.022 290.133,278.756 "/>
<polygon style="fill:#A5C6E3;" points="221.867,278.756 221.867,347.022 256,358.4 256,278.756 "/>
<polygon style="fill:#4A8DC6;" points="256,347.022 244.622,392.533 278.756,381.156 290.133,347.022 "/>
<polygon style="fill:#77AAD4;" points="221.867,347.022 233.244,381.156 256,392.533 256,347.022 "/>
<g>
	<rect x="233.244" y="153.6" style="fill:#A5C6E3;" width="45.511" height="91.022"/>
	<path style="fill:#A5C6E3;" d="M347.022,221.867h-34.133v68.267h34.133c9.387,0,17.067-7.68,17.067-17.067v-34.133   C364.089,229.547,356.409,221.867,347.022,221.867z"/>
</g>
<g>
	<polygon style="fill:#0E3759;" points="318.578,381.156 318.578,415.289 284.444,415.289 261.689,398.222 284.444,381.156  "/>
	<polygon style="fill:#0E3759;" points="318.578,130.844 318.578,164.978 284.444,164.978 261.689,147.911 284.444,130.844  "/>
</g>
<g>
	<rect x="193.422" y="381.156" style="fill:#185E98;" width="91.022" height="34.133"/>
	<rect x="193.422" y="130.844" style="fill:#185E98;" width="91.022" height="34.133"/>
	<rect y="34.133" style="fill:#185E98;" width="45.511" height="170.667"/>
	<rect y="307.2" style="fill:#185E98;" width="45.511" height="170.667"/>
	<rect x="386.844" y="307.2" style="fill:#185E98;" width="45.511" height="170.667"/>
	<rect x="386.844" y="34.133" style="fill:#185E98;" width="45.511" height="170.667"/>
</g>
<g>
	<rect x="79.644" y="307.2" style="fill:#0E3759;" width="45.511" height="170.667"/>
	<rect x="79.644" y="34.133" style="fill:#0E3759;" width="45.511" height="170.667"/>
	<rect x="466.489" y="307.2" style="fill:#0E3759;" width="45.511" height="170.667"/>
	<rect x="466.489" y="34.133" style="fill:#0E3759;" width="45.511" height="170.667"/>
</g>
<path style="fill:#D2E3F1;" d="M312.889,221.867H164.978c-9.387,0-17.067,7.68-17.067,17.067v34.133  c0,9.387,7.68,17.067,17.067,17.067h147.911c9.387,0,17.067-7.68,17.067-17.067v-34.133  C329.956,229.547,322.276,221.867,312.889,221.867z"/>
<circle style="fill:#092339;" cx="329.956" cy="256" r="8.533"/>
<g>
</g>
<g>
</g>
<g>
</g>
<g>
</g>
<g>
</g>
<g>
</g>
<g>
</g>
<g>
</g>
<g>
</g>
<g>
</g>
<g>
</g>
<g>
</g>
<g>
</g>
<g>
</g>
<g>
</g>
</svg>
