<svg id="Capa_1" enable-background="new 0 0 512 512" height="512" viewBox="0 0 512 512" width="512" xmlns="http://www.w3.org/2000/svg"><g><path d="m125.919 84.293h95.74v-63.48c0-11.495-9.319-20.813-20.813-20.813h-54.114c-11.495 0-20.813 9.318-20.813 20.813z" fill="#df75a5"/><g fill="#dd5790"><path d="m125.919 63.48h95.74v20.813h-95.74z"/><path d="m449.897 478.699h-22.19v-176.91h14.393c15.149 0 28.112 10.876 30.744 25.794l18.045 102.257c4.499 25.488-15.109 48.859-40.992 48.859z"/><path d="m62.103 478.699h22.19v-176.91h-14.393c-15.149 0-28.112 10.876-30.744 25.794l-18.046 102.256c-4.498 25.489 15.11 48.86 40.993 48.86z"/></g><path d="m416.728 211.252h-321.456l-30.245 232.333c-.338 2.594-.507 5.206-.507 7.822 0 33.465 27.128 60.593 60.593 60.593h261.773c33.465 0 60.593-27.128 60.593-60.593 0-2.615-.169-5.228-.507-7.822z" fill="#ac80dd"/><path d="m413.951 447.888-11.991-92.578c-1.344-10.374-10.179-18.139-20.641-18.139h-250.638c-10.461 0-19.297 7.765-20.641 18.139l-11.991 92.578c-.151 1.161-.228 2.346-.228 3.519 0 15.049 12.243 27.292 27.292 27.292h261.773c15.049 0 27.292-12.243 27.292-27.292.001-1.173-.076-2.358-.227-3.519z" fill="#a2f4c1"/><path d="m413.951 447.888-11.991-92.578c-1.344-10.374-10.179-18.139-20.641-18.139h-37.463c10.461 0 19.297 7.765 20.641 18.139l11.991 92.578c.151 1.161.228 2.346.228 3.519 0 15.049-12.243 27.292-27.292 27.292h37.463c15.049 0 27.292-12.243 27.292-27.292 0-1.173-.077-2.358-.228-3.519z" fill="#86f1a7"/><path d="m88.761 261.271c5.693 1.997 11.748 3.054 17.955 3.054h298.569c6.207 0 12.262-1.057 17.955-3.054l-6.511-50.019h-321.457z" fill="#9d66d5"/><path d="m435.906 204.128-18.814-94.699c-2.903-14.611-15.724-25.136-30.621-25.136h-260.941c-14.897 0-27.718 10.525-30.621 25.136l-18.814 94.699c-3.836 19.307 10.936 37.303 30.621 37.303h298.57c19.684 0 34.456-17.996 30.62-37.303z" fill="#ffe07d"/><path d="m435.906 204.128-18.814-94.699c-2.903-14.611-15.724-25.136-30.621-25.136h-25.534c14.897 0 27.718 10.525 30.621 25.136l18.814 94.699c3.836 19.307-10.936 37.303-30.621 37.303h25.534c19.685 0 34.457-17.996 30.621-37.303z" fill="#ffd064"/><path d="m386.081 84.293h-95.74v-63.48c0-11.495 9.319-20.813 20.813-20.813h54.114c11.495 0 20.813 9.318 20.813 20.813z" fill="#df75a5"/><path d="m290.341 63.48h95.74v20.813h-95.74z" fill="#dd5790"/><path d="m308.033 196.163h-104.066c-5.747 0-10.407-4.659-10.407-10.406v-45.789c0-5.747 4.659-10.407 10.407-10.407h104.065c5.747 0 10.407 4.659 10.407 10.407v45.789c0 5.746-4.659 10.406-10.406 10.406z" fill="#e4fbef"/><g><path d="m326.764 403.173c-4.267 0-7.726-3.459-7.726-7.726v-20.813c0-4.268 3.459-7.726 7.726-7.726s7.726 3.459 7.726 7.726v20.813c0 4.267-3.459 7.726-7.726 7.726z" fill="#dd5790"/></g><g><path d="m349.658 382.36h-187.316c-4.267 0-7.726-3.459-7.726-7.726 0-4.268 3.459-7.726 7.726-7.726h187.317c4.267 0 7.726 3.459 7.726 7.726s-3.459 7.726-7.727 7.726z" fill="#df75a5"/></g></g></svg>