<svg id="Capa_1" enable-background="new 0 0 512 512" height="512" viewBox="0 0 512 512" width="512" xmlns="http://www.w3.org/2000/svg"><g><g><path d="m131.122 276.813h33.301v33.301h-33.301z" fill="#dd5790"/><path d="m164.423 33.301h183.155v124.878h-183.155z" fill="#ac80dd" transform="matrix(-1 0 0 -1 512 191.48)"/><path d="m324.683 33.301h22.894v124.878h-22.894z" fill="#9d66d5" transform="matrix(-1 0 0 -1 672.261 191.48)"/><path d="m120.611 351.74h270.779c5.69 0 10.302-4.612 10.302-10.302v-21.022c0-5.69-4.612-10.302-10.302-10.302h-270.779c-5.69 0-10.302 4.612-10.302 10.302v21.022c0 5.69 4.612 10.302 10.302 10.302z" fill="#ac80dd"/><path d="m376.716 351.74h14.674c5.69 0 10.302-4.612 10.302-10.302v-21.022c0-5.69-4.612-10.302-10.302-10.302h-14.674z" fill="#9d66d5"/><path d="m347.577 276.813h33.301v33.301h-33.301z" fill="#dd5790" transform="matrix(-1 0 0 -1 728.456 586.927)"/><path d="m164.423 193.561h-33.301v-172.852c0-5.69 4.612-10.302 10.302-10.302h12.697c5.69 0 10.302 4.612 10.302 10.302z" fill="#df75a5"/><path d="m131.122 168.586h33.301v24.976h-33.301z" fill="#dd5790"/><path d="m347.577 193.561h33.301v-172.852c0-5.69-4.612-10.302-10.302-10.302h-12.697c-5.69 0-10.302 4.612-10.302 10.302z" fill="#df75a5"/><path d="m347.577 168.586h33.301v24.976h-33.301z" fill="#dd5790"/><path d="m357.879 501.594h12.697c5.69 0 10.302-4.612 10.302-10.302v-139.552h-33.301v139.552c0 5.689 4.613 10.302 10.302 10.302z" fill="#df75a5"/><path d="m347.577 351.74h33.301v24.976h-33.301z" fill="#dd5790" transform="matrix(-1 0 0 -1 728.456 728.455)"/><path d="m154.121 501.594h-12.697c-5.69 0-10.302-4.612-10.302-10.302v-139.552h33.301v139.552c0 5.689-4.612 10.302-10.302 10.302z" fill="#df75a5"/><path d="m131.122 351.74h33.301v24.976h-33.301z" fill="#dd5790" transform="matrix(-1 0 0 -1 295.545 728.455)"/><path d="m239.387 335.127h33.301v183.08h-33.301z" fill="#9d66d5" transform="matrix(0 1 -1 0 682.704 170.629)"/></g><g><path d="m501.594 235.187h-491.187c-5.748 0-10.407-4.659-10.407-10.406v-20.813c0-5.747 4.659-10.407 10.407-10.407h491.187c5.747 0 10.407 4.659 10.407 10.407v20.813c-.001 5.747-4.66 10.406-10.407 10.406z" fill="#f1d59d"/><path d="m43.707 235.187h424.586v41.626h-424.586z" fill="#dab46b"/><path d="m468.293 235.187h33.301v266.406h-33.301z" fill="#f1d59d"/><path d="m10.407 235.187h33.301v266.406h-33.301z" fill="#f1d59d" transform="matrix(-1 0 0 -1 54.114 736.781)"/><g fill="#efcb84"><path d="m468.293 235.187h33.301v22.894h-33.301z"/><path d="m10.407 235.187h33.301v22.894h-33.301z" transform="matrix(-1 0 0 -1 54.114 493.269)"/></g></g></g></svg>