<?xml version="1.0" encoding="iso-8859-1"?>
<!-- Generator: Adobe Illustrator 19.0.0, SVG Export Plug-In . SVG Version: 6.00 Build 0)  -->
<svg xmlns="http://www.w3.org/2000/svg" xmlns:xlink="http://www.w3.org/1999/xlink" version="1.1" id="Layer_1" x="0px" y="0px" viewBox="0 0 512 512" style="enable-background:new 0 0 512 512;" xml:space="preserve">
<g>
	<rect x="317.552" y="243.41" style="fill:#A5C6E3;" width="67.148" height="16.787"/>
	<rect x="127.301" y="243.41" style="fill:#A5C6E3;" width="67.148" height="16.787"/>
</g>
<polygon style="fill:#F9B233;" points="507.803,268.59 440.656,290.973 440.656,212.634 507.803,235.016 "/>
<polygon style="fill:#FBC566;" points="474.23,290.973 373.508,268.59 373.508,235.016 474.23,212.634 "/>
<polygon style="fill:#0E3759;" points="507.803,100.721 507.803,167.869 451.847,190.251 474.23,100.721 "/>
<polygon style="fill:#134A79;" points="474.23,100.721 474.23,167.869 418.273,190.251 440.656,100.721 "/>
<polygon style="fill:#0E3759;" points="440.656,100.721 440.656,167.869 384.699,190.251 407.082,100.721 "/>
<g>
	<polygon style="fill:#134A79;" points="407.082,100.721 407.082,190.251 373.508,167.869 373.508,100.721  "/>
	<polygon style="fill:#134A79;" points="507.803,167.869 507.803,235.016 474.23,235.016 451.847,201.443 474.23,167.869  "/>
</g>
<polygon style="fill:#0E3759;" points="474.23,167.869 474.23,235.016 440.656,235.016 418.273,201.443 440.656,167.869 "/>
<polygon style="fill:#134A79;" points="440.656,167.869 440.656,235.016 407.082,235.016 384.699,201.443 407.082,167.869 "/>
<g>
	<rect x="373.508" y="167.869" style="fill:#0E3759;" width="33.574" height="67.148"/>
	<polygon style="fill:#0E3759;" points="507.803,402.885 507.803,335.738 451.847,313.355 474.23,402.885  "/>
</g>
<polygon style="fill:#134A79;" points="474.23,402.885 474.23,335.738 418.273,313.355 440.656,402.885 "/>
<polygon style="fill:#0E3759;" points="440.656,402.885 440.656,335.738 384.699,313.355 407.082,402.885 "/>
<g>
	<polygon style="fill:#134A79;" points="407.082,402.885 407.082,313.355 373.508,335.738 373.508,402.885  "/>
	<polygon style="fill:#134A79;" points="507.803,335.738 507.803,268.59 474.23,268.59 451.847,302.164 474.23,335.738  "/>
</g>
<polygon style="fill:#0E3759;" points="474.23,335.738 474.23,268.59 440.656,268.59 418.273,302.164 440.656,335.738 "/>
<polygon style="fill:#134A79;" points="440.656,335.738 440.656,268.59 407.082,268.59 384.699,302.164 407.082,335.738 "/>
<rect x="373.508" y="268.59" style="fill:#0E3759;" width="33.574" height="67.148"/>
<polygon style="fill:#F9B233;" points="4.197,268.59 71.344,290.973 71.344,212.634 4.197,235.016 "/>
<polygon style="fill:#FBC566;" points="37.77,290.973 138.492,268.59 138.492,235.016 37.77,212.634 "/>
<polygon style="fill:#0E3759;" points="4.197,100.721 4.197,167.869 60.153,190.251 37.77,100.721 "/>
<polygon style="fill:#134A79;" points="37.77,100.721 37.77,167.869 93.727,190.251 71.344,100.721 "/>
<polygon style="fill:#0E3759;" points="71.344,100.721 71.344,167.869 127.301,190.251 104.918,100.721 "/>
<g>
	<polygon style="fill:#134A79;" points="104.918,100.721 104.918,190.251 138.492,167.869 138.492,100.721  "/>
	<polygon style="fill:#134A79;" points="4.197,167.869 4.197,235.016 37.77,235.016 60.153,201.443 37.77,167.869  "/>
</g>
<polygon style="fill:#0E3759;" points="37.77,167.869 37.77,235.016 71.344,235.016 93.727,201.443 71.344,167.869 "/>
<polygon style="fill:#134A79;" points="71.344,167.869 71.344,235.016 104.918,235.016 127.301,201.443 104.918,167.869 "/>
<g>
	<rect x="104.918" y="167.869" style="fill:#0E3759;" width="33.574" height="67.148"/>
	<polygon style="fill:#0E3759;" points="4.197,402.885 4.197,335.738 60.153,313.355 37.77,402.885  "/>
</g>
<polygon style="fill:#134A79;" points="37.77,402.885 37.77,335.738 93.727,313.355 71.344,402.885 "/>
<polygon style="fill:#0E3759;" points="71.344,402.885 71.344,335.738 127.301,313.355 104.918,402.885 "/>
<g>
	<polygon style="fill:#134A79;" points="104.918,402.885 104.918,313.355 138.492,335.738 138.492,402.885  "/>
	<polygon style="fill:#134A79;" points="4.197,335.738 4.197,268.59 37.77,268.59 60.153,302.164 37.77,335.738  "/>
</g>
<polygon style="fill:#0E3759;" points="37.77,335.738 37.77,268.59 71.344,268.59 93.727,302.164 71.344,335.738 "/>
<polygon style="fill:#134A79;" points="71.344,335.738 71.344,268.59 104.918,268.59 127.301,302.164 104.918,335.738 "/>
<rect x="104.918" y="268.59" style="fill:#0E3759;" width="33.574" height="67.148"/>
<path style="fill:#A5C6E3;" d="M295.169,0h-33.574v134.295l67.148-33.574V33.574C328.743,15.108,313.635,0,295.169,0z"/>
<path style="fill:#D2E3F1;" d="M261.596,0h-44.765c-18.466,0-33.574,15.108-33.574,33.574v67.148l33.574,33.574l78.339-67.148  V33.574C295.169,15.108,280.061,0,261.596,0z"/>
<rect x="216.831" y="67.148" style="fill:#77AAD4;" width="78.339" height="67.148"/>
<polygon style="fill:#1D71B8;" points="295.169,100.721 261.596,335.738 328.743,335.738 328.743,100.721 "/>
<g>
	<rect x="183.257" y="100.721" style="fill:#4A8DC6;" width="111.913" height="235.016"/>
	<polygon style="fill:#4A8DC6;" points="339.934,302.164 339.934,402.885 272.787,436.459 306.361,302.164 328.743,302.164  "/>
</g>
<polygon style="fill:#77AAD4;" points="256,302.164 222.426,436.459 306.361,402.885 306.361,302.164 "/>
<g>
	<polygon style="fill:#A5C6E3;" points="172.066,302.164 172.066,402.885 256,436.459 256,302.164  "/>
	<polygon style="fill:#A5C6E3;" points="306.361,402.885 272.787,453.246 306.361,503.607 339.934,503.607 339.934,402.885  "/>
</g>
<rect x="172.066" y="402.885" style="fill:#D2E3F1;" width="134.295" height="100.721"/>
<g>
	<circle style="fill:#134A79;" cx="297.967" cy="332.94" r="8.393"/>
	<circle style="fill:#134A79;" cx="297.967" cy="372.109" r="8.393"/>
</g>
<path style="fill:#4A8DC6;" d="M339.934,512H172.066c-4.635,0-8.393-3.757-8.393-8.393c0-4.637,3.758-8.393,8.393-8.393h167.869  c4.635,0,8.393,3.757,8.393,8.393C348.328,508.243,344.57,512,339.934,512z"/>
<g>
</g>
<g>
</g>
<g>
</g>
<g>
</g>
<g>
</g>
<g>
</g>
<g>
</g>
<g>
</g>
<g>
</g>
<g>
</g>
<g>
</g>
<g>
</g>
<g>
</g>
<g>
</g>
<g>
</g>
</svg>
