<?xml version="1.0" encoding="iso-8859-1"?>
<!-- Generator: Adobe Illustrator 19.0.0, SVG Export Plug-In . SVG Version: 6.00 Build 0)  -->
<svg xmlns="http://www.w3.org/2000/svg" xmlns:xlink="http://www.w3.org/1999/xlink" version="1.1" id="Layer_1" x="0px" y="0px" viewBox="0 0 512 512" style="enable-background:new 0 0 512 512;" xml:space="preserve">
<path style="fill:#FCD999;" d="M323.186,17.849l-33.593,3.639l167.964,244.164l33.593-22.395  C491.15,136.734,420.314,46.75,323.186,17.849z"/>
<g>
	<path style="fill:#FEECCC;" d="M457.557,243.257l-134.371,22.395L289.593,143.57l33.593-122.082   C401.468,53.771,457.557,140.866,457.557,243.257z"/>
	<path style="fill:#FEECCC;" d="M188.814,17.849C91.686,46.75,20.85,136.734,20.85,243.257l167.964,22.395l33.593-123.902   L188.814,17.849z"/>
</g>
<g>
	<polygon style="fill:#FCD999;" points="188.814,243.262 121.629,243.262 121.629,108.89 211.21,108.89  "/>
	<polygon style="fill:#FCD999;" points="323.186,243.262 390.371,243.262 390.371,108.89 300.79,108.89  "/>
</g>
<path style="fill:#FBC566;" d="M258.609,8.129l64.577,13.359v-3.639C302.694,11.746,281.027,8.365,258.609,8.129z"/>
<path style="fill:#FCD999;" d="M323.186,21.488v53.805L256,97.688l-67.186-22.395V17.849c21.287-6.338,43.839-9.742,67.186-9.742  c0.873,0,1.736,0.011,2.609,0.022C281.228,8.465,302.952,13.146,323.186,21.488z"/>
<polygon style="fill:#134A79;" points="323.186,75.293 323.186,265.652 256,265.652 289.593,75.293 "/>
<rect x="188.814" y="75.293" style="fill:#185E98;" width="100.779" height="190.36"/>
<path style="fill:#A5C6E3;" d="M256,125.682v67.186c18.554,0,33.593-15.038,33.593-33.593S274.554,125.682,256,125.682z"/>
<polygon style="fill:#FCD999;" points="491.15,321.645 491.15,512 457.557,512 412.767,276.85 "/>
<polygon style="fill:#F9B233;" points="491.15,243.257 491.15,276.85 435.162,310.443 457.557,243.257 "/>
<g>
	<polygon style="fill:#FBC566;" points="20.85,243.257 20.85,276.85 457.557,310.443 457.557,243.257  "/>
	<polygon style="fill:#FBC566;" points="491.15,276.85 491.15,327.239 457.557,327.239 435.162,302.045 457.557,276.85  "/>
</g>
<polygon style="fill:#FEECCC;" points="20.85,321.64 20.85,512 188.814,512 256,444.814 323.186,512 457.557,512 457.557,321.64   252.114,288.048 "/>
<polygon style="fill:#FBC566;" points="323.186,377.629 323.186,512 289.593,512 267.198,444.814 289.593,377.629 "/>
<g>
	<rect x="188.814" y="377.629" style="fill:#FCD999;" width="100.779" height="134.371"/>
	<rect x="20.85" y="276.85" style="fill:#FCD999;" width="436.707" height="50.389"/>
</g>
<path style="fill:#D2E3F1;" d="M256,125.682c6.181,0,11.198,15.038,11.198,33.593s-5.017,33.593-11.198,33.593  c-18.554,0-33.593-15.038-33.593-33.593S237.446,125.682,256,125.682z"/>
<g>
	<path style="fill:#F9B233;" d="M188.814,251.659c-4.639,0-8.398-3.759-8.398-8.398V9.861c0-4.639,3.759-8.398,8.398-8.398   c4.639,0,8.398,3.759,8.398,8.398v233.401C197.212,247.9,193.453,251.659,188.814,251.659z"/>
	<path style="fill:#F9B233;" d="M323.186,251.659c-4.639,0-8.398-3.759-8.398-8.398V8.398c0-4.639,3.759-8.398,8.398-8.398   c4.639,0,8.398,3.759,8.398,8.398V243.26C331.584,247.9,327.825,251.659,323.186,251.659z"/>
	<path style="fill:#F9B233;" d="M491.15,251.659H20.85c-4.639,0-8.398-3.759-8.398-8.398s3.759-8.398,8.398-8.398h470.3   c4.639,0,8.398,3.759,8.398,8.398S495.789,251.659,491.15,251.659z"/>
</g>
<g>
	<path style="fill:#FCD999;" d="M146.823,344.039c0,4.639,3.759,8.398,8.398,8.398c4.639,0,8.398-3.759,8.398-8.398v-16.796h-16.796   V344.039z"/>
	<path style="fill:#FCD999;" d="M79.637,344.039c0,4.639,3.759,8.398,8.398,8.398c4.639,0,8.398-3.759,8.398-8.398v-16.796H79.637   V344.039z"/>
	<path style="fill:#FCD999;" d="M214.009,344.039c0,4.639,3.759,8.398,8.398,8.398s8.398-3.759,8.398-8.398v-16.796h-16.796V344.039   z"/>
	<path style="fill:#FCD999;" d="M281.195,344.039c0,4.639,3.759,8.398,8.398,8.398c4.639,0,8.398-3.759,8.398-8.398v-16.796h-16.796   V344.039z"/>
	<path style="fill:#FCD999;" d="M348.38,344.039c0,4.639,3.759,8.398,8.398,8.398c4.639,0,8.398-3.759,8.398-8.398v-16.796H348.38   V344.039z"/>
	<path style="fill:#FCD999;" d="M415.566,327.243v16.796c0,4.639,3.759,8.398,8.398,8.398c4.639,0,8.398-3.759,8.398-8.398v-16.796   H415.566z"/>
</g>
<path style="fill:#FBC566;" d="M491.15,335.641H20.85c-4.639,0-8.398-3.759-8.398-8.398c0-4.639,3.759-8.398,8.398-8.398h470.3  c4.639,0,8.398,3.759,8.398,8.398C499.548,331.882,495.789,335.641,491.15,335.641z"/>
<g>
</g>
<g>
</g>
<g>
</g>
<g>
</g>
<g>
</g>
<g>
</g>
<g>
</g>
<g>
</g>
<g>
</g>
<g>
</g>
<g>
</g>
<g>
</g>
<g>
</g>
<g>
</g>
<g>
</g>
</svg>
