<?xml version="1.0" encoding="iso-8859-1"?>
<!-- Generator: Adobe Illustrator 19.0.0, SVG Export Plug-In . SVG Version: 6.00 Build 0)  -->
<svg xmlns="http://www.w3.org/2000/svg" xmlns:xlink="http://www.w3.org/1999/xlink" version="1.1" id="Layer_1" x="0px" y="0px" viewBox="0 0 512 512" style="enable-background:new 0 0 512 512;" xml:space="preserve">
<path style="fill:#FE4382;" d="M415.036,125.298c-34.585-10.441-30.639-23.512-65.224-33.954  c-34.584-10.441-38.53,2.631-73.114-7.811c-34.586-10.441-30.639-23.512-65.225-33.954s-38.533,2.629-73.119-7.812  c-34.588-10.443-30.643-23.513-65.23-33.955C38.534-2.628,34.588,10.443,0,0v35.655L341.333,256L0,476.345V512  c34.585-10.441,38.531,2.629,73.117-7.812c34.584-10.441,30.638-23.512,65.222-33.952c34.586-10.441,38.532,2.629,73.117-7.812  c34.586-10.441,30.64-23.512,65.228-33.954c34.588-10.443,38.534,2.628,73.123-7.813s30.643-23.513,65.231-33.955  C471.145,369.738,512,317.644,512,256S471.145,142.262,415.036,125.298z"/>
<polygon style="fill:#FBC566;" points="405.157,157.97 0,35.655 0,476.345 405.169,354.025 "/>
<path style="fill:#FB7A5B;" d="M375.467,153.6c-6.011,0-12.12,0.55-18.126,1.627l-239.856,42.808l11.378,28.983L106.107,256  l22.756,28.983l-11.378,28.983l239.823,42.802c6.039,1.083,12.148,1.633,18.159,1.633c56.463,0,102.4-45.937,102.4-102.4  S431.93,153.6,375.467,153.6z"/>
<path style="fill:#293560;" d="M375.467,187.733c-4.142,0-8.191,0.389-12.129,1.096l-188.12,33.575L197.973,256l-22.756,33.596  l188.12,33.575c3.939,0.707,7.987,1.096,12.129,1.096c37.703,0,68.267-30.564,68.267-68.267S413.169,187.733,375.467,187.733z"/>
<path style="fill:#FEECCC;" d="M375.467,227.556L364.089,256l11.378,28.444c15.709,0,28.444-12.735,28.444-28.444  S391.176,227.556,375.467,227.556z"/>
<path style="fill:#FFFFFF;" d="M347.022,256c0,15.709,12.735,28.444,28.444,28.444v-56.889  C359.757,227.556,347.022,240.291,347.022,256z"/>
<g>
	<circle style="fill:#FB7A5B;" cx="42.667" cy="419.271" r="8.533"/>
	<circle style="fill:#FB7A5B;" cx="76.8" cy="385.138" r="8.533"/>
	<circle style="fill:#FB7A5B;" cx="76.8" cy="103.026" r="8.533"/>
</g>
<g>
</g>
<g>
</g>
<g>
</g>
<g>
</g>
<g>
</g>
<g>
</g>
<g>
</g>
<g>
</g>
<g>
</g>
<g>
</g>
<g>
</g>
<g>
</g>
<g>
</g>
<g>
</g>
<g>
</g>
</svg>
