<?xml version="1.0" encoding="iso-8859-1"?>
<!-- Generator: Adobe Illustrator 19.0.0, SVG Export Plug-In . SVG Version: 6.00 Build 0)  -->
<svg xmlns="http://www.w3.org/2000/svg" xmlns:xlink="http://www.w3.org/1999/xlink" version="1.1" id="Layer_1" x="0px" y="0px" viewBox="0 0 512 512" style="enable-background:new 0 0 512 512;" xml:space="preserve">
<polygon style="fill:#0E3759;" points="512,512 256,466.489 0,512 0,0 512,0 "/>
<path style="fill:#FCD999;" d="M256,392.533L466.489,512H512C450.639,439.111,358.737,392.533,256,392.533z"/>
<path style="fill:#FEECCC;" d="M256,392.533C153.263,392.533,61.361,439.111,0,512h466.489  C416.036,439.111,340.472,392.533,256,392.533z"/>
<g>
	<circle style="fill:#FBC566;" cx="367.684" cy="457.409" r="8.533"/>
	<circle style="fill:#FBC566;" cx="323.083" cy="475.887" r="8.533"/>
	<circle style="fill:#FBC566;" cx="144.145" cy="456.545" r="8.533"/>
</g>
<path style="fill:#185E98;" d="M129.287,52.487c-1.042,1.042-2.07,2.097-3.086,3.164c0.829-0.851,1.658-1.695,2.485-2.53l0,0  L77.614,162.133c-0.531,5.618-0.814,11.31-0.814,17.067c0,8.823,0.649,17.494,1.881,25.977l46.429,96.402  C157.813,336.54,204.351,358.4,256,358.4c49.484,0,94.284-20.058,126.713-52.487L129.287,52.487z"/>
<g>
	<path style="fill:#4A8DC6;" d="M342.457,319.544c1.075,0.026,2.133,0.025,3.186,0.011   C344.592,319.569,343.533,319.57,342.457,319.544z"/>
	<path style="fill:#4A8DC6;" d="M433.493,154.469L378.426,48.356C346.391,18.368,303.343,0,256,0l90.187,319.557   c14.982-0.296,27.575-4.692,36.526-13.643c32.429-32.43,52.487-77.23,52.487-126.714   C435.2,170.808,434.609,162.554,433.493,154.469z"/>
</g>
<path style="fill:#77AAD4;" d="M401.067,179.2C401.067,80.23,336.118,0,256,0c-49.484,0-94.284,20.058-126.713,52.487  c-33.324,33.324-3.608,117.072,66.373,187.053c51.185,51.185,109.73,80.823,150.527,80.018  C379.624,286.728,401.067,236.06,401.067,179.2z"/>
<path style="fill:#FA9647;" d="M378.426,48.356h-23.32l38.564,101.262l7.396,29.582h15.361c9.425,0,17.067-7.641,17.067-17.067  v-7.664C427.743,112.816,407.682,75.74,378.426,48.356z"/>
<polygon style="fill:#484686;" points="266.701,294.603 267.378,298.667 278.756,310.044 291.313,306.904 291.313,294.603 "/>
<path style="fill:#FBC566;" d="M355.107,48.356h-53.596c-4.713,0-8.533,3.821-8.533,8.533s3.821,8.533,8.533,8.533h17.067v34.133  H307.2c-9.425,0-17.067,7.641-17.067,17.067H256v25.6h-22.756c-4.713,0-8.533,3.821-8.533,8.533c0,4.713,3.821,8.533,8.533,8.533  h105.244v25.6h-93.867c-12.568,0-22.756,10.188-22.756,22.756s10.188,22.756,22.756,22.756H256l10.701,64.203  c8.335,4.754,16.572,8.86,24.612,12.303l32.953-8.239l9.671-96.711h13.084c4.713,0,8.533-3.821,8.533-8.533v-34.133H384v48.356  c0,4.713,3.821,8.533,8.533,8.533c4.713,0,8.533-3.821,8.533-8.533V179.2C401.067,127.573,383.387,81.055,355.107,48.356z"/>
<path style="fill:#484686;" d="M128.685,53.121L128.685,53.121c-28.311,28.587-47.068,66.648-51.071,109.013h59.471L128.685,53.121z  "/>
<path style="fill:#FBC566;" d="M153.6,65.422h11.378c4.713,0,8.533-3.821,8.533-8.533s-3.821-8.533-8.533-8.533h-31.404  c-1.661,1.555-3.287,3.148-4.888,4.765c-20.708,21.6-15.957,63.444,8.398,109.013H153.6V65.422z"/>
<path style="fill:#484686;" d="M125.111,301.578l39.867-59.8l-45.511-45.511H96.711c-7.351,0-13.87,3.501-18.03,8.91  C84.056,242.183,100.737,275.52,125.111,301.578z"/>
<g>
	<path style="fill:#FBC566;" d="M360.472,288.284c-0.284,0-0.57-0.014-0.859-0.043c-4.69-0.469-8.111-4.651-7.642-9.34l2.099-20.99   c0.469-4.689,4.639-8.107,9.34-7.642c4.69,0.469,8.111,4.651,7.642,9.34l-2.099,20.99C368.514,285,364.802,288.284,360.472,288.284   z"/>
	<path style="fill:#FBC566;" d="M233.244,48.356h-39.822c-4.713,0-8.533,3.821-8.533,8.533s3.821,8.533,8.533,8.533h2.844v8.533   c0,4.713,3.821,8.533,8.533,8.533s8.533-3.821,8.533-8.533v-8.533h19.911c4.713,0,8.533-3.821,8.533-8.533   S237.957,48.356,233.244,48.356z"/>
</g>
<g>
</g>
<g>
</g>
<g>
</g>
<g>
</g>
<g>
</g>
<g>
</g>
<g>
</g>
<g>
</g>
<g>
</g>
<g>
</g>
<g>
</g>
<g>
</g>
<g>
</g>
<g>
</g>
<g>
</g>
</svg>
