<svg id="Capa_1" enable-background="new 0 0 512 512" height="512" viewBox="0 0 512 512" width="512" xmlns="http://www.w3.org/2000/svg"><g><g><path d="m194.602 16.65v91.577c0 9.196-7.455 16.65-16.65 16.65-9.196 0-16.65-7.455-16.65-16.65v-91.577c0-9.196-7.455-16.65-16.65-16.65-9.197 0-16.652 7.455-16.652 16.65v91.577c0 9.196-7.455 16.65-16.65 16.65-9.196 0-16.65-7.455-16.65-16.65v-91.577c-.001-9.195-7.455-16.65-16.651-16.65-9.196 0-16.65 7.455-16.65 16.65v112.39c0 34.484 27.955 62.439 62.439 62.439h41.626c34.484 0 62.439-27.955 62.439-62.439v-112.39c0-9.196-7.455-16.65-16.65-16.65-9.197 0-16.651 7.455-16.651 16.65z" fill="#e4fbef"/><path d="m123.837 191.48h41.626v41.626h-41.626z" fill="#b1e4f9"/><path d="m144.65 512c-21.265 0-38.504-17.239-38.504-38.504v-229.984c0-5.747 4.659-10.406 10.407-10.406h56.195c5.747 0 10.406 4.659 10.406 10.406v229.984c0 21.265-17.238 38.504-38.504 38.504z" fill="#ac80dd"/><path d="m159.22 233.106v240.39c0 17.086-11.133 31.564-26.537 36.598 3.768 1.231 7.788 1.906 11.967 1.906 21.265 0 38.504-17.239 38.504-38.504v-229.984c0-5.747-4.659-10.406-10.406-10.406z" fill="#9d66d5"/></g><g><path d="m284.098 83.252v45.789c0 34.484 27.955 62.439 62.439 62.439h41.626c34.484 0 62.439-27.955 62.439-62.439v-45.789c0-45.979-37.274-83.252-83.252-83.252-45.979 0-83.252 37.273-83.252 83.252z" fill="#e4fbef"/><path d="m348.618 158.179c-17.242 0-31.22-13.977-31.22-31.22v-42.869c0-27.351 21.638-50.261 48.984-50.78 27.983-.532 50.918 22.078 50.918 49.942v43.707c0 17.242-13.977 31.22-31.22 31.22z" fill="#b1e4f9"/><path d="m346.537 191.48h41.626v41.626h-41.626z" fill="#b1e4f9"/><path d="m367.35 512c-21.265 0-38.504-17.239-38.504-38.504v-229.984c0-5.747 4.659-10.406 10.407-10.406h56.195c5.747 0 10.407 4.659 10.407 10.406v229.984c-.001 21.265-17.24 38.504-38.505 38.504z" fill="#ffe07d"/><path d="m381.919 233.106v240.39c0 17.086-11.133 31.564-26.537 36.598 3.768 1.231 7.788 1.906 11.967 1.906 21.265 0 38.504-17.239 38.504-38.504v-229.984c0-5.747-4.659-10.406-10.407-10.406z" fill="#ffd064"/></g></g></svg>