<svg id="Capa_1" enable-background="new 0 0 512 512" height="512" viewBox="0 0 512 512" width="512" xmlns="http://www.w3.org/2000/svg"><g><path d="m422.504 501.698v-43.331c0-38.202-25.999-71.501-63.06-80.766l-61.818-15.454h-83.252l-61.818 15.454c-37.061 9.265-63.06 42.565-63.06 80.766v43.331c0 5.69 4.612 10.302 10.302 10.302h312.404c5.69 0 10.302-4.612 10.302-10.302z" fill="#a2f4c1"/><path d="m350.699 512h-49.951v-29.243c0-5.69 4.612-10.302 10.302-10.302h29.348c5.69 0 10.302 4.612 10.302 10.302v29.243z" fill="#ffe07d"/><path d="m202.909 420.905c-8.15-11.966-16.765-29.439-18.414-51.289l29.879-14.754h41.626v48.911l-21.659 20.456c-9.28 8.764-24.246 7.227-31.432-3.324z" fill="#e4fbef"/><path d="m309.091 420.905c8.15-11.966 16.765-29.439 18.414-51.289l-29.879-14.754h-41.626v48.911l21.659 20.456c9.28 8.764 24.246 7.227 31.432-3.324z" fill="#e4fbef"/><path d="m370.093 381.044c13.287 14.872 21.192 34.421 21.192 55.469v75.487h20.918c5.69 0 10.302-4.612 10.302-10.302v-43.331c-.001-34.424-21.118-64.859-52.412-77.323z" fill="#86f1a7"/><g><path d="m256 403.772c-22.989 0-41.626-18.637-41.626-41.626v-41.626h83.252v41.626c0 22.99-18.637 41.626-41.626 41.626z" fill="#f1d0a5"/></g><path d="m214.374 343.557c13.026 4.619 27.036 7.143 41.626 7.143s28.599-2.523 41.626-7.143v-23.037h-83.252z" fill="#f1b986"/><g fill="#f1d0a5"><path d="m378.797 225.821h-18.732v-62.439h18.732c9.196 0 16.65 7.455 16.65 16.65v29.138c0 9.197-7.454 16.651-16.65 16.651z"/><path d="m133.203 225.821h18.732v-62.439h-18.732c-9.196 0-16.65 7.455-16.65 16.65v29.138c0 9.197 7.454 16.651 16.65 16.651z"/><path d="m151.935 144.65v79.864c0 57.381 45.896 104.943 103.276 105.369 57.836.429 104.854-46.326 104.854-104.062v-81.171z"/></g><path d="m337.171 144.65v81.171c0 53.604-40.531 97.735-92.618 103.435 3.76.412 7.578.63 11.447.63 57.474 0 104.065-46.591 104.065-104.065v-81.171z" fill="#f1b986"/><path d="m151.935 225.821v-62.439h-20.813v-37.149c0-69.018 55.419-125.994 124.436-126.232 69.171-.239 125.319 55.762 125.319 124.877v38.504h-20.813v62.439l-30.981-53.513c-1.017-1.757-3.694-1.139-3.838.886l-.341 4.779c-.106 1.484-1.711 2.381-3.022 1.677-16.767-9.006-24.689-22.278-27.886-29.264-.723-1.58-2.952-1.597-3.715-.035-5.054 10.338-22.053 34.467-71.242 36.786-2.09.099-3.005-2.606-1.265-3.766 4.307-2.87 9.721-7.033 12.88-11.554 1.182-1.691-.642-3.871-2.531-3.043-10.16 4.457-33.852 13.956-52.089 14.366-.746.017-1.424.421-1.777 1.079z" fill="#e7a561"/><path d="m256 0c-3.505 0-6.975.152-10.407.435 64.098 5.289 114.471 58.98 114.471 124.443v38.504h20.813v-38.504c.001-68.968-55.909-124.878-124.877-124.878z" fill="#e49542"/><path d="m133.203 225.821h18.732v-62.439h-18.732c-9.196 0-16.65 7.455-16.65 16.65v29.138c0 9.197 7.454 16.651 16.65 16.651z" fill="#f1d0a5"/><path d="m378.797 225.821h-18.732v-62.439h18.732c9.196 0 16.65 7.455 16.65 16.65v29.138c0 9.197-7.454 16.651-16.65 16.651z" fill="#f1d0a5"/></g></svg>