<?xml version="1.0" encoding="iso-8859-1"?>
<!-- Generator: Adobe Illustrator 19.0.0, SVG Export Plug-In . SVG Version: 6.00 Build 0)  -->
<svg xmlns="http://www.w3.org/2000/svg" xmlns:xlink="http://www.w3.org/1999/xlink" version="1.1" id="Layer_1" x="0px" y="0px" viewBox="0 0 512 512" style="enable-background:new 0 0 512 512;" xml:space="preserve">
<polygon style="fill:#FA9647;" points="401.845,314.955 358.4,204.8 335.644,358.4 358.4,512 401.845,401.845 512,358.4 "/>
<polygon style="fill:#FBC566;" points="314.955,314.955 204.8,358.4 314.955,401.845 358.4,512 358.4,204.8 "/>
<path style="fill:#FEECCC;" d="M358.4,329.956L347.022,358.4l11.378,28.444c15.709,0,28.444-12.735,28.444-28.444  C386.844,342.691,374.109,329.956,358.4,329.956z"/>
<path style="fill:#FFFFFF;" d="M329.956,358.4c0,15.709,12.735,28.444,28.444,28.444v-56.889  C342.691,329.956,329.956,342.691,329.956,358.4z"/>
<polygon style="fill:#FA9647;" points="197.045,110.155 153.6,0 130.844,153.6 153.6,307.2 197.045,197.045 307.2,153.6 "/>
<polygon style="fill:#FBC566;" points="110.155,110.155 0,153.6 110.155,197.045 153.6,307.2 153.6,0 "/>
<path style="fill:#FEECCC;" d="M153.6,125.156L142.222,153.6l11.378,28.444c15.709,0,28.444-12.735,28.444-28.444  S169.309,125.156,153.6,125.156z"/>
<path style="fill:#FFFFFF;" d="M125.156,153.6c0,15.709,12.735,28.444,28.444,28.444v-56.889  C137.891,125.156,125.156,137.891,125.156,153.6z"/>
<polygon style="fill:#FBC566;" points="456.922,55.078 435.2,0 412.444,76.8 435.2,153.6 456.922,98.522 512,76.8 "/>
<polygon style="fill:#FCD999;" points="413.478,55.078 358.4,76.8 413.478,98.522 435.2,153.6 435.2,0 "/>
<polygon style="fill:#FBC566;" points="98.522,413.478 76.8,358.4 54.044,435.2 76.8,512 98.522,456.922 153.6,435.2 "/>
<polygon style="fill:#FCD999;" points="55.078,413.478 0,435.2 55.078,456.922 76.8,512 76.8,358.4 "/>
<g>
</g>
<g>
</g>
<g>
</g>
<g>
</g>
<g>
</g>
<g>
</g>
<g>
</g>
<g>
</g>
<g>
</g>
<g>
</g>
<g>
</g>
<g>
</g>
<g>
</g>
<g>
</g>
<g>
</g>
</svg>
