<?xml version="1.0" encoding="iso-8859-1"?>
<!-- Generator: Adobe Illustrator 19.0.0, SVG Export Plug-In . SVG Version: 6.00 Build 0)  -->
<svg xmlns="http://www.w3.org/2000/svg" xmlns:xlink="http://www.w3.org/1999/xlink" version="1.1" id="Layer_1" x="0px" y="0px" viewBox="0 0 512 512" style="enable-background:new 0 0 512 512;" xml:space="preserve">
<g>
	<path style="fill:#185E98;" d="M339.934,0c-4.635,0-8.393,3.758-8.393,8.393v167.869h16.787V8.393   C348.328,3.758,344.57,0,339.934,0z"/>
	<path style="fill:#185E98;" d="M373.508,33.574c-4.635,0-8.393,3.758-8.393,8.393v134.295h16.787V41.967   C381.902,37.332,378.144,33.574,373.508,33.574z"/>
</g>
<path style="fill:#1D71B8;" d="M180.459,78.339v-2.798c0-4.635-3.758-8.393-8.393-8.393s-8.393,3.758-8.393,8.393v2.798  c-4.635,0-8.393,3.758-8.393,8.393c0,4.635,3.758,8.393,8.393,8.393v81.137h16.787V95.126c4.635,0,8.393-3.758,8.393-8.393  C188.852,82.097,185.094,78.339,180.459,78.339z"/>
<polygon style="fill:#FBC566;" points="172.066,310.557 138.492,444.852 104.918,444.852 71.344,310.557 "/>
<g>
	<polygon style="fill:#FCD999;" points="104.918,310.557 104.918,444.852 37.77,444.852 37.77,344.131  "/>
	<path style="fill:#FCD999;" d="M440.656,310.557v134.295h33.574c18.466,0,33.574-15.108,33.574-33.574v-67.148L440.656,310.557z"/>
</g>
<path style="fill:#A5C6E3;" d="M373.508,142.689h-33.574L474.23,344.131h33.574v-67.148  C507.803,203.121,447.371,142.689,373.508,142.689z"/>
<path style="fill:#FEECCC;" d="M474.23,310.557v100.721c0,18.466-15.108,33.574-33.574,33.574H138.492V310.557H474.23z"/>
<path style="fill:#D2E3F1;" d="M474.23,276.984v67.148H138.492H37.77v-67.148c0-73.862,60.433-134.295,134.295-134.295h167.869  C413.797,142.689,474.23,203.121,474.23,276.984z"/>
<path style="fill:#0E3759;" d="M373.508,176.262l33.574,67.148l-33.574,67.148c-18.466,0-33.574-15.108-33.574-33.574V176.262  H373.508z"/>
<path style="fill:#185E98;" d="M474.23,276.984c0,0-0.045,33.563-0.011,33.574h-100.71V176.262  C429.05,176.262,474.23,221.441,474.23,276.984z"/>
<path style="fill:#0E3759;" d="M54.557,411.279V512c27.81,0,50.361-22.55,50.361-50.361  C104.918,433.829,82.368,411.279,54.557,411.279z"/>
<path style="fill:#185E98;" d="M54.557,411.279c9.266,0,16.787,22.55,16.787,50.361c0,27.81-7.521,50.361-16.787,50.361  c-27.81,0-50.361-22.55-50.361-50.361C4.197,433.829,26.747,411.279,54.557,411.279z"/>
<path style="fill:#FBC566;" d="M54.557,478.426c9.256,0,16.787-7.531,16.787-16.787s-7.531-16.787-16.787-16.787  s-16.787,7.531-16.787,16.787S45.301,478.426,54.557,478.426z"/>
<path style="fill:#0E3759;" d="M222.426,411.279V512c27.81,0,50.361-22.55,50.361-50.361  C272.787,433.829,250.237,411.279,222.426,411.279z"/>
<path style="fill:#185E98;" d="M222.426,411.279c9.266,0,16.787,22.55,16.787,50.361c0,27.81-7.521,50.361-16.787,50.361  c-27.81,0-50.361-22.55-50.361-50.361C172.066,433.829,194.616,411.279,222.426,411.279z"/>
<path style="fill:#FBC566;" d="M222.426,478.426c9.256,0,16.787-7.531,16.787-16.787s-7.531-16.787-16.787-16.787  s-16.787,7.531-16.787,16.787S213.17,478.426,222.426,478.426z"/>
<path style="fill:#0E3759;" d="M390.295,411.279V512c27.81,0,50.361-22.55,50.361-50.361  C440.656,433.829,418.105,411.279,390.295,411.279z"/>
<path style="fill:#185E98;" d="M390.295,411.279c9.266,0,16.787,22.55,16.787,50.361c0,27.81-7.521,50.361-16.787,50.361  c-27.81,0-50.361-22.55-50.361-50.361C339.934,433.829,362.485,411.279,390.295,411.279z"/>
<path style="fill:#FBC566;" d="M390.295,478.426c9.256,0,16.787-7.531,16.787-16.787s-7.531-16.787-16.787-16.787  s-16.787,7.531-16.787,16.787S381.039,478.426,390.295,478.426z"/>
<path style="fill:#77AAD4;" d="M272.787,176.262h-33.574v201.443h33.574c18.466,0,33.574-15.108,33.574-33.574V209.836  C306.361,191.37,291.252,176.262,272.787,176.262z"/>
<path style="fill:#A5C6E3;" d="M272.787,209.836v134.295c0,18.466-15.108,33.574-33.574,33.574h-33.574  c-18.466,0-33.574-15.108-33.574-33.574V209.836c0-18.466,15.108-33.574,33.574-33.574h33.574  C257.679,176.262,272.787,191.37,272.787,209.836z"/>
<g>
</g>
<g>
</g>
<g>
</g>
<g>
</g>
<g>
</g>
<g>
</g>
<g>
</g>
<g>
</g>
<g>
</g>
<g>
</g>
<g>
</g>
<g>
</g>
<g>
</g>
<g>
</g>
<g>
</g>
</svg>
