<svg id="Capa_1" enable-background="new 0 0 512 512" height="512" viewBox="0 0 512 512" width="512" xmlns="http://www.w3.org/2000/svg"><g><g><path d="m301.789 415.661h-32.838c-4.267 0-7.726-3.459-7.726-7.726s3.459-7.726 7.726-7.726h31.516l49.954-17.612c63.392-22.35 105.983-82.527 105.983-149.743v-32.336c0-4.267 3.459-7.726 7.726-7.726s7.726 3.459 7.726 7.726v32.336c0 73.758-46.736 139.792-116.298 164.317l-51.201 18.052c-.824.29-1.693.438-2.568.438z" fill="#30579d"/></g><g><path d="m114.472 303.87h187.317v143.61h-187.317z" fill="#ac80dd"/></g><g><path d="m114.472 377.796c28.267 13.955 60.06 21.814 93.659 21.814s65.392-7.858 93.659-21.814v-73.926h-187.318z" fill="#9d66d5"/></g><g><circle cx="208.13" cy="187.317" fill="#ffe07d" r="187.317"/></g><g><path d="m317.523 35.257c22.182 30.779 35.257 68.557 35.257 109.393 0 103.452-83.865 187.317-187.317 187.317-40.836 0-78.614-13.076-109.393-35.257 34.012 47.194 89.444 77.924 152.06 77.924 103.452 0 187.317-83.865 187.317-187.317 0-62.616-30.73-118.048-77.924-152.06z" fill="#ffd064"/></g><g><path d="m220.793 125.216 11.571 23.445c2.057 4.168 6.033 7.057 10.633 7.725l25.872 3.76c11.583 1.683 16.208 15.917 7.826 24.087l-18.722 18.249c-3.328 3.244-4.847 7.919-4.061 12.499l4.42 25.768c1.979 11.536-10.13 20.333-20.49 14.887l-23.141-12.166c-4.114-2.163-9.029-2.163-13.143 0l-23.141 12.166c-10.36 5.447-22.468-3.351-20.49-14.887l4.42-25.768c.786-4.581-.733-9.255-4.061-12.499l-18.722-18.249c-8.381-8.17-3.756-22.404 7.826-24.087l25.873-3.76c4.6-.668 8.576-3.557 10.633-7.725l11.571-23.445c5.18-10.495 20.146-10.495 25.326 0z" fill="#df75a5"/></g><g><path d="m276.695 184.233c8.381-8.17 3.756-22.404-7.826-24.087l-23.133-3.361c-5.867 39.65-40.033 70.078-81.313 70.078-1.373 0-2.738-.037-4.095-.104l-2.4 13.991c-1.979 11.536 10.13 20.333 20.49 14.887l23.141-12.166c4.114-2.163 9.029-2.163 13.143 0l23.141 12.166c10.36 5.447 22.468-3.351 20.49-14.887l-4.42-25.768c-.786-4.581.733-9.255 4.061-12.499z" fill="#dd5790"/></g><g><path d="m311.27 512h-206.279c-12.006 0-21.738-9.733-21.738-21.738v-21.043c0-12.006 9.733-21.738 21.738-21.738h206.279c12.006 0 21.738 9.733 21.738 21.738v21.043c0 12.005-9.733 21.738-21.738 21.738z" fill="#df75a5"/></g><g><path d="m311.27 447.48h-33.301c12.006 0 21.738 9.733 21.738 21.738v21.043c0 12.006-9.733 21.738-21.738 21.738h33.301c12.006 0 21.738-9.733 21.738-21.738v-21.043c0-12.006-9.733-21.738-21.738-21.738z" fill="#dd5790"/></g><g><circle cx="464.13" cy="187.317" fill="#ac80dd" r="27.057"/></g><g><path d="m475.62 162.819c1.639 3.488 2.559 7.381 2.559 11.489 0 14.943-12.114 27.057-27.057 27.057-4.109 0-8.001-.92-11.49-2.559 4.321 9.197 13.663 15.567 24.498 15.567 14.943 0 27.057-12.114 27.057-27.057 0-10.833-6.37-20.175-15.567-24.497z" fill="#9d66d5"/></g></g></svg>