<svg id="Capa_1" enable-background="new 0 0 512 512" height="512" viewBox="0 0 512 512" width="512" xmlns="http://www.w3.org/2000/svg"><g><path d="m312.478 56.82h-56.478v-49.209h56.478c4.345 0 7.292 4.42 5.621 8.431l-5.763 13.831c-.625 1.499-.625 3.185 0 4.684l5.763 13.831c1.671 4.012-1.276 8.432-5.621 8.432z" fill="#ac80dd"/><g><path d="m256 103.285c-4.204 0-7.611-3.408-7.611-7.611v-88.063c0-4.203 3.407-7.611 7.611-7.611s7.612 3.408 7.612 7.611v88.062c0 4.205-3.408 7.612-7.612 7.612z" fill="#dd5790"/></g><path d="m101.198 446.388h309.604v32.806h-309.604z" fill="#26457d"/><path d="m498.046 512h-87.243v-65.612h97.392v55.463c-.001 5.605-4.544 10.149-10.149 10.149z" fill="#df75a5"/><path d="m13.954 512h87.243v-65.612h-97.391v55.463c0 5.605 4.543 10.149 10.148 10.149z" fill="#df75a5"/><path d="m416.031 512h-320.062c-5.605 0-10.149-4.544-10.149-10.149v-12.508c0-5.605 4.544-10.149 10.149-10.149h320.062c5.605 0 10.149 4.544 10.149 10.149v12.508c0 5.605-4.544 10.149-10.149 10.149z" fill="#30579d"/><path d="m3.806 446.388h97.392v-188.633h-87.244c-5.605 0-10.149 4.544-10.149 10.149v178.484z" fill="#dab46b"/><path d="m76.594 257.755h24.604v188.633h-24.604z" fill="#cba763" transform="matrix(-1 0 0 -1 177.791 704.144)"/><path d="m101.198 355.147v-64.586h-54.438c-5.605 0-10.149 4.544-10.149 10.149v44.289c0 5.605 4.544 10.149 10.149 10.149h54.438z" fill="#d3effb"/><path d="m76.594 290.561h24.604v64.586h-24.604z" fill="#b1e4f9"/><path d="m508.194 446.388h-97.392v-188.633h87.243c5.605 0 10.149 4.544 10.149 10.149z" fill="#dab46b"/><path d="m410.802 257.755h24.604v188.633h-24.604z" fill="#cba763"/><path d="m410.802 355.147v-64.586h54.438c5.605 0 10.149 4.544 10.149 10.149v44.289c0 5.605-4.544 10.149-10.149 10.149h-54.438z" fill="#d3effb"/><path d="m410.802 290.561h24.604v64.586h-24.604z" fill="#b1e4f9"/><path d="m91.337 215.811 159.526-93.635c3.172-1.862 7.103-1.862 10.275 0l159.526 93.635c10.609 6.227 23.97-1.423 23.97-13.725 0-5.645-2.99-10.867-7.858-13.725l-170.397-100.015c-6.408-3.761-14.35-3.761-20.758 0l-170.396 100.015c-4.868 2.857-7.858 8.08-7.858 13.725 0 12.301 13.361 19.952 23.97 13.725z" fill="#df75a5"/><path d="m436.775 188.361-51.266-30.091c-9.469 6.283-20.844 12.02-33.794 17.071l68.948 40.469c10.609 6.227 23.97-1.423 23.97-13.725 0-5.644-2.99-10.867-7.858-13.724z" fill="#dd5790"/><path d="m410.802 446.388v-236.365l-149.665-87.847c-3.172-1.862-7.103-1.862-10.275 0l-149.665 87.847v236.366h309.605z" fill="#f1d59d"/><path d="m250.863 122.176-149.665 87.847v26.152l144.423-84.77c6.408-3.761 14.35-3.761 20.758 0l111.745 65.589c6.272 3.681 10.125 10.41 10.125 17.683v211.712h22.554v-236.366l-149.665-87.847c-3.173-1.862-7.103-1.862-10.275 0z" fill="#efcb84"/><path d="m297.007 446.388h-82.014v-86.218c0-5.605 4.544-10.149 10.149-10.149h61.717c5.605 0 10.149 4.544 10.149 10.149v86.218z" fill="#ac80dd"/><path d="m367.848 311.065h-61.717c-5.605 0-10.149-4.544-10.149-10.149v-61.717c0-5.605 4.544-10.149 10.149-10.149h61.717c5.605 0 10.149 4.544 10.149 10.149v61.717c-.001 5.605-4.544 10.149-10.149 10.149z" fill="#e4fbef"/><path d="m205.869 311.065h-61.717c-5.605 0-10.149-4.544-10.149-10.149v-61.717c0-5.605 4.544-10.149 10.149-10.149h61.717c5.605 0 10.149 4.544 10.149 10.149v61.717c0 5.605-4.544 10.149-10.149 10.149z" fill="#e4fbef"/><path d="m491.791 446.388c9.059 0 16.403-7.344 16.403-16.403s-7.344-16.403-16.403-16.403c-.9 0-1.777.092-2.638.231-3.163-4.328-7.972-7.359-13.513-8.184-4.219-3.966-9.895-6.4-16.142-6.4s-11.923 2.434-16.142 6.4c-5.542.824-10.35 3.855-13.513 8.184-.861-.139-1.738-.231-2.638-.231-9.059 0-16.403 7.344-16.403 16.403s7.344 16.403 16.403 16.403z" fill="#86f1a7"/><path d="m20.209 446.388c-9.059 0-16.403-7.344-16.403-16.403s7.344-16.403 16.403-16.403c.9 0 1.777.092 2.638.231 3.163-4.328 7.972-7.359 13.513-8.184 4.219-3.966 9.895-6.4 16.142-6.4s11.923 2.434 16.142 6.4c5.542.824 10.35 3.855 13.513 8.184.861-.139 1.737-.231 2.638-.231 9.059 0 16.403 7.344 16.403 16.403s-7.344 16.403-16.403 16.403z" fill="#86f1a7"/><g><path d="m248.389 350.022h15.223v96.367h-15.223z" fill="#9d66d5"/></g><g fill="#b1e4f9"><path d="m377.996 262.446h-33.395v-33.395-.001h-15.223v.001 33.395h-33.396v15.223h33.396v33.396h15.223v-33.396h33.395z"/><path d="m216.018 277.669v-15.223h-33.396v-33.395-.001h-15.223v.001 33.395h-33.395v15.223h33.395v33.396h15.223v-33.396z"/></g></g></svg>