<?xml version="1.0" encoding="iso-8859-1"?>
<!-- Generator: Adobe Illustrator 19.0.0, SVG Export Plug-In . SVG Version: 6.00 Build 0)  -->
<svg xmlns="http://www.w3.org/2000/svg" xmlns:xlink="http://www.w3.org/1999/xlink" version="1.1" id="Layer_1" x="0px" y="0px" viewBox="0 0 512 512" style="enable-background:new 0 0 512 512;" xml:space="preserve">
<circle style="fill:#134A79;" cx="256" cy="256" r="256"/>
<circle style="fill:#185E98;" cx="256" cy="256" r="221.867"/>
<path style="fill:#4A8DC6;" d="M256,76.8v358.4c98.97,0,179.2-80.23,179.2-179.2S354.97,76.8,256,76.8z"/>
<path style="fill:#77AAD4;" d="M401.067,256c0-98.97-64.949-179.2-145.067-179.2c-98.97,0-179.2,80.23-179.2,179.2  S157.03,435.2,256,435.2C336.118,435.2,401.067,354.97,401.067,256z"/>
<path style="fill:#FA9647;" d="M378.426,125.156h-23.32l38.565,101.262L401.067,256h15.36c9.425,0,17.067-7.641,17.067-17.067  v-7.664C427.743,189.616,407.682,152.54,378.426,125.156z"/>
<g>
	<path style="fill:#FBC566;" d="M355.107,125.156h-53.596c-4.713,0-8.533,3.821-8.533,8.533s3.821,8.533,8.533,8.533h17.067v34.133   H307.2c-9.425,0-17.067,7.641-17.067,17.067H256v25.6h-22.756c-4.713,0-8.533,3.821-8.533,8.533s3.821,8.533,8.533,8.533h105.244   v25.6h-93.867c-12.568,0-22.756,10.188-22.756,22.756s10.188,22.756,22.756,22.756H256l10.701,64.203   c8.335,4.754,16.572,8.86,24.612,12.303l32.953-8.239l9.671-96.711h13.084c4.713,0,8.533-3.821,8.533-8.533v-34.133H384v48.356   c0,4.713,3.821,8.533,8.533,8.533c4.713,0,8.533-3.821,8.533-8.533V256C401.067,204.373,383.387,157.855,355.107,125.156z"/>
	<path style="fill:#FBC566;" d="M125.111,378.378l39.867-59.8l-45.511-45.511H96.711c-7.351,0-13.87,3.501-18.03,8.91   C84.056,318.983,100.737,352.32,125.111,378.378z"/>
	<path style="fill:#FBC566;" d="M360.472,365.084c-0.284,0-0.57-0.014-0.859-0.043c-4.69-0.469-8.111-4.651-7.642-9.34l2.099-20.99   c0.469-4.689,4.641-8.109,9.34-7.642c4.69,0.469,8.111,4.651,7.642,9.34l-2.099,20.99   C368.514,361.8,364.802,365.084,360.472,365.084z"/>
	<path style="fill:#FBC566;" d="M233.244,125.156h-39.822c-4.713,0-8.533,3.821-8.533,8.533s3.821,8.533,8.533,8.533h2.844v8.533   c0,4.713,3.821,8.533,8.533,8.533s8.533-3.821,8.533-8.533v-8.533h19.911c4.713,0,8.533-3.821,8.533-8.533   S237.957,125.156,233.244,125.156z"/>
	<path style="fill:#FBC566;" d="M164.978,125.156h-31.404c-31.039,29.053-51.73,69.016-55.959,113.778H153.6v-96.711h11.378   c4.713,0,8.533-3.821,8.533-8.533S169.69,125.156,164.978,125.156z"/>
</g>
<path style="fill:#A5C6E3;" d="M74.176,40.043L54.671,74.176l19.505,34.133c18.852,0,34.133-15.283,34.133-34.133  C108.31,55.324,93.027,40.043,74.176,40.043z"/>
<path style="fill:#D2E3F1;" d="M40.043,74.176c0,18.851,15.281,34.133,34.133,34.133V40.043  C55.324,40.043,40.043,55.324,40.043,74.176z"/>
<g>
</g>
<g>
</g>
<g>
</g>
<g>
</g>
<g>
</g>
<g>
</g>
<g>
</g>
<g>
</g>
<g>
</g>
<g>
</g>
<g>
</g>
<g>
</g>
<g>
</g>
<g>
</g>
<g>
</g>
</svg>
