<?xml version="1.0" encoding="iso-8859-1"?>
<!-- Generator: Adobe Illustrator 19.0.0, SVG Export Plug-In . SVG Version: 6.00 Build 0)  -->
<svg xmlns="http://www.w3.org/2000/svg" xmlns:xlink="http://www.w3.org/1999/xlink" version="1.1" id="Layer_1" x="0px" y="0px" viewBox="0 0 512 512" style="enable-background:new 0 0 512 512;" xml:space="preserve">
<polygon style="fill:#0E3759;" points="512,348.16 512,460.8 466.489,460.8 443.733,404.48 466.489,348.16 "/>
<polygon style="fill:#134A79;" points="466.489,348.16 466.489,460.8 420.978,460.8 398.222,404.48 420.978,348.16 "/>
<g>
	<polygon style="fill:#0E3759;" points="420.978,348.16 420.978,460.8 375.467,460.8 341.333,348.16  "/>
	<polygon style="fill:#0E3759;" points="0,348.16 0,460.8 45.511,460.8 68.267,404.48 45.511,348.16  "/>
</g>
<polygon style="fill:#134A79;" points="45.511,348.16 45.511,460.8 91.022,460.8 113.778,404.48 91.022,348.16 "/>
<polygon style="fill:#0E3759;" points="91.022,348.16 91.022,460.8 136.533,460.8 170.667,348.16 "/>
<polygon style="fill:#185E98;" points="312.889,51.2 312.889,85.333 256,108.089 278.756,51.2 "/>
<rect x="199.111" y="51.2" style="fill:#1D71B8;" width="79.644" height="56.889"/>
<path style="fill:#A5C6E3;" d="M336.885,100.932c-3.812-8.579-14.609-15.599-23.996-15.599H296.63L256,233.244l119.467-45.511  L336.885,100.932z"/>
<path style="fill:#D2E3F1;" d="M313.776,100.932c-2.719-8.579-10.433-15.599-17.146-15.599h-97.519  c-9.387,0-20.184,7.02-23.996,15.599l-38.582,86.801L256,233.244l85.333-45.511L313.776,100.932z"/>
<path style="fill:#FFFFFF;" d="M284.444,136.533v51.2h-56.889v-51.2c0-9.387,7.68-17.067,17.067-17.067h22.756  C276.764,119.467,284.444,127.147,284.444,136.533z"/>
<g>
	<polygon style="fill:#4A8DC6;" points="375.467,426.667 375.467,460.8 341.333,460.8 318.578,403.911  "/>
	<polygon style="fill:#4A8DC6;" points="375.467,187.733 375.467,221.867 318.578,244.622 341.333,187.733  "/>
</g>
<g>
	<polygon style="fill:#77AAD4;" points="341.333,403.911 341.333,460.8 307.2,460.8 284.444,403.911  "/>
	<polygon style="fill:#77AAD4;" points="341.333,187.733 341.333,244.622 284.444,244.622 307.2,187.733  "/>
</g>
<polygon style="fill:#A5C6E3;" points="375.467,221.867 375.467,426.667 341.333,426.667 295.822,324.267 341.333,221.867 "/>
<rect x="238.933" y="221.867" style="fill:#D2E3F1;" width="102.4" height="204.8"/>
<rect x="136.533" y="187.733" style="fill:#A5C6E3;" width="170.667" height="273.067"/>
<g>
</g>
<g>
</g>
<g>
</g>
<g>
</g>
<g>
</g>
<g>
</g>
<g>
</g>
<g>
</g>
<g>
</g>
<g>
</g>
<g>
</g>
<g>
</g>
<g>
</g>
<g>
</g>
<g>
</g>
</svg>
