<?xml version="1.0" encoding="iso-8859-1"?>
<!-- Generator: Adobe Illustrator 19.0.0, SVG Export Plug-In . SVG Version: 6.00 Build 0)  -->
<svg xmlns="http://www.w3.org/2000/svg" xmlns:xlink="http://www.w3.org/1999/xlink" version="1.1" id="Layer_1" x="0px" y="0px" viewBox="0 0 512 512" style="enable-background:new 0 0 512 512;" xml:space="preserve">
<polygon style="fill:#FCD999;" points="229.513,123.665 256,214.687 150.756,180.554 176.526,123.665 "/>
<polygon style="fill:#F9B233;" points="335.474,123.665 282.487,123.665 256,214.687 361.244,180.554 "/>
<polygon style="fill:#FBC566;" points="282.487,123.665 291.078,180.554 256,214.687 220.922,180.554 229.513,123.665 "/>
<path style="fill:#1D71B8;" d="M361.244,180.554h-28.069L256,248.821l139.378-34.133  C395.378,195.914,380.018,180.554,361.244,180.554z"/>
<path style="fill:#4A8DC6;" d="M333.175,180.554h-182.42c-18.773,0-34.133,15.36-34.133,34.133L256,248.821l102.207-34.133  C358.207,195.914,346.943,180.554,333.175,180.554z"/>
<path style="fill:#1D71B8;" d="M256,320.068l77.176,68.267h28.069c18.773,0,34.133-15.36,34.133-34.133L256,320.068z"/>
<path style="fill:#4A8DC6;" d="M116.622,354.202L256,320.068l102.207,34.133c0,18.773-11.264,34.133-25.031,34.133h-182.42  C131.982,388.335,116.622,372.975,116.622,354.202z"/>
<path style="fill:#484686;" d="M395.378,214.687h-37.171L256,318.578l256-34.133C479.653,256.25,441.606,229.956,395.378,214.687z"/>
<path style="fill:#6858AD;" d="M443.733,284.444L256,318.578L0,284.444c32.347-28.194,70.394-54.488,116.622-69.757h241.584  C392.112,229.956,420.011,256.25,443.733,284.444z"/>
<path style="fill:#293560;" d="M443.733,284.444l-85.527,69.757h37.171c46.228-15.28,84.275-41.563,116.622-69.757H443.733z"/>
<path style="fill:#484686;" d="M0,284.444h443.733c-23.723,28.194-51.621,54.477-85.527,69.757H116.622  C70.394,338.921,32.347,312.639,0,284.444z"/>
<g>
</g>
<g>
</g>
<g>
</g>
<g>
</g>
<g>
</g>
<g>
</g>
<g>
</g>
<g>
</g>
<g>
</g>
<g>
</g>
<g>
</g>
<g>
</g>
<g>
</g>
<g>
</g>
<g>
</g>
</svg>
