<svg id="Capa_1" enable-background="new 0 0 512 512" height="512" viewBox="0 0 512 512" width="512" xmlns="http://www.w3.org/2000/svg"><g><path d="m170.667 416.26h-170.667v-333.008c0-11.495 9.318-20.813 20.813-20.813h129.041c11.495 0 20.813 9.318 20.813 20.813z" fill="#ac80dd"/><path d="m149.854 62.439h-24.976c11.495 0 20.813 9.318 20.813 20.813v333.008h24.976v-333.008c0-11.495-9.319-20.813-20.813-20.813z" fill="#9d66d5"/><path d="m341.333 416.26h-170.666v-333.008c0-11.495 9.318-20.813 20.813-20.813h129.04c11.495 0 20.813 9.318 20.813 20.813z" fill="#df75a5"/><path d="m320.52 62.439h-24.976c11.495 0 20.813 9.318 20.813 20.813v333.008h24.976v-333.008c0-11.495-9.318-20.813-20.813-20.813z" fill="#dd5790"/><path d="m203.967 168.69v-62.649c0-5.69 4.612-10.302 10.302-10.302h83.461c5.69 0 10.302 4.612 10.302 10.302v62.649c0 5.69-4.612 10.302-10.302 10.302h-83.461c-5.689 0-10.302-4.613-10.302-10.302z" fill="#f9c6da"/><path d="m33.301 168.69v-62.649c0-5.69 4.612-10.302 10.302-10.302h83.461c5.69 0 10.302 4.612 10.302 10.302v62.649c0 5.69-4.612 10.302-10.302 10.302h-83.461c-5.69 0-10.302-4.613-10.302-10.302z" fill="#dddaec"/><path d="m512 416.26h-170.667v-333.008c0-11.495 9.318-20.813 20.813-20.813h129.041c11.495 0 20.813 9.318 20.813 20.813z" fill="#a2f4c1"/><path d="m491.187 62.439h-24.976c11.495 0 20.813 9.318 20.813 20.813v333.008h24.976v-333.008c0-11.495-9.318-20.813-20.813-20.813z" fill="#86f1a7"/><path d="m501.698 449.561h-12.697c-5.69 0-10.302-4.612-10.302-10.302v-22.999h33.301v22.999c0 5.69-4.612 10.302-10.302 10.302z" fill="#cba763"/><path d="m364.332 449.561h-12.697c-5.69 0-10.302-4.612-10.302-10.302v-22.999h33.301v22.999c0 5.69-4.612 10.302-10.302 10.302z" fill="#dab46b"/><path d="m331.031 449.561h-12.697c-5.69 0-10.302-4.612-10.302-10.302v-22.999h33.301v22.999c0 5.69-4.612 10.302-10.302 10.302z" fill="#cba763"/><path d="m193.666 449.561h-12.697c-5.69 0-10.302-4.612-10.302-10.302v-22.999h33.301v22.999c-.001 5.69-4.613 10.302-10.302 10.302z" fill="#dab46b"/><path d="m160.365 449.561h-12.697c-5.69 0-10.302-4.612-10.302-10.302v-22.999h33.301v22.999c0 5.69-4.613 10.302-10.302 10.302z" fill="#cba763"/><path d="m22.999 449.561h-12.697c-5.69 0-10.302-4.612-10.302-10.302v-22.999h33.301v22.999c0 5.69-4.612 10.302-10.302 10.302z" fill="#dab46b"/><path d="m374.634 168.69v-62.649c0-5.69 4.612-10.302 10.302-10.302h83.461c5.69 0 10.302 4.612 10.302 10.302v62.649c0 5.69-4.612 10.302-10.302 10.302h-83.461c-5.69 0-10.302-4.613-10.302-10.302z" fill="#e4fbef"/><g fill="#ffe07d"><circle cx="49.951" cy="253.919" r="16.65"/><circle cx="220.618" cy="253.919" r="16.65"/><circle cx="391.285" cy="253.919" r="16.65"/></g></g></svg>