<svg id="Capa_1" enable-background="new 0 0 512 512" height="512" viewBox="0 0 512 512" width="512" xmlns="http://www.w3.org/2000/svg"><g><path d="m400.144 160.161s40.254 4.025 80.509-36.229c36.721-36.721 32.418-93.291 29.476-113.378-.659-4.498-4.186-8.025-8.684-8.684-20.086-2.941-76.657-7.244-113.378 29.476-40.254 40.254-36.229 80.509-36.229 80.509z" fill="#f1d59d"/><path d="m400.144 160.161-48.305-48.305c-8.893-8.893-23.311-8.893-32.203 0-8.893 8.893-8.893 23.311 0 32.204l48.305 48.305c8.893 8.893 23.311 8.893 32.204 0 8.892-8.893 8.892-23.311-.001-32.204z" fill="#ffe07d"/><path d="m267.445 127.006-256.619 308.286c-15.472 18.588-14.226 45.905 2.875 63.006 17.101 17.101 44.418 18.348 63.006 2.875l308.287-256.619c10.295-8.57 11.005-24.131 1.534-33.603l-85.48-85.48c-9.472-9.471-25.033-8.761-33.603 1.535z" fill="#e7a561"/><path d="m386.528 210.952-29.717-29.717c9.472 9.472 8.762 25.033-1.534 33.603l-308.286 256.619c-12.798 10.653-29.735 13.379-44.626 8.462 2.224 6.736 6.011 13.053 11.337 18.38 17.101 17.101 44.418 18.348 63.006 2.875l308.287-256.619c10.295-8.57 11.005-24.131 1.533-33.603z" fill="#e49542"/><path d="m511.997 36.548c-4.19 18.008-13.283 35.106-27.318 49.142-35.935 35.935-91.909 39.578-131.935 10.974-1.479 9.389-.905 15.191-.905 15.191l48.305 48.305s40.254 4.025 80.509-36.229c25.844-25.843 31.365-61.513 31.344-87.383z" fill="#efcb84"/></g></svg>