<svg id="Capa_1" enable-background="new 0 0 512 512" height="512" viewBox="0 0 512 512" width="512" xmlns="http://www.w3.org/2000/svg"><g><g><path d="m0 391.285v-270.57c0-16.093 13.046-29.138 29.138-29.138h453.724c16.093 0 29.138 13.046 29.138 29.138v270.569c0 16.093-13.046 29.138-29.138 29.138h-453.724c-16.092.001-29.138-13.045-29.138-29.137z" fill="#df75a5"/></g><g><path d="m482.862 91.577h-31.22c16.093 0 29.138 13.046 29.138 29.138v270.569c0 16.092-13.046 29.138-29.138 29.138h31.22c16.093 0 29.138-13.046 29.138-29.138v-270.569c0-16.092-13.046-29.138-29.138-29.138z" fill="#dd5790"/></g><g><path d="m106.146 199.805h49.951v187.317h-49.951z" fill="#e4fbef"/></g><g><path d="m106.146 199.805v187.317h-39.649c-5.69 0-10.302-4.612-10.302-10.302v-166.713c0-5.69 4.612-10.302 10.302-10.302z" fill="#e4fbef"/></g><g><path d="m112.495 324.683h-12.697c-5.69 0-10.302-4.612-10.302-10.302v-114.576h33.301v114.576c0 5.69-4.613 10.302-10.302 10.302z" fill="#ac80dd"/></g><g><path d="m206.049 199.805h49.951v187.317h-49.951z" fill="#e4fbef"/></g><g><path d="m156.098 199.805h49.951v187.317h-49.951z" fill="#e4fbef"/></g><g><path d="m212.397 324.683h-12.697c-5.69 0-10.302-4.612-10.302-10.302v-114.576h33.301v114.576c0 5.69-4.612 10.302-10.302 10.302z" fill="#ac80dd"/></g><g><path d="m305.951 199.805h49.951v187.317h-49.951z" fill="#e4fbef"/></g><g><path d="m256 199.805h49.951v187.317h-49.951z" fill="#e4fbef"/></g><g><path d="m312.3 324.683h-12.697c-5.69 0-10.302-4.612-10.302-10.302v-114.576h33.301v114.576c0 5.69-4.613 10.302-10.302 10.302z" fill="#ac80dd"/></g><g><path d="m405.854 199.805v187.317h39.649c5.69 0 10.302-4.612 10.302-10.302v-166.713c0-5.69-4.612-10.302-10.302-10.302z" fill="#e4fbef"/></g><g><path d="m355.903 199.805h49.951v187.317h-49.951z" fill="#e4fbef"/></g><g><path d="m412.202 324.683h-12.697c-5.69 0-10.302-4.612-10.302-10.302v-114.576h33.301v114.576c0 5.69-4.612 10.302-10.302 10.302z" fill="#ac80dd"/></g><g><circle cx="106.146" cy="145.691" fill="#a2f4c1" r="20.813"/></g><g><circle cx="206.049" cy="145.691" fill="#ffe07d" r="20.813"/></g><g><path d="m412.098 166.504h-112.39c-5.747 0-10.407-4.659-10.407-10.407v-20.813c0-5.747 4.659-10.407 10.407-10.407h112.39c5.747 0 10.406 4.659 10.406 10.407v20.813c0 5.748-4.659 10.407-10.406 10.407z" fill="#e4fbef"/></g><g><path d="m398.128 324.683h15.453v62.439h-15.453z" fill="#b1e4f9"/></g><g><path d="m298.225 324.683h15.453v62.439h-15.453z" fill="#b1e4f9"/></g><g><path d="m198.322 324.683h15.453v62.439h-15.453z" fill="#b1e4f9"/></g><g><path d="m98.42 324.683h15.453v62.439h-15.453z" fill="#b1e4f9"/></g><g><path d="m148.371 199.805h15.453v187.317h-15.453z" fill="#b1e4f9"/></g><g><path d="m248.274 199.805h15.453v187.317h-15.453z" fill="#b1e4f9"/></g><g><path d="m348.176 199.805h15.453v187.317h-15.453z" fill="#b1e4f9"/></g></g></svg>