<svg id="Capa_1" enable-background="new 0 0 512 512" height="512" viewBox="0 0 512 512" width="512" xmlns="http://www.w3.org/2000/svg"><g><g><g><g><g><path d="m85.333 353.821h-58.276c-11.495 0-20.813-9.318-20.813-20.813v-312.195c0-11.495 9.318-20.813 20.813-20.813h58.276c11.495 0 20.813 9.318 20.813 20.813v312.195c0 11.495-9.318 20.813-20.813 20.813z" fill="#ac80dd"/></g><g><circle cx="56.195" cy="49.951" fill="#dddaec" r="16.65"/></g><g><circle cx="56.195" cy="303.87" fill="#dddaec" r="16.65"/></g></g><g><g><path d="m185.236 333.008h-58.276c-11.495 0-20.813-9.318-20.813-20.813v-291.382c-.001-11.495 9.318-20.813 20.812-20.813h58.276c11.495 0 20.813 9.318 20.813 20.813v291.382c.001 11.495-9.318 20.813-20.812 20.813z" fill="#df75a5"/></g><g><circle cx="156.098" cy="49.951" fill="#dddaec" r="16.65"/></g><g><circle cx="156.098" cy="283.057" fill="#dddaec" r="16.65"/></g></g><g><g><path d="m285.138 312.195h-58.276c-11.495 0-20.813-9.318-20.813-20.813v-270.569c0-11.495 9.318-20.813 20.813-20.813h58.276c11.495 0 20.813 9.318 20.813 20.813v270.569c0 11.495-9.318 20.813-20.813 20.813z" fill="#a2f4c1"/></g><g><circle cx="256" cy="49.951" fill="#dddaec" r="16.65"/></g><g><circle cx="256" cy="262.244" fill="#dddaec" r="16.65"/></g></g><g><g><path d="m385.041 291.382h-58.276c-11.495 0-20.813-9.318-20.813-20.813v-249.756c-.001-11.495 9.318-20.813 20.812-20.813h58.276c11.495 0 20.813 9.318 20.813 20.813v249.756c.001 11.495-9.318 20.813-20.812 20.813z" fill="#e7a561"/></g><g><circle cx="355.902" cy="49.951" fill="#dddaec" r="16.65"/></g><g><circle cx="355.902" cy="241.431" fill="#dddaec" r="16.65"/></g></g><g><g><path d="m484.943 270.569h-58.276c-11.495 0-20.813-9.318-20.813-20.813v-228.943c0-11.495 9.318-20.813 20.813-20.813h58.276c11.495 0 20.813 9.318 20.813 20.813v228.943c0 11.495-9.318 20.813-20.813 20.813z" fill="#ffe07d"/></g><g><path d="m85.333 0h-24.975c11.495 0 20.813 9.318 20.813 20.813v312.195c0 11.495-9.318 20.813-20.813 20.813h24.976c11.495 0 20.813-9.318 20.813-20.813v-312.195c-.001-11.495-9.319-20.813-20.814-20.813z" fill="#9d66d5"/></g><g><path d="m185.236 0h-24.976c11.495 0 20.813 9.318 20.813 20.813v291.382c0 11.495-9.318 20.813-20.813 20.813h24.976c11.495 0 20.813-9.318 20.813-20.813v-291.382c0-11.495-9.319-20.813-20.813-20.813z" fill="#dd5790"/></g><g><path d="m285.138 0h-24.976c11.495 0 20.813 9.318 20.813 20.813v270.569c0 11.495-9.318 20.813-20.813 20.813h24.976c11.495 0 20.813-9.318 20.813-20.813v-270.569c0-11.495-9.318-20.813-20.813-20.813z" fill="#86f1a7"/></g><g><path d="m385.041 0h-24.976c11.495 0 20.813 9.318 20.813 20.813v249.756c0 11.495-9.318 20.813-20.813 20.813h24.976c11.495 0 20.813-9.318 20.813-20.813v-249.756c0-11.495-9.319-20.813-20.813-20.813z" fill="#e49542"/></g><g><path d="m484.943 0h-24.976c11.495 0 20.813 9.318 20.813 20.813v228.943c0 11.495-9.318 20.813-20.813 20.813h24.976c11.495 0 20.813-9.318 20.813-20.813v-228.943c0-11.495-9.318-20.813-20.813-20.813z" fill="#ffd064"/></g><g><circle cx="455.805" cy="49.951" fill="#dddaec" r="16.65"/></g><g><circle cx="455.805" cy="220.618" fill="#dddaec" r="16.65"/></g></g></g></g><g><path d="m416.26 478.1h-343.31c-4.267 0-7.726-3.459-7.726-7.726s3.459-7.726 7.726-7.726h343.31c4.267 0 7.726 3.459 7.726 7.726s-3.459 7.726-7.726 7.726z" fill="#cba763"/></g><g><path d="m439.05 413.58h-343.31c-4.267 0-7.726-3.459-7.726-7.726s3.459-7.726 7.726-7.726h343.31c4.267 0 7.726 3.459 7.726 7.726s-3.459 7.726-7.726 7.726z" fill="#cba763"/></g><g><g><circle cx="41.626" cy="470.374" fill="#f1d59d" r="41.626"/></g><g><path d="m63.024 434.667c3.756 6.253 5.919 13.572 5.919 21.398 0 22.989-18.637 41.626-41.626 41.626-7.826 0-15.144-2.163-21.398-5.919 7.277 12.117 20.543 20.228 35.707 20.228 22.989 0 41.626-18.637 41.626-41.626 0-15.164-8.111-28.43-20.228-35.707z" fill="#efcb84"/></g></g><g><g><circle cx="470.374" cy="405.854" fill="#f1d59d" r="41.626"/></g><g><path d="m491.772 370.147c3.756 6.253 5.919 13.572 5.919 21.398 0 22.989-18.637 41.626-41.626 41.626-7.826 0-15.145-2.163-21.398-5.919 7.277 12.117 20.543 20.228 35.707 20.228 22.989 0 41.626-18.637 41.626-41.626 0-15.164-8.111-28.43-20.228-35.707z" fill="#efcb84"/></g></g></g></svg>