<svg id="Capa_1" enable-background="new 0 0 512 512" height="512" viewBox="0 0 512 512" width="512" xmlns="http://www.w3.org/2000/svg"><g><g><path d="m349.659 124.878h-16.219c-8.959 0-16.912-5.733-19.745-14.231l-16.069-48.208h-83.252l-16.069 48.208c-2.833 8.499-10.786 14.231-19.745 14.231h-16.218c-22.989 0-41.626 18.637-41.626 41.626v20.813h270.569v-20.813c0-22.989-18.637-41.626-41.626-41.626z" fill="#ffe07d"/></g><g><path d="m349.659 124.878h-3.701c8.647 7.628 14.108 18.783 14.108 31.22v31.22h31.22v-20.813c-.001-22.99-18.638-41.627-41.627-41.627z" fill="#ffd064"/></g><g><path d="m272.65 0h-33.3c-13.794 0-24.976 11.182-24.976 24.976v37.463h83.252v-37.463c0-13.794-11.182-24.976-24.976-24.976z" fill="#e4fbef"/></g><g><path d="m370.472 512h-228.944c-22.989 0-41.626-18.637-41.626-41.626v-262.244c0-11.495 9.318-20.813 20.813-20.813h270.569c11.495 0 20.813 9.318 20.813 20.813v262.244c.001 22.989-18.636 41.626-41.625 41.626z" fill="#d3effb"/></g><g><path d="m391.285 187.317h-31.22c11.495 0 20.813 9.318 20.813 20.813v262.244c0 22.989-18.637 41.626-41.626 41.626h31.22c22.989 0 41.626-18.637 41.626-41.626v-262.244c0-11.495-9.319-20.813-20.813-20.813z" fill="#b1e4f9"/></g><g><g><path d="m459.967 240.39h-47.87v33.301h47.87c4.59 0 8.325 3.735 8.325 8.325v135.285c0 4.59-3.735 8.325-8.325 8.325h-47.87v33.301h47.87c22.989 0 41.626-18.637 41.626-41.626v-135.285c.001-22.989-18.636-41.626-41.626-41.626z" fill="#ffe07d"/></g><g><path d="m459.967 240.39h-17.691c22.989 0 41.626 18.637 41.626 41.626v135.285c0 22.989-18.637 41.626-41.626 41.626h17.691c22.989 0 41.626-18.637 41.626-41.626v-135.285c.001-22.989-18.636-41.626-41.626-41.626z" fill="#ffd064"/></g></g><g><g><path d="m52.033 240.39h47.87v33.301h-47.87c-4.59 0-8.325 3.735-8.325 8.325v135.285c0 4.59 3.735 8.325 8.325 8.325h47.87v33.301h-47.87c-22.989 0-41.626-18.637-41.626-41.626v-135.285c0-22.989 18.636-41.626 41.626-41.626z" fill="#ffe07d"/></g><g><path d="m79.089 425.626h20.813v33.301h-20.813z" fill="#ffd064"/></g><g><path d="m79.089 240.39h20.813v33.301h-20.813z" fill="#ffd064"/></g></g><g><path d="m361.106 263.726h-41.626c-4.267 0-7.726-3.459-7.726-7.726s3.459-7.726 7.726-7.726h41.626c4.267 0 7.726 3.459 7.726 7.726s-3.459 7.726-7.726 7.726z" fill="#ac80dd"/></g><g><path d="m361.106 303.271h-41.626c-4.267 0-7.726-3.459-7.726-7.726 0-4.268 3.459-7.726 7.726-7.726h41.626c4.267 0 7.726 3.459 7.726 7.726s-3.459 7.726-7.726 7.726z" fill="#ac80dd"/></g><g><path d="m361.106 342.816h-41.626c-4.267 0-7.726-3.459-7.726-7.726s3.459-7.726 7.726-7.726h41.626c4.267 0 7.726 3.459 7.726 7.726s-3.459 7.726-7.726 7.726z" fill="#ac80dd"/></g><g><path d="m361.106 382.36h-41.626c-4.267 0-7.726-3.459-7.726-7.726 0-4.268 3.459-7.726 7.726-7.726h41.626c4.267 0 7.726 3.459 7.726 7.726s-3.459 7.726-7.726 7.726z" fill="#ac80dd"/></g><g><path d="m361.106 421.905h-41.626c-4.267 0-7.726-3.459-7.726-7.726s3.459-7.726 7.726-7.726h41.626c4.267 0 7.726 3.459 7.726 7.726s-3.459 7.726-7.726 7.726z" fill="#ac80dd"/></g><g><path d="m361.106 461.45h-41.626c-4.267 0-7.726-3.459-7.726-7.726 0-4.268 3.459-7.726 7.726-7.726h41.626c4.267 0 7.726 3.459 7.726 7.726s-3.459 7.726-7.726 7.726z" fill="#ac80dd"/></g></g></svg>