<?xml version="1.0" encoding="iso-8859-1"?>
<!-- Generator: Adobe Illustrator 19.0.0, SVG Export Plug-In . SVG Version: 6.00 Build 0)  -->
<svg xmlns="http://www.w3.org/2000/svg" xmlns:xlink="http://www.w3.org/1999/xlink" version="1.1" id="Layer_1" x="0px" y="0px" viewBox="0 0 512 512" style="enable-background:new 0 0 512 512;" xml:space="preserve">
<path style="fill:#FCD999;" d="M258.867,0.023v511.954C398.928,510.453,512,396.425,512,256S398.928,1.547,258.867,0.023z"/>
<path style="fill:#FEECCC;" d="M258.867,0.023C257.911,0,256.956,0,256,0C114.62,0,0,114.62,0,256  c0,75.093,32.336,142.632,83.831,189.463l116.975,60.564C218.578,509.941,237.045,512,256,512c0.956,0,1.911,0,2.867-0.023  C380.075,510.202,477.867,396.277,477.867,256S380.075,1.798,258.867,0.023z"/>
<circle style="fill:#FCD999;" cx="68.267" cy="256" r="22.756"/>
<path style="fill:#FBC566;" d="M300.115,329.454v91.022c25.134,0,45.511-20.378,45.511-45.511S325.249,329.454,300.115,329.454z"/>
<path style="fill:#FCD999;" d="M300.115,329.454c6.281,0,11.378,20.378,11.378,45.511s-5.097,45.511-11.378,45.511  c-25.145,0-45.511-20.378-45.511-45.511S274.97,329.454,300.115,329.454z"/>
<path style="fill:#FBC566;" d="M402.011,133.666v91.022c25.133,0,45.511-20.378,45.511-45.511S427.145,133.666,402.011,133.666z"/>
<g>
	<path style="fill:#FCD999;" d="M402.011,133.666c6.281,0,11.378,20.378,11.378,45.511s-5.097,45.511-11.378,45.511   c-25.145,0-45.511-20.378-45.511-45.511S376.866,133.666,402.011,133.666z"/>
	<path style="fill:#FCD999;" d="M184.718,459.799c0,15.007-2.412,28.888-6.531,40.164c-35.419-11.287-67.493-30.071-94.356-54.5   c6.588-30.822,33.974-53.931,66.753-53.931C169.438,391.532,184.718,422.093,184.718,459.799z"/>
</g>
<g>
	<path style="fill:#FBC566;" d="M218.852,459.799c0,17.84-6.838,34.065-18.045,46.228c-7.68-1.684-15.223-3.709-22.619-6.064   c4.119-11.275,6.531-25.156,6.531-40.164c0-37.706-15.28-68.267-34.133-68.267C188.291,391.532,218.852,422.093,218.852,459.799z"/>
	<path style="fill:#FBC566;" d="M256,45.511l-45.511,68.267L256,182.044c37.703,0,68.267-30.564,68.267-68.267   S293.703,45.511,256,45.511z"/>
</g>
<path style="fill:#FCD999;" d="M187.733,113.778c0,37.703,30.564,68.267,68.267,68.267V45.511  C218.297,45.511,187.733,76.075,187.733,113.778z"/>
<path style="fill:#F9B233;" d="M256,79.644v68.267c18.853,0,34.133-15.28,34.133-34.133S274.853,79.644,256,79.644z"/>
<g>
	<path style="fill:#FBC566;" d="M256,79.644c6.281,0,11.378,15.28,11.378,34.133s-5.097,34.133-11.378,34.133   c-18.853,0-34.133-15.28-34.133-34.133S237.147,79.644,256,79.644z"/>
	<circle style="fill:#FBC566;" cx="125.156" cy="256" r="8.533"/>
	<circle style="fill:#FBC566;" cx="147.911" cy="290.133" r="8.533"/>
	<circle style="fill:#FBC566;" cx="379.756" cy="374.966" r="8.533"/>
</g>
<g>
</g>
<g>
</g>
<g>
</g>
<g>
</g>
<g>
</g>
<g>
</g>
<g>
</g>
<g>
</g>
<g>
</g>
<g>
</g>
<g>
</g>
<g>
</g>
<g>
</g>
<g>
</g>
<g>
</g>
</svg>
