<?xml version="1.0" encoding="iso-8859-1"?>
<!-- Generator: Adobe Illustrator 19.0.0, SVG Export Plug-In . SVG Version: 6.00 Build 0)  -->
<svg xmlns="http://www.w3.org/2000/svg" xmlns:xlink="http://www.w3.org/1999/xlink" version="1.1" id="Layer_1" x="0px" y="0px" viewBox="0 0 512 512" style="enable-background:new 0 0 512 512;" xml:space="preserve">
<polygon style="fill:#FA9647;" points="324.648,8.581 301.765,42.905 324.648,77.229 358.972,77.229 358.972,8.581 "/>
<rect x="256" y="8.581" style="fill:#F9B233;" width="68.648" height="68.648"/>
<path style="fill:#FB7A5B;" d="M256,0c-4.739,0-8.581,3.842-8.581,8.581v137.296h17.162V8.581C264.581,3.842,260.739,0,256,0z"/>
<path style="fill:#FE4382;" d="M256,122.994l160.168,218.416l34.334-23.914C450.503,210.077,363.42,122.994,256,122.994z"/>
<path style="fill:#FD5F6E;" d="M256,122.994c-107.42,0-194.503,87.082-194.503,194.503c0,32.917,8.189,63.917,22.622,91.094  L256,442.915l160.168-124.386c0.001-0.344,0.01-0.686,0.01-1.031C416.179,210.077,344.464,122.994,256,122.994z"/>
<path style="fill:#FF2796;" d="M416.168,318.528L256,512c107.42,0,194.503-87.082,194.503-194.503  C438.327,317.497,426.914,317.856,416.168,318.528z"/>
<path style="fill:#FE4382;" d="M416.168,318.528c-154,9.636-171.088,83.701-332.049,90.062  C116.787,470.102,181.496,511.999,256,511.999C344.181,512,415.71,425.474,416.168,318.528z"/>
<circle style="fill:#FF2796;" cx="104.402" cy="317.497" r="8.581"/>
<circle style="fill:#B440A1;" cx="363.194" cy="424.691" r="8.581"/>
<circle style="fill:#FF2796;" cx="138.726" cy="283.173" r="8.581"/>
<g>
</g>
<g>
</g>
<g>
</g>
<g>
</g>
<g>
</g>
<g>
</g>
<g>
</g>
<g>
</g>
<g>
</g>
<g>
</g>
<g>
</g>
<g>
</g>
<g>
</g>
<g>
</g>
<g>
</g>
</svg>
