<?xml version="1.0" encoding="iso-8859-1"?>
<!-- Generator: Adobe Illustrator 19.0.0, SVG Export Plug-In . SVG Version: 6.00 Build 0)  -->
<svg xmlns="http://www.w3.org/2000/svg" xmlns:xlink="http://www.w3.org/1999/xlink" version="1.1" id="Layer_1" x="0px" y="0px" viewBox="0 0 512 512" style="enable-background:new 0 0 512 512;" xml:space="preserve">
<path style="fill:#134A79;" d="M240.558,251.408l-82.499,89.046v-78.035h-17.672L10.429,499.774c-2.19,4-0.722,9.018,3.278,11.209  c4.002,2.192,9.02,0.723,11.21-3.278l116.626-213.007v66.822c0,3.398,2.081,6.448,5.244,7.688c3.161,1.238,6.763,0.417,9.072-2.077  l107.215-115.723L240.558,251.408L240.558,251.408z"/>
<path style="fill:#0E3759;" d="M501.57,499.775L371.612,262.419h-17.671c0,0.001,0,0.002,0,0.003v78.415l-84.961-89.429h-22.782  l110.015,115.799c2.327,2.45,5.913,3.233,9.05,1.981c3.138-1.253,5.196-4.29,5.196-7.669v-66.82l116.627,213.007  c2.19,4,7.208,5.469,11.21,3.278C502.294,508.793,503.761,503.775,501.57,499.775z"/>
<g>
	<path style="fill:#134A79;" d="M277.937,35.06c-1.504-1.308-3.429-2.028-5.421-2.028h-8.259V8.258c0-4.562-3.697-8.258-8.258-8.258   c-4.561,0-8.258,3.696-8.258,8.258v24.774h-8.257c-1.992,0-3.918,0.72-5.421,2.028l-72.294,62.894l10.84,12.46l69.963-60.866h5.168   v52.301h16.516V49.548h5.17l69.963,60.866l10.84-12.46L277.937,35.06z"/>
	<rect x="272.515" y="130.29" style="fill:#134A79;" width="66.064" height="88.086"/>
</g>
<rect x="173.419" y="130.29" style="fill:#1D71B8;" width="132.129" height="88.086"/>
<path style="fill:#A5C6E3;" d="M364.455,90.839L319.3,163.322h19.28c26.525-17.243,47.302-42.578,58.907-72.484H364.455z"/>
<path style="fill:#D2E3F1;" d="M114.511,90.839c11.605,29.905,32.383,55.241,58.907,72.484H319.3  c20.326-17.243,36.258-42.578,45.155-72.484H114.511z"/>
<polygon style="fill:#FBC566;" points="200.945,196.354 140.386,196.354 140.386,262.419 200.945,262.419 222.967,229.387 "/>
<polygon style="fill:#F9B233;" points="371.612,196.354 371.612,262.419 338.58,262.419 316.558,229.387 338.58,196.354 "/>
<polygon style="fill:#FBC566;" points="338.58,196.354 338.58,262.419 311.053,262.419 289.031,229.387 311.053,196.354 "/>
<polygon style="fill:#FCD999;" points="271.965,196.354 271.965,196.773 255.449,221.389 238.932,196.773 200.945,196.354   200.945,262.419 311.053,262.419 311.053,196.354 "/>
<rect x="239.483" y="196.773" style="fill:#134A79;" width="33.032" height="229.893"/>
<rect x="222.967" y="393.634" style="fill:#1D71B8;" width="66.064" height="77.075"/>
<path style="fill:#A5C6E3;" d="M255.999,437.673v66.064c18.245,0,33.032-14.787,33.032-33.032S274.244,437.673,255.999,437.673z"/>
<path style="fill:#D2E3F1;" d="M255.999,437.673c6.078,0,11.011,14.787,11.011,33.032s-4.933,33.032-11.011,33.032  c-18.245,0-33.032-14.787-33.032-33.032S237.754,437.673,255.999,437.673z"/>
<g>
</g>
<g>
</g>
<g>
</g>
<g>
</g>
<g>
</g>
<g>
</g>
<g>
</g>
<g>
</g>
<g>
</g>
<g>
</g>
<g>
</g>
<g>
</g>
<g>
</g>
<g>
</g>
<g>
</g>
</svg>
