<?xml version="1.0" encoding="iso-8859-1"?>
<!-- Generator: Adobe Illustrator 19.0.0, SVG Export Plug-In . SVG Version: 6.00 Build 0)  -->
<svg xmlns="http://www.w3.org/2000/svg" xmlns:xlink="http://www.w3.org/1999/xlink" version="1.1" id="Layer_1" x="0px" y="0px" viewBox="0 0 512 512" style="enable-background:new 0 0 512 512;" xml:space="preserve">
<rect x="29.729" y="247.742" style="fill:#185E98;" width="165.161" height="16.516"/>
<rect x="317.11" y="247.742" style="fill:#0E3759;" width="165.161" height="16.516"/>
<path style="fill:#185E98;" d="M337.809,68.005L261.971,2.027c-3.107-2.703-7.733-2.703-10.841,0l-75.84,65.98l10.841,12.46  l62.161-54.078v42.429h16.516V26.389l62.159,54.077L337.809,68.005z"/>
<path style="fill:#0E3759;" d="M326.968,431.534l-62.159,54.077v-53.438h-16.516v53.44l-62.161-54.079l-10.841,12.46l75.84,65.98  c1.554,1.353,3.487,2.028,5.421,2.028c1.934,0,3.867-0.676,5.421-2.028l75.838-65.978L326.968,431.534z"/>
<polygon style="fill:#77AAD4;" points="276.389,119.902 236.713,119.902 213.196,156.902 256,189.935 299.906,156.902 "/>
<polygon style="fill:#4A8DC6;" points="276.389,392.098 236.713,392.098 213.196,355.097 256,322.065 299.906,355.097 "/>
<path style="fill:#A5C6E3;" d="M317.11,57.807l-60.559,64.061c42.634,0,79.046-26.58,93.591-64.061H317.11z"/>
<path style="fill:#77AAD4;" d="M317.11,454.194l-60.559-64.061c42.634,0,79.046,26.58,93.591,64.061H317.11z"/>
<polygon style="fill:#F9B233;" points="338.581,156.904 338.581,355.097 305.549,355.097 283.527,256 305.549,156.904 "/>
<path style="fill:#D2E3F1;" d="M162.959,57.807H317.11c-9.414,37.481-32.977,64.061-60.559,64.061  C213.917,121.867,177.505,95.287,162.959,57.807z"/>
<path style="fill:#A5C6E3;" d="M162.959,454.194H317.11c-9.414-37.481-32.977-64.061-60.559-64.061  C213.917,390.133,177.505,416.713,162.959,454.194z"/>
<polygon style="fill:#FBC566;" points="305.549,156.904 305.549,355.097 256,355.097 222.968,256 256,156.904 "/>
<rect x="173.42" y="156.904" style="fill:#FEECCC;" width="82.581" height="198.194"/>
<polygon style="fill:#1D71B8;" points="128.826,123.871 128.826,189.936 73.772,211.957 95.794,123.871 "/>
<polygon style="fill:#134A79;" points="95.794,123.871 95.794,189.936 40.74,211.957 62.761,123.871 "/>
<polygon style="fill:#1D71B8;" points="62.761,123.871 62.761,211.957 29.729,189.936 29.729,123.871 "/>
<polygon style="fill:#134A79;" points="128.826,189.936 128.826,256 73.772,278.022 95.794,189.936 "/>
<polygon style="fill:#1D71B8;" points="95.794,189.936 95.794,256 40.74,278.022 62.761,189.936 "/>
<polygon style="fill:#134A79;" points="62.761,189.936 62.761,278.022 29.729,256 29.729,189.936 "/>
<polygon style="fill:#1D71B8;" points="128.826,256 128.826,322.065 73.772,344.086 95.794,256 "/>
<polygon style="fill:#134A79;" points="95.794,256 95.794,322.065 40.74,344.086 62.761,256 "/>
<polygon style="fill:#1D71B8;" points="62.761,256 62.761,344.086 29.729,322.065 29.729,256 "/>
<polygon style="fill:#134A79;" points="128.826,322.065 128.826,388.129 95.794,388.129 73.772,355.097 95.794,322.065 "/>
<polygon style="fill:#1D71B8;" points="95.794,322.065 95.794,388.129 62.761,388.129 40.74,355.097 62.761,322.065 "/>
<rect x="29.729" y="322.065" style="fill:#134A79;" width="33.032" height="66.065"/>
<polygon style="fill:#1D71B8;" points="383.174,123.871 383.174,189.936 438.228,211.957 416.207,123.871 "/>
<polygon style="fill:#134A79;" points="416.207,123.871 416.207,189.936 471.26,211.957 449.239,123.871 "/>
<polygon style="fill:#1D71B8;" points="449.239,123.871 449.239,211.957 482.271,189.936 482.271,123.871 "/>
<polygon style="fill:#134A79;" points="383.174,189.936 383.174,256 438.228,278.022 416.207,189.936 "/>
<polygon style="fill:#1D71B8;" points="416.207,189.936 416.207,256 471.26,278.022 449.239,189.936 "/>
<polygon style="fill:#134A79;" points="449.239,189.936 449.239,278.022 482.271,256 482.271,189.936 "/>
<polygon style="fill:#1D71B8;" points="383.174,256 383.174,322.065 438.228,344.086 416.207,256 "/>
<polygon style="fill:#134A79;" points="416.207,256 416.207,322.065 471.26,344.086 449.239,256 "/>
<polygon style="fill:#1D71B8;" points="449.239,256 449.239,344.086 482.271,322.065 482.271,256 "/>
<polygon style="fill:#134A79;" points="383.174,322.065 383.174,388.129 416.207,388.129 438.228,355.097 416.207,322.065 "/>
<polygon style="fill:#1D71B8;" points="416.207,322.065 416.207,388.129 449.239,388.129 471.26,355.097 449.239,322.065 "/>
<rect x="449.239" y="322.065" style="fill:#134A79;" width="33.032" height="66.065"/>
<g>
	<path style="fill:#FD5F6E;" d="M305.549,231.226h-16.516c-4.562,0-8.258-3.696-8.258-8.258c0-4.562,3.696-8.258,8.258-8.258h16.516   c4.562,0,8.258,3.696,8.258,8.258C313.807,227.53,310.109,231.226,305.549,231.226z"/>
	<path style="fill:#FD5F6E;" d="M305.549,198.194h-16.516c-4.562,0-8.258-3.696-8.258-8.258c0-4.562,3.696-8.258,8.258-8.258h16.516   c4.562,0,8.258,3.696,8.258,8.258C313.807,194.498,310.109,198.194,305.549,198.194z"/>
	<path style="fill:#FD5F6E;" d="M305.549,264.258h-16.516c-4.562,0-8.258-3.696-8.258-8.258c0-4.562,3.696-8.258,8.258-8.258h16.516   c4.562,0,8.258,3.696,8.258,8.258C313.807,260.562,310.109,264.258,305.549,264.258z"/>
</g>
<g>
</g>
<g>
</g>
<g>
</g>
<g>
</g>
<g>
</g>
<g>
</g>
<g>
</g>
<g>
</g>
<g>
</g>
<g>
</g>
<g>
</g>
<g>
</g>
<g>
</g>
<g>
</g>
<g>
</g>
</svg>
