<svg id="Capa_1" enable-background="new 0 0 512 512" height="512" viewBox="0 0 512 512" width="512" xmlns="http://www.w3.org/2000/svg"><g><g><path d="m256 512c-4.204 0-7.611-3.407-7.611-7.612v-136.348c0-4.204 3.407-7.611 7.611-7.611s7.612 3.407 7.612 7.611v136.349c0 4.204-3.408 7.611-7.612 7.611z" fill="#ffe07d"/></g><g><path d="m374.921 512c-4.204 0-7.612-3.407-7.612-7.612v-104.329c0-4.204 3.407-7.612 7.612-7.612s7.611 3.407 7.611 7.612v104.329c0 4.205-3.407 7.612-7.611 7.612z" fill="#ffe07d"/></g><g><path d="m137.079 512c-4.204 0-7.611-3.407-7.611-7.612v-104.329c0-4.204 3.407-7.612 7.611-7.612s7.611 3.407 7.611 7.612v104.329c.001 4.205-3.407 7.612-7.611 7.612z" fill="#ffe07d"/></g><g><g><path d="m398.5 393.908c0 13.022-10.557 6.151-23.579 6.151s-23.579 6.871-23.579-6.151 10.557-23.579 23.579-23.579 23.579 10.556 23.579 23.579z" fill="#86f1a7"/></g><g><path d="m508.194 165.293c0 73.605-59.669 205.036-133.273 205.036s-133.274-131.431-133.274-205.036 59.669-133.274 133.274-133.274 133.273 59.669 133.273 133.274z" fill="#a2f4c1"/></g><g><path d="m241.647 165.293c0 52.278 30.105 133.713 73.92 176.523 20.317-14.792 39.339-37.102 56.015-66.184 25.693-44.806 42.295-100.685 42.295-142.359 0-38.49-13.852-73.801-36.824-101.227-.71-.011-1.42-.027-2.133-.027-73.604 0-133.273 59.669-133.273 133.274z" fill="#86f1a7"/></g></g><g><g><path d="m113.5 393.908c0 13.022 10.557 6.151 23.579 6.151s23.579 6.871 23.579-6.151-10.557-23.579-23.579-23.579-23.579 10.556-23.579 23.579z" fill="#dd5790"/></g><g><path d="m3.806 165.293c0 73.605 59.669 205.036 133.273 205.036s133.273-131.431 133.273-205.036-59.668-133.274-133.273-133.274-133.273 59.669-133.273 133.274z" fill="#df75a5"/></g><g><path d="m270.353 165.293c0 52.278-30.105 133.713-73.92 176.523-20.317-14.792-39.339-37.102-56.015-66.184-25.693-44.806-42.295-100.685-42.295-142.359 0-38.49 13.852-73.801 36.824-101.227.71-.011 1.42-.027 2.133-.027 73.604 0 133.273 59.669 133.273 133.274z" fill="#dd5790"/></g></g><g><g><path d="m279.579 361.888c0 13.022-10.557 6.151-23.579 6.151s-23.579 6.871-23.579-6.151 10.557-23.579 23.579-23.579 23.579 10.557 23.579 23.579z" fill="#9d66d5"/></g><g><path d="m389.273 133.273c0 73.605-59.669 205.036-133.273 205.036s-133.273-131.431-133.273-205.036 59.668-133.273 133.273-133.273 133.273 59.669 133.273 133.273z" fill="#ac80dd"/></g><g><path d="m329.967 22.401c14.147 21.163 22.4 46.6 22.4 73.966 0 73.605-59.669 205.036-133.273 205.036-14.588 0-28.624-5.177-41.761-14.029 22.049 29.92 49.242 50.936 78.668 50.936 73.605 0 133.273-131.431 133.273-205.036-.001-46.239-23.551-86.972-59.307-110.873z" fill="#9d66d5"/></g></g></g></svg>