<?xml version="1.0" encoding="iso-8859-1"?>
<!-- Generator: Adobe Illustrator 19.0.0, SVG Export Plug-In . SVG Version: 6.00 Build 0)  -->
<svg xmlns="http://www.w3.org/2000/svg" xmlns:xlink="http://www.w3.org/1999/xlink" version="1.1" id="Layer_1" x="0px" y="0px" viewBox="0 0 512 512" style="enable-background:new 0 0 512 512;" xml:space="preserve">
<path style="fill:#FD5F6E;" d="M486.766,145.036H451.13v221.929h35.636C502.938,333.395,512,295.756,512,256  S502.938,178.605,486.766,145.036z"/>
<path style="fill:#B440A1;" d="M424.132,387.271l-75.674,98.02l41.929-11.378c25.938-16.03,48.803-36.555,67.499-60.497  L424.132,387.271z"/>
<path style="fill:#FD5F6E;" d="M371.212,470.259L256,512c49.293,0,95.324-13.946,134.386-38.087  C383.809,472.776,377.423,471.554,371.212,470.259z"/>
<path style="fill:#FE4382;" d="M256,0l168.132,124.729l33.754-26.145C411.034,38.583,338.026,0,256,0z"/>
<path style="fill:#FB7A5B;" d="M451.13,159.873c-31.797,20.175-52.908,55.682-52.908,96.127s21.11,75.952,52.908,96.127  C461.025,322.445,466.489,290,466.489,256S461.025,189.555,451.13,159.873z"/>
<g>
	<path style="fill:#FF2796;" d="M457.885,98.584c-11.857,0.86-23.078,2.005-33.754,3.389v28.95l26.998,28.95   c10.785-6.844,22.797-11.93,35.636-14.837C478.792,128.482,469.083,112.923,457.885,98.584z"/>
	<path style="fill:#FF2796;" d="M451.13,352.127l-26.998,28.95v28.95c10.677,1.385,21.897,2.529,33.754,3.389   c11.197-14.341,20.907-29.899,28.88-46.452C473.927,364.057,461.915,358.971,451.13,352.127z"/>
</g>
<path style="fill:#FE4382;" d="M398.222,256c0-40.446,21.11-75.952,52.908-96.127c-6.934-20.8-16.045-40.24-26.998-57.899H310.354  L4.038,210.475C1.387,225.249,0,240.463,0,256s1.387,30.751,4.038,45.525l306.315,108.502h113.778  c10.955-17.659,20.065-37.1,26.998-57.899C419.333,331.952,398.222,296.446,398.222,256z"/>
<path style="fill:#FD5F6E;" d="M256,0c-36.648,0-71.489,7.718-103.01,21.589L21.588,152.991  c-7.991,18.157-13.948,37.411-17.55,57.485c219.073-1.038,248.71-86.269,420.093-108.502C385.714,40.041,324.705,0,256,0z"/>
<path style="fill:#FBC566;" d="M121.301,121.301c27.134-27.134,37.696-64.561,31.691-99.711  C94.429,47.362,47.362,94.428,21.589,152.991C56.739,158.995,94.167,148.433,121.301,121.301z"/>
<path style="fill:#FF2796;" d="M4.038,301.525c4.357,24.271,12.147,47.346,22.828,68.726l201.408,100.008h142.938  c20.369-16.234,38.284-36.64,52.918-60.233C252.748,387.793,223.111,302.562,4.038,301.525z"/>
<path style="fill:#FB7A5B;" d="M228.275,420.783c-56.505-25.113-105.946-47.08-201.408-50.531C68.849,454.283,155.678,512,256,512  c42.532,0,82.11-15.358,115.212-41.741C311.665,457.84,268.348,438.593,228.275,420.783z"/>
<g>
	<circle style="fill:#B440A1;" cx="334.04" cy="308.668" r="8.533"/>
	<circle style="fill:#B440A1;" cx="299.907" cy="274.534" r="8.533"/>
</g>
<circle style="fill:#FF2796;" cx="337.636" cy="58.906" r="8.533"/>
<g>
</g>
<g>
</g>
<g>
</g>
<g>
</g>
<g>
</g>
<g>
</g>
<g>
</g>
<g>
</g>
<g>
</g>
<g>
</g>
<g>
</g>
<g>
</g>
<g>
</g>
<g>
</g>
<g>
</g>
</svg>
