<svg id="Capa_1" enable-background="new 0 0 512 512" height="512" viewBox="0 0 512 512" width="512" xmlns="http://www.w3.org/2000/svg"><g><g><path d="m401.691 203.967h-291.382v-79.194c0-5.69 4.612-10.302 10.302-10.302h270.779c5.69 0 10.302 4.612 10.302 10.302v79.194z" fill="#e7a561"/></g><g><path d="m401.691 203.967h-24.976v-89.496h14.674c5.69 0 10.302 4.612 10.302 10.302z" fill="#e49542"/></g><g><path d="m391.389 512h-270.778c-5.69 0-10.302-4.612-10.302-10.302v-79.194h291.382v79.194c0 5.69-4.612 10.302-10.302 10.302z" fill="#e7a561"/></g><g><path d="m391.389 512h-14.674v-89.496h24.976v79.194c0 5.69-4.612 10.302-10.302 10.302z" fill="#e49542"/></g><g><path d="m110.309 203.967h291.382v218.537h-291.382z" fill="#e4fbef"/></g><g><path d="m376.715 203.967h24.976v218.537h-24.976z" fill="#d3effb"/></g><g><path d="m391.389 0h-64.625c-17.242 0-31.22 13.977-31.22 31.22v83.252h33.301v-81.171h62.544c5.69 0 10.302-4.612 10.302-10.302v-12.697c0-5.69-4.612-10.302-10.302-10.302z" fill="#df75a5"/></g><g><path d="m295.545 89.496h33.301v24.976h-33.301z" fill="#dd5790"/></g><g><path d="m256.014 272.09c-.273 0-.549-.014-.826-.043-4.244-.447-7.318-4.287-6.871-8.53.107-1.01 2.904-24.821 29.175-33.578 4.049-1.348 8.424.838 9.774 4.887 1.349 4.048-.838 8.424-4.886 9.773-16.625 5.542-18.626 19.998-18.702 20.611-.419 3.965-3.765 6.88-7.664 6.88z" fill="#86f1a7"/></g><g><path d="m368.39 396.93h-20.813c-4.268 0-7.726-3.459-7.726-7.726s3.459-7.726 7.726-7.726h20.813c4.268 0 7.726 3.459 7.726 7.726.001 4.266-3.458 7.726-7.726 7.726z" fill="#df75a5"/></g><g><path d="m368.39 363.629h-20.813c-4.268 0-7.726-3.459-7.726-7.726s3.459-7.726 7.726-7.726h20.813c4.268 0 7.726 3.459 7.726 7.726.001 4.267-3.458 7.726-7.726 7.726z" fill="#df75a5"/></g><g><path d="m164.423 396.93h-20.813c-4.267 0-7.726-3.459-7.726-7.726s3.459-7.726 7.726-7.726h20.813c4.267 0 7.726 3.459 7.726 7.726 0 4.266-3.459 7.726-7.726 7.726z" fill="#df75a5"/></g><g><path d="m164.423 363.629h-20.813c-4.267 0-7.726-3.459-7.726-7.726s3.459-7.726 7.726-7.726h20.813c4.267 0 7.726 3.459 7.726 7.726s-3.459 7.726-7.726 7.726z" fill="#df75a5"/></g><g><circle cx="256" cy="326.764" fill="#e7a561" r="62.439"/></g><g><path d="m289.139 273.853c6.029 9.606 9.528 20.961 9.528 33.139 0 34.484-27.955 62.439-62.439 62.439-12.178 0-23.533-3.499-33.139-9.528 11.043 17.595 30.605 29.3 52.911 29.3 34.484 0 62.439-27.955 62.439-62.439 0-22.306-11.706-41.868-29.3-52.911z" fill="#e49542"/></g><g><path d="m254.966 261.918c-3.2-.061-6.249 1.401-8.209 3.932-4.936 6.375-12.79 20.582-3.968 39.019 8.825 18.444 24.823 21.237 32.882 21.391 3.2.061 6.249-1.401 8.209-3.932 4.936-6.375 12.79-20.582 3.968-39.019-8.826-18.444-24.824-21.237-32.882-21.391z" fill="#a2f4c1"/></g></g></svg>