<svg id="Capa_1" enable-background="new 0 0 512 512" height="512" viewBox="0 0 512 512" width="512" xmlns="http://www.w3.org/2000/svg"><g><path d="m343.415 33.301h-4.163c0-18.392-14.909-33.301-33.301-33.301h-99.902c-18.392 0-33.301 14.909-33.301 33.301h-4.163c-45.979 0-83.252 37.273-83.252 83.252v87.415h33.301v-91.578c0-25.288 20.5-45.789 45.789-45.789h16.65c11.495 0 20.813-9.318 20.813-20.813v-12.487h108.228v12.488c0 11.495 9.318 20.813 20.813 20.813h16.65c25.288 0 45.789 20.5 45.789 45.789v91.577h33.301v-87.415c0-45.979-37.273-83.252-83.252-83.252z" fill="#ffe07d"/><path d="m85.333 182.114h33.301v21.854h-33.301z" fill="#ffd064"/><path d="m393.366 182.114h33.301v21.854h-33.301z" fill="#ffd064"/><path d="m447.48 256h-382.96c-5.747 0-10.407-4.659-10.407-10.407v-31.22c0-5.747 4.659-10.406 10.407-10.406h382.96c5.747 0 10.406 4.659 10.406 10.406v31.22c0 5.748-4.659 10.407-10.406 10.407z" fill="#ac80dd"/><path d="m447.48 203.967h-36.423c5.747 0 10.406 4.659 10.406 10.406v31.22c0 5.747-4.659 10.407-10.406 10.407h36.423c5.747 0 10.406-4.659 10.406-10.407v-31.22c0-5.746-4.659-10.406-10.406-10.406z" fill="#9d66d5"/><path d="m89.496 256 17.703 217.747c1.757 21.61 19.808 38.253 41.489 38.253h214.624c21.682 0 39.732-16.643 41.489-38.253l17.703-217.747z" fill="#df75a5"/><path d="m420.474 280.976 2.03-24.976h-333.008l2.03 24.976z" fill="#dd5790"/><g><path d="m313.946 384c10.351-9.112 13.201-24.542 6.042-36.943s-21.948-17.648-35.014-13.239c-2.715-13.52-14.654-23.704-28.973-23.704s-26.258 10.184-28.973 23.704c-13.066-4.408-27.855.839-35.014 13.239s-4.309 27.832 6.042 36.943c-10.351 9.111-13.201 24.542-6.042 36.943s21.948 17.648 35.014 13.239c2.715 13.52 14.654 23.704 28.973 23.704s26.258-10.184 28.973-23.704c13.066 4.408 27.855-.839 35.014-13.239s4.308-27.832-6.042-36.943z" fill="#ffe07d"/><path d="m313.946 384c10.351-9.112 13.201-24.542 6.042-36.943-5.448-9.436-15.313-14.724-25.475-14.774-1.725 42.908-37.05 77.166-80.382 77.166-9.121 0-17.887-1.52-26.06-4.317-.193 5.355 1.064 10.828 3.942 15.811 7.16 12.401 21.948 17.648 35.014 13.239 2.715 13.52 14.654 23.704 28.973 23.704s26.258-10.184 28.973-23.704c13.066 4.408 27.855-.839 35.014-13.239s4.309-27.832-6.041-36.943z" fill="#ffd064"/><circle cx="256" cy="384" fill="#e7a561" r="27.057"/></g></g></svg>