<?xml version="1.0" encoding="iso-8859-1"?>
<!-- Generator: Adobe Illustrator 19.0.0, SVG Export Plug-In . SVG Version: 6.00 Build 0)  -->
<svg xmlns="http://www.w3.org/2000/svg" xmlns:xlink="http://www.w3.org/1999/xlink" version="1.1" id="Layer_1" x="0px" y="0px" viewBox="0 0 512 512" style="enable-background:new 0 0 512 512;" xml:space="preserve">
<polygon style="fill:#FCD999;" points="460.8,204.8 449.057,192.415 264.533,367.261 264.533,182.044 247.467,182.044   247.467,367.261 62.943,192.415 51.2,204.8 245.138,388.569 225.527,420.955 236.027,436.563 256,403.58 275.973,436.563   286.473,420.955 266.862,388.569 "/>
<polygon style="fill:#A5C6E3;" points="286.436,420.978 320.91,477.389 256,500.144 271.212,420.978 "/>
<polygon style="fill:#D2E3F1;" points="271.212,420.978 288.449,477.389 256,500.144 191.09,477.389 225.564,420.978 "/>
<path style="fill:#FB7A5B;" d="M51.2,204.8h81.92L254.407,0.011C142.04,0.865,51.2,92.228,51.2,204.8z"/>
<path style="fill:#FE4382;" d="M400.816,59.984c-36.58-36.58-86.938-59.381-142.609-59.972L426.667,204.8H460.8  C460.8,148.252,437.874,97.052,400.816,59.984z"/>
<path style="fill:#FB7A5B;" d="M258.207,0.011h-0.614L378.88,204.8h47.787C426.667,92.581,351.448,1.434,258.207,0.011z"/>
<path style="fill:#134A79;" d="M320.91,477.389h-32.461L278.756,512h22.756c12.572,0,22.756-10.183,22.756-22.756  C324.267,484.898,323.026,480.848,320.91,477.389z"/>
<path style="fill:#185E98;" d="M288.449,477.389c1.058,3.459,1.684,7.509,1.684,11.856c0,12.572-5.097,22.756-11.378,22.756h-68.267  c-12.572,0-22.756-10.183-22.756-22.756c0-4.346,1.24-8.397,3.356-11.856H288.449z"/>
<g>
	<path style="fill:#FEECCC;" d="M254.407,0.011C187.278,1.434,133.12,92.581,133.12,204.8h81.92L256,0   C255.465,0,254.942,0,254.407,0.011z"/>
	<path style="fill:#FEECCC;" d="M257.593,0.011C257.058,0,256.535,0,256,0l40.96,204.8h81.92   C378.88,92.581,324.722,1.434,257.593,0.011z"/>
</g>
<path style="fill:#FB7A5B;" d="M256,0c22.619,0,40.96,91.694,40.96,204.8h-81.92C215.04,91.694,233.381,0,256,0z"/>
<circle style="fill:#134A79;" cx="256" cy="449.183" r="8.533"/>
<g>
</g>
<g>
</g>
<g>
</g>
<g>
</g>
<g>
</g>
<g>
</g>
<g>
</g>
<g>
</g>
<g>
</g>
<g>
</g>
<g>
</g>
<g>
</g>
<g>
</g>
<g>
</g>
<g>
</g>
</svg>
