<svg id="Capa_1" enable-background="new 0 0 511.999 511.999" height="512" viewBox="0 0 511.999 511.999" width="512" xmlns="http://www.w3.org/2000/svg"><g><g><path d="m335.089 199.948c-4.268 0-7.726-3.459-7.726-7.726v-45.962c0-12.467 6.927-23.675 18.076-29.25l17.413-8.707c3.819-1.909 8.459-.361 10.366 3.455 1.908 3.816.361 8.458-3.455 10.366l-17.413 8.707c-5.881 2.941-9.535 8.853-9.535 15.429v45.962c0 4.267-3.458 7.726-7.726 7.726z" fill="#df75a5"/></g><g><path d="m176.91 199.948c-4.268 0-7.726-3.459-7.726-7.726v-45.962c0-6.576-3.654-12.488-9.535-15.429l-17.413-8.707c-3.816-1.908-5.363-6.549-3.455-10.366 1.907-3.816 6.547-5.365 10.366-3.455l17.413 8.707c11.15 5.575 18.076 16.783 18.076 29.25v45.962c0 4.267-3.458 7.726-7.726 7.726z" fill="#df75a5"/></g><path d="m214.374 213.035-10.407 158.179h104.065l-10.406-158.179z" fill="#30579d"/><path d="m501.593 192.221h-245.593-245.594c-5.747 0-10.406 4.66-10.406 10.407v20.813c0 5.747 4.659 10.407 10.406 10.407h245.594 245.593c5.747 0 10.406-4.659 10.406-10.407v-20.813c0-5.747-4.659-10.407-10.406-10.407z" fill="#a2f4c1"/><path d="m407.934 150.595c-11.495 0-20.813 9.318-20.813 20.813v20.813h104.065v-20.813c0-11.495-9.318-20.813-20.813-20.813z" fill="#ffe07d"/><path d="m104.065 150.595c11.495 0 20.813 9.318 20.813 20.813v20.813h-104.065v-20.813c0-11.495 9.318-20.813 20.813-20.813z" fill="#ffe07d"/><path d="m184.036 192.221c-1.916 6.613-2.963 13.591-2.963 20.813s1.048 14.2 2.963 20.813h71.964 71.963c1.916-6.613 2.963-13.591 2.963-20.813s-1.048-14.2-2.963-20.813h-71.963z" fill="#86f1a7"/><path d="m210.463 272.479c12.631 9.699 28.417 15.483 45.537 15.483s32.906-5.784 45.537-15.483l-3.911-59.444h-83.252z" fill="#26457d"/><circle cx="256" cy="213.035" fill="#ac80dd" r="52.032"/><circle cx="256" cy="213.035" fill="#ffe07d" r="16.65"/><path d="m172.748 381.515v12.697c0 5.69 4.612 10.302 10.302 10.302h145.9c5.69 0 10.302-4.612 10.302-10.302v-12.697c0-5.69-4.612-10.302-10.302-10.302h-145.9c-5.69.001-10.302 4.613-10.302 10.302z" fill="#ac80dd"/><path d="m314.276 371.214v33.301h14.674c5.69 0 10.302-4.612 10.302-10.302v-12.697c0-5.69-4.612-10.302-10.302-10.302z" fill="#9d66d5"/></g></svg>