<svg id="Capa_1" enable-background="new 0 0 512 512" height="512" viewBox="0 0 512 512" width="512" xmlns="http://www.w3.org/2000/svg"><g><path d="m447.48 64.52h-382.96v-43.707c0-11.495 9.319-20.813 20.813-20.813h341.333c11.495 0 20.813 9.318 20.813 20.813v43.707z" fill="#e4fbef"/><path d="m426.667 0h-24.976c11.495 0 20.813 9.318 20.813 20.813v43.707h24.976v-43.707c0-11.495-9.319-20.813-20.813-20.813z" fill="#d3effb"/><path d="m426.667 512h-341.334c-11.495 0-20.813-9.318-20.813-20.813v-393.366h382.96v393.366c0 11.495-9.319 20.813-20.813 20.813z" fill="#e4fbef"/><path d="m422.504 97.821v393.366c0 11.495-9.318 20.813-20.813 20.813h24.976c11.495 0 20.813-9.318 20.813-20.813v-393.366z" fill="#d3effb"/><path d="m447.48 97.821h-382.96c-9.196 0-16.65-7.455-16.65-16.65 0-9.196 7.455-16.65 16.65-16.65h382.96c9.196 0 16.65 7.455 16.65 16.65 0 9.196-7.455 16.65-16.65 16.65z" fill="#df75a5"/><path d="m447.48 64.52h-32.26c9.196 0 16.65 7.455 16.65 16.65s-7.455 16.65-16.65 16.65h32.26c9.196 0 16.65-7.455 16.65-16.65s-7.455-16.65-16.65-16.65z" fill="#dd5790"/><path d="m383.48 417.821c-4.957-4.296-7.805-10.533-7.805-17.092v-138.482c0-5.999 2.383-11.752 6.625-15.994l2.36-2.36c3.45-3.45 5.643-7.905 6.352-12.673-5.517-50.203-93.69-66.797-135.012-66.797s-129.495 16.594-135.012 66.797c.709 4.768 2.902 9.224 6.352 12.674l2.36 2.36c4.242 4.242 6.625 9.995 6.625 15.994v138.482c0 6.56-2.848 12.796-7.805 17.092s-7.805 10.533-7.805 17.092v21.168c0 12.492 10.127 22.618 22.618 22.618h112.667 112.666c12.492 0 22.618-10.126 22.618-22.618v-21.168c0-6.56-2.847-12.797-7.804-17.093z" fill="#f1d59d"/><path d="m382.3 246.253 2.36-2.36c4.242-4.242 6.625-9.995 6.625-15.994v-24.973c0-54.114-92.618-71.805-135.285-71.805-3.651 0-7.674.133-11.967.404 45.878 2.894 123.317 21.917 123.317 71.401v24.974c0 5.999-2.383 11.752-6.625 15.994l-2.36 2.36c-4.242 4.242-6.625 9.995-6.625 15.994v138.482c0 6.56 2.848 12.796 7.805 17.092s7.805 10.533 7.805 17.092v21.167c0 12.492-10.127 22.618-22.618 22.618h23.935c12.492 0 22.618-10.127 22.618-22.618v-21.167c0-6.56-2.848-12.796-7.805-17.092s-7.805-10.533-7.805-17.092v-138.483c0-5.999 2.383-11.752 6.625-15.994z" fill="#efcb84"/><path d="m375.675 262.247 35.738 112.042c1.58 4.953-.778 10.306-5.498 12.484l-30.24 13.956z" fill="#ffe07d"/><path d="m256 131.122c-42.667 0-135.285 17.691-135.285 71.805v24.973c0 1.12.11 2.226.273 3.32 5.517-50.203 93.69-66.797 135.012-66.797s129.495 16.594 135.012 66.797c.163-1.095.273-2.2.273-3.32v-24.973c0-54.114-92.618-71.805-135.285-71.805z" fill="#dab46b"/><path d="m256 131.122c-3.651 0-7.674.133-11.967.404 43.05 2.715 113.873 19.639 122.445 62.598 13.432 9.551 22.849 21.751 24.535 37.095.163-1.095.273-2.2.273-3.32v-24.973c-.001-54.113-92.619-71.804-135.286-71.804z" fill="#cba763"/><path d="m136.325 262.247-29.704 12.04c-4.972 2.015-7.565 7.509-5.961 12.628l35.665 113.814z" fill="#ffe07d"/><g fill="#efcb84"><circle cx="331.967" cy="439.154" r="8.325"/><circle cx="331.967" cy="405.854" r="8.325"/><circle cx="298.667" cy="439.154" r="8.325"/></g></g></svg>