<?xml version="1.0" encoding="iso-8859-1"?>
<!-- Generator: Adobe Illustrator 19.0.0, SVG Export Plug-In . SVG Version: 6.00 Build 0)  -->
<svg xmlns="http://www.w3.org/2000/svg" xmlns:xlink="http://www.w3.org/1999/xlink" version="1.1" id="Layer_1" x="0px" y="0px" viewBox="0 0 512.001 512.001" style="enable-background:new 0 0 512.001 512.001;" xml:space="preserve">
<rect x="0.001" y="0.001" style="fill:#77AAD4;" width="512" height="512"/>
<path style="fill:#A5C6E3;" d="M384.071,111.754C372.415,48.18,316.731,0.001,249.787,0.001l-45.511,256l45.511,256  c66.942,0,122.626-48.179,134.284-111.753C403.639,304.514,403.639,207.489,384.071,111.754z"/>
<path style="fill:#D2E3F1;" d="M113.254,136.534c0,10.103,1.107,19.946,3.189,29.424c12.278,59.757,12.278,120.327,0,180.084  c-2.082,9.478-3.189,19.321-3.189,29.424c0,75.405,61.128,136.533,136.533,136.533V0C174.382,0.001,113.254,61.129,113.254,136.534z  "/>
<g>
	<path style="fill:#4A8DC6;" d="M315.472,325.406h34.133c-1.661,15.952-3.903,31.892-6.713,47.787h-34.133l-19.395-23.893   L315.472,325.406z"/>
	<path style="fill:#4A8DC6;" d="M352.791,232.108c0.569,15.929,0.569,31.858,0,47.787h-34.133l-22.327-20.907l22.327-26.88H352.791z   "/>
	<path style="fill:#4A8DC6;" d="M349.606,186.597h-34.133l-25.268-23.893l18.555-23.893h34.133   C345.703,154.705,347.944,170.645,349.606,186.597z"/>
	<path style="fill:#4A8DC6;" d="M295.811,418.703l-63.101,46.182c5.53,1.058,11.241,1.604,17.078,1.604   c34.236,0,64.649-19.001,80.156-47.787H295.811z"/>
	<path style="fill:#4A8DC6;" d="M249.788,45.512c-5.837,0-11.548,0.546-17.078,1.604l63.101,46.182h34.133   C314.437,64.513,284.024,45.512,249.788,45.512z"/>
</g>
<g>
	<path style="fill:#77AAD4;" d="M169.712,418.703h126.1c-12.868,23.905-36.011,41.051-63.101,46.182   C205.483,459.698,182.512,442.335,169.712,418.703z"/>
	<path style="fill:#77AAD4;" d="M166.207,325.406h149.265c-1.661,15.952-3.903,31.881-6.713,47.787H158.8   c0.137-5.848,0.842-11.685,2.094-17.385l0.125-0.603C163.056,345.294,164.785,335.35,166.207,325.406z"/>
	<path style="fill:#77AAD4;" d="M318.658,232.108c0.58,15.929,0.58,31.858,0,47.787H170.576c0.785-15.929,0.785-31.858,0-47.787   H318.658z"/>
	<path style="fill:#77AAD4;" d="M315.472,186.597H166.207c-1.422-9.944-3.152-19.888-5.188-29.798l-0.125-0.603   c-1.252-5.7-1.957-11.537-2.094-17.385h149.959C311.57,154.716,313.811,170.645,315.472,186.597z"/>
	<path style="fill:#77AAD4;" d="M295.811,93.299h-126.1c12.8-23.632,35.772-40.994,62.999-46.182   C259.801,52.248,282.943,69.394,295.811,93.299z"/>
</g>
<g>
	<circle style="fill:#4A8DC6;" cx="443.814" cy="325.406" r="8.533"/>
	<circle style="fill:#4A8DC6;" cx="75.185" cy="186.597" r="8.533"/>
	<circle style="fill:#4A8DC6;" cx="52.429" cy="152.463" r="8.533"/>
	<circle style="fill:#4A8DC6;" cx="477.947" cy="291.272" r="8.533"/>
	<circle style="fill:#4A8DC6;" cx="34.053" cy="325.406" r="8.533"/>
</g>
<g>
</g>
<g>
</g>
<g>
</g>
<g>
</g>
<g>
</g>
<g>
</g>
<g>
</g>
<g>
</g>
<g>
</g>
<g>
</g>
<g>
</g>
<g>
</g>
<g>
</g>
<g>
</g>
<g>
</g>
</svg>
