<?xml version="1.0" encoding="iso-8859-1"?>
<!-- Generator: Adobe Illustrator 19.0.0, SVG Export Plug-In . SVG Version: 6.00 Build 0)  -->
<svg xmlns="http://www.w3.org/2000/svg" xmlns:xlink="http://www.w3.org/1999/xlink" version="1.1" id="Layer_1" x="0px" y="0px" viewBox="0 0 512 512" style="enable-background:new 0 0 512 512;" xml:space="preserve">
<path style="fill:#FE4382;" d="M253.568,134.715l-60.152,3.686v360.367c0,0,60.152,3.686,60.152,3.675  c77.366-25.269,133.263-98.039,133.263-183.858S330.934,159.995,253.568,134.715z"/>
<path style="fill:#FB7A5B;" d="M251.429,138.401l-118.165-3.686C55.897,159.995,0,232.765,0,318.585s55.897,158.589,133.263,183.87  c0-0.011,118.165-3.686,118.165-3.686c59.287-28.17,101.27-98.221,101.27-180.183S310.716,166.572,251.429,138.401z"/>
<g>
	<path style="fill:#FBC566;" d="M253.568,134.715c-0.671,1.252-1.388,2.48-2.139,3.686c-17.373-8.26-36.226-12.913-55.954-13.221   C215.738,125.397,235.25,128.719,253.568,134.715z"/>
	<path style="fill:#FBC566;" d="M253.568,502.443c-18.318,6.007-37.83,9.329-58.093,9.546c19.728-0.307,38.581-4.961,55.954-13.221   C252.191,499.974,252.896,501.192,253.568,502.443z"/>
</g>
<g>
	<path style="fill:#FEECCC;" d="M195.475,125.181c19.728,0.307,38.581,4.961,55.954,13.221   c-12.037,19.376-33.518,32.278-58.013,32.278c-26.009,0-48.627-14.552-60.152-35.964c18.932-6.201,39.15-9.546,60.152-9.546   C194.098,125.169,194.792,125.169,195.475,125.181z"/>
	<path style="fill:#FEECCC;" d="M193.415,466.491c24.495,0,45.976,12.902,58.013,32.278c-17.373,8.26-36.226,12.913-55.954,13.221   C194.792,512,194.098,512,193.415,512c-21.003,0-41.22-3.345-60.152-9.546C144.788,481.042,167.407,466.491,193.415,466.491z"/>
</g>
<rect x="277.4" y="200.469" transform="matrix(-0.7071 -0.7071 0.7071 -0.7071 328.2651 588.1068)" style="fill:#134A79;" width="17.066" height="51.198"/>
<rect x="365.89" y="111.975" transform="matrix(-0.7071 -0.7071 0.7071 -0.7071 541.8998 499.6107)" style="fill:#0E3759;" width="17.066" height="51.198"/>
<polygon style="fill:#FCD999;" points="330.183,117.458 394.542,181.817 378.452,197.907 322.137,189.862 314.092,133.548 "/>
<polygon style="fill:#134A79;" points="447.639,0 512,64.361 495.91,80.451 439.594,72.406 431.549,16.09 "/>
<g>
	<polygon style="fill:#185E98;" points="431.549,16.09 495.91,80.451 465.338,111.022 409.023,102.977 400.978,46.661  "/>
	<polygon style="fill:#185E98;" points="241.687,205.952 306.047,270.313 259.386,316.974 203.071,308.929 195.026,252.614  "/>
</g>
<g>
	
		<rect x="158.364" y="275.137" transform="matrix(0.7071 0.7071 -0.7071 0.7071 277.5946 -53.9104)" style="fill:#134A79;" width="91.018" height="65.988"/>
	
		<rect x="364.321" y="69.181" transform="matrix(0.7071 0.7071 -0.7071 0.7071 192.2855 -259.8673)" style="fill:#134A79;" width="91.018" height="65.988"/>
</g>
<rect x="276.633" y="155.735" transform="matrix(0.7071 0.7071 -0.7071 0.7071 228.6091 -172.1781)" style="fill:#FEECCC;" width="91.018" height="68.264"/>
<g>
	<path style="fill:#FD5F6E;" d="M58.269,366.745c-2.183,0-4.368-0.833-6.033-2.5c-3.332-3.332-3.332-8.736,0-12.067   c1.612-1.612,2.5-3.755,2.5-6.033c0-2.279-0.887-4.422-2.5-6.035c-1.612-1.612-3.755-2.5-6.035-2.5c-2.279,0-4.422,0.887-6.033,2.5   c-3.332,3.332-8.736,3.332-12.067,0c-3.332-3.332-3.332-8.736,0-12.067c9.98-9.981,26.221-9.983,36.203,0   c9.981,9.981,9.981,26.221,0,36.203C62.637,365.911,60.453,366.745,58.269,366.745z"/>
	<path style="fill:#FD5F6E;" d="M273.867,427.511c-2.183,0-4.368-0.833-6.033-2.499c-3.334-3.332-3.334-8.736-0.001-12.068   c3.328-3.327,3.328-8.74,0-12.067c-3.327-3.327-8.741-3.326-12.067,0c-3.332,3.332-8.736,3.332-12.067,0   c-3.332-3.332-3.332-8.736,0-12.067c9.98-9.98,26.221-9.98,36.202,0c9.98,9.981,9.981,26.221,0.001,36.203   C278.235,426.678,276.05,427.511,273.867,427.511z"/>
</g>
<g>
	<circle style="fill:#FE4382;" cx="74.624" cy="280.384" r="8.533"/>
	<circle style="fill:#FE4382;" cx="97.379" cy="246.252" r="8.533"/>
	<circle style="fill:#FE4382;" cx="319.75" cy="357.181" r="8.533"/>
</g>
<g>
</g>
<g>
</g>
<g>
</g>
<g>
</g>
<g>
</g>
<g>
</g>
<g>
</g>
<g>
</g>
<g>
</g>
<g>
</g>
<g>
</g>
<g>
</g>
<g>
</g>
<g>
</g>
<g>
</g>
</svg>
