<?xml version="1.0" encoding="iso-8859-1"?>
<!-- Generator: Adobe Illustrator 19.0.0, SVG Export Plug-In . SVG Version: 6.00 Build 0)  -->
<svg xmlns="http://www.w3.org/2000/svg" xmlns:xlink="http://www.w3.org/1999/xlink" version="1.1" id="Layer_1" x="0px" y="0px" viewBox="0 0 512 512" style="enable-background:new 0 0 512 512;" xml:space="preserve">
<path style="fill:#FB7A5B;" d="M180.93,180.942C123.434,238.428,74.734,298.363,43.804,349.706  c-16.023,26.597-26.752,50.08-31.887,69.797c-9.533,36.599,1.461,57.275,12.364,68.176c7.32,7.319,20.547,16.044,41.983,16.044  c29.326,0,69.495-16.979,119.391-50.469c46.172-30.99,96.457-73.245,145.418-122.197L180.93,180.942z"/>
<path style="fill:#FD5F6E;" d="M487.722,24.321c-7.32-7.319-20.547-16.045-41.982-16.045c-29.326,0-69.495,16.981-119.391,50.469  c-46.172,30.99-96.458,73.245-145.419,122.197l150.141,150.115c57.496-57.486,106.196-117.421,137.126-168.763  c16.023-26.597,26.751-50.08,31.887-69.797C509.619,55.897,498.624,35.222,487.722,24.321z"/>
<path style="fill:#FB7A5B;" d="M445.74,0.019c-30.994,0-72.711,17.452-123.992,51.87c-46.611,31.284-97.323,73.89-146.657,123.214  l11.676,11.678c48.589-48.58,98.446-90.483,144.184-121.18c48.511-32.56,87.131-49.068,114.788-49.068  c18.608,0,29.924,7.409,36.142,13.625l16.85,5.171l-5.17-16.848C485.137,10.059,470.002,0.019,445.74,0.019z"/>
<path style="fill:#FD5F6E;" d="M50.877,353.967c30.595-50.784,78.855-110.159,135.892-167.185l-11.676-11.678  C117.135,233.05,67.997,293.545,36.73,345.445c-16.432,27.277-27.47,51.493-32.805,71.977  c-10.519,40.382,2.087,63.671,14.517,76.097l16.848,5.17l-5.171-16.85c-9.376-9.375-18.759-27.439-10.211-60.255  C24.842,402.636,35.262,379.886,50.877,353.967z"/>
<path style="fill:#FF2796;" d="M256.001,82.594L189.942,256l33.229,170.288c10.632,2.038,21.605,3.118,32.831,3.118  c95.77,0,173.406-77.637,173.406-173.406S351.771,82.594,256.001,82.594z"/>
<path style="fill:#FE4382;" d="M256.001,82.594c-95.77,0-173.406,77.636-173.406,173.406c0,84.544,60.506,154.943,140.576,170.288  c10.828-8.272,21.792-17.054,32.831-26.298V82.594z"/>
<path style="fill:#FA9647;" d="M256.001,115.624v280.753c77.527,0,140.377-62.849,140.377-140.377S333.529,115.624,256.001,115.624z  "/>
<path style="fill:#F9B233;" d="M363.348,256c0-77.527-48.061-140.377-107.347-140.377c-77.527,0-140.377,62.849-140.377,140.377  s62.849,140.377,140.377,140.377C315.286,396.377,363.348,333.528,363.348,256z"/>
<path style="fill:#FFFFFF;" d="M316.673,266.852l-33.95-10.926l32.893-10.791c4.334-1.422,6.694-6.087,5.273-10.42  c-1.422-4.334-6.087-6.691-10.42-5.273l-33.078,10.851l20.371-28.479c2.653-3.709,1.797-8.867-1.912-11.52  c-3.71-2.654-8.866-1.797-11.52,1.912l-20.069,28.057l-16.515,50.838v35.454c0,4.56,3.697,8.257,8.257,8.257  c4.56,0,8.257-3.697,8.257-8.257v-34.818l20.069,28.057c2.655,3.709,7.812,4.566,11.52,1.912c3.709-2.653,4.565-7.812,1.912-11.52  l-20.51-28.673l34.363,11.06c4.345,1.399,8.993-0.989,10.39-5.33C323.4,272.9,321.013,268.249,316.673,266.852z"/>
<path style="fill:#FEECCC;" d="M256.001,187.188c-4.56,0-8.257,3.697-8.257,8.257v35.453l-21.241-28.791  c-2.708-3.67-7.878-4.45-11.547-1.743c-3.67,2.707-4.45,7.878-1.743,11.547l20.939,28.381l-33.762-10.866  c-4.345-1.399-8.993,0.99-10.39,5.33c-1.397,4.341,0.989,8.993,5.33,10.39L229.047,256l-33.718,10.852  c-4.341,1.397-6.727,6.049-5.33,10.39c1.397,4.341,6.048,6.729,10.39,5.33l33.762-10.867l-20.939,28.381  c-2.707,3.67-1.927,8.84,1.743,11.547c3.669,2.707,8.84,1.928,11.547-1.743l21.241-28.791l16.515-50.838v-34.818  C264.259,190.885,260.562,187.188,256.001,187.188z"/>
<path style="fill:#FCD999;" d="M256.001,206.456v99.089c27.363,0,49.545-22.182,49.545-49.545  C305.546,228.637,283.363,206.456,256.001,206.456z"/>
<path style="fill:#FFFFFF;" d="M272.516,256c0-27.363-7.394-49.545-16.515-49.545c-27.363,0-49.545,22.182-49.545,49.545  c0,27.363,22.182,49.545,49.545,49.545C265.122,305.545,272.516,283.362,272.516,256z"/>
<g>
	<path style="fill:#F9B233;" d="M256.001,57.822c-4.56,0-8.257-3.697-8.257-8.257v-11.01c0-4.56,3.697-8.257,8.257-8.257   c4.56,0,8.257,3.697,8.257,8.257v11.01C264.259,54.124,260.562,57.822,256.001,57.822z"/>
	<path style="fill:#F9B233;" d="M192.207,67.926c-3.481,0-6.718-2.218-7.851-5.709l-3.402-10.47   c-1.409-4.337,0.964-8.995,5.301-10.404c4.337-1.411,8.995,0.964,10.404,5.301l3.402,10.47c1.409,4.337-0.964,8.995-5.301,10.404   C193.912,67.797,193.052,67.926,192.207,67.926z"/>
	<path style="fill:#F9B233;" d="M134.668,97.247c-2.553,0-5.071-1.18-6.687-3.404l-6.471-8.907   c-2.681-3.689-1.862-8.854,1.828-11.534c3.691-2.68,8.853-1.862,11.534,1.828l6.471,8.907c2.681,3.689,1.862,8.854-1.828,11.534   C138.049,96.734,136.35,97.247,134.668,97.247z"/>
	<path style="fill:#F9B233;" d="M88.983,142.917c-1.682,0-3.381-0.513-4.847-1.578l-8.907-6.471   c-3.689-2.681-4.507-7.845-1.828-11.534c2.68-3.691,7.843-4.509,11.534-1.828l8.907,6.471c3.689,2.681,4.507,7.845,1.828,11.534   C94.055,141.737,91.537,142.917,88.983,142.917z"/>
	<path style="fill:#F9B233;" d="M59.67,200.467c-0.846,0-1.705-0.131-2.553-0.406l-10.47-3.402   c-4.337-1.409-6.712-6.068-5.301-10.404c1.408-4.338,6.068-6.712,10.404-5.301l10.47,3.402c4.337,1.409,6.712,6.068,5.301,10.404   C66.388,198.249,63.15,200.467,59.67,200.467z"/>
	<path style="fill:#F9B233;" d="M49.565,264.258h-11.01c-4.56,0-8.257-3.697-8.257-8.257c0-4.56,3.697-8.257,8.257-8.257h11.01   c4.56,0,8.257,3.697,8.257,8.257C57.823,260.561,54.126,264.258,49.565,264.258z"/>
	<path style="fill:#F9B233;" d="M80.09,392.07c-2.553,0-5.071-1.18-6.687-3.404c-2.681-3.689-1.862-8.853,1.828-11.534l8.907-6.471   c3.689-2.681,8.854-1.862,11.534,1.828c2.681,3.689,1.862,8.853-1.828,11.534l-8.907,6.471   C83.471,391.557,81.774,392.07,80.09,392.07z"/>
	<path style="fill:#F9B233;" d="M128.183,440.175c-1.682,0-3.381-0.512-4.847-1.578c-3.689-2.681-4.507-7.845-1.828-11.534   l6.471-8.907c2.68-3.691,7.845-4.509,11.534-1.828c3.689,2.681,4.507,7.845,1.828,11.534l-6.471,8.907   C133.254,438.995,130.736,440.175,128.183,440.175z"/>
	<path style="fill:#F9B233;" d="M256.001,481.704c-4.56,0-8.257-3.697-8.257-8.257v-11.01c0-4.56,3.697-8.257,8.257-8.257   c4.56,0,8.257,3.697,8.257,8.257v11.01C264.259,478.007,260.562,481.704,256.001,481.704z"/>
	<path style="fill:#F9B233;" d="M323.194,471.063c-3.481,0-6.718-2.219-7.851-5.709l-3.402-10.47   c-1.409-4.337,0.964-8.995,5.301-10.404c4.337-1.41,8.995,0.964,10.404,5.301l3.402,10.47c1.409,4.337-0.964,8.995-5.301,10.404   C324.899,470.932,324.039,471.063,323.194,471.063z"/>
	<path style="fill:#F9B233;" d="M383.819,440.175c-2.553,0-5.071-1.18-6.687-3.404l-6.471-8.907   c-2.681-3.689-1.862-8.854,1.828-11.534c3.691-2.68,8.853-1.862,11.534,1.828l6.471,8.907c2.681,3.689,1.862,8.854-1.828,11.534   C387.2,439.662,385.502,440.175,383.819,440.175z"/>
	<path style="fill:#F9B233;" d="M431.911,392.07c-1.682,0-3.381-0.512-4.847-1.578l-8.907-6.471   c-3.689-2.681-4.507-7.845-1.828-11.534c2.681-3.691,7.845-4.507,11.534-1.828l8.907,6.471c3.689,2.681,4.507,7.845,1.828,11.534   C436.982,390.888,434.464,392.07,431.911,392.07z"/>
	<path style="fill:#F9B233;" d="M462.806,331.453c-0.846,0-1.705-0.131-2.553-0.406l-10.47-3.402   c-4.337-1.409-6.712-6.068-5.301-10.404c1.408-4.337,6.065-6.714,10.404-5.301l10.47,3.402c4.337,1.409,6.712,6.068,5.301,10.404   C469.524,329.235,466.286,331.453,462.806,331.453z"/>
	<path style="fill:#F9B233;" d="M473.447,264.258h-11.01c-4.56,0-8.257-3.697-8.257-8.257c0-4.56,3.697-8.257,8.257-8.257h11.01   c4.56,0,8.257,3.697,8.257,8.257C481.705,260.561,478.008,264.258,473.447,264.258z"/>
	<path style="fill:#F9B233;" d="M423.019,142.917c-2.554,0-5.071-1.18-6.687-3.404c-2.681-3.689-1.862-8.853,1.828-11.534   l8.907-6.471c3.69-2.68,8.853-1.862,11.534,1.828c2.681,3.689,1.862,8.853-1.828,11.534l-8.907,6.471   C426.4,142.404,424.701,142.917,423.019,142.917z"/>
	<path style="fill:#F9B233;" d="M377.334,97.247c-1.682,0-3.381-0.512-4.847-1.578c-3.689-2.681-4.507-7.845-1.828-11.534   l6.471-8.907c2.68-3.689,7.845-4.509,11.534-1.828c3.689,2.681,4.507,7.845,1.828,11.534l-6.471,8.907   C382.406,96.067,379.888,97.247,377.334,97.247z"/>
</g>
<path style="fill:#FB7A5B;" d="M493.56,18.482L481.884,30.16c9.376,9.375,18.759,27.438,10.211,60.254  c-4.936,18.951-15.356,41.701-30.97,67.619c-30.594,50.784-78.855,110.159-135.892,167.186l11.676,11.678  c57.958-57.946,107.096-118.443,138.362-170.342c16.431-27.275,27.469-51.491,32.805-71.977  C518.595,54.196,505.988,30.908,493.56,18.482z"/>
<path style="fill:#FD5F6E;" d="M325.233,325.217c-48.587,48.579-98.444,90.482-144.182,121.18  c-48.511,32.56-87.131,49.068-114.789,49.068c-18.607,0-29.924-7.409-36.142-13.624L18.441,493.52  c8.424,8.421,23.559,18.461,47.822,18.461c30.995,0,72.712-17.452,123.993-51.87c46.611-31.285,97.323-73.891,146.654-123.214  L325.233,325.217z"/>
<g>
</g>
<g>
</g>
<g>
</g>
<g>
</g>
<g>
</g>
<g>
</g>
<g>
</g>
<g>
</g>
<g>
</g>
<g>
</g>
<g>
</g>
<g>
</g>
<g>
</g>
<g>
</g>
<g>
</g>
</svg>
