<?xml version="1.0" encoding="iso-8859-1"?>
<!-- Generator: Adobe Illustrator 19.0.0, SVG Export Plug-In . SVG Version: 6.00 Build 0)  -->
<svg xmlns="http://www.w3.org/2000/svg" xmlns:xlink="http://www.w3.org/1999/xlink" version="1.1" id="Layer_1" x="0px" y="0px" viewBox="0 0 512 512" style="enable-background:new 0 0 512 512;" xml:space="preserve">
<path style="fill:#77AAD4;" d="M256,61.552c-4.635,0-8.393-3.757-8.393-8.393V8.393C247.607,3.757,251.365,0,256,0  c4.637,0,8.393,3.757,8.393,8.393v44.765C264.393,57.795,260.637,61.552,256,61.552z"/>
<polygon style="fill:#A5C6E3;" points="289.439,41.967 289.439,75.541 244.809,97.924 256,41.967 "/>
<polygon style="fill:#D2E3F1;" points="256,41.967 256,97.924 222.561,75.541 222.561,41.967 "/>
<polygon style="fill:#1D71B8;" points="289.439,75.541 289.439,109.115 256,109.115 244.809,92.328 256,75.541 "/>
<rect x="222.561" y="75.541" style="fill:#4A8DC6;" width="33.439" height="33.574"/>
<g>
	<path style="fill:#77AAD4;" d="M256,219.64c-4.635,0-8.393-3.757-8.393-8.393V75.541c0-4.637,3.758-8.393,8.393-8.393   c4.637,0,8.393,3.757,8.393,8.393v135.705C264.393,215.882,260.637,219.64,256,219.64z"/>
	<path style="fill:#77AAD4;" d="M423.501,200.324c-1.951,0-3.91-0.676-5.499-2.056L286.304,83.934h-60.609L93.999,198.268   c-3.5,3.041-8.801,2.666-11.841-0.835c-3.038-3.501-2.665-8.802,0.836-11.84L217.058,69.203c1.526-1.326,3.48-2.056,5.503-2.056   h66.879c2.022,0,3.976,0.73,5.503,2.056l134.065,116.389c3.501,3.038,3.874,8.34,0.835,11.84   C428.182,199.344,425.849,200.324,423.501,200.324z"/>
</g>
<polygon style="fill:#A5C6E3;" points="207.385,345.642 172.066,401.207 278.383,434.78 256,345.642 "/>
<polygon style="fill:#4A8DC6;" points="304.615,345.642 339.934,401.207 256,434.78 285.176,345.642 "/>
<polygon style="fill:#77AAD4;" points="285.176,345.642 306.361,401.207 256,434.78 256,345.642 "/>
<path style="fill:#A5C6E3;" d="M463.038,177.672L258.205,350.007c113.759-0.906,210.698-72.15,249.599-172.334H463.038z"/>
<path style="fill:#D2E3F1;" d="M4.197,177.672C43.344,278.506,141.29,350.018,256,350.018c0.739,0,1.477,0,2.205-0.011  c93.357-1.108,172.894-72.284,204.834-172.334H4.197z"/>
<polygon style="fill:#FE4382;" points="373.508,401.207 373.508,512 339.934,512 306.361,456.603 339.934,401.207 "/>
<polygon style="fill:#FB7A5B;" points="339.934,401.207 339.934,434.78 328.743,451.567 339.934,468.354 339.934,512 138.492,512   138.492,401.207 "/>
<path style="fill:#FCD999;" d="M373.508,409.6H138.492c-4.635,0-8.393-3.757-8.393-8.393s3.758-8.393,8.393-8.393h235.016  c4.637,0,8.393,3.757,8.393,8.393S378.145,409.6,373.508,409.6z"/>
<g>
	<rect x="172.066" y="434.78" style="fill:#FFFFFF;" width="33.574" height="33.574"/>
	<rect x="239.213" y="434.78" style="fill:#FFFFFF;" width="33.574" height="33.574"/>
	<rect x="306.361" y="434.78" style="fill:#FFFFFF;" width="33.574" height="33.574"/>
</g>
<g>
</g>
<g>
</g>
<g>
</g>
<g>
</g>
<g>
</g>
<g>
</g>
<g>
</g>
<g>
</g>
<g>
</g>
<g>
</g>
<g>
</g>
<g>
</g>
<g>
</g>
<g>
</g>
<g>
</g>
</svg>
