<?xml version="1.0" encoding="iso-8859-1"?>
<!-- Generator: Adobe Illustrator 19.0.0, SVG Export Plug-In . SVG Version: 6.00 Build 0)  -->
<svg xmlns="http://www.w3.org/2000/svg" xmlns:xlink="http://www.w3.org/1999/xlink" version="1.1" id="Layer_1" x="0px" y="0px" viewBox="0 0 512.001 512.001" style="enable-background:new 0 0 512.001 512.001;" xml:space="preserve">
<rect x="163.672" y="22.382" style="fill:#A5C6E3;" width="16.787" height="55.956"/>
<path style="fill:#134A79;" d="M88.132,8.393c-4.637,0-8.393,3.757-8.393,8.393s3.757,8.393,8.393,8.393h39.169V8.393H88.132z"/>
<g>
	<path style="fill:#0E3759;" d="M247.607,274.746v228.86c0,4.637,3.757,8.393,8.393,8.393c4.637,0,8.393-3.757,8.393-8.393v-228.86   L247.607,274.746L247.607,274.746z"/>
	<path style="fill:#0E3759;" d="M207.12,353.084l-67.039,147.039c-1.924,4.218-0.063,9.196,4.155,11.12   c1.129,0.515,2.311,0.759,3.476,0.759c3.187,0,6.234-1.825,7.642-4.914l74.126-162.584L207.12,353.084z"/>
	<path style="fill:#0E3759;" d="M304.882,353.084l67.039,147.039c1.924,4.218,0.063,9.196-4.155,11.12   c-1.129,0.515-2.311,0.759-3.476,0.759c-3.187,0-6.234-1.825-7.642-4.914L282.52,344.503L304.882,353.084z"/>
	<path style="fill:#0E3759;" d="M338.852,428.623H173.149c-4.637,0-8.393-3.757-8.393-8.393s3.757-8.393,8.393-8.393h165.704   c4.637,0,8.393,3.757,8.393,8.393S343.489,428.623,338.852,428.623z"/>
</g>
<polygon style="fill:#185E98;" points="37.772,16.451 37.772,49.678 20.985,72.06 4.198,49.678 4.198,16.451 "/>
<polygon style="fill:#D2E3F1;" points="37.772,83.598 60.154,117.508 4.198,117.508 4.198,49.678 37.772,49.678 "/>
<polygon style="fill:#134A79;" points="289.574,319.509 304.884,353.083 256.001,353.083 244.809,336.296 256.001,319.509 "/>
<rect x="222.426" y="201.632" style="fill:#A5C6E3;" width="67.147" height="61.921"/>
<path style="fill:#134A79;" d="M289.574,252.362h-33.574v33.574h33.574c9.266,0,16.787-7.52,16.787-16.787  S298.84,252.362,289.574,252.362z"/>
<path style="fill:#185E98;" d="M256.001,252.362c9.266,0,16.787,7.52,16.787,16.787s-7.521,16.787-16.787,16.787h-33.574  c-9.266,0-16.787-7.52-16.787-16.787s7.52-16.787,16.787-16.787H256.001z"/>
<polygon style="fill:#134A79;" points="228.023,0 228.023,33.574 194.449,33.574 172.066,16.787 194.449,0 "/>
<polygon style="fill:#185E98;" points="194.449,0 194.449,33.574 172.066,33.574 116.11,33.574 116.11,0 "/>
<polygon style="fill:#134A79;" points="138.493,83.598 138.493,151.417 82.537,151.417 60.154,117.508 82.537,83.598 "/>
<polygon style="fill:#185E98;" points="82.537,83.598 82.537,151.417 37.772,151.417 37.772,117.508 37.772,83.598 "/>
<polygon style="fill:#A5C6E3;" points="395.891,66.957 395.891,168.058 339.935,168.058 306.361,117.508 339.935,66.957 "/>
<rect x="116.109" y="66.957" style="fill:#D2E3F1;" width="223.824" height="101.101"/>
<polygon style="fill:#A5C6E3;" points="507.803,50.36 507.803,184.655 474.229,184.655 451.847,117.508 474.229,50.36 "/>
<polygon style="fill:#185E98;" points="407.082,50.36 373.508,50.36 373.508,184.655 407.082,184.655 429.464,117.508 "/>
<rect x="407.081" y="50.36" style="fill:#D2E3F1;" width="67.147" height="134.294"/>
<polygon style="fill:#185E98;" points="256.001,319.509 256.001,353.083 207.117,353.083 222.427,319.509 "/>
<path style="fill:#0E3759;" d="M289.574,210.03H188.853c-4.637,0-8.393-3.757-8.393-8.393c0-4.637,3.757-8.393,8.393-8.393h100.721  c4.637,0,8.393,3.757,8.393,8.393C297.968,206.273,294.211,210.03,289.574,210.03z"/>
<g>
</g>
<g>
</g>
<g>
</g>
<g>
</g>
<g>
</g>
<g>
</g>
<g>
</g>
<g>
</g>
<g>
</g>
<g>
</g>
<g>
</g>
<g>
</g>
<g>
</g>
<g>
</g>
<g>
</g>
</svg>
