<svg id="Capa_1" enable-background="new 0 0 512 512" height="512" viewBox="0 0 512 512" width="512" xmlns="http://www.w3.org/2000/svg"><g><path d="m256 512c-11.495 0-20.813-9.318-20.813-20.813v-137.366h41.626v137.366c0 11.495-9.318 20.813-20.813 20.813z" fill="#f1d59d"/><path d="m235.187 353.821h41.626v23.935h-41.626z" fill="#efcb84"/><g><path d="m341.664 19.591c-.647-11.001-9.757-19.591-20.777-19.591h-129.774c-11.02 0-20.13 8.59-20.777 19.591l-15.988 271.791h203.303z" fill="#df75a5"/><path d="m360.028 331.786-2.377-40.404h-203.303l-2.377 40.404c-.703 11.955 8.802 22.035 20.777 22.035h166.503c11.976 0 21.481-10.081 20.777-22.035z" fill="#a2f4c1"/><path d="m341.664 19.591c-.647-11.001-9.757-19.591-20.777-19.591h-27.276c11.02 0 20.13 8.59 20.777 19.591l15.988 271.791h27.276z" fill="#dd5790"/><path d="m305.951 291.382v-210.211c0-9.196-7.455-16.65-16.65-16.65s-16.65 7.455-16.65 16.65v210.211z" fill="#da387d"/><path d="m206.049 291.382v-210.211c0-9.196 7.455-16.65 16.65-16.65s16.65 7.455 16.65 16.65v210.211z" fill="#da387d"/><path d="m360.028 331.786-2.377-40.404h-27.276l2.377 40.404c.703 11.955-8.802 22.035-20.777 22.035h27.276c11.976 0 21.481-10.081 20.777-22.035z" fill="#86f1a7"/></g></g></svg>