<?xml version="1.0" encoding="iso-8859-1"?>
<!-- Generator: Adobe Illustrator 19.0.0, SVG Export Plug-In . SVG Version: 6.00 Build 0)  -->
<svg xmlns="http://www.w3.org/2000/svg" xmlns:xlink="http://www.w3.org/1999/xlink" version="1.1" id="Layer_1" x="0px" y="0px" viewBox="0 0 512 512" style="enable-background:new 0 0 512 512;" xml:space="preserve">
<path style="fill:#4A8DC6;" d="M459.109,53.465C420.29,14.646,366.29-2.347,308.438,0.989L183.7,511.321  c75.816,2.208,160.978-32.194,228.484-99.699C524.044,299.761,545.053,139.408,459.109,53.465z"/>
<path style="fill:#77AAD4;" d="M375.534,411.622c100.769-111.86,119.694-272.213,42.272-358.157  C388.551,20.99,349.724,3.792,307.301,0.989c-70.234,4.051-146.149,38.065-207.485,99.401  C-12.044,212.251-33.053,372.602,52.892,458.546c34.078,34.078,79.86,51.324,129.673,52.775  C247.503,509.123,318.512,474.92,375.534,411.622z"/>
<circle style="fill:#1D71B8;" cx="255.432" cy="457.508" r="8.514"/>
<circle style="fill:#4A8DC6;" cx="289.49" cy="423.45" r="8.514"/>
<circle style="fill:#1D71B8;" cx="82.999" cy="428.445" r="8.514"/>
<circle style="fill:#4A8DC6;" cx="227.494" cy="332.119" r="8.514"/>
<circle style="fill:#1D71B8;" cx="275.651" cy="332.119" r="8.514"/>
<g>
	<circle style="fill:#4A8DC6;" cx="179.325" cy="428.445" r="8.514"/>
	<circle style="fill:#4A8DC6;" cx="255.432" cy="54.504" r="8.514"/>
	<circle style="fill:#4A8DC6;" cx="422.883" cy="256" r="8.514"/>
	<circle style="fill:#4A8DC6;" cx="372.772" cy="352.338" r="8.514"/>
	<circle style="fill:#4A8DC6;" cx="133.393" cy="199.237" r="8.514"/>
	<circle style="fill:#4A8DC6;" cx="99.335" cy="165.18" r="8.514"/>
</g>
<g>
</g>
<g>
</g>
<g>
</g>
<g>
</g>
<g>
</g>
<g>
</g>
<g>
</g>
<g>
</g>
<g>
</g>
<g>
</g>
<g>
</g>
<g>
</g>
<g>
</g>
<g>
</g>
<g>
</g>
</svg>
