<?xml version="1.0" encoding="iso-8859-1"?>
<!-- Generator: Adobe Illustrator 19.0.0, SVG Export Plug-In . SVG Version: 6.00 Build 0)  -->
<svg xmlns="http://www.w3.org/2000/svg" xmlns:xlink="http://www.w3.org/1999/xlink" version="1.1" id="Layer_1" x="0px" y="0px" viewBox="0 0 512 512" style="enable-background:new 0 0 512 512;" xml:space="preserve">
<path style="fill:#FE4382;" d="M476.741,98.61c-10.962-10.962-23.883-19.276-38.27-25.08L73.53,438.47  c5.804,14.387,14.118,27.308,25.08,38.27c66.65,66.65,205.327,36.032,309.744-68.385C512.773,303.937,543.389,165.26,476.741,98.61z  "/>
<path style="fill:#FB7A5B;" d="M413.389,35.26C346.74-31.389,208.063-0.773,103.645,103.645  C-0.772,208.063-31.389,346.74,35.26,413.39c10.962,10.962,23.883,19.276,38.27,25.08L438.47,73.53  C432.666,59.143,424.352,46.222,413.389,35.26z"/>
<path style="fill:#FF2796;" d="M345.004,345.004c87.243-87.243,122.949-198.392,93.466-271.474  c-73.082-29.483-184.231,6.223-271.474,93.466C79.754,254.239,44.047,365.388,73.531,438.47  C146.612,467.953,257.762,432.247,345.004,345.004z"/>
<path style="fill:#FB7A5B;" d="M452.605,122.746c-1.401-1.401-2.84-2.718-4.308-3.973L118.764,448.297  c1.272,1.486,2.599,2.923,3.983,4.308c20.879,20.879,49.747,25.262,70.287,25.262c28.542,0,60.739-8.094,93.108-23.409  c34.565-16.353,68.479-40.641,98.078-70.238c45.957-45.957,77.617-100.03,89.148-152.257  C483.683,185.238,476.309,146.451,452.605,122.746z"/>
<path style="fill:#FCD999;" d="M389.253,59.395c-20.879-20.879-49.747-25.262-70.287-25.262c-28.543,0-60.739,8.094-93.108,23.409  c-34.565,16.353-68.479,40.641-98.076,70.238c-45.957,45.957-77.617,100.03-89.148,152.257  c-10.315,46.723-2.942,85.51,20.763,109.214c1.401,1.399,2.84,2.718,4.306,3.974L393.237,63.704  C391.965,62.217,390.638,60.78,389.253,59.395z"/>
<g>
	<path style="fill:#FD5F6E;" d="M289.209,120.892c-34.565,16.353-68.479,40.641-98.076,70.238   c-45.957,45.957-77.617,100.03-89.148,152.257c-5.598,25.355-5.976,48.366-1.371,67.905c10.353,2.442,20.447,3.222,29.071,3.222   c28.542,0,60.739-8.094,93.108-23.409c34.565-16.353,68.479-40.641,98.078-70.238c45.957-45.957,77.617-100.03,89.148-152.257   c5.598-25.355,5.974-48.366,1.371-67.905c-10.353-2.442-20.447-3.222-29.071-3.222C353.773,97.484,321.577,105.579,289.209,120.892   z"/>
	<path style="fill:#FD5F6E;" d="M448.297,118.773c-11.224-9.604-24.26-15.084-36.91-18.067L100.613,411.294   c3.384,14.363,9.459,26.852,18.151,37.002c69.121,4.267,155.532-32.584,226.24-103.292   C415.71,274.299,452.56,187.893,448.297,118.773z"/>
</g>
<path style="fill:#FB7A5B;" d="M393.237,63.704c-69.121-4.267-155.532,32.584-226.241,103.292  C96.29,237.701,59.44,324.107,63.703,393.227c11.224,9.604,24.26,15.084,36.91,18.067l310.775-310.588  C408.004,86.342,401.928,73.854,393.237,63.704z"/>
<path style="fill:#FA9647;" d="M222.792,391.108c34.565-16.353,68.479-40.641,98.078-70.238  c45.957-45.957,77.617-100.03,89.148-152.257c5.598-25.355,5.974-48.366,1.371-67.905c-10.353-2.442-20.447-3.222-29.071-3.222  c-28.543,0-60.739,8.094-93.108,23.409c-34.565,16.353-68.479,40.641-98.076,70.238c-45.957,45.957-77.617,100.03-89.148,152.257  c-5.598,25.355-5.976,48.366-1.371,67.905c10.353,2.442,20.447,3.222,29.071,3.222C158.226,414.516,190.423,406.422,222.792,391.108  z"/>
<path style="fill:#FFFFFF;" d="M321.422,256c0-4.713-3.82-8.533-8.533-8.533h-25.042l21.687-12.521  c4.081-2.356,5.48-7.575,3.123-11.657c-2.355-4.082-7.576-5.481-11.657-3.123l-21.687,12.521L291.835,211  c2.356-4.081,0.958-9.3-3.123-11.657c-4.085-2.357-9.301-0.958-11.657,3.123l-12.521,21.687l-17.067,63.693v25.042  c0,4.713,3.82,8.533,8.533,8.533c4.714,0,8.533-3.821,8.533-8.533v-25.042l12.521,21.687c2.355,4.081,7.576,5.481,11.657,3.123  c4.081-2.356,5.48-7.575,3.123-11.657l-12.521-21.687l21.688,12.521c4.083,2.357,9.301,0.958,11.657-3.123  c2.356-4.081,0.958-9.3-3.123-11.657l-21.687-12.521h25.041C317.603,264.533,321.422,260.713,321.422,256z"/>
<path style="fill:#FEECCC;" d="M256,190.578c-4.714,0-8.533,3.821-8.533,8.533v25.042l-12.521-21.687  c-2.355-4.082-7.578-5.48-11.657-3.123c-4.081,2.356-5.48,7.575-3.123,11.657l12.521,21.687l-21.688-12.521  c-4.083-2.357-9.301-0.958-11.657,3.123c-2.356,4.081-0.958,9.3,3.123,11.657l21.688,12.521h-25.042  c-4.714,0-8.533,3.821-8.533,8.533c0,4.713,3.82,8.533,8.533,8.533h25.041l-21.687,12.521c-4.081,2.356-5.48,7.575-3.123,11.657  c2.355,4.081,7.576,5.481,11.657,3.123l21.688-12.521L220.166,301c-2.356,4.081-0.958,9.3,3.123,11.657  c4.083,2.357,9.301,0.958,11.657-3.123l12.521-21.687l17.067-63.693v-25.042C264.534,194.398,260.714,190.578,256,190.578z"/>
<path style="fill:#FCD999;" d="M256,210.489v91.022c25.135,0,45.511-20.376,45.511-45.511S281.135,210.489,256,210.489z"/>
<path style="fill:#FFFFFF;" d="M267.378,256c0-25.135-5.094-45.511-11.378-45.511c-25.135,0-45.511,20.376-45.511,45.511  s20.376,45.511,45.511,45.511C262.284,301.511,267.378,281.135,267.378,256z"/>
<g>
</g>
<g>
</g>
<g>
</g>
<g>
</g>
<g>
</g>
<g>
</g>
<g>
</g>
<g>
</g>
<g>
</g>
<g>
</g>
<g>
</g>
<g>
</g>
<g>
</g>
<g>
</g>
<g>
</g>
</svg>
