<?xml version="1.0" encoding="iso-8859-1"?>
<!-- Generator: Adobe Illustrator 19.0.0, SVG Export Plug-In . SVG Version: 6.00 Build 0)  -->
<svg xmlns="http://www.w3.org/2000/svg" xmlns:xlink="http://www.w3.org/1999/xlink" version="1.1" id="Layer_1" x="0px" y="0px" viewBox="0 0 512 512" style="enable-background:new 0 0 512 512;" xml:space="preserve">
<rect x="116.109" y="425.268" style="fill:#D2E3F1;" width="44.765" height="78.339"/>
<rect x="351.126" y="425.268" style="fill:#A5C6E3;" width="44.765" height="78.339"/>
<polygon style="fill:#D2E3F1;" points="138.492,78.339 172.066,134.295 127.301,145.486 "/>
<polygon style="fill:#FFFFFF;" points="138.492,78.339 138.492,145.486 104.918,134.295 "/>
<polygon style="fill:#A5C6E3;" points="172.066,134.295 172.066,414.077 116.109,414.077 138.492,134.295 "/>
<g>
	<rect x="104.918" y="134.295" style="fill:#D2E3F1;" width="33.574" height="279.781"/>
	<polygon style="fill:#D2E3F1;" points="373.508,78.339 407.082,134.295 362.317,145.486  "/>
</g>
<polygon style="fill:#FFFFFF;" points="373.508,78.339 373.508,145.486 339.934,134.295 "/>
<polygon style="fill:#A5C6E3;" points="407.082,134.295 407.082,414.077 351.126,414.077 373.508,134.295 "/>
<rect x="339.934" y="134.295" style="fill:#D2E3F1;" width="33.574" height="279.781"/>
<path style="fill:#FE4382;" d="M256,0l50.361,398.409h33.574V134.295C339.934,76.201,305.488,22.461,256,0z"/>
<path style="fill:#FB7A5B;" d="M256,0c29.69,22.461,50.361,76.201,50.361,134.295v264.114H172.066V134.295  C172.066,76.201,206.512,22.461,256,0z"/>
<polygon style="fill:#0E3759;" points="306.361,425.268 306.361,481.224 256,481.224 233.617,425.268 "/>
<rect x="205.639" y="425.268" style="fill:#185E98;" width="50.361" height="55.956"/>
<path style="fill:#4A8DC6;" d="M390.933,376.194l-72.463-69.565c-6.379-6.133-11.65-18.13-12.075-27.251l-0.034,134.698  l67.148,33.574h33.574v-33.574C407.082,401.766,399.819,384.722,390.933,376.194z"/>
<g>
	<path style="fill:#77AAD4;" d="M373.508,414.077v33.574h-67.148l-22.39-82.814c0,0,22.379-85.656,22.39-85.458   c0.269,9.121,3.816,21.118,8.069,27.251l48.313,69.565C368.662,384.722,373.508,401.766,373.508,414.077z"/>
	<path style="fill:#77AAD4;" d="M205.639,279.379c-0.007,0.216-0.023,0.441-0.034,0.66v-0.66   c-0.425,9.121-5.696,21.118-12.075,27.251l-72.463,69.565c-8.886,8.528-16.149,25.572-16.149,37.882v33.574h100.721l22.39-82.815   C228.03,364.835,205.651,279.18,205.639,279.379z"/>
</g>
<path style="fill:#D2E3F1;" d="M256,111.913l16.787,335.738h33.574V189.613C306.361,154.753,285.69,125.387,256,111.913z"/>
<path style="fill:#FFFFFF;" d="M256,111.913c9.893,13.474,16.787,42.84,16.787,77.701V447.65h-67.148V189.613  C205.639,154.753,226.31,125.387,256,111.913z"/>
<path style="fill:#77AAD4;" d="M256,512c-4.635,0-8.393-3.758-8.393-8.393v-89.53c0-4.635,3.758-8.393,8.393-8.393  c4.637,0,8.393,3.758,8.393,8.393v89.53C264.393,508.242,260.637,512,256,512z"/>
<path style="fill:#A5C6E3;" d="M163.672,512h-50.361c-4.635,0-8.393-3.758-8.393-8.393c0-4.635,3.758-8.393,8.393-8.393h50.361  c4.635,0,8.393,3.758,8.393,8.393C172.066,508.242,168.308,512,163.672,512z"/>
<path style="fill:#77AAD4;" d="M398.689,512h-50.361c-4.637,0-8.393-3.758-8.393-8.393c0-4.635,3.757-8.393,8.393-8.393h50.361  c4.637,0,8.393,3.758,8.393,8.393C407.082,508.242,403.325,512,398.689,512z"/>
<path style="fill:#0E3759;" d="M272.787,198.006h-33.574c-4.635,0-8.393-3.758-8.393-8.393c0-4.635,3.758-8.393,8.393-8.393h33.574  c4.637,0,8.393,3.758,8.393,8.393C281.18,194.248,277.423,198.006,272.787,198.006z"/>
<g>
</g>
<g>
</g>
<g>
</g>
<g>
</g>
<g>
</g>
<g>
</g>
<g>
</g>
<g>
</g>
<g>
</g>
<g>
</g>
<g>
</g>
<g>
</g>
<g>
</g>
<g>
</g>
<g>
</g>
</svg>
