<?xml version="1.0" encoding="iso-8859-1"?>
<!-- Generator: Adobe Illustrator 19.0.0, SVG Export Plug-In . SVG Version: 6.00 Build 0)  -->
<svg xmlns="http://www.w3.org/2000/svg" xmlns:xlink="http://www.w3.org/1999/xlink" version="1.1" id="Layer_1" x="0px" y="0px" viewBox="0 0 512 512" style="enable-background:new 0 0 512 512;" xml:space="preserve">
<path style="fill:#FD5F6E;" d="M398.85,398.859c12.345-12.345,11.708-34.372,20.047-48.81c8.636-14.928,27.932-25.463,32.279-41.756  c4.403-16.52-7.122-35.305-7.122-52.292s11.526-35.771,7.122-52.292c-3.862-14.477-19.523-24.411-29.025-36.918l-76.941-76.943  c-12.511-9.502-22.446-25.169-36.926-29.031c-4.028-1.07-8.203-1.206-12.447-0.774v391.916c4.244,0.432,8.419,0.296,12.447-0.774  c16.293-4.346,26.829-23.643,41.756-32.279C364.478,410.566,386.505,411.203,398.85,398.859z"/>
<path style="fill:#FB7A5B;" d="M333.678,418.905c11.924-8.34,30.117-7.703,40.311-20.048c10.206-12.345,9.671-34.372,16.566-48.81  c7.134-14.928,23.063-25.463,26.658-41.756c3.641-16.52-5.882-35.305-5.882-52.292s9.523-35.771,5.882-52.292  c-2.009-9.108-7.873-16.417-13.9-23.699l-62.936-83.275c-2.371-1.022-4.631-2.194-6.699-3.641  c-12.333-8.636-21.037-27.932-34.486-32.279c-1.104-0.353-2.23-0.614-3.356-0.774c-12.766,1.274-26.214,7.521-38.741,7.873  c-0.364,0.011-0.74,0.023-1.104,0.023c-16.987,0-35.771-11.526-52.292-7.122c-16.293,4.346-26.829,23.643-41.756,32.279  c-14.438,8.34-36.466,7.703-48.81,20.048s-11.708,34.372-20.048,48.81c-8.636,14.928-27.932,25.463-32.279,41.756  c-4.403,16.52,7.122,35.305,7.122,52.292s-11.526,35.771-7.122,52.292c3.863,14.48,19.529,24.415,29.03,36.925l76.946,76.944  c12.505,9.503,22.439,25.162,36.916,29.023c16.52,4.403,35.305-7.122,52.292-7.122c0.364,0,0.74,0.011,1.104,0.023  c12.527,0.353,25.975,6.599,38.741,7.873c1.126-0.159,2.253-0.421,3.356-0.774C312.641,446.838,321.345,427.541,333.678,418.905z"/>
<path style="fill:#FCD999;" d="M255.991,164.978v182.043c50.267,0,91.022-40.755,91.022-91.022S306.258,164.978,255.991,164.978z"/>
<path style="fill:#FEECCC;" d="M255.991,164.978c31.414,0,56.889,40.755,56.889,91.022s-25.475,91.022-56.889,91.022  c-50.267,0-91.022-40.755-91.022-91.022S205.725,164.978,255.991,164.978z"/>
<g>
	<path style="fill:#FF2796;" d="M512,68.272c-0.008-18.849-7.642-35.914-20.001-48.271l0,0L358.627,153.371l63.524,13.418   l60.805-42.668C500.52,111.772,512,91.362,512,68.272z"/>
	<path style="fill:#FF2796;" d="M162.726,349.108L20.007,492.005C32.364,504.359,49.425,511.992,68.272,512   c23.09,0,43.5-11.48,55.85-29.044l42.661-60.796L162.726,349.108z"/>
</g>
<path style="fill:#FD5F6E;" d="M272.091,272.091l131.222-92.081l-5.985-29.069L239.91,239.91l-99.455,171.464  c7.652,2.015,15.273,3.941,21.489,7.532c1.663,0.963,3.271,2.063,4.84,3.255L272.091,272.091z"/>
<g>
	<path style="fill:#FBC566;" d="M89.837,345.218l-60.793,42.66C11.48,400.227,0,420.638,0,443.728   c0.008,18.849,7.642,35.914,20.001,48.271c0.002,0.002,0.005,0.003,0.006,0.006c6.179,6.175,17.07,7.636,31.193,2.923   c17.313-5.776,35.496-19.485,49.148-35.745l40.106-47.809L89.837,345.218z"/>
	<path style="fill:#FBC566;" d="M494.928,51.201c4.715-14.128,3.251-25.021-2.929-31.2C479.642,7.644,462.578,0.008,443.728,0   c-23.09,0-43.5,11.48-55.85,29.043l-42.666,60.804l66.155,50.615l47.817-40.113C475.442,86.696,489.151,68.513,494.928,51.201z"/>
</g>
<path style="fill:#F9B233;" d="M398.854,113.146c-0.001-0.001-0.002-0.002-0.005-0.005c-12.345-12.345-34.372-11.708-48.81-20.048  c-1.66-0.96-3.263-2.058-4.829-3.247l-4.833,6.887l48.905,62.252l18.01-0.313l4.073-18.211  C408.701,130.343,405.881,120.176,398.854,113.146z"/>
<path style="fill:#FCD999;" d="M381.876,128.987l-0.255,0.255c-1.731-6.072-3.996-11.704-7.631-16.101  c-8.426-10.204-22.314-11.542-33.612-16.407l-44.541,63.475l-55.927,79.701L89.837,345.218c1.189,1.566,2.288,3.17,3.248,4.831  c8.34,14.438,7.703,36.466,20.048,48.81c0.001,0.001,0.002,0.002,0.005,0.003c7.03,7.027,17.199,9.846,27.317,12.511l123.59-147.329  l125.238-105.059C385.926,150.375,384.519,138.607,381.876,128.987z"/>
<path style="fill:#FB7A5B;" d="M411.365,140.461l-22.082,18.524c0.396,1.017,0.817,2.01,1.273,2.966  c3.146,6.583,8.002,12.313,12.757,18.058l18.839-13.22c-1.191-1.568-2.291-3.176-3.254-4.838  C415.307,155.736,413.38,148.113,411.365,140.461z"/>
<circle style="fill:#FFFFFF;" cx="255.987" cy="255.998" r="22.755"/>
<g>
</g>
<g>
</g>
<g>
</g>
<g>
</g>
<g>
</g>
<g>
</g>
<g>
</g>
<g>
</g>
<g>
</g>
<g>
</g>
<g>
</g>
<g>
</g>
<g>
</g>
<g>
</g>
<g>
</g>
</svg>
