<?xml version="1.0" encoding="iso-8859-1"?>
<!-- Generator: Adobe Illustrator 19.0.0, SVG Export Plug-In . SVG Version: 6.00 Build 0)  -->
<svg xmlns="http://www.w3.org/2000/svg" xmlns:xlink="http://www.w3.org/1999/xlink" version="1.1" id="Layer_1" x="0px" y="0px" viewBox="0 0 511.999 511.999" style="enable-background:new 0 0 511.999 511.999;" xml:space="preserve">
<rect x="268.418" y="398.299" style="fill:#134A79;" width="16.516" height="55.053"/>
<path style="fill:#A5C6E3;" d="M278.382,34.963V365.26c90.431-0.914,163.453-74.509,163.453-165.149  C441.836,109.471,368.813,35.877,278.382,34.963z"/>
<path style="fill:#D2E3F1;" d="M278.382,34.963c72.186,1.145,130.421,74.652,130.421,165.149S350.568,364.115,278.382,365.26  c-0.573,0.011-1.134,0.011-1.707,0.011c-91.212,0-165.16-73.948-165.16-165.16s73.948-165.16,165.16-165.16  C277.248,34.952,277.81,34.952,278.382,34.963z"/>
<path style="fill:#1D71B8;" d="M276.965,406.559c-79.745,0-155.844-46.452-189.617-124.124  c-21.955-50.493-22.903-106.589-2.671-157.951C104.91,73.12,143.86,32.742,194.354,10.787l6.585,15.146  c-46.448,20.196-82.279,57.345-100.895,104.603s-17.746,98.866,2.451,145.314c41.761,96.044,153.874,140.206,249.917,98.444  l6.584,15.146C332.274,401.059,304.403,406.559,276.965,406.559z"/>
<path style="fill:#134A79;" d="M360.1,400.224c-3.189,0-6.224-1.858-7.578-4.968L185.684,11.554  c-1.819-4.182,0.098-9.047,4.28-10.865c4.181-1.822,9.047,0.097,10.866,4.281l166.839,383.702c1.818,4.182-0.098,9.047-4.281,10.865  C362.316,400.003,361.199,400.224,360.1,400.224z"/>
<path style="fill:#1D71B8;" d="M276.676,145.058v110.107c30.4,0,55.053-24.642,55.053-55.053  C331.729,169.71,307.076,145.058,276.676,145.058z"/>
<path style="fill:#4A8DC6;" d="M276.676,145.058c12.167,0,22.021,24.653,22.021,55.053c0,30.411-9.855,55.053-22.021,55.053  c-30.4,0-55.053-24.642-55.053-55.053C221.623,169.711,246.275,145.058,276.676,145.058z"/>
<path style="fill:#77AAD4;" d="M125.219,274.23c-3.189,0-6.225-1.858-7.578-4.968c-1.819-4.182,0.098-9.047,4.28-10.865  l302.923-131.715c4.181-1.821,9.046,0.098,10.865,4.281c1.818,4.182-0.098,9.047-4.281,10.865L128.508,273.543  C127.435,274.01,126.318,274.23,125.219,274.23z"/>
<polygon style="fill:#95341D;" points="296.495,431.333 276.676,431.333 265.665,481.72 309.708,470.709 "/>
<polygon style="fill:#AB5D4A;" points="256.857,431.333 243.644,470.709 276.676,481.72 276.676,431.333 "/>
<path style="fill:#95341D;" d="M345.492,470.709H312.46l33.032,33.032h33.032C378.524,485.498,363.735,470.709,345.492,470.709z"/>
<path style="fill:#AB5D4A;" d="M312.46,470.709H207.859c-18.242,0-33.032,14.79-33.032,33.032h170.665  C345.492,485.498,330.703,470.709,312.46,470.709z"/>
<path style="fill:#95341D;" d="M378.524,511.999H174.827c-4.561,0-8.258-3.696-8.258-8.258c0-4.562,3.697-8.258,8.258-8.258h203.697  c4.562,0,8.258,3.696,8.258,8.258C386.782,508.303,383.086,511.999,378.524,511.999z"/>
<g>
	<circle style="fill:#FFFFFF;" cx="276.885" cy="81.687" r="8.258"/>
	<circle style="fill:#FFFFFF;" cx="309.917" cy="103.709" r="8.258"/>
	<circle style="fill:#FFFFFF;" cx="243.853" cy="317.062" r="8.258"/>
	<circle style="fill:#FFFFFF;" cx="210.821" cy="295.041" r="8.258"/>
	<circle style="fill:#FFFFFF;" cx="371.202" cy="233.216" r="8.258"/>
	<circle style="fill:#FFFFFF;" cx="166.569" cy="200.107" r="8.258"/>
</g>
<g>
</g>
<g>
</g>
<g>
</g>
<g>
</g>
<g>
</g>
<g>
</g>
<g>
</g>
<g>
</g>
<g>
</g>
<g>
</g>
<g>
</g>
<g>
</g>
<g>
</g>
<g>
</g>
<g>
</g>
</svg>
