<svg id="Capa_1" enable-background="new 0 0 512 512" height="512" viewBox="0 0 512 512" width="512" xmlns="http://www.w3.org/2000/svg"><g><path d="m470.532 25.801c-.671-14.439-12.573-25.801-27.028-25.801h-81.878v43.707h66.031l19.823 426.667h43.707z" fill="#ac80dd"/><path d="m332.046 43.707h15.453v333.008h-15.453z" fill="#30579d"/><path d="m164.502 43.707h15.453v333.008h-15.453z" fill="#30579d"/><path d="m501.594 512h-62.439c-5.747 0-10.407-4.659-10.407-10.406v-20.814c0-5.747 4.659-10.406 10.407-10.406h62.439c5.747 0 10.406 4.659 10.406 10.406v20.813c0 5.748-4.659 10.407-10.406 10.407z" fill="#26457d"/><path d="m317.919 0h43.707v43.707h-43.707z" fill="#e4fbef"/><path d="m150.374 0h43.707v43.707h-43.707z" fill="#e4fbef" transform="matrix(-1 0 0 -1 344.455 43.707)"/><g fill="#ac80dd"><path d="m68.496 0c-14.455 0-26.357 11.362-27.028 25.801l-20.655 444.573h43.707l19.823-426.667h66.031v-43.707z"/><path d="m194.081 0h123.837v43.707h-123.837z"/></g><path d="m141.528 387.122v22.894c0 5.747 4.659 10.406 10.406 10.406h208.13c5.747 0 10.407-4.659 10.407-10.406v-22.894c0-5.747-4.659-10.406-10.407-10.406h-208.13c-5.746-.001-10.406 4.659-10.406 10.406z" fill="#a2f4c1"/><path d="m291.917 256h-71.835c-9.488 0-17.775 6.416-20.15 15.602l-27.185 105.114h166.504l-27.185-105.114c-2.374-9.186-10.661-15.602-20.149-15.602z" fill="#a2f4c1"/><path d="m178.669 353.821-5.921 22.894h166.504l-5.921-22.894z" fill="#86f1a7"/><path d="m446.223 443.317 1.257 27.057h43.707l-1.257-27.057z" fill="#9d66d5"/><path d="m65.777 443.317-1.257 27.057h-43.707l1.257-27.057z" fill="#9d66d5"/><path d="m10.407 512h62.439c5.747 0 10.407-4.659 10.407-10.406v-20.814c0-5.747-4.659-10.406-10.407-10.406h-62.439c-5.748 0-10.407 4.659-10.407 10.406v20.813c0 5.748 4.659 10.407 10.407 10.407z" fill="#26457d"/></g></svg>