<?xml version="1.0" encoding="iso-8859-1"?>
<!-- Generator: Adobe Illustrator 19.0.0, SVG Export Plug-In . SVG Version: 6.00 Build 0)  -->
<svg xmlns="http://www.w3.org/2000/svg" xmlns:xlink="http://www.w3.org/1999/xlink" version="1.1" id="Layer_1" x="0px" y="0px" viewBox="0 0 512 512" style="enable-background:new 0 0 512 512;" xml:space="preserve">
<polygon style="fill:#FCD999;" points="477.867,0 477.867,455.111 375.467,477.867 443.733,0 "/>
<polygon style="fill:#FEECCC;" points="443.733,0 443.733,477.867 420.978,512 34.133,512 34.133,0 "/>
<path style="fill:#F9B233;" d="M256,102.4l-91.022,187.733L256,477.867c103.682,0,187.733-84.051,187.733-187.733  S359.682,102.4,256,102.4z"/>
<path style="fill:#FBC566;" d="M68.267,290.133c0,103.682,84.051,187.733,187.733,187.733V102.4  C152.318,102.4,68.267,186.451,68.267,290.133z"/>
<path style="fill:#134A79;" d="M257.547,136.545v307.177c83.991-0.831,152.053-69.404,152.053-153.589  S341.538,137.375,257.547,136.545z"/>
<path style="fill:#1D71B8;" d="M257.547,136.545c65.161,1.07,117.919,69.552,117.919,153.589s-52.759,152.519-117.919,153.589  c-0.523,0.011-1.035,0.011-1.547,0.011c-84.696,0-153.6-68.904-153.6-153.6s68.904-153.6,153.6-153.6  C256.512,136.533,257.024,136.533,257.547,136.545z"/>
<polygon style="fill:#FBC566;" points="477.867,455.111 420.978,512 420.978,455.111 "/>
<g>
	<path style="fill:#FCD999;" d="M136.533,76.8H68.267c-4.714,0-8.533-3.82-8.533-8.533c0-4.714,3.82-8.533,8.533-8.533h68.267   c4.714,0,8.533,3.82,8.533,8.533S141.247,76.8,136.533,76.8z"/>
	<path style="fill:#FCD999;" d="M102.4,110.933H68.267c-4.714,0-8.533-3.82-8.533-8.533c0-4.714,3.82-8.533,8.533-8.533H102.4   c4.714,0,8.533,3.82,8.533,8.533C110.933,107.114,107.114,110.933,102.4,110.933z"/>
	<path style="fill:#FCD999;" d="M443.733,76.8h-68.267c-4.714,0-8.533-3.82-8.533-8.533c0-4.714,3.82-8.533,8.533-8.533h68.267   c4.714,0,8.533,3.82,8.533,8.533S448.447,76.8,443.733,76.8z"/>
	<path style="fill:#FCD999;" d="M409.6,110.933h-34.133c-4.714,0-8.533-3.82-8.533-8.533c0-4.714,3.82-8.533,8.533-8.533H409.6   c4.714,0,8.533,3.82,8.533,8.533C418.133,107.114,414.314,110.933,409.6,110.933z"/>
</g>
<path style="fill:#F9B233;" d="M327.679,70.161c-2.183,0-4.368-0.833-6.035-2.499l-17.859-17.86l-17.859,17.86  c-3.334,3.331-8.736,3.331-12.068,0L256,49.803l-17.859,17.86c-3.334,3.331-8.736,3.331-12.068,0l-17.859-17.86l-17.859,17.86  c-3.334,3.331-8.736,3.331-12.068,0c-3.333-3.334-3.333-8.736,0-12.068l23.893-23.893c3.334-3.331,8.736-3.331,12.068,0  l17.859,17.86l17.859-17.86c3.334-3.331,8.736-3.331,12.068,0l17.859,17.86l17.859-17.86c3.334-3.331,8.736-3.331,12.068,0  l23.893,23.893c3.333,3.334,3.333,8.736,0,12.068C332.047,69.328,329.862,70.161,327.679,70.161z"/>
<path style="fill:#134A79;" d="M393.254,359.523l-44.626-25.765c6.262-13.241,9.772-28.03,9.772-43.625  c0-15.594-3.51-30.383-9.772-43.626l44.629-25.766c4.081-2.356,5.48-7.575,3.123-11.657c-2.355-4.082-7.576-5.477-11.657-3.123  l-44.653,25.781c-16.986-24.383-44.291-41.06-75.537-43.651v-51.558c0-4.714-3.82-8.533-8.533-8.533  c-4.714,0-8.533,3.82-8.533,8.533v51.558c-31.246,2.591-58.55,19.268-75.537,43.651l-44.654-25.781  c-4.08-2.354-9.301-0.959-11.657,3.123c-2.356,4.081-0.958,9.3,3.123,11.657l44.629,25.766c-6.261,13.243-9.771,28.031-9.771,43.626  c0,15.594,3.51,30.383,9.772,43.626l-44.626,25.765c-4.081,2.356-5.48,7.575-3.123,11.657c1.58,2.737,4.449,4.268,7.398,4.268  c1.447,0,2.915-0.369,4.259-1.145l44.65-25.779c16.986,24.381,44.291,41.059,75.537,43.65v51.558c0,4.714,3.82,8.533,8.533,8.533  c4.714,0,8.533-3.819,8.533-8.533v-51.558c31.245-2.591,58.55-19.268,75.537-43.65l44.65,25.779  c1.345,0.776,2.811,1.145,4.259,1.145c2.949,0,5.817-1.53,7.398-4.268C398.733,367.099,397.335,361.88,393.254,359.523z   M264.533,205.228c24.945,2.488,46.743,15.773,60.685,35.089l-37.305,21.538c-6.021-6.787-14.161-11.652-23.379-13.53V205.228z   M247.467,205.228v43.098c-9.218,1.878-17.358,6.744-23.379,13.53l-37.305-21.538C200.723,221.001,222.522,207.716,247.467,205.228z   M178.227,325.183c-4.841-10.702-7.561-22.56-7.561-35.049s2.719-24.347,7.561-35.048l37.31,21.54  c-1.422,4.248-2.204,8.787-2.204,13.508s0.783,9.26,2.204,13.509L178.227,325.183z M247.467,375.039  c-24.945-2.488-46.743-15.773-60.685-35.089l37.307-21.538c6.021,6.786,14.161,11.651,23.378,13.529V375.039z M256,315.733  c-14.115,0-25.6-11.485-25.6-25.6c0-14.115,11.485-25.6,25.6-25.6c14.115,0,25.6,11.485,25.6,25.6  C281.6,304.249,270.115,315.733,256,315.733z M264.533,375.039v-43.098c9.218-1.878,17.358-6.744,23.378-13.529l37.307,21.538  C311.277,359.266,289.478,372.551,264.533,375.039z M333.773,325.183l-37.31-21.54c1.422-4.248,2.204-8.787,2.204-13.509  c0-4.721-0.783-9.259-2.204-13.508l37.31-21.54c4.841,10.701,7.561,22.559,7.561,35.048S338.614,314.481,333.773,325.183z"/>
<path style="fill:#FCD999;" d="M452.267,290.133c0-108.222-88.045-196.267-196.267-196.267S59.733,181.911,59.733,290.133  S147.778,486.4,256,486.4S452.267,398.355,452.267,290.133z M247.467,452.043v17.084c-26.406-1.245-51.333-8.23-73.561-19.734  l8.54-14.792C202.146,444.67,224.163,450.829,247.467,452.043z M264.533,452.043c23.304-1.214,45.321-7.372,65.021-17.443  l8.54,14.792c-22.229,11.504-47.155,18.489-73.561,19.734L264.533,452.043L264.533,452.043z M256,435.2  c-79.99,0-145.067-65.076-145.067-145.067S176.01,145.067,256,145.067s145.067,65.076,145.067,145.067S335.99,435.2,256,435.2z   M77.008,298.667h17.083c1.214,23.304,7.372,45.321,17.443,65.021l-14.792,8.54C85.237,350,78.252,325.072,77.008,298.667z   M96.742,208.039l14.792,8.54c-10.07,19.699-16.228,41.717-17.443,65.021H77.008C78.252,255.194,85.237,230.267,96.742,208.039z   M264.533,128.224v-17.083c26.406,1.245,51.333,8.23,73.561,19.734l-8.54,14.792C309.854,135.597,287.837,129.438,264.533,128.224z   M247.467,128.224c-23.304,1.214-45.321,7.372-65.021,17.443l-8.54-14.792c22.229-11.504,47.155-18.489,73.561-19.734V128.224z   M434.992,281.6h-17.083c-1.214-23.304-7.372-45.321-17.443-65.021l14.792-8.54C426.763,230.267,433.748,255.194,434.992,281.6z   M417.909,298.667h17.083c-1.245,26.406-8.23,51.333-19.734,73.561l-14.792-8.54C410.536,343.988,416.695,321.971,417.909,298.667z   M406.702,193.272l-14.8,8.545c-12.373-18.977-28.609-35.212-47.585-47.586l8.545-14.8  C374.412,153.33,392.803,171.721,406.702,193.272z M159.139,139.431l8.545,14.8c-18.976,12.374-35.212,28.609-47.585,47.585  l-14.8-8.545C119.197,171.721,137.588,153.33,159.139,139.431z M105.298,386.995l14.8-8.545  c12.373,18.977,28.609,35.212,47.585,47.586l-8.545,14.8C137.588,426.936,119.197,408.545,105.298,386.995z M352.861,440.835  l-8.545-14.8c18.976-12.374,35.212-28.609,47.585-47.585l14.8,8.545C392.803,408.545,374.412,426.936,352.861,440.835z"/>
<g>
</g>
<g>
</g>
<g>
</g>
<g>
</g>
<g>
</g>
<g>
</g>
<g>
</g>
<g>
</g>
<g>
</g>
<g>
</g>
<g>
</g>
<g>
</g>
<g>
</g>
<g>
</g>
<g>
</g>
</svg>
