<?xml version="1.0" encoding="iso-8859-1"?>
<!-- Generator: Adobe Illustrator 19.0.0, SVG Export Plug-In . SVG Version: 6.00 Build 0)  -->
<svg xmlns="http://www.w3.org/2000/svg" xmlns:xlink="http://www.w3.org/1999/xlink" version="1.1" id="Layer_1" x="0px" y="0px" viewBox="0 0 512 512" style="enable-background:new 0 0 512 512;" xml:space="preserve">
<polygon style="fill:#0E3759;" points="512,512 256,466.489 0,512 0,0 512,0 "/>
<path style="fill:#4A8DC6;" d="M256,392.533L466.489,512H512C450.639,439.111,358.737,392.533,256,392.533z"/>
<path style="fill:#77AAD4;" d="M256,392.533C153.263,392.533,61.361,439.111,0,512h466.489  C416.036,439.111,340.472,392.533,256,392.533z"/>
<path style="fill:#FE4382;" d="M384.967,275.16L256,0l1.399,477.286c77.778-0.751,140.823-64.262,140.823-142.211  C398.222,313.674,393.466,293.376,384.967,275.16z"/>
<path style="fill:#FB7A5B;" d="M354.008,275.16c6.463,18.216,10.081,38.514,10.081,59.915c0,77.801-47.741,141.221-106.689,142.211  c-0.466,0.011-0.933,0.011-1.399,0.011c-78.416,0-142.222-63.807-142.222-142.222c0-21.402,4.756-41.7,13.255-59.915L256,0  L354.008,275.16z"/>
<path style="fill:#FCD999;" d="M354.054,289.644L256,80.43v362.735c59.597,0,108.089-48.492,108.089-108.089  C364.089,319.192,360.71,303.889,354.054,289.644z"/>
<path style="fill:#FEECCC;" d="M323.095,289.644c4.54,14.245,6.861,29.548,6.861,45.431c0,59.597-33.178,108.089-73.956,108.089  c-59.597,0-108.089-48.492-108.089-108.089c0-15.883,3.379-31.186,10.058-45.488L256,80.43L323.095,289.644z"/>
<polygon style="fill:#A5C6E3;" points="286.436,281.6 320.91,338.011 256,360.767 271.212,281.6 "/>
<polygon style="fill:#D2E3F1;" points="271.212,281.6 288.449,338.011 256,360.767 191.09,338.011 225.564,281.6 "/>
<path style="fill:#134A79;" d="M320.91,338.011h-32.461l-9.694,34.611h22.756c12.572,0,22.756-10.183,22.756-22.756  C324.267,345.52,323.026,341.47,320.91,338.011z"/>
<path style="fill:#185E98;" d="M288.449,338.011c1.058,3.459,1.684,7.509,1.684,11.856c0,12.572-5.097,22.756-11.378,22.756h-68.267  c-12.572,0-22.756-10.183-22.756-22.756c0-4.346,1.24-8.397,3.356-11.856H288.449z"/>
<circle style="fill:#092339;" cx="256" cy="309.806" r="8.533"/>
<g>
	<circle style="fill:#FCD999;" cx="286.436" cy="247.467" r="8.533"/>
	<circle style="fill:#FCD999;" cx="256" cy="213.333" r="8.533"/>
</g>
<g>
</g>
<g>
</g>
<g>
</g>
<g>
</g>
<g>
</g>
<g>
</g>
<g>
</g>
<g>
</g>
<g>
</g>
<g>
</g>
<g>
</g>
<g>
</g>
<g>
</g>
<g>
</g>
<g>
</g>
</svg>
