<svg id="Capa_1" enable-background="new 0 0 512 512" height="512" viewBox="0 0 512 512" width="512" xmlns="http://www.w3.org/2000/svg"><g><g><g><path d="m138.089 321.415c-1.97 0-3.941-.752-5.445-2.255-3.008-3.007-3.008-7.882-.001-10.891l4.356-4.357c3.005-3.008 7.881-3.008 10.891-.001 3.008 3.007 3.008 7.882.001 10.891l-4.356 4.357c-1.503 1.504-3.475 2.256-5.446 2.256z" fill="#df75a5"/></g><g><path d="m139.501 482.849c-1.97 0-3.942-.752-5.446-2.255-3.007-3.008-3.007-7.883 0-10.892l9.281-9.281c3.008-3.006 7.883-3.006 10.892 0 3.007 3.008 3.007 7.883 0 10.892l-9.281 9.281c-1.505 1.503-3.476 2.255-5.446 2.255zm34.029-34.031c-1.97 0-3.942-.752-5.446-2.255-3.007-3.008-3.007-7.883 0-10.892l2.016-2.017c1.606-1.605 2.728-3.445 3.337-5.469 1.225-4.075 5.524-6.377 9.592-5.158 4.073 1.225 6.382 5.52 5.158 9.592-1.35 4.488-3.77 8.501-7.196 11.926l-2.016 2.016c-1.503 1.505-3.474 2.257-5.445 2.257zm-8.968-37.121c-.431 0-.867-.036-1.307-.111-.764-.13-1.563-.197-2.377-.197h-9.432c-4.254 0-7.701-3.447-7.701-7.701s3.447-7.701 7.701-7.701h9.432c1.681 0 3.354.14 4.973.417 4.192.716 7.01 4.696 6.293 8.888-.642 3.754-3.899 6.405-7.582 6.405zm-48.116-.308h-13.126c-4.254 0-7.701-3.447-7.701-7.701s3.447-7.701 7.701-7.701h13.126c4.254 0 7.701 3.447 7.701 7.701s-3.447 7.701-7.701 7.701zm-38.842-17.99c-3.775 0-7.072-2.779-7.616-6.625-.186-1.317-.28-2.656-.28-3.98 0-4.728 1.207-9.403 3.493-13.519 2.064-3.719 6.754-5.06 10.47-2.996 3.719 2.064 5.06 6.752 2.996 10.47-1.034 1.862-1.557 3.896-1.557 6.044 0 .606.043 1.22.129 1.826.595 4.211-2.337 8.107-6.549 8.703-.364.052-.727.077-1.086.077zm26.454-37.953c-1.97 0-3.942-.752-5.446-2.255-3.007-3.008-3.007-7.883 0-10.892l9.281-9.281c3.008-3.006 7.883-3.006 10.892 0 3.007 3.008 3.007 7.883 0 10.892l-9.281 9.281c-1.504 1.503-3.475 2.255-5.446 2.255z" fill="#df75a5"/></g><g><path d="m110.349 512c-1.97 0-3.942-.752-5.446-2.255-3.007-3.008-3.007-7.883 0-10.892l4.356-4.356c3.008-3.006 7.883-3.006 10.892 0 3.007 3.008 3.007 7.883 0 10.892l-4.356 4.356c-1.504 1.503-3.475 2.255-5.446 2.255z" fill="#df75a5"/></g></g><g><path d="m451.26 13.512c0 .021 0 .031-.01.051l-124.573 371.03c-2.426 7.227-11.604 9.383-16.995 3.992l-73.361-73.361 213.954-310.296c1.489 2.413 2.012 5.462.985 8.584z" fill="#e4fbef"/></g><g><path d="m380.224 225.103c-16.104 12.225-34.107 23.319-53.74 32.797-22.235 10.735-44.79 18.543-66.876 23.555l-23.284 33.77 73.359 73.359c5.391 5.39 14.568 3.234 16.995-3.992z" fill="#d3effb"/></g><g><path d="m446.876 1.529-310.297 213.953-73.361-73.361c-5.39-5.39-3.234-14.568 3.992-16.994l371.031-124.573c.021-.01.041-.01.062-.02 3.111-1.028 6.16-.504 8.573.995z" fill="#e4fbef"/></g><g><path d="m448.765 3.038-303.9 303.9c-1.715-1.715-2.824-4.035-2.988-6.623l-5.298-84.834 310.297-213.952c.688.421 1.335.934 1.889 1.509z" fill="#d3effb"/></g><g><path d="m450.275 4.928-213.953 310.297-84.834-5.298c-2.588-.164-4.908-1.273-6.623-2.988l303.9-303.9c.586.564 1.079 1.201 1.51 1.889z" fill="#b1e4f9"/></g></g></svg>