<svg id="Capa_1" enable-background="new 0 0 512 512" height="512" viewBox="0 0 512 512" width="512" xmlns="http://www.w3.org/2000/svg"><g><path d="m380.878 224.78v162.342h-124.878-124.878v-162.342z" fill="#30579d"/><g><path d="m422.504 501.698v-43.331c0-38.202-25.999-71.501-63.06-80.766l-61.818-15.454h-83.252l-61.818 15.454c-37.061 9.265-63.06 42.565-63.06 80.766v43.331c0 5.69 4.612 10.302 10.302 10.302h312.404c5.69 0 10.302-4.612 10.302-10.302z" fill="#df75a5"/><path d="m350.699 512h-49.951v-29.243c0-5.69 4.612-10.302 10.302-10.302h29.348c5.69 0 10.302 4.612 10.302 10.302v29.243z" fill="#ffe07d"/><path d="m202.909 420.905c-8.15-11.966-16.765-29.439-18.414-51.289l29.879-14.754h41.626v48.911l-21.659 20.456c-9.28 8.764-24.246 7.227-31.432-3.324z" fill="#e4fbef"/><path d="m309.091 420.905c8.15-11.966 16.765-29.439 18.414-51.289l-29.879-14.754h-41.626v48.911l21.659 20.456c9.28 8.764 24.246 7.227 31.432-3.324z" fill="#e4fbef"/><path d="m370.093 381.044c13.287 14.872 21.192 34.421 21.192 55.469v75.487h20.918c5.69 0 10.302-4.612 10.302-10.302v-43.331c-.001-34.424-21.118-64.859-52.412-77.323z" fill="#dd5790"/><g><path d="m256 403.772c-22.989 0-41.626-18.637-41.626-41.626v-41.626h83.252v41.626c0 22.99-18.637 41.626-41.626 41.626z" fill="#f1d0a5"/></g><path d="m214.374 343.557c13.026 4.619 27.036 7.143 41.626 7.143s28.599-2.523 41.626-7.143v-23.037h-83.252z" fill="#f1b986"/><g fill="#f1d0a5"><path d="m378.797 225.821h-18.732v-62.439h18.732c9.196 0 16.65 7.455 16.65 16.65v29.138c0 9.197-7.454 16.651-16.65 16.651z"/><path d="m133.203 225.821h18.732v-62.439h-18.732c-9.196 0-16.65 7.455-16.65 16.65v29.138c0 9.197 7.454 16.651 16.65 16.651z"/><path d="m151.935 144.65v79.864c0 57.381 45.896 104.943 103.276 105.369 57.836.429 104.854-46.326 104.854-104.062v-81.171z"/></g><path d="m337.171 144.65v81.171c0 53.604-40.531 97.735-92.618 103.435 3.76.412 7.578.63 11.447.63 57.474 0 104.065-46.591 104.065-104.065v-81.171z" fill="#f1b986"/><path d="m253.086 175.037-8.742-8.742c-1.609-1.609-4.218-1.609-5.828 0l-7.701 7.701c-1.609 1.609-4.218 1.609-5.828 0l-7.701-7.701c-1.609-1.609-4.218-1.609-5.828 0l-7.701 7.701c-1.609 1.609-4.218 1.609-5.828 0l-6.786-6.786c-1.926-1.926-5.156-1.487-6.499.882l-32.712 57.728v-62.439h-20.813v-38.504c.003-68.967 55.913-124.872 124.881-124.872 68.968.001 124.878 55.905 124.878 124.873v38.504h-20.813v62.439l-32.712-57.728c-1.343-2.369-4.573-2.808-6.499-.882l-6.786 6.786c-1.609 1.609-4.218 1.609-5.828 0l-7.701-7.701c-1.609-1.609-4.218-1.609-5.828 0l-7.701 7.701c-1.609 1.609-4.218 1.609-5.828 0l-7.701-7.701c-1.609-1.609-4.218-1.609-5.828 0l-8.742 8.742c-1.606 1.609-4.216 1.609-5.825-.001z" fill="#30579d"/><path d="m256 0c-3.505 0-6.975.152-10.407.435 64.098 5.289 114.471 58.98 114.471 124.443v38.504h20.813v-38.504c.001-68.968-55.909-124.878-124.877-124.878z" fill="#26457d"/><path d="m133.203 225.821h18.732v-62.439h-18.732c-9.196 0-16.65 7.455-16.65 16.65v29.138c0 9.197 7.454 16.651 16.65 16.651z" fill="#f1d0a5"/><path d="m378.797 225.821h-18.732v-62.439h18.732c9.196 0 16.65 7.455 16.65 16.65v29.138c0 9.197-7.454 16.651-16.65 16.651z" fill="#f1d0a5"/></g><g><path d="m173.453 115.891-16.221 35.353c-6.047 13.179-23.38 16.291-33.634 6.038l-16.555-16.555c-10.253-10.253-7.142-27.587 6.038-33.634l35.353-16.221z" fill="#df75a5"/><path d="m173.453 115.891 35.353-16.221c13.179-6.047 16.291-23.38 6.038-33.634l-16.555-16.555c-10.253-10.253-27.587-7.142-33.634 6.038l-16.221 35.353z" fill="#df75a5"/><circle cx="160.944" cy="103.381" fill="#ffe07d" r="17.691"/></g></g></svg>