<svg id="Capa_1" enable-background="new 0 0 512 512" height="512" viewBox="0 0 512 512" width="512" xmlns="http://www.w3.org/2000/svg"><g><path d="m256 0h93.659v62.439h-93.659z" fill="#9d66d5" transform="matrix(-1 0 0 -1 605.659 62.439)"/><path d="m349.659 0v110.309c0 51.726-41.932 93.658-93.658 93.658-51.726 0-93.658-41.932-93.658-93.658v-110.309h-35.382c-34.486 0-62.441 27.955-62.441 62.439v366.309c0 45.979 37.273 83.252 83.252 83.252h216.455c45.979 0 83.252-37.273 83.252-83.252v-366.309c.001-34.484-27.954-62.439-62.438-62.439z" fill="#a2f4c1"/><path d="m387.382.059c16.779 11.193 27.837 30.289 27.837 51.973v376.715c0 45.979-37.273 83.252-83.252 83.252h32.26c45.979 0 83.252-37.273 83.252-83.252v-366.308c.001-33.699-26.7-61.146-60.097-62.38z" fill="#86f1a7"/><path d="m256 62.439h46.699c5.993-8.936 9.496-19.675 9.496-31.22s-3.503-22.283-9.496-31.219h-46.699z" fill="#734a9b"/><path d="m256 62.439h-93.659v-62.439h93.659c17.242 0 31.219 13.977 31.219 31.219.001 17.243-13.977 31.22-31.219 31.22z" fill="#ac80dd"/><path d="m260.979 402.152c-3.098 1.718-6.861 1.718-9.959 0-17.949-9.955-78.273-46.706-78.273-90.997 0-22.894 18.637-41.626 41.626-41.626 11.644 0 25.316 6.293 34.735 14.964 3.879 3.571 9.902 3.571 13.781 0 9.419-8.671 23.091-14.964 34.735-14.964 22.989 0 41.626 18.732 41.626 41.626.002 44.291-60.322 81.042-78.271 90.997z" fill="#df75a5"/><path d="m311.892 272.049c-3.938 50.414-46.093 90.097-97.518 90.097-6.274 0-12.408-.598-18.353-1.727 19.005 20.612 44.391 35.846 54.996 41.729 3.1 1.72 6.864 1.722 9.963.002 17.95-9.955 78.272-46.706 78.272-90.997 0-17.902-11.397-33.258-27.36-39.104z" fill="#dd5790"/></g></svg>