<?xml version="1.0" encoding="iso-8859-1"?>
<!-- Generator: Adobe Illustrator 19.0.0, SVG Export Plug-In . SVG Version: 6.00 Build 0)  -->
<svg xmlns="http://www.w3.org/2000/svg" xmlns:xlink="http://www.w3.org/1999/xlink" version="1.1" id="Layer_1" x="0px" y="0px" viewBox="0 0 512 512" style="enable-background:new 0 0 512 512;" xml:space="preserve">
<polygon style="fill:#FCD999;" points="341.333,180.907 341.333,512 307.2,512 273.067,146.773 "/>
<polygon style="fill:#FEECCC;" points="307.2,146.773 307.2,512 170.667,512 170.667,180.907 "/>
<polygon style="fill:#1D71B8;" points="284.444,124.018 307.2,180.907 341.333,180.907 341.333,124.018 "/>
<rect x="170.667" y="124.018" style="fill:#4A8DC6;" width="136.533" height="56.889"/>
<polygon style="fill:#F9B233;" points="320.444,0 341.333,56.889 256,91.022 298.223,0 "/>
<polygon style="fill:#FBC566;" points="298.223,0 311.91,56.889 256,91.022 170.667,56.889 191.556,0 "/>
<path style="fill:#484686;" d="M341.333,56.889H311.91L256,135.964c-0.011,0.011,164.921-34.088,164.921-34.088  c0.023-0.011,0.034-0.034,0.057-0.046C400.134,83.672,371.12,66.731,341.333,56.889z"/>
<path style="fill:#293560;" d="M364.055,101.877l-52.144,44.897h29.423c29.764-9.83,58.743-26.749,79.588-44.897H364.055z"/>
<path style="fill:#6858AD;" d="M364.089,101.831C364.055,101.877,256,136.01,256,136.01L91.079,101.877  c-0.023-0.011-0.034-0.034-0.057-0.046c20.844-18.159,49.857-35.1,79.644-44.942H311.91  C331.423,66.731,350.436,83.672,364.089,101.831z"/>
<path style="fill:#484686;" d="M91.079,101.877c20.844,18.148,49.823,35.066,79.588,44.897H311.91  c19.502-9.83,38.491-26.761,52.144-44.897H91.079z"/>
<g>
	<path style="fill:#FBC566;" d="M230.4,352.142v45.511c0,4.713,3.82,8.533,8.533,8.533s8.533-3.821,8.533-8.533v-45.511H230.4z"/>
	<path style="fill:#FBC566;" d="M264.533,352.142v45.511c0,4.713,3.82,8.533,8.533,8.533c4.714,0,8.533-3.821,8.533-8.533v-45.511   H264.533z"/>
	<path style="fill:#FBC566;" d="M224.711,286.72c-4.714,0-8.533,3.821-8.533,8.533v25.031h17.067v-25.031   C233.244,290.541,229.425,286.72,224.711,286.72z"/>
	<path style="fill:#FBC566;" d="M258.844,286.72c-4.714,0-8.533,3.821-8.533,8.533v34.133h17.067v-34.133   C267.378,290.541,263.558,286.72,258.844,286.72z"/>
</g>
<path style="fill:#F9B233;" d="M303.787,352.142l3.413,54.044c4.714,0,8.533-3.821,8.533-8.533V363.52L303.787,352.142z"/>
<path style="fill:#FBC566;" d="M298.667,352.142v45.511c0,4.713,3.819,8.533,8.533,8.533v-48.356L298.667,352.142z"/>
<path style="fill:#FEECCC;" d="M315.733,318.009c0-4.713-3.82-8.533-8.533-8.533l-11.378,27.022L307.2,363.52h8.533V318.009z"/>
<path style="fill:#FFFFFF;" d="M204.8,309.476c-4.714,0-8.533,3.821-8.533,8.533c0,4.713,3.82,8.533,8.533,8.533h11.378v19.911  c0,9.387,7.68,17.067,17.067,17.067H307.2v-54.044H204.8z"/>
<g>
</g>
<g>
</g>
<g>
</g>
<g>
</g>
<g>
</g>
<g>
</g>
<g>
</g>
<g>
</g>
<g>
</g>
<g>
</g>
<g>
</g>
<g>
</g>
<g>
</g>
<g>
</g>
<g>
</g>
</svg>
