<svg id="Capa_1" enable-background="new 0 0 512 512" height="512" viewBox="0 0 512 512" width="512" xmlns="http://www.w3.org/2000/svg"><g><g><path d="m270.099 504.904c-9.079-3.37-19.118-3.37-28.197 0-17.456 6.481-37.16 7.096-37.16 7.096-170.18 0-170.18-252.194-170.18-252.194 0-79.267 64.258-143.525 143.525-143.525 24.74 0 47.888 6.036 68.094 16.803 6.153 3.279 13.486 3.279 19.64 0 20.206-10.767 43.354-16.803 68.094-16.803 79.267 0 143.525 64.258 143.525 143.525 0 0 0 252.194-170.18 252.194-.001 0-19.705-.616-37.161-7.096z" fill="#df75a5"/></g><g><path d="m387.065 126.451c13.931 31.003 21.686 65.382 21.686 101.575 0 137.018-111.075 248.093-248.093 248.093-19.761 0-38.977-2.323-57.403-6.688 24.257 25.387 57.073 42.569 101.486 42.569 0 0 19.704-.616 37.16-7.097 9.079-3.37 19.118-3.37 28.197 0 17.456 6.481 37.16 7.097 37.16 7.097 170.18 0 170.18-252.194 170.18-252.194.001-60.488-37.42-112.231-90.373-133.355z" fill="#dd5790"/></g><g><path d="m256 193.602c-.002 0-.003 0-.005 0-4.202-.003-7.606-3.407-7.606-7.609 0-1.215.12-30.177 10.533-67.405 13.857-49.54 39.595-89.995 74.43-116.992 3.324-2.576 8.104-1.969 10.679 1.353 2.575 3.323 1.969 8.104-1.354 10.679-40.591 31.459-59.914 76.439-68.975 108.634-9.935 35.298-10.09 63.457-10.09 63.736-.006 4.2-3.413 7.604-7.612 7.604z" fill="#efcb84"/></g><g><path d="m256 193.605c-32.141 0-46.501-18.654-47.097-19.448-2.522-3.363-1.84-8.134 1.522-10.656 3.364-2.521 8.133-1.841 10.656 1.522.382.486 10.747 13.359 34.918 13.359s34.536-12.873 34.965-13.421c2.522-3.364 7.268-4.014 10.633-1.491 3.363 2.521 4.021 7.324 1.499 10.687-.595.794-14.955 19.448-47.096 19.448z" fill="#dd5790"/></g><g><path d="m269.663 137.498c.333 6.049-4.651 11.033-10.7 10.7-17.733-.978-53.819-6.526-81.278-33.985s-33.007-63.545-33.985-81.278c-.333-6.049 4.651-11.033 10.7-10.7 17.733.978 53.819 6.526 81.278 33.985s33.007 63.545 33.985 81.278z" fill="#a2f4c1"/></g><g><path d="m235.678 56.22c-6.985-6.985-14.528-12.548-22.185-16.983 3.126 12.156 4.855 25.473 4.855 39.438 0 20.938-3.88 40.421-10.546 56.712 19.883 9.546 39.506 12.168 51.174 12.81 6.043.333 11.019-4.657 10.686-10.7-.977-17.732-6.525-53.818-33.984-81.277z" fill="#86f1a7"/></g></g></svg>