<svg id="Capa_1" enable-background="new 0 0 512 512" height="512" viewBox="0 0 512 512" width="512" xmlns="http://www.w3.org/2000/svg"><g><g><path d="m106.146 0c-6.062 0-11.293 4.253-12.529 10.188l-8.284 39.763h41.626l-8.284-39.763c-1.236-5.935-6.467-10.188-12.529-10.188z" fill="#ac80dd"/><path d="m158.179 447.48h-104.065v-312.195c0-5.747 4.659-10.406 10.407-10.406h83.252c5.747 0 10.407 4.659 10.407 10.406v312.195z" fill="#ac80dd"/><path d="m147.772 124.878h-26.016c5.747 0 10.407 4.659 10.407 10.406v312.196h26.016v-312.195c0-5.748-4.659-10.407-10.407-10.407z" fill="#9d66d5"/><path d="m147.772 124.878h-83.252v-31.22c0-5.747 4.659-10.407 10.407-10.407h62.439c5.747 0 10.406 4.659 10.406 10.407z" fill="#b1e4f9"/><path d="m137.366 512h-62.439c-11.495 0-20.813-9.318-20.813-20.813v-43.707h104.065v43.707c0 11.495-9.318 20.813-20.813 20.813z" fill="#dddaec"/><path d="m132.163 447.48v43.707c0 11.495-9.318 20.813-20.813 20.813h26.016c11.495 0 20.813-9.318 20.813-20.813v-43.707z" fill="#beb9dd"/><path d="m137.366 83.252h-62.439v-22.894c0-5.747 4.659-10.407 10.407-10.407h41.626c5.747 0 10.407 4.659 10.407 10.407v22.894z" fill="#e4fbef"/></g><g><path d="m405.854 0c-6.062 0-11.293 4.253-12.529 10.188l-8.284 39.763h41.626l-8.284-39.763c-1.237-5.935-6.467-10.188-12.529-10.188z" fill="#ffe07d"/><path d="m457.886 447.48h-104.065v-312.195c0-5.747 4.659-10.406 10.406-10.406h83.252c5.747 0 10.406 4.659 10.406 10.406v312.195z" fill="#ffe07d"/><path d="m447.48 124.878h-26.016c5.747 0 10.406 4.659 10.406 10.406v312.196h26.016v-312.195c0-5.748-4.659-10.407-10.406-10.407z" fill="#ffd064"/><path d="m447.48 124.878h-83.252v-31.22c0-5.747 4.659-10.407 10.407-10.407h62.439c5.747 0 10.406 4.659 10.406 10.407z" fill="#b1e4f9"/><path d="m437.073 512h-62.439c-11.495 0-20.813-9.318-20.813-20.813v-43.707h104.065v43.707c0 11.495-9.318 20.813-20.813 20.813z" fill="#fbf4c6"/><path d="m431.87 447.48v43.707c0 11.495-9.318 20.813-20.813 20.813h26.016c11.495 0 20.813-9.318 20.813-20.813v-43.707z" fill="#f6e781"/><path d="m437.073 83.252h-62.439v-22.894c0-5.747 4.659-10.407 10.406-10.407h41.626c5.747 0 10.407 4.659 10.407 10.407z" fill="#e4fbef"/></g><g><path d="m256 0c-6.062 0-11.293 4.253-12.529 10.188l-8.284 39.763h41.626l-8.284-39.763c-1.236-5.935-6.467-10.188-12.529-10.188z" fill="#df75a5"/><path d="m308.033 447.48h-104.066v-312.195c0-5.747 4.659-10.406 10.406-10.406h83.252c5.747 0 10.407 4.659 10.407 10.406v312.195z" fill="#df75a5"/><path d="m297.626 124.878h-26.016c5.747 0 10.407 4.659 10.407 10.406v312.196h26.016v-312.195c0-5.748-4.66-10.407-10.407-10.407z" fill="#dd5790"/><path d="m297.626 124.878h-83.252v-31.22c0-5.747 4.659-10.407 10.407-10.407h62.439c5.747 0 10.406 4.659 10.406 10.407z" fill="#b1e4f9"/><path d="m287.22 512h-62.44c-11.495 0-20.813-9.318-20.813-20.813v-43.707h104.065v43.707c.001 11.495-9.318 20.813-20.812 20.813z" fill="#f9c6da"/><path d="m282.016 447.48v43.707c0 11.495-9.318 20.813-20.813 20.813h26.016c11.495 0 20.813-9.318 20.813-20.813v-43.707z" fill="#efa5c3"/><path d="m287.22 83.252h-62.44v-22.894c0-5.747 4.659-10.407 10.407-10.407h41.626c5.747 0 10.406 4.659 10.406 10.407v22.894z" fill="#e4fbef"/></g></g></svg>