<?xml version="1.0" encoding="iso-8859-1"?>
<!-- Generator: Adobe Illustrator 19.0.0, SVG Export Plug-In . SVG Version: 6.00 Build 0)  -->
<svg xmlns="http://www.w3.org/2000/svg" xmlns:xlink="http://www.w3.org/1999/xlink" version="1.1" id="Layer_1" x="0px" y="0px" viewBox="0 0 512 512" style="enable-background:new 0 0 512 512;" xml:space="preserve">
<path style="fill:#FD5F6E;" d="M409.6,0v204.8c56.554,0,102.4-45.846,102.4-102.4S466.154,0,409.6,0z"/>
<path style="fill:#FE4382;" d="M273.067,204.8L153.6,512c84.83,0,153.6-68.77,153.6-153.6V204.8H273.067z"/>
<path style="fill:#FD5F6E;" d="M273.067,358.4V204.8H153.6C68.77,204.8,0,273.568,0,358.4C0,443.23,68.77,512,153.6,512  C219.58,512,273.067,443.23,273.067,358.4z"/>
<path style="fill:#FB7A5B;" d="M477.867,102.4C477.867,45.846,447.303,0,409.6,0c-56.554,0-102.4,45.846-102.4,102.4v102.4h102.4  C447.303,204.8,477.867,158.954,477.867,102.4z"/>
<path style="fill:#F9B233;" d="M270.222,358.4c0-4.713-3.82-8.533-8.533-8.533h-54.212l51.558-16.753  c4.482-1.456,6.936-6.27,5.478-10.752c-1.455-4.483-6.275-6.937-10.752-5.478l-51.56,16.753l43.858-31.865  c3.813-2.77,4.658-8.107,1.889-11.919c-2.769-3.813-8.107-4.658-11.919-1.888l-43.859,31.865l31.865-43.859  c2.77-3.813,1.925-9.149-1.888-11.919c-3.814-2.771-9.15-1.925-11.919,1.889l-31.865,43.858l16.753-51.56  c1.456-4.482-0.997-9.296-5.478-10.752c-4.482-1.459-9.296,0.997-10.752,5.478l-16.753,51.558l-17.067,107.754v54.212  c0,4.713,3.821,8.533,8.533,8.533s8.533-3.821,8.533-8.533v-54.213l16.753,51.558c1.456,4.483,6.275,6.937,10.752,5.478  c4.482-1.456,6.936-6.27,5.478-10.752l-16.752-51.557l31.863,43.858c2.769,3.813,8.107,4.657,11.919,1.889  c3.813-2.77,4.658-8.107,1.889-11.919l-31.866-43.859l43.859,31.866c3.814,2.769,9.149,1.925,11.919-1.889  c2.77-3.813,1.924-9.149-1.889-11.919l-43.86-31.866l51.562,16.753c4.482,1.459,9.296-0.997,10.752-5.478s-0.997-9.296-5.478-10.752  l-51.556-16.753h54.209C266.403,366.933,270.222,363.113,270.222,358.4z"/>
<path style="fill:#FBC566;" d="M153.6,241.778c-4.713,0-8.533,3.821-8.533,8.533v54.212l-16.753-51.558  c-1.456-4.483-6.275-6.937-10.752-5.478c-4.482,1.456-6.936,6.27-5.478,10.752l16.753,51.56L96.972,265.94  c-2.77-3.813-8.106-4.657-11.919-1.889c-3.813,2.77-4.658,8.107-1.888,11.919l31.865,43.859L71.17,287.965  c-3.814-2.772-9.15-1.925-11.919,1.888c-2.77,3.813-1.924,9.149,1.889,11.919l43.858,31.865l-51.56-16.753  c-4.484-1.459-9.296,0.997-10.752,5.478c-1.456,4.482,0.997,9.296,5.478,10.752l51.558,16.753H45.511  c-4.713,0-8.533,3.821-8.533,8.533c0,4.713,3.821,8.533,8.533,8.533h54.209l-51.556,16.751c-4.482,1.456-6.936,6.27-5.478,10.752  c1.456,4.483,6.275,6.937,10.752,5.478l51.563-16.754L61.14,415.028c-3.813,2.77-4.658,8.107-1.889,11.919s8.107,4.657,11.919,1.889  l43.858-31.865L83.165,440.83c-2.77,3.813-1.925,9.149,1.888,11.919c1.514,1.1,3.27,1.63,5.008,1.63c2.639,0,5.241-1.22,6.911-3.518  l31.865-43.858l-16.753,51.56c-1.456,4.482,0.997,9.296,5.478,10.752c0.876,0.284,1.765,0.42,2.639,0.42  c3.598,0,6.943-2.293,8.113-5.899l16.753-51.558l17.067-107.754v-54.212C162.133,245.598,158.313,241.778,153.6,241.778z"/>
<path style="fill:#FA9647;" d="M153.6,261.689v193.422c53.412,0,96.711-43.299,96.711-96.711S207.012,261.689,153.6,261.689z"/>
<path style="fill:#F9B233;" d="M216.178,358.4c0-53.412-28.017-96.711-62.578-96.711c-53.412,0-96.711,43.299-96.711,96.711  s43.299,96.711,96.711,96.711C188.161,455.111,216.178,411.812,216.178,358.4z"/>
<path style="fill:#D2E3F1;" d="M466.341,111.864l-29.127-9.464l29.127-9.464c4.482-1.456,6.936-6.27,5.478-10.752  c-1.455-4.483-6.275-6.936-10.752-5.478l-29.128,9.464l18.002-24.777c2.771-3.813,1.925-9.149-1.888-11.919  c-3.809-2.769-9.149-1.926-11.919,1.888l-18.001,24.777l-17.067,52.524v30.627c0,4.713,3.82,8.533,8.533,8.533  c4.714,0,8.533-3.821,8.533-8.533v-30.627l18.002,24.777c2.77,3.813,8.104,4.658,11.919,1.888c3.814-2.77,4.658-8.107,1.888-11.919  l-18.003-24.779l29.128,9.464c4.476,1.456,9.296-0.996,10.752-5.478C473.277,118.134,470.824,113.32,466.341,111.864z"/>
<path style="fill:#FFFFFF;" d="M409.6,36.978c-4.714,0-8.533,3.821-8.533,8.533v30.627L383.065,51.36  c-2.77-3.812-8.105-4.658-11.919-1.888c-3.814,2.77-4.658,8.107-1.888,11.919L387.26,86.17l-29.128-9.464  c-4.476-1.456-9.296,0.996-10.752,5.478c-1.456,4.482,0.997,9.296,5.478,10.752l29.128,9.464l-29.127,9.464  c-4.482,1.456-6.936,6.27-5.478,10.752c1.455,4.483,6.276,6.936,10.752,5.478l29.128-9.464l-18.003,24.779  c-2.77,3.813-1.925,9.149,1.888,11.919c3.809,2.769,9.149,1.926,11.919-1.888l18.002-24.777l17.067-52.524V45.511  C418.133,40.798,414.314,36.978,409.6,36.978z"/>
<path style="fill:#A5C6E3;" d="M409.6,56.889v91.022c25.135,0,45.511-20.376,45.511-45.511S434.735,56.889,409.6,56.889z"/>
<path style="fill:#D2E3F1;" d="M420.978,102.4c0-25.135-5.094-45.511-11.378-45.511c-25.135,0-45.511,20.376-45.511,45.511  s20.376,45.511,45.511,45.511C415.884,147.911,420.978,127.535,420.978,102.4z"/>
<g>
</g>
<g>
</g>
<g>
</g>
<g>
</g>
<g>
</g>
<g>
</g>
<g>
</g>
<g>
</g>
<g>
</g>
<g>
</g>
<g>
</g>
<g>
</g>
<g>
</g>
<g>
</g>
<g>
</g>
</svg>
