<?xml version="1.0" encoding="iso-8859-1"?>
<!-- Generator: Adobe Illustrator 19.0.0, SVG Export Plug-In . SVG Version: 6.00 Build 0)  -->
<svg xmlns="http://www.w3.org/2000/svg" xmlns:xlink="http://www.w3.org/1999/xlink" version="1.1" id="Layer_1" x="0px" y="0px" viewBox="0 0 512 512" style="enable-background:new 0 0 512 512;" xml:space="preserve">
<g>
	<path style="fill:#F9B233;" d="M256,335.738c74.164,0,134.295-60.131,134.295-134.295h-268.59c0,17.805,3.469,34.805,9.77,50.361   L256,335.738z"/>
	<path style="fill:#F9B233;" d="M256,0c111.073,0,201.443,90.369,201.443,201.443S367.073,402.885,256,402.885l-22.383-16.787   L256,369.311c92.563,0,167.869-75.306,167.869-167.869S348.563,33.574,256,33.574l-22.383-16.787L256,0z"/>
</g>
<g>
	<path style="fill:#FBC566;" d="M131.475,251.803h217.916c-14.929,49.208-51.122,83.934-93.391,83.934   C199.641,335.738,151.384,301.011,131.475,251.803z"/>
	<path style="fill:#FBC566;" d="M256,67.148l100.721,134.295h33.574C390.295,127.278,330.164,67.148,256,67.148z"/>
</g>
<path style="fill:#FCD999;" d="M356.721,201.443H121.705c0-74.164,60.131-134.295,134.295-134.295  C311.632,67.148,356.721,127.278,356.721,201.443z"/>
<path style="fill:#FBC566;" d="M88.131,201.443c0,92.563,75.306,167.869,167.869,167.869v33.574  c-111.073,0-201.443-90.369-201.443-201.443S144.927,0,256,0v33.574C163.437,33.574,88.131,108.88,88.131,201.443z"/>
<polygon style="fill:#FCD999;" points="491.016,207.038 491.016,251.803 474.23,274.186 457.443,251.803 457.443,207.038 "/>
<rect x="457.443" y="251.803" style="fill:#FEECCC;" width="33.574" height="251.803"/>
<polygon style="fill:#FCD999;" points="272.787,207.038 272.787,251.803 256,274.186 239.213,251.803 239.213,207.038 "/>
<rect x="239.213" y="251.803" style="fill:#FEECCC;" width="33.574" height="251.803"/>
<polygon style="fill:#FCD999;" points="54.557,207.038 54.557,251.803 37.77,274.186 20.984,251.803 20.984,207.038 "/>
<rect x="20.984" y="251.803" style="fill:#FEECCC;" width="33.574" height="251.803"/>
<path style="fill:#FCD999;" d="M491.016,184.656h-33.574v33.574h33.574c9.266,0,16.787-7.521,16.787-16.787  S500.283,184.656,491.016,184.656z"/>
<path style="fill:#FEECCC;" d="M457.443,184.656H20.984c-9.266,0-16.787,7.521-16.787,16.787s7.521,16.787,16.787,16.787h436.459  c9.266,0,16.787-7.521,16.787-16.787S466.709,184.656,457.443,184.656z"/>
<path style="fill:#FCD999;" d="M496.612,512H15.388c-4.637,0-8.393-3.757-8.393-8.393c0-4.637,3.757-8.393,8.393-8.393h481.224  c4.637,0,8.393,3.757,8.393,8.393C505.005,508.243,501.249,512,496.612,512z"/>
<g>
	<circle style="fill:#FBC566;" cx="306.708" cy="137.652" r="8.393"/>
	<circle style="fill:#FBC566;" cx="273.134" cy="115.27" r="8.393"/>
</g>
<g>
</g>
<g>
</g>
<g>
</g>
<g>
</g>
<g>
</g>
<g>
</g>
<g>
</g>
<g>
</g>
<g>
</g>
<g>
</g>
<g>
</g>
<g>
</g>
<g>
</g>
<g>
</g>
<g>
</g>
</svg>
