<?xml version="1.0" encoding="iso-8859-1"?>
<!-- Generator: Adobe Illustrator 19.0.0, SVG Export Plug-In . SVG Version: 6.00 Build 0)  -->
<svg xmlns="http://www.w3.org/2000/svg" xmlns:xlink="http://www.w3.org/1999/xlink" version="1.1" id="Layer_1" x="0px" y="0px" viewBox="0 0 512 512" style="enable-background:new 0 0 512 512;" xml:space="preserve">
<polygon style="fill:#A5C6E3;" points="289.574,86.732 289.574,165.071 247.047,187.454 247.047,64.35 "/>
<polygon style="fill:#D2E3F1;" points="269.43,64.35 269.43,187.454 222.426,165.071 222.426,86.732 "/>
<polygon style="fill:#77AAD4;" points="289.574,165.071 311.956,198.645 256,221.027 269.43,165.071 "/>
<polygon style="fill:#A5C6E3;" points="269.43,165.071 278.383,198.645 256,221.027 200.044,198.645 222.426,165.071 "/>
<g>
	<polygon style="fill:#0E3759;" points="233.617,478.426 239.213,512 194.448,512 200.044,478.426 216.831,456.044  "/>
	<polygon style="fill:#0E3759;" points="311.956,478.426 317.552,512 272.787,512 278.383,478.426 295.169,456.044  "/>
</g>
<polygon style="fill:#4A8DC6;" points="200.044,422.47 222.426,450.448 200.044,478.426 155.279,478.426 155.279,444.852 "/>
<polygon style="fill:#185E98;" points="356.721,444.852 356.721,478.426 311.956,478.426 289.574,450.448 311.956,422.47 "/>
<polygon style="fill:#A5C6E3;" points="311.956,198.645 311.956,232.219 256,265.792 278.383,198.645 "/>
<polygon style="fill:#D2E3F1;" points="278.383,198.645 278.383,265.792 200.044,232.219 200.044,198.645 "/>
<polygon style="fill:#0E3759;" points="311.956,232.219 311.956,344.131 244.809,377.705 278.383,232.219 "/>
<polygon style="fill:#185E98;" points="278.383,232.219 278.383,377.705 200.044,344.131 200.044,232.219 "/>
<polygon style="fill:#A5C6E3;" points="278.383,344.131 244.809,411.279 278.383,478.426 311.956,478.426 311.956,344.131 "/>
<polygon style="fill:#D2E3F1;" points="278.383,344.131 278.383,478.426 233.617,478.426 200.044,478.426 200.044,422.47   200.044,344.131 "/>
<polygon style="fill:#77AAD4;" points="256,41.967 289.574,86.732 269.43,86.732 256,64.35 "/>
<polygon style="fill:#A5C6E3;" points="256,41.967 269.43,86.732 222.426,86.732 "/>
<path style="fill:#77AAD4;" d="M256,0c-4.637,0-8.393,3.758-8.393,8.393v44.765h16.787V8.393C264.393,3.758,260.637,0,256,0z"/>
<g>
</g>
<g>
</g>
<g>
</g>
<g>
</g>
<g>
</g>
<g>
</g>
<g>
</g>
<g>
</g>
<g>
</g>
<g>
</g>
<g>
</g>
<g>
</g>
<g>
</g>
<g>
</g>
<g>
</g>
</svg>
