<?xml version="1.0" encoding="iso-8859-1"?>
<!-- Generator: Adobe Illustrator 19.0.0, SVG Export Plug-In . SVG Version: 6.00 Build 0)  -->
<svg xmlns="http://www.w3.org/2000/svg" xmlns:xlink="http://www.w3.org/1999/xlink" version="1.1" id="Layer_1" x="0px" y="0px" viewBox="0 0 512 512" style="enable-background:new 0 0 512 512;" xml:space="preserve">
<circle style="fill:#FD5F6E;" cx="238.933" cy="238.933" r="238.933"/>
<path style="fill:#FB7A5B;" d="M424.084,87.916L87.916,424.084C131.731,477.737,198.394,512,273.067,512  C405.026,512,512,405.026,512,273.067C512,198.394,477.737,131.731,424.084,87.916z"/>
<path style="fill:#D2E3F1;" d="M273.067,68.267l-45.511,204.8l45.511,204.8c113.108,0,204.8-91.692,204.8-204.8  S386.174,68.267,273.067,68.267z"/>
<path style="fill:#FFFFFF;" d="M68.267,273.067c0,113.108,91.692,204.8,204.8,204.8v-409.6  C159.959,68.267,68.267,159.959,68.267,273.067z"/>
<path style="fill:#A5C6E3;" d="M273.067,102.4l-34.133,170.667l34.133,170.667c94.257,0,170.667-76.41,170.667-170.667  S367.324,102.4,273.067,102.4z"/>
<path style="fill:#D2E3F1;" d="M102.4,273.067c0,94.257,76.41,170.667,170.667,170.667V102.4  C178.81,102.4,102.4,178.81,102.4,273.067z"/>
<path style="fill:#4A8DC6;" d="M273.067,136.533V409.6c75.405,0,136.533-61.128,136.533-136.533S348.472,136.533,273.067,136.533z"/>
<path style="fill:#77AAD4;" d="M375.467,273.067c0-75.405-45.846-136.533-102.4-136.533c-75.405,0-136.533,61.128-136.533,136.533  S197.662,409.6,273.067,409.6C329.621,409.6,375.467,348.472,375.467,273.067z"/>
<g>
	<circle style="fill:#FFFFFF;" cx="273.067" cy="366.933" r="8.533"/>
	<circle style="fill:#FFFFFF;" cx="339.445" cy="339.445" r="8.533"/>
	<circle style="fill:#FFFFFF;" cx="339.445" cy="206.689" r="8.533"/>
	<circle style="fill:#FFFFFF;" cx="238.933" cy="332.8" r="8.533"/>
	<circle style="fill:#FFFFFF;" cx="100.147" cy="100.147" r="8.533"/>
</g>
<g>
</g>
<g>
</g>
<g>
</g>
<g>
</g>
<g>
</g>
<g>
</g>
<g>
</g>
<g>
</g>
<g>
</g>
<g>
</g>
<g>
</g>
<g>
</g>
<g>
</g>
<g>
</g>
<g>
</g>
</svg>
