<svg id="Capa_1" enable-background="new 0 0 512 512" height="512" viewBox="0 0 512 512" width="512" xmlns="http://www.w3.org/2000/svg"><g><g><path d="m10.122 339.84c-25.152 53.938-1.816 118.053 52.122 143.205s118.053 1.816 143.205-52.122l50.551-108.407-70.318-32.79-6.822 14.629c-7.5-6.573-16.04-12.211-25.534-16.638-53.937-25.151-118.052-1.816-143.204 52.123zm58.598 27.324c10.061-21.575 35.707-30.91 57.282-20.849s30.91 35.707 20.849 57.282-35.707 30.91-57.282 20.849c-21.575-10.06-30.91-35.706-20.849-57.282z" fill="#80e29d"/><path d="m226.594 308.803-45.56 97.704c-25.152 53.938-89.267 77.274-143.205 52.122-6.246-2.912-12.075-6.353-17.473-10.234 10.416 14.48 24.572 26.575 41.888 34.65 53.938 25.152 118.053 1.816 143.205-52.122l50.551-108.407z" fill="#78d090"/><path d="m323.419 19.845 29.299 13.662c17.26 8.049 24.728 28.565 16.679 45.826l-113.397 243.183-70.318-32.79 123.417-264.668c2.515-5.394 8.927-7.728 14.32-5.213z" fill="#b1e4f9"/></g><g><path d="m358.673 287.717c-9.493 4.427-18.034 10.065-25.534 16.638l-6.822-14.629-70.317 32.79 50.551 108.407c25.152 53.938 89.267 77.274 143.205 52.122s77.274-89.267 52.122-143.205c-25.152-53.939-89.267-77.274-143.205-52.123zm63.758 136.729c-21.575 10.061-47.221.726-57.282-20.849s-.726-47.221 20.849-57.282 47.221-.726 57.282 20.849c10.06 21.576.726 47.222-20.849 57.282z" fill="#a2f4c1"/><path d="m501.878 339.84c-8.078-17.322-20.178-31.482-34.664-41.899 3.877 5.393 7.314 11.218 10.223 17.458 25.152 53.938 1.816 118.053-52.122 143.205-36.616 17.074-77.917 11.797-108.54-10.224 29.632 41.225 85.283 56.907 132.981 34.665 53.937-25.152 77.273-89.267 52.122-143.205z" fill="#86f1a7"/><path d="m188.58 19.845-29.299 13.662c-17.26 8.049-24.728 28.565-16.679 45.826l113.398 243.183 70.318-32.79-123.417-264.668c-2.515-5.394-8.927-7.728-14.321-5.213z" fill="#e4fbef"/></g></g></svg>