<?xml version="1.0" encoding="iso-8859-1"?>
<!-- Generator: Adobe Illustrator 19.0.0, SVG Export Plug-In . SVG Version: 6.00 Build 0)  -->
<svg xmlns="http://www.w3.org/2000/svg" xmlns:xlink="http://www.w3.org/1999/xlink" version="1.1" id="Layer_1" x="0px" y="0px" viewBox="0 0 512 512" style="enable-background:new 0 0 512 512;" xml:space="preserve">
<path style="fill:#FA9647;" d="M256,0l-68.267,256L256,512c141.385,0,256-114.615,256-256S397.385,0,256,0z"/>
<path style="fill:#FBC566;" d="M0,256c0,141.385,114.615,256,256,256V0C114.615,0,0,114.615,0,256z"/>
<path style="fill:#FEECCC;" d="M256,48.356L199.111,256L256,463.644c114.679,0,207.644-92.966,207.644-207.644  S370.679,48.356,256,48.356z"/>
<path style="fill:#FFFFFF;" d="M48.356,256c0,114.679,92.966,207.644,207.644,207.644V48.356  C141.321,48.356,48.356,141.321,48.356,256z"/>
<circle style="fill:#1D71B8;" cx="256" cy="256" r="173.511"/>
<circle style="fill:#4A8DC6;" cx="256" cy="256" r="91.022"/>
<path style="fill:#FCD999;" d="M256,190.578c-4.714,0-8.533,3.821-8.533,8.533v30.627l-18.002-24.777  c-2.77-3.812-8.106-4.658-11.919-1.888c-3.814,2.77-4.658,8.107-1.888,11.919l18.002,24.777l-29.128-9.464  c-4.477-1.456-9.297,0.996-10.752,5.478c-1.456,4.482,0.997,9.296,5.478,10.752L228.385,256l-29.128,9.464  c-4.482,1.456-6.935,6.27-5.478,10.753c1.456,4.483,6.27,6.935,10.753,5.478l29.127-9.464l-18.002,24.777  c-2.77,3.813-1.925,9.149,1.888,11.919c3.813,2.771,9.149,1.925,11.919-1.888l18.002-24.777l17.067-52.524v-30.628  C264.533,194.398,260.714,190.578,256,190.578z"/>
<path style="fill:#FBC566;" d="M312.742,265.464L283.614,256l29.127-9.464c4.482-1.456,6.936-6.27,5.478-10.752  c-1.455-4.483-6.276-6.936-10.752-5.478l-29.128,9.464l18.002-24.777c2.771-3.813,1.925-9.149-1.888-11.919  c-3.809-2.768-9.149-1.926-11.919,1.888l-18.001,24.777l-17.067,52.524v30.627c0,4.713,3.82,8.533,8.533,8.533  c4.714,0,8.533-3.821,8.533-8.533v-30.627l18.002,24.777c2.77,3.813,8.107,4.658,11.919,1.888s4.658-8.107,1.888-11.919  L278.34,272.23l29.127,9.464c4.482,1.456,9.297-0.996,10.753-5.478S317.224,266.92,312.742,265.464z"/>
<path style="fill:#FCD999;" d="M256,210.489v91.022c25.135,0,45.511-20.376,45.511-45.511  C301.511,230.865,281.135,210.489,256,210.489z"/>
<g>
	<path style="fill:#FFFFFF;" d="M267.378,256c0-25.135-5.094-45.511-11.378-45.511c-25.135,0-45.511,20.376-45.511,45.511   c0,25.135,20.376,45.511,45.511,45.511C262.284,301.511,267.378,281.135,267.378,256z"/>
	<circle style="fill:#FFFFFF;" cx="125.156" cy="256" r="8.533"/>
	<circle style="fill:#FFFFFF;" cx="163.476" cy="348.524" r="8.533"/>
	<circle style="fill:#FFFFFF;" cx="348.524" cy="163.476" r="8.533"/>
</g>
<g>
</g>
<g>
</g>
<g>
</g>
<g>
</g>
<g>
</g>
<g>
</g>
<g>
</g>
<g>
</g>
<g>
</g>
<g>
</g>
<g>
</g>
<g>
</g>
<g>
</g>
<g>
</g>
<g>
</g>
</svg>
