<?xml version="1.0" encoding="iso-8859-1"?>
<!-- Generator: Adobe Illustrator 19.0.0, SVG Export Plug-In . SVG Version: 6.00 Build 0)  -->
<svg xmlns="http://www.w3.org/2000/svg" xmlns:xlink="http://www.w3.org/1999/xlink" version="1.1" id="Layer_1" x="0px" y="0px" viewBox="0 0 512 512" style="enable-background:new 0 0 512 512;" xml:space="preserve">
<polygon style="fill:#134A79;" points="512,512 0,512 0,0 477.867,0 512,34.133 "/>
<path style="fill:#4A8DC6;" d="M61.369,489.16L24.187,247.361h276.191l33.506-150.777l140.165-70.083l7.633,15.266l-132.9,66.45  l-68.434,307.951L61.369,489.16z M44.079,264.428l31.084,202.146l190.622-63.54l30.801-138.604H44.079V264.428z"/>
<path style="fill:#FEECCC;" d="M273.809,374.725l-17.446,34.133l17.446,34.133c18.851,0,34.133-15.281,34.133-34.133  C307.942,390.006,292.66,374.725,273.809,374.725z"/>
<path style="fill:#FFFFFF;" d="M239.675,408.858c0,18.851,15.281,34.133,34.133,34.133v-68.267  C254.958,374.725,239.675,390.006,239.675,408.858z"/>
<path style="fill:#FEECCC;" d="M68.267,443.733l-17.446,34.133L68.267,512c18.851,0,34.133-15.281,34.133-34.133  S87.117,443.733,68.267,443.733z"/>
<path style="fill:#FFFFFF;" d="M34.133,477.867c0,18.851,15.281,34.133,34.133,34.133v-68.267  C49.415,443.733,34.133,459.015,34.133,477.867z"/>
<path style="fill:#FEECCC;" d="M34.133,221.867L16.688,256l17.446,34.133c18.851,0,34.133-15.281,34.133-34.133  S52.984,221.867,34.133,221.867z"/>
<path style="fill:#FFFFFF;" d="M0,256c0,18.851,15.281,34.133,34.133,34.133v-68.267C15.281,221.867,0,237.148,0,256z"/>
<path style="fill:#FEECCC;" d="M477.867,0l-17.446,34.133l17.446,34.133c18.851,0,34.133-15.281,34.133-34.133S496.717,0,477.867,0z  "/>
<path style="fill:#FFFFFF;" d="M443.733,34.133c0,18.851,15.281,34.133,34.133,34.133V0C459.015,0,443.733,15.281,443.733,34.133z"/>
<path style="fill:#FEECCC;" d="M307.2,221.867L289.754,256l17.446,34.133c18.851,0,34.133-15.281,34.133-34.133  S326.051,221.867,307.2,221.867z"/>
<path style="fill:#FFFFFF;" d="M273.067,256c0,18.851,15.281,34.133,34.133,34.133v-68.267  C288.348,221.867,273.067,237.148,273.067,256z"/>
<path style="fill:#FEECCC;" d="M341.333,68.267L323.888,102.4l17.446,34.133c18.851,0,34.133-15.281,34.133-34.133  S360.184,68.267,341.333,68.267z"/>
<g>
	<path style="fill:#FFFFFF;" d="M307.2,102.4c0,18.851,15.281,34.133,34.133,34.133V68.267C322.482,68.267,307.2,83.548,307.2,102.4   z"/>
	<circle style="fill:#FFFFFF;" cx="43.236" cy="43.236" r="9.102"/>
	<circle style="fill:#FFFFFF;" cx="77.369" cy="77.369" r="9.102"/>
	<circle style="fill:#FFFFFF;" cx="145.636" cy="145.636" r="9.102"/>
	<circle style="fill:#FFFFFF;" cx="248.036" cy="77.369" r="9.102"/>
	<circle style="fill:#FFFFFF;" cx="468.764" cy="468.764" r="9.102"/>
	<circle style="fill:#FFFFFF;" cx="468.764" cy="263.964" r="9.102"/>
	<circle style="fill:#FFFFFF;" cx="434.631" cy="298.098" r="9.102"/>
</g>
<g>
</g>
<g>
</g>
<g>
</g>
<g>
</g>
<g>
</g>
<g>
</g>
<g>
</g>
<g>
</g>
<g>
</g>
<g>
</g>
<g>
</g>
<g>
</g>
<g>
</g>
<g>
</g>
<g>
</g>
</svg>
