<svg id="Capa_1" enable-background="new 0 0 512.001 512.001" height="512" viewBox="0 0 512.001 512.001" width="512" xmlns="http://www.w3.org/2000/svg"><g><path d="m263.681 96.847 126.714 132.485-134.395 38.789-134.395-38.789 126.714-132.485c4.186-4.377 11.177-4.377 15.362 0z" fill="#ffd064"/><path d="m257.151 93.631c-.765-.083-1.537-.083-2.302 0l-38.944 162.917 40.095 11.573 40.095-11.572z" fill="#ffc250"/><path d="m418.153 415.524c-3.189 1.871-6.877 2.912-10.725 2.912h-302.856c-3.848 0-7.536-1.042-10.724-2.912l162.152-147.4 145.317 132.105z" fill="#ffd064"/><path d="m256 268.124-162.153 147.4c-3.816-2.221-6.919-5.633-8.758-9.853l-84.18-193.051c-3.593-8.248 4.05-16.953 12.691-14.455z" fill="#ffe07d"/><path d="m511.092 212.62-84.18 193.051c-1.839 4.22-4.942 7.631-8.758 9.853l-16.836-15.295-145.318-132.105 232.133-66.994 10.267-2.965c8.642-2.498 16.284 6.207 12.692 14.455z" fill="#ffe07d"/><path d="m511.092 212.62-84.18 193.051c-1.839 4.22-4.942 7.631-8.758 9.853l-16.836-15.295 86.816-199.099v-.01l10.267-2.955c8.641-2.498 16.283 6.207 12.691 14.455z" fill="#ffd064"/></g></svg>