<svg id="Capa_1" enable-background="new 0 0 512 512" height="512" viewBox="0 0 512 512" width="512" xmlns="http://www.w3.org/2000/svg"><g><circle cx="256" cy="41.626" fill="#ffe07d" r="41.626"/><path d="m215.877 30.546c-.972 3.529-1.503 7.242-1.503 11.08 0 22.989 18.637 41.626 41.626 41.626s41.626-18.637 41.626-41.626c0-3.838-.53-7.551-1.503-11.08-13.117-2.306-26.529-3.489-40.123-3.489-13.595 0-27.007 1.184-40.123 3.489z" fill="#ffd064"/><circle cx="104.415" cy="104.415" fill="#ffe07d" r="41.626"/><path d="m68.209 124.952c1.808 3.183 4.058 6.183 6.772 8.897 16.256 16.256 42.612 16.256 58.868 0s16.256-42.612 0-58.868c-2.714-2.714-5.714-4.964-8.897-6.772-10.905 7.645-21.226 16.291-30.839 25.904s-18.26 19.933-25.904 30.839z" fill="#ffd064"/><circle cx="41.626" cy="256" fill="#ffe07d" r="41.626"/><path d="m30.546 296.123c3.529.972 7.242 1.503 11.08 1.503 22.989 0 41.626-18.637 41.626-41.626s-18.637-41.626-41.626-41.626c-3.838 0-7.551.53-11.08 1.503-2.306 13.117-3.489 26.529-3.489 40.123 0 13.595 1.184 27.007 3.489 40.123z" fill="#ffd064"/><circle cx="104.415" cy="407.585" fill="#ffe07d" r="41.626"/><path d="m124.952 443.791c3.183-1.808 6.183-4.058 8.897-6.772 16.256-16.256 16.256-42.612 0-58.868s-42.612-16.256-58.868 0c-2.714 2.714-4.964 5.714-6.772 8.897 7.645 10.905 16.291 21.226 25.904 30.839s19.933 18.26 30.839 25.904z" fill="#ffd064"/><circle cx="256" cy="470.374" fill="#ffe07d" r="41.626"/><path d="m296.123 481.454c.972-3.529 1.503-7.242 1.503-11.08 0-22.989-18.637-41.626-41.626-41.626s-41.626 18.637-41.626 41.626c0 3.838.53 7.551 1.503 11.08 13.117 2.306 26.529 3.489 40.123 3.489 13.595 0 27.007-1.184 40.123-3.489z" fill="#ffd064"/><circle cx="407.585" cy="407.585" fill="#ffe07d" r="41.626"/><path d="m443.791 387.048c-1.808-3.183-4.058-6.183-6.772-8.897-16.256-16.256-42.612-16.256-58.868 0s-16.256 42.612 0 58.868c2.714 2.714 5.714 4.964 8.897 6.772 10.905-7.645 21.226-16.291 30.839-25.904s18.26-19.933 25.904-30.839z" fill="#ffd064"/><circle cx="470.374" cy="256" fill="#ffe07d" r="41.626"/><path d="m481.454 215.877c-3.529-.972-7.242-1.503-11.08-1.503-22.989 0-41.626 18.637-41.626 41.626s18.637 41.626 41.626 41.626c3.838 0 7.551-.53 11.08-1.503 2.306-13.117 3.489-26.529 3.489-40.123 0-13.595-1.184-27.007-3.489-40.123z" fill="#ffd064"/><circle cx="407.585" cy="104.415" fill="#ffe07d" r="41.626"/><path d="m387.048 68.209c-3.183 1.808-6.183 4.058-8.897 6.772-16.256 16.256-16.256 42.612 0 58.868s42.612 16.256 58.868 0c2.714-2.714 4.964-5.714 6.772-8.897-7.645-10.905-16.291-21.226-25.904-30.839s-19.933-18.26-30.839-25.904z" fill="#ffd064"/><circle cx="256" cy="256" fill="#ac80dd" r="208.13"/><path d="m392.947 99.281c32.009 36.6 51.411 84.505 51.411 136.947 0 114.947-93.183 208.13-208.13 208.13-52.442 0-100.347-19.402-136.947-51.411 38.151 43.623 94.214 71.183 156.719 71.183 114.947 0 208.13-93.183 208.13-208.13 0-62.505-27.56-118.568-71.183-156.719z" fill="#9d66d5"/><circle cx="256" cy="256" fill="#e4fbef" r="166.504"/><path d="m362.247 127.9c23.97 28.851 38.404 65.894 38.404 106.247 0 91.81-74.693 166.504-166.504 166.504-40.353 0-77.396-14.434-106.247-38.404 30.566 36.79 76.643 60.257 128.1 60.257 91.811 0 166.504-74.694 166.504-166.504 0-51.458-23.467-97.534-60.257-128.1z" fill="#d3effb"/><g><path d="m268.663 193.899 11.571 23.445c2.057 4.168 6.033 7.057 10.633 7.725l25.872 3.76c11.583 1.683 16.208 15.917 7.826 24.087l-18.722 18.249c-3.328 3.244-4.847 7.919-4.061 12.499l4.42 25.768c1.979 11.536-10.13 20.333-20.49 14.887l-23.141-12.166c-4.114-2.163-9.029-2.163-13.143 0l-23.141 12.166c-10.36 5.447-22.468-3.351-20.49-14.887l4.42-25.768c.786-4.581-.733-9.255-4.061-12.499l-18.722-18.249c-8.381-8.17-3.756-22.404 7.826-24.087l25.873-3.76c4.6-.668 8.576-3.557 10.633-7.725l11.571-23.445c5.18-10.495 20.146-10.495 25.326 0z" fill="#df75a5"/><path d="m324.565 252.916c8.381-8.17 3.756-22.404-7.826-24.087l-23.133-3.361c-5.867 39.65-40.033 70.078-81.313 70.078-1.373 0-2.738-.037-4.095-.104l-2.4 13.991c-1.979 11.536 10.13 20.333 20.49 14.887l23.141-12.166c4.114-2.163 9.029-2.163 13.143 0l23.141 12.166c10.36 5.447 22.468-3.351 20.49-14.887l-4.42-25.768c-.786-4.581.733-9.255 4.061-12.499z" fill="#dd5790"/></g></g></svg>