<svg id="Capa_1" enable-background="new 0 0 512 512" height="512" viewBox="0 0 512 512" width="512" xmlns="http://www.w3.org/2000/svg"><g><path d="m241.03 270.97-51.512-51.512-11.796 42.569c-5.892 21.264-17.189 40.64-32.792 56.242l-70.184 70.184 24.4 24.4 24.4 24.4 70.184-70.184c15.602-15.602 34.978-26.899 56.242-32.792l42.569-11.796z" fill="#ffe07d"/><path d="m189.519 219.458-11.796 42.569c-.702 2.532-1.485 5.035-2.338 7.51 8.12 13.389 17.943 26.027 29.497 37.581 11.555 11.555 24.193 21.378 37.581 29.497 2.475-.853 4.978-1.637 7.51-2.338l42.569-11.796-51.512-51.511z" fill="#ffd064"/><path d="m307.172 4.545c-28.874 6.884-56.265 21.582-78.794 44.111s-37.227 49.92-44.111 78.794l200.283 200.283c28.874-6.884 56.265-21.582 78.794-44.111s37.227-49.92 44.111-78.794z" fill="#ac80dd"/><path d="m482.653 180.025c-5.63 8.148-12.056 15.913-19.309 23.166-43.418 43.418-104.887 57.776-160.25 43.086l81.456 81.456c28.874-6.884 56.265-21.582 78.794-44.111 22.53-22.53 37.225-49.922 44.107-78.798z" fill="#9d66d5"/><path d="m307.172 4.545 200.283 200.283c12.942-54.285-1.756-113.817-44.111-156.172s-101.887-57.053-156.172-44.111z" fill="#a2f4c1"/><path d="m482.662 180.034 24.793 24.793c6.177-25.911 6.042-53.013-.377-78.877-4.73 19.027-12.868 37.377-24.416 54.084z" fill="#86f1a7"/><path d="m384.55 327.733-200.283-200.283c-12.942 54.285 1.756 113.817 44.111 156.172s101.888 57.053 156.172 44.111z" fill="#a2f4c1"/><path d="m303.094 246.277c-27.371-7.263-53.25-21.62-74.716-43.086s-35.823-47.345-43.086-74.716l-1.026-1.026c-12.942 54.285 1.756 113.817 44.111 156.172s101.887 57.053 156.172 44.111z" fill="#86f1a7"/><path d="m457.923 307.119-253.042-253.042c-4.991-4.991-4.991-13.083 0-18.074l10.845-10.845c4.991-4.991 13.083-4.991 18.074 0l253.042 253.042c4.991 4.991 4.991 13.083 0 18.074l-10.845 10.845c-4.991 4.991-13.083 4.991-18.074 0z" fill="#ffe07d"/><path d="m486.842 278.201-26.207-26.207c4.991 4.991 4.991 13.083 0 18.074l-10.845 10.845c-4.991 4.991-13.083 4.991-18.074 0l26.207 26.207c4.991 4.991 13.083 4.991 18.074 0l10.845-10.845c4.991-4.991 4.991-13.083 0-18.074z" fill="#ffd064"/><path d="m109.088 402.912c-24.955-24.955-65.416-24.955-90.371 0s-24.955 65.416 0 90.371 65.416 24.955 90.371 0 24.955-65.416 0-90.371zm-61.453 61.453c-8.97-8.97-8.97-23.564 0-32.534s23.564-8.97 32.534 0c8.969 8.969 8.97 23.564 0 32.534s-23.564 8.969-32.534 0z" fill="#df75a5"/><path d="m109.088 402.912c-3.676-3.676-7.695-6.796-11.945-9.389 15.01 24.601 11.891 57.147-9.389 78.427-21.279 21.279-53.826 24.399-78.426 9.389 2.593 4.25 5.713 8.269 9.389 11.945 24.955 24.955 65.416 24.955 90.371 0 24.955-24.956 24.955-65.417 0-90.372z" fill="#dd5790"/></g></svg>