<?xml version="1.0" encoding="iso-8859-1"?>
<!-- Generator: Adobe Illustrator 19.0.0, SVG Export Plug-In . SVG Version: 6.00 Build 0)  -->
<svg xmlns="http://www.w3.org/2000/svg" xmlns:xlink="http://www.w3.org/1999/xlink" version="1.1" id="Layer_1" x="0px" y="0px" viewBox="0 0 512 512" style="enable-background:new 0 0 512 512;" xml:space="preserve">
<rect x="396.811" style="fill:#0E3759;" width="115.189" height="512"/>
<path style="fill:#185E98;" d="M396.815,0H234.267v512h162.549c47.679-73.753,75.362-161.642,75.362-256S444.495,73.753,396.815,0z"/>
<path style="fill:#1D71B8;" d="M234.267,0H0v22.756L125.156,256L0,489.244V512h234.267c69.293-63.446,112.755-154.643,112.755-256  S303.56,63.446,234.267,0z"/>
<path style="fill:#77AAD4;" d="M0,22.756v85.333L45.511,256L0,403.911v85.333c128.817,0,233.244-104.427,233.244-233.244  S128.817,22.756,0,22.756z"/>
<g>
	<path style="fill:#FD5F6E;" d="M0,88.178v19.911l8.533,27.733V96.711C8.533,91.998,4.713,88.178,0,88.178z"/>
	<path style="fill:#FD5F6E;" d="M0,403.911v19.911c4.713,0,8.533-3.821,8.533-8.533v-39.111L0,403.911z"/>
	<path style="fill:#FD5F6E;" d="M167.822,256c0-4.713-3.821-8.533-8.533-8.533H53.877l100.252-32.575   c4.482-1.456,6.936-6.27,5.478-10.752c-1.457-4.482-6.273-6.936-10.752-5.478L48.602,231.236l85.28-61.96   c3.813-2.77,4.658-8.107,1.888-11.919c-2.769-3.813-8.106-4.658-11.919-1.888l-85.28,61.96l61.96-85.28   c2.77-3.813,1.925-9.149-1.888-11.919c-3.814-2.77-9.15-1.925-11.919,1.888l-61.96,85.281l32.575-100.253   c1.456-4.482-0.997-9.297-5.478-10.752c-4.483-1.457-9.296,0.997-10.752,5.478l-29.73,91.497v125.262l29.729,91.498   c1.172,3.606,4.517,5.898,8.113,5.898c0.874,0,1.762-0.135,2.639-0.42c4.482-1.456,6.936-6.27,5.478-10.752L24.763,304.602   l61.96,85.281c1.669,2.298,4.271,3.518,6.911,3.518c1.739,0,3.494-0.53,5.008-1.63c3.813-2.771,4.658-8.107,1.888-11.919   l-61.96-85.28l85.28,61.96c1.514,1.1,3.27,1.63,5.008,1.63c2.639,0,5.241-1.22,6.911-3.518c2.77-3.813,1.925-9.149-1.888-11.919   l-85.28-61.96l100.253,32.575c0.876,0.284,1.765,0.42,2.639,0.42c3.598,0,6.943-2.293,8.113-5.898   c1.456-4.482-0.997-9.297-5.478-10.752L53.877,264.533h105.412C164.002,264.533,167.822,260.713,167.822,256z"/>
</g>
<path style="fill:#4A8DC6;" d="M472.178,216.178L449.422,256l22.756,39.822C494.171,295.822,512,277.993,512,256  S494.171,216.178,472.178,216.178z"/>
<path style="fill:#A5C6E3;" d="M432.356,256c0,21.993,17.829,39.822,39.822,39.822v-79.644  C450.185,216.178,432.356,234.007,432.356,256z"/>
<path style="fill:#FD5F6E;" d="M347.022,216.178L324.267,256l22.756,39.822c21.993,0,39.822-17.829,39.822-39.822  S369.015,216.178,347.022,216.178z"/>
<path style="fill:#FB7A5B;" d="M307.2,256c0,21.993,17.829,39.822,39.822,39.822v-79.644C325.029,216.178,307.2,234.007,307.2,256z"/>
<path style="fill:#FBC566;" d="M233.244,227.556L219.022,256l14.222,28.444c15.709,0,28.444-12.735,28.444-28.444  S248.954,227.556,233.244,227.556z"/>
<path style="fill:#FCD999;" d="M204.8,256c0,15.709,12.735,28.444,28.444,28.444v-56.889C217.535,227.556,204.8,240.291,204.8,256z"/>
<path style="fill:#FA9647;" d="M0,108.089v295.822c81.689,0,147.911-66.222,147.911-147.911S81.689,108.089,0,108.089z"/>
<path style="fill:#F9B233;" d="M113.778,256c0-81.689-50.941-147.911-113.778-147.911v295.822  C62.837,403.911,113.778,337.689,113.778,256z"/>
<g>
	<circle style="fill:#FFFFFF;" cx="463.497" cy="165.899" r="17.067"/>
	<circle style="fill:#FFFFFF;" cx="359.947" cy="457.341" r="8.533"/>
	<circle style="fill:#FFFFFF;" cx="378.425" cy="412.752" r="8.533"/>
	<circle style="fill:#FFFFFF;" cx="268.049" cy="367.024" r="8.533"/>
	<circle style="fill:#FFFFFF;" cx="378.425" cy="99.248" r="8.533"/>
	<circle style="fill:#FFFFFF;" cx="205.153" cy="50.845" r="8.533"/>
</g>
<g>
</g>
<g>
</g>
<g>
</g>
<g>
</g>
<g>
</g>
<g>
</g>
<g>
</g>
<g>
</g>
<g>
</g>
<g>
</g>
<g>
</g>
<g>
</g>
<g>
</g>
<g>
</g>
<g>
</g>
</svg>
