<?xml version="1.0" encoding="iso-8859-1"?>
<!-- Generator: Adobe Illustrator 19.0.0, SVG Export Plug-In . SVG Version: 6.00 Build 0)  -->
<svg xmlns="http://www.w3.org/2000/svg" xmlns:xlink="http://www.w3.org/1999/xlink" version="1.1" id="Layer_1" x="0px" y="0px" viewBox="0 0 512 512" style="enable-background:new 0 0 512 512;" xml:space="preserve">
<circle style="fill:#134A79;" cx="256" cy="256" r="256"/>
<circle style="fill:#185E98;" cx="256" cy="256" r="221.867"/>
<path style="fill:#FF2796;" d="M378.295,231.727c0.003,0.506,0.016,1.01,0.016,1.518l-29.389,142.269l47.139-7.738  C420.55,337.129,435.2,298.279,435.2,256L378.295,231.727z"/>
<path style="fill:#FE4382;" d="M401.051,254.482L256,144.225H115.938C91.45,174.871,76.8,213.721,76.8,256L256,364.136h115.678  c18.441-30.057,29.389-67.515,29.389-108.136C401.067,255.493,401.054,254.989,401.051,254.482z"/>
<path style="fill:#B440A1;" d="M256,76.8l145.051,177.682C411.688,255.462,423.02,256,435.2,256C435.2,157.03,354.97,76.8,256,76.8z  "/>
<path style="fill:#FE4382;" d="M371.678,364.136L256,435.2c56.691,0,107.225-26.333,140.062-67.425  C387.478,366.851,379.376,365.621,371.678,364.136z"/>
<path style="fill:#FD5F6E;" d="M371.678,364.136C252.758,341.187,231.863,256,76.8,256c0,98.97,80.23,179.2,179.2,179.2  C303.234,435.2,345.189,407.307,371.678,364.136z"/>
<path style="fill:#FF2796;" d="M256,76.8c-56.691,0-107.225,26.333-140.062,67.425c130.755,14.074,151.565,97.956,285.112,110.257  C400.39,156.213,335.707,76.8,256,76.8z"/>
<circle style="fill:#B440A1;" cx="129.855" cy="203.753" r="8.533"/>
<g>
	<circle style="fill:#FF2796;" cx="256" cy="392.533" r="8.533"/>
	<circle style="fill:#FF2796;" cx="221.867" cy="358.4" r="8.533"/>
</g>
<path style="fill:#A5C6E3;" d="M74.176,40.043L54.671,74.176l19.505,34.133c18.852,0,34.133-15.283,34.133-34.133  C108.31,55.324,93.027,40.043,74.176,40.043z"/>
<path style="fill:#D2E3F1;" d="M40.043,74.176c0,18.851,15.281,34.133,34.133,34.133V40.043  C55.324,40.043,40.043,55.324,40.043,74.176z"/>
<path style="fill:#F9B233;" d="M437.824,471.957l-19.505-34.133l19.505-34.133c18.852,0,34.133,15.283,34.133,34.133  C471.957,456.676,456.676,471.957,437.824,471.957z"/>
<path style="fill:#FBC566;" d="M403.69,437.824c0-18.851,15.281-34.133,34.133-34.133v68.267  C418.973,471.957,403.69,456.676,403.69,437.824z"/>
<path style="fill:#F9B233;" d="M437.824,108.31l-19.505-34.133l19.505-34.133c18.852,0,34.133,15.283,34.133,34.133  S456.676,108.31,437.824,108.31z"/>
<path style="fill:#FBC566;" d="M403.69,74.176c0-18.851,15.281-34.133,34.133-34.133v68.267  C418.973,108.31,403.69,93.027,403.69,74.176z"/>
<g>
</g>
<g>
</g>
<g>
</g>
<g>
</g>
<g>
</g>
<g>
</g>
<g>
</g>
<g>
</g>
<g>
</g>
<g>
</g>
<g>
</g>
<g>
</g>
<g>
</g>
<g>
</g>
<g>
</g>
</svg>
