<?xml version="1.0" encoding="iso-8859-1"?>
<!-- Generator: Adobe Illustrator 19.0.0, SVG Export Plug-In . SVG Version: 6.00 Build 0)  -->
<svg xmlns="http://www.w3.org/2000/svg" xmlns:xlink="http://www.w3.org/1999/xlink" version="1.1" id="Layer_1" x="0px" y="0px" viewBox="0 0 512 512" style="enable-background:new 0 0 512 512;" xml:space="preserve">
<path style="fill:#FD5F6E;" d="M190.504,190.504C132.048,248.958,82.637,309.737,51.373,361.643  C15.346,421.455,7.7,462.403,28.649,483.351c7.685,7.686,18.218,11.583,31.309,11.583c0.002,0,0,0,0.001,0  c33.443,0,80.367-26.786,113.839-49.256c46.805-31.419,97.877-74.359,147.698-124.182L190.504,190.504z"/>
<path style="fill:#FE4382;" d="M483.352,28.649c-7.685-7.686-18.219-11.583-31.311-11.583c-33.444,0-80.366,26.786-113.839,49.257  c-46.806,31.419-97.878,74.359-147.698,124.18l130.993,130.993c58.456-58.454,107.867-119.233,139.131-171.14  C496.655,90.545,504.3,49.597,483.352,28.649z"/>
<path style="fill:#FB7A5B;" d="M452.042,0c-30.3,0-71.803,17.548-123.357,52.156c-47.707,32.025-99.663,75.692-150.25,126.28  l24.137,24.137C321.47,83.674,441.776,11.209,471.284,40.718h24.136V16.581C487.856,9.017,474.19,0,452.042,0z"/>
<path style="fill:#FA9647;" d="M202.572,202.571l-24.137-24.137C119.028,237.841,68.711,299.778,36.753,352.836  c-16.556,27.485-27.64,51.753-32.947,72.129c-9.85,37.822,1.51,59.188,12.775,70.453h24.136v-24.137  C11.209,441.776,83.673,321.469,202.572,202.571z"/>
<path style="fill:#FD5F6E;" d="M452.266,247.467H309.877l-5.274-16.232l115.195-83.694c3.813-2.77,4.658-8.107,1.888-11.919  c-2.77-3.813-8.107-4.658-11.919-1.888L294.57,217.429l83.695-115.197c2.77-3.813,1.925-9.149-1.888-11.919  c-3.812-2.768-9.149-1.925-11.919,1.889l-83.694,115.195l-33.298,102.48v142.389c0,4.713,3.821,8.533,8.533,8.533  c4.714,0,8.533-3.821,8.533-8.533V309.876l44.001,135.421c1.455,4.482,6.271,6.938,10.753,5.478  c4.482-1.456,6.935-6.27,5.478-10.753l-44-135.418l83.693,115.194c2.77,3.813,8.106,4.658,11.919,1.889  c3.813-2.77,4.658-8.107,1.889-11.919L294.57,294.572l115.197,83.695c3.812,2.769,9.149,1.925,11.919-1.889  c2.771-3.813,1.925-9.149-1.888-11.919l-115.198-83.695l135.423,44.001c4.481,1.456,9.296-0.997,10.752-5.478  c1.456-4.482-0.997-9.297-5.478-10.753l-135.421-44h142.389c4.714,0,8.533-3.821,8.533-8.533  C460.8,251.287,456.98,247.467,452.266,247.467z"/>
<path style="fill:#FA9647;" d="M319.286,61.224c-4.476-1.457-9.296,0.996-10.752,5.478l-44.001,135.421V59.733  c0-4.713-3.82-8.533-8.533-8.533c-4.713,0-8.533,3.821-8.533,8.533v142.389l-44-135.421c-1.456-4.483-6.27-6.939-10.753-5.478  c-4.482,1.456-6.935,6.27-5.478,10.752l44.001,135.422L147.541,92.201c-2.77-3.813-8.107-4.657-11.919-1.889  c-3.813,2.77-4.658,8.107-1.888,11.919l83.695,115.197l-115.197-83.694c-3.814-2.772-9.15-1.925-11.919,1.888  c-2.77,3.813-1.924,9.149,1.889,11.919l115.197,83.695L71.977,187.235c-4.484-1.46-9.296,0.997-10.753,5.478  c-1.456,4.482,0.997,9.297,5.478,10.753l135.421,44H59.733c-4.713,0-8.533,3.821-8.533,8.533c0,4.713,3.821,8.533,8.533,8.533  h142.389L66.702,308.535c-4.482,1.456-6.935,6.27-5.478,10.753c1.172,3.606,4.517,5.898,8.113,5.898c0.874,0,1.762-0.135,2.639-0.42  l135.421-44.001L92.2,364.46c-3.814,2.77-4.658,8.107-1.888,11.919c2.77,3.813,8.106,4.659,11.919,1.888l115.198-83.696  l-83.695,115.197c-2.77,3.813-1.925,9.149,1.888,11.919c3.813,2.769,9.149,1.926,11.919-1.888l83.695-115.197l49.529-97.206  l44-135.419C326.222,67.494,323.769,62.68,319.286,61.224z"/>
<path style="fill:#FB7A5B;" d="M256,76.8v358.4c98.97,0,179.2-80.23,179.2-179.2S354.969,76.8,256,76.8z"/>
<path style="fill:#F9B233;" d="M401.066,256c0-98.97-64.949-179.2-145.067-179.2c-98.97,0-179.2,80.23-179.2,179.2  S157.03,435.2,256,435.2C336.119,435.2,401.066,354.97,401.066,256z"/>
<path style="fill:#FD5F6E;" d="M495.419,16.581l-24.136,24.136c29.508,29.508-42.957,149.815-161.855,268.712v24.137h24.136  c59.407-59.407,109.725-121.344,141.682-174.402c16.556-27.485,27.64-51.753,32.947-72.129  C518.044,49.211,506.683,27.845,495.419,16.581z"/>
<path style="fill:#FB7A5B;" d="M309.429,309.429C190.531,428.327,70.225,500.792,40.716,471.285L16.581,495.42  C24.145,502.984,37.81,512,59.958,512c30.3,0,71.803-17.547,123.357-52.156c47.706-32.025,99.661-75.692,150.249-126.28  L309.429,309.429z"/>
<g>
	<circle style="fill:#FCD999;" cx="119.466" cy="256" r="8.533"/>
	<circle style="fill:#FCD999;" cx="153.6" cy="221.867" r="8.533"/>
</g>
<g>
</g>
<g>
</g>
<g>
</g>
<g>
</g>
<g>
</g>
<g>
</g>
<g>
</g>
<g>
</g>
<g>
</g>
<g>
</g>
<g>
</g>
<g>
</g>
<g>
</g>
<g>
</g>
<g>
</g>
</svg>
