<?xml version="1.0" encoding="iso-8859-1"?>
<!-- Generator: Adobe Illustrator 19.0.0, SVG Export Plug-In . SVG Version: 6.00 Build 0)  -->
<svg xmlns="http://www.w3.org/2000/svg" xmlns:xlink="http://www.w3.org/1999/xlink" version="1.1" id="Layer_1" x="0px" y="0px" viewBox="0 0 512 512" style="enable-background:new 0 0 512 512;" xml:space="preserve">
<path style="fill:#134A79;" d="M258.867,0.023v511.954C398.928,510.453,512,396.425,512,256S398.928,1.547,258.867,0.023z"/>
<path style="fill:#1D71B8;" d="M258.867,0.023C380.086,1.798,477.867,115.723,477.867,256s-97.781,254.202-218.999,255.977  C257.911,511.989,256.956,512,256,512C114.62,512,0,397.38,0,256S114.62,0,256,0C256.956,0,257.911,0.011,258.867,0.023z"/>
<path style="fill:#77AAD4;" d="M256,68.267L187.733,256L256,443.733c103.516,0,187.733-84.217,187.733-187.733  S359.516,68.267,256,68.267z"/>
<path style="fill:#A5C6E3;" d="M68.267,256c0,103.516,84.217,187.733,187.733,187.733V68.267  C152.484,68.267,68.267,152.484,68.267,256z"/>
<path style="fill:#D2E3F1;" d="M257.547,102.411v307.177C341.538,408.758,409.6,340.184,409.6,256S341.538,103.242,257.547,102.411z  "/>
<path style="fill:#FFFFFF;" d="M257.547,102.411c65.161,1.07,117.919,69.552,117.919,153.589s-52.759,152.519-117.919,153.589  c-0.523,0.011-1.035,0.011-1.547,0.011c-84.696,0-153.6-68.904-153.6-153.6S171.304,102.4,256,102.4  C256.512,102.4,257.024,102.4,257.547,102.411z"/>
<g>
	<path style="fill:#FB7A5B;" d="M200.868,168.829c-4.432-5.452-11.961-7.815-18.958-5.324c-6.996,2.492-11.338,9.082-11.327,16.108   l0.083,96.063l52.882-78.939L200.868,168.829z"/>
	<path style="fill:#FB7A5B;" d="M330.09,163.506c-6.996-2.491-14.526-0.127-18.958,5.324l-22.679,27.909l52.88,78.938v-96.064   C341.345,172.587,337.086,165.996,330.09,163.506z"/>
</g>
<path style="fill:#FCD999;" d="M256,190.339l0.671,185.116c11.674-0.159,22.266-4.722,30.231-12.106l27.045-25.054  c16.839-15.588,27.386-37.865,27.386-62.623C341.333,228.545,303.127,190.339,256,190.339z"/>
<path style="fill:#FEECCC;" d="M307.2,275.672c0,24.758-6.326,47.036-16.43,62.623l-16.225,25.054  c-4.722,7.282-10.98,11.822-17.874,12.106c-0.228,0.011-0.444,0.011-0.671,0.011c-11.935,0-22.79-4.597-30.902-12.117  l-27.045-25.054c-16.839-15.588-27.386-37.865-27.386-62.623c0-47.127,38.207-85.333,85.333-85.333  C284.274,190.339,307.2,228.545,307.2,275.672z"/>
<g>
	<circle style="fill:#134A79;" cx="256" cy="34.133" r="8.533"/>
	<circle style="fill:#134A79;" cx="171.099" cy="51.021" r="8.533"/>
	<circle style="fill:#134A79;" cx="99.112" cy="99.112" r="8.533"/>
	<circle style="fill:#134A79;" cx="51.021" cy="171.099" r="8.533"/>
	<circle style="fill:#134A79;" cx="34.133" cy="256" r="8.533"/>
	<circle style="fill:#134A79;" cx="51.021" cy="340.901" r="8.533"/>
	<circle style="fill:#134A79;" cx="99.112" cy="412.888" r="8.533"/>
	<circle style="fill:#134A79;" cx="171.099" cy="460.982" r="8.533"/>
</g>
<g>
	<circle style="fill:#0E3759;" cx="256" cy="477.867" r="8.533"/>
	<circle style="fill:#0E3759;" cx="340.901" cy="460.982" r="8.533"/>
	<circle style="fill:#0E3759;" cx="412.888" cy="412.888" r="8.533"/>
	<circle style="fill:#0E3759;" cx="460.982" cy="340.901" r="8.533"/>
	<circle style="fill:#0E3759;" cx="477.867" cy="256" r="8.533"/>
	<circle style="fill:#0E3759;" cx="460.982" cy="171.099" r="8.533"/>
	<circle style="fill:#0E3759;" cx="412.888" cy="99.112" r="8.533"/>
	<circle style="fill:#0E3759;" cx="340.901" cy="51.021" r="8.533"/>
</g>
<path style="fill:#FB7A5B;" d="M267.378,295.587h-22.756c-4.713,0-8.533,3.821-8.533,8.533s3.821,8.533,8.533,8.533h2.844v8.533  c0,4.713,3.821,8.533,8.533,8.533c4.713,0,8.533-3.821,8.533-8.533v-8.533h2.844c4.713,0,8.533-3.821,8.533-8.533  S272.09,295.587,267.378,295.587z"/>
<g>
	<path style="fill:#FD5F6E;" d="M233.244,278.52c-3.716,0-6.877-2.375-8.048-5.689h-12.432c-4.713,0-8.533-3.821-8.533-8.533   c0-4.713,3.821-8.533,8.533-8.533h20.48c4.713,0,8.533,3.821,8.533,8.533v5.689C241.778,274.701,237.957,278.52,233.244,278.52z"/>
	<path style="fill:#FD5F6E;" d="M278.756,278.52c-4.713,0-8.533-3.821-8.533-8.533v-5.689c0-4.713,3.821-8.533,8.533-8.533h20.48   c4.713,0,8.533,3.821,8.533,8.533c0,4.713-3.821,8.533-8.533,8.533h-12.432C285.632,276.147,282.472,278.52,278.756,278.52z"/>
</g>
<g>
</g>
<g>
</g>
<g>
</g>
<g>
</g>
<g>
</g>
<g>
</g>
<g>
</g>
<g>
</g>
<g>
</g>
<g>
</g>
<g>
</g>
<g>
</g>
<g>
</g>
<g>
</g>
<g>
</g>
</svg>
