<?xml version="1.0" encoding="iso-8859-1"?>
<!-- Generator: Adobe Illustrator 19.0.0, SVG Export Plug-In . SVG Version: 6.00 Build 0)  -->
<svg xmlns="http://www.w3.org/2000/svg" xmlns:xlink="http://www.w3.org/1999/xlink" version="1.1" id="Layer_1" x="0px" y="0px" viewBox="0 0 512 512" style="enable-background:new 0 0 512 512;" xml:space="preserve">
<g>
	<circle style="fill:#FA9647;" cx="113.778" cy="108.089" r="8.533"/>
	<circle style="fill:#FA9647;" cx="113.778" cy="73.956" r="8.533"/>
	<path style="fill:#FA9647;" d="M113.778,142.222c-12.568,0-22.756,10.188-22.756,22.756v22.756l-22.756,256l68.267-125.156v-153.6   C136.533,152.41,126.346,142.222,113.778,142.222z"/>
</g>
<path style="fill:#F9B233;" d="M68.267,210.489c-12.568,0-22.756-10.188-22.756-22.756V22.756C45.511,10.188,35.323,0,22.756,0  S0,10.188,0,22.756v295.822l22.756,56.889L91.022,409.6V187.733C91.022,200.301,80.835,210.489,68.267,210.489z"/>
<path style="fill:#FD5F6E;" d="M113.778,341.333l-22.756-22.756L68.267,477.867c37.703,0,68.267-30.564,68.267-68.267v-91.022  L113.778,341.333z"/>
<path style="fill:#FA9647;" d="M68.267,341.333l-22.756-22.756l-22.756,22.756L0,318.578V409.6  c0,37.703,30.564,68.267,68.267,68.267c12.568,0,22.756-30.564,22.756-68.267v-91.022L68.267,341.333z"/>
<path style="fill:#FEECCC;" d="M68.267,375.467L56.889,409.6l11.378,34.133c18.852,0,34.133-15.281,34.133-34.133  S87.119,375.467,68.267,375.467z"/>
<path style="fill:#FFFFFF;" d="M34.133,409.6c0,18.852,15.283,34.133,34.133,34.133v-68.267  C49.416,375.467,34.133,390.748,34.133,409.6z"/>
<g>
	<circle style="fill:#F9B233;" cx="227.556" cy="39.822" r="8.533"/>
	<path style="fill:#F9B233;" d="M295.822,119.467c0,12.568-10.188,22.756-22.756,22.756s-22.756-10.188-22.756-22.756V96.711   c0-12.568-10.188-22.756-22.756-22.756S204.8,84.143,204.8,96.711v85.333l35.499,91.022h78.279L295.822,119.467z"/>
</g>
<path style="fill:#FA9647;" d="M318.578,0c-12.568,0-22.756,10.188-22.756,22.756v250.311l45.511-91.022V22.756  C341.333,10.188,331.146,0,318.578,0z"/>
<path style="fill:#FD5F6E;" d="M318.578,204.8l-22.756-22.756l-22.756,159.289c37.703,0,68.267-30.564,68.267-68.267v-91.022  L318.578,204.8z"/>
<path style="fill:#FA9647;" d="M273.067,204.8l-22.756-22.756L227.556,204.8L204.8,182.044v91.022  c0,37.703,30.564,68.267,68.267,68.267c12.568,0,22.756-30.564,22.756-68.267v-91.022L273.067,204.8z"/>
<path style="fill:#FEECCC;" d="M273.067,238.933l-11.378,34.133l11.378,34.133c18.852,0,34.133-15.281,34.133-34.133  S291.919,238.933,273.067,238.933z"/>
<path style="fill:#FFFFFF;" d="M238.933,273.067c0,18.852,15.283,34.133,34.133,34.133v-68.267  C254.216,238.933,238.933,254.215,238.933,273.067z"/>
<g>
	<circle style="fill:#F9B233;" cx="398.222" cy="102.4" r="8.533"/>
	<circle style="fill:#F9B233;" cx="398.222" cy="68.267" r="8.533"/>
	<path style="fill:#F9B233;" d="M466.489,204.8c0,12.568-10.188,22.756-22.756,22.756c-12.568,0-22.756-10.188-22.756-22.756   v-45.511c0-12.568-10.188-22.756-22.756-22.756s-22.756,10.188-22.756,22.756v193.422l35.499,91.022h78.279L466.489,204.8z"/>
</g>
<path style="fill:#FA9647;" d="M489.244,0c-12.568,0-22.756,10.188-22.756,22.756v420.978L512,352.711V22.756  C512,10.188,501.812,0,489.244,0z"/>
<path style="fill:#FD5F6E;" d="M489.244,375.467l-22.756-22.756L443.733,512C481.436,512,512,481.436,512,443.733v-91.022  L489.244,375.467z"/>
<path style="fill:#FA9647;" d="M443.733,375.467l-22.756-22.756l-22.756,22.756l-22.756-22.756v91.022  c0,37.703,30.564,68.267,68.267,68.267c12.568,0,22.756-30.564,22.756-68.267v-91.022L443.733,375.467z"/>
<path style="fill:#FEECCC;" d="M443.733,409.6l-11.378,34.133l11.378,34.133c18.852,0,34.133-15.281,34.133-34.133  S462.585,409.6,443.733,409.6z"/>
<path style="fill:#FFFFFF;" d="M409.6,443.733c0,18.852,15.283,34.133,34.133,34.133V409.6  C424.883,409.6,409.6,424.882,409.6,443.733z"/>
<g>
</g>
<g>
</g>
<g>
</g>
<g>
</g>
<g>
</g>
<g>
</g>
<g>
</g>
<g>
</g>
<g>
</g>
<g>
</g>
<g>
</g>
<g>
</g>
<g>
</g>
<g>
</g>
<g>
</g>
</svg>
