<svg id="Capa_1" enable-background="new 0 0 512 512" height="512" viewBox="0 0 512 512" width="512" xmlns="http://www.w3.org/2000/svg"><g><path d="m414.825.139h-296.623v472.09h296.623c18.459 0 33.422-14.964 33.422-33.422v-405.246c.001-18.459-14.963-33.422-33.422-33.422z" fill="#a2f4c1"/><path d="m419.909.409v422.592c0 11.537-9.352 20.889-20.889 20.889h-280.956v28.2h296.623c18.459 0 33.422-14.964 33.422-33.422v-405.246c0-16.681-12.223-30.506-28.2-33.013z" fill="#86f1a7"/><path d="m97.175 0c-18.459 0-33.423 14.964-33.423 33.422v405.245c0 18.459 14.964 33.422 33.422 33.422h20.889v-472.089z" fill="#df75a5"/><path d="m64.161 443.89c2.508 15.978 16.332 28.2 33.014 28.2h20.889v-28.2z" fill="#dd5790"/><path d="m152.039 511.787-20.867-5.565c-1.746-.465-3.583-.465-5.328 0l-20.867 5.565c-3.938 1.05-7.802-1.918-7.802-5.994v-33.703h62.667v33.703c0 4.076-3.864 7.044-7.803 5.994z" fill="#ffe07d"/><g><path d="m189.086 397.597v-62.667c0-11.537 9.352-20.889 20.889-20.889h146.223c11.537 0 20.889 9.352 20.889 20.889v62.667c0 11.537-9.352 20.889-20.889 20.889h-146.223c-11.537 0-20.889-9.353-20.889-20.889z" fill="#e4fbef"/><g><path d="m383.064 65.562-117.28 117.29-22.478-22.488 73.72-97.076c4.477-5.904 11.776-8.954 19.118-8.003l35.092 4.539c4.58.589 8.695 2.667 11.828 5.738z" fill="#ffe07d"/><path d="m393.786 114.953c.124 5.697-2.12 11.187-6.173 15.168l-99.351 75.209-22.478-22.478 117.28-117.29c2.709 2.668 4.694 6.08 5.614 9.915z" fill="#ffd064"/><path d="m206.49 200.363h41.778v41.778h-41.778z" fill="#e7a561" transform="matrix(.707 .707 -.707 .707 223.046 -95.978)"/><path d="m299.017 216.082-66.468-66.468c-4.079-4.079-10.692-4.079-14.771 0l-8.862 8.862c-4.079 4.079-4.079 10.692 0 14.771l66.468 66.468c4.079 4.079 10.692 4.079 14.771 0l8.862-8.862c4.079-4.079 4.079-10.692 0-14.771z" fill="#df75a5"/><path d="m227.379 250.793-29.541-29.541c-4.079-4.079-10.692-4.079-14.771 0l-8.862 8.862c-4.079 4.079-4.079 10.692 0 14.771l29.541 29.541c4.079 4.079 10.692 4.079 14.771 0l8.862-8.862c4.079-4.079 4.079-10.692 0-14.771z" fill="#ffe07d"/></g></g></g></svg>