<?xml version="1.0" encoding="iso-8859-1"?>
<!-- Generator: Adobe Illustrator 19.0.0, SVG Export Plug-In . SVG Version: 6.00 Build 0)  -->
<svg xmlns="http://www.w3.org/2000/svg" xmlns:xlink="http://www.w3.org/1999/xlink" version="1.1" id="Layer_1" x="0px" y="0px" viewBox="0 0 512.001 512.001" style="enable-background:new 0 0 512.001 512.001;" xml:space="preserve">
<path style="fill:#FA9647;" d="M94.57,481.817c-8.599,8.599-20.032,13.335-32.192,13.335s-23.593-4.735-32.192-13.335  c-10.532-10.534-26.432-34.624-14.566-77.609c5.353-19.399,16.051-42.259,31.794-67.947  c29.608-48.308,75.751-104.748,129.926-158.926C231.516,123.161,287.956,77.02,336.265,47.41  c25.688-15.745,48.548-26.441,67.946-31.794c42.985-11.866,67.075,4.033,77.61,14.566c8.599,8.599,13.335,20.031,13.335,32.192  c0,12.161-4.735,23.593-13.335,32.192L94.57,481.817z"/>
<path style="fill:#FB7A5B;" d="M401.183,4.649c-20.426,5.638-44.269,16.761-70.865,33.06  c-49.048,30.062-106.235,76.793-161.025,131.581C114.505,224.082,67.774,281.267,37.712,330.316  c-16.301,26.597-27.424,50.439-33.06,70.865c-13.4,48.544,5.205,76.396,17.488,88.681l13.153-44.959  c-1.872-8.839-1.729-20.175,2.263-34.641c4.787-17.342,14.631-38.24,29.26-62.108c28.702-46.827,73.668-101.777,126.615-154.726  c52.95-52.948,107.9-97.915,154.726-126.615c23.869-14.63,44.767-24.474,62.111-29.261c14.465-3.992,25.8-4.135,34.638-2.263  l44.959-13.153C477.579,9.854,449.727-8.75,401.183,4.649z"/>
<path style="fill:#FCD999;" d="M359.77,104.712c-41.044,25.157-92.082,67.083-140.028,115.027  c-47.947,47.948-89.873,98.986-115.028,140.027c-10.661,17.394-15.95,29.162-18.522,36.037c6.874-2.573,18.642-7.861,36.037-18.522  c41.041-25.155,92.08-67.081,140.027-115.028c47.944-47.945,89.871-98.984,115.027-140.028  c10.661-17.395,15.95-29.163,18.521-36.034C388.934,88.763,377.166,94.051,359.77,104.712z"/>
<polygon style="fill:#FBC566;" points="282.097,257.035 257.036,282.096 471.774,511.999 512,471.773 "/>
<polygon style="fill:#FCD999;" points="0.001,40.227 243.934,268.068 268.069,243.932 40.229,0 "/>
<circle style="fill:#FFFFFF;" cx="256.001" cy="256" r="91.022"/>
<circle style="fill:#F9B233;" cx="256.001" cy="256" r="56.889"/>
<path style="fill:#FD5F6E;" d="M452.685,27.508l-55.936,55.936c-2.916,8.778-11.137,27.938-33.898,60.761  c-25.759,37.147-60.552,77.96-100.618,118.026s-80.879,74.859-118.026,100.618c-32.823,22.761-51.983,30.982-60.761,33.898  l-55.936,55.936l3.619,30.058c10.994,10.503,34.919,25.164,76.664,13.642c19.398-5.353,42.258-16.051,67.946-31.794  c48.309-29.608,104.749-75.751,158.926-129.926c54.175-54.176,100.318-110.618,129.926-158.926  c15.743-25.688,26.441-48.549,31.794-67.947c11.522-41.743-3.139-65.668-13.642-76.663L452.685,27.508z"/>
<path style="fill:#FF2796;" d="M452.685,27.508l-7.781,7.781c9.66,2.046,16.336,6.498,20.824,10.984  c8.591,8.594,17.077,25.19,8.721,55.463c-4.788,17.345-14.631,38.242-29.261,62.111c-28.7,46.826-73.668,101.776-126.615,154.726  c-52.949,52.948-107.899,97.914-154.726,126.615c-23.868,14.63-44.766,24.474-62.108,29.26c-30.274,8.356-46.872-0.13-55.465-8.721  c-4.486-4.487-8.938-11.164-10.984-20.824l-7.781,7.781c-9.902,9.902-12.32,26.633-5.371,37.179l0,0l0,0  c12.283,12.282,40.136,30.887,88.68,17.488c20.425-5.638,44.269-16.761,70.865-33.061c49.048-30.062,106.235-76.792,161.025-131.581  c54.788-54.791,101.519-111.976,131.581-161.025c16.301-26.597,27.424-50.439,33.061-70.865c13.4-48.544-5.205-76.397-17.488-88.68  l0,0l0,0C479.318,15.19,462.587,17.606,452.685,27.508z"/>
<g>
</g>
<g>
</g>
<g>
</g>
<g>
</g>
<g>
</g>
<g>
</g>
<g>
</g>
<g>
</g>
<g>
</g>
<g>
</g>
<g>
</g>
<g>
</g>
<g>
</g>
<g>
</g>
<g>
</g>
</svg>
