<svg id="Capa_1" enable-background="new 0 0 512 512" height="512" viewBox="0 0 512 512" width="512" xmlns="http://www.w3.org/2000/svg"><g><g><path d="m405.958 464.13h-395.656c-5.69 0-10.302-4.612-10.302-10.302v-104.274c0-5.69 4.612-10.302 10.302-10.302h405.958v114.576c0 5.69-4.612 10.302-10.302 10.302z" fill="#a2f4c1"/><path d="m129.041 339.252h62.439v-31.324c0-5.69-4.612-10.302-10.302-10.302h-41.835c-5.69 0-10.302 4.612-10.302 10.302z" fill="#80e29d"/><path d="m33.301 339.252h62.439v-31.324c0-5.69-4.612-10.302-10.302-10.302h-41.835c-5.69 0-10.302 4.612-10.302 10.302z" fill="#80e29d"/><path d="m416.26 339.252h-33.301s-63.48 124.878-287.219 124.878h310.218c5.69 0 10.302-4.612 10.302-10.302z" fill="#86f1a7"/></g><g><path d="m501.698 214.374h-395.656c-5.69 0-10.302-4.612-10.302-10.302v-104.274c0-5.69 4.612-10.302 10.302-10.302h395.656c5.69 0 10.302 4.612 10.302 10.302v104.274c0 5.69-4.613 10.302-10.302 10.302z" fill="#e7a561"/><g fill="#e49824"><path d="m382.959 89.496h-62.439v-31.324c0-5.69 4.612-10.302 10.302-10.302h41.835c5.69 0 10.302 4.612 10.302 10.302z"/><path d="m478.699 89.496h-62.439v-31.324c0-5.69 4.612-10.302 10.302-10.302h41.835c5.69 0 10.302 4.612 10.302 10.302z"/><path d="m224.78 89.496h62.439v-31.324c0-5.69-4.612-10.302-10.302-10.302h-41.835c-5.69 0-10.302 4.612-10.302 10.302z"/><path d="m129.041 89.496h62.439v-31.324c0-5.69-4.612-10.302-10.302-10.302h-41.835c-5.69 0-10.302 4.612-10.302 10.302z"/></g><path d="m501.698 89.496h-22.999s-63.48 124.878-287.219 124.878h310.218c5.69 0 10.302-4.612 10.302-10.302v-104.274c0-5.69-4.613-10.302-10.302-10.302z" fill="#e49542"/></g><g><path d="m191.48 214.374h224.78v124.878h-224.78z" fill="#df75a5"/><path d="m416.26 214.374h-23.354s-44.518 124.878-201.427 124.878h224.78v-124.878z" fill="#dd5790"/></g></g></svg>