<?xml version="1.0" encoding="iso-8859-1"?>
<!-- Generator: Adobe Illustrator 19.0.0, SVG Export Plug-In . SVG Version: 6.00 Build 0)  -->
<svg xmlns="http://www.w3.org/2000/svg" xmlns:xlink="http://www.w3.org/1999/xlink" version="1.1" id="Layer_1" x="0px" y="0px" viewBox="0 0 512 512" style="enable-background:new 0 0 512 512;" xml:space="preserve">
<path style="fill:#134A79;" d="M503.742,205.075H349.591v16.516h154.151c4.562,0,8.258-3.696,8.258-8.258  C512,208.772,508.304,205.075,503.742,205.075z"/>
<path style="fill:#1D71B8;" d="M8.258,205.075c-4.561,0-8.258,3.696-8.258,8.258c0,4.562,3.697,8.258,8.258,8.258h154.151v-16.516  H8.258z"/>
<polygon style="fill:#FCD999;" points="338.581,147.269 257.101,262.882 338.581,378.495 363.355,378.495 371.613,147.269 "/>
<polygon style="fill:#FEECCC;" points="140.387,147.269 148.645,378.495 173.419,378.495 338.581,213.333 338.581,147.269 "/>
<polygon style="fill:#0E3759;" points="338.581,213.333 338.581,246.366 278.022,279.398 311.054,213.333 "/>
<polygon style="fill:#134A79;" points="311.054,213.333 311.054,246.366 250.495,279.398 283.527,213.333 "/>
<polygon style="fill:#1D71B8;" points="283.527,213.333 283.527,246.366 195.441,279.398 228.473,213.333 "/>
<polygon style="fill:#134A79;" points="228.473,213.333 228.473,279.398 173.419,246.366 173.419,213.333 "/>
<polygon style="fill:#0E3759;" points="338.581,378.495 338.581,345.462 278.022,312.43 311.054,378.495 "/>
<polygon style="fill:#134A79;" points="311.054,378.495 311.054,345.462 250.495,312.43 283.527,378.495 "/>
<polygon style="fill:#1D71B8;" points="283.527,378.495 283.527,345.462 195.441,312.43 228.473,378.495 "/>
<g>
	<polygon style="fill:#134A79;" points="228.473,378.495 228.473,312.43 173.419,345.462 173.419,378.495  "/>
	<polygon style="fill:#134A79;" points="338.581,246.366 338.581,345.462 311.054,345.462 289.032,295.914 311.054,246.366  "/>
</g>
<polygon style="fill:#1D71B8;" points="311.054,246.366 311.054,345.462 283.527,345.462 261.505,295.914 283.527,246.366 "/>
<polygon style="fill:#4A8DC6;" points="283.527,246.366 283.527,345.462 228.473,345.462 206.452,295.914 228.473,246.366 "/>
<rect x="173.419" y="246.366" style="fill:#1D71B8;" width="55.054" height="99.097"/>
<g>
	<circle style="fill:#134A79;" cx="338.581" cy="180.301" r="8.258"/>
	<circle style="fill:#134A79;" cx="305.548" cy="180.301" r="8.258"/>
</g>
<path style="fill:#FA9647;" d="M228.473,188.559h-55.054c-4.561,0-8.258-3.696-8.258-8.258c0-4.562,3.697-8.258,8.258-8.258h55.054  c4.561,0,8.258,3.696,8.258,8.258C236.731,184.863,233.034,188.559,228.473,188.559z"/>
<path style="fill:#FCD999;" d="M140.387,133.505c-4.561,0-8.258,3.696-8.258,8.258v236.731h16.516V141.763  C148.645,137.202,144.948,133.505,140.387,133.505z"/>
<path style="fill:#FBC566;" d="M371.613,133.505c-4.562,0-8.258,3.696-8.258,8.258v236.731h16.516V141.763  C379.871,137.202,376.175,133.505,371.613,133.505z"/>
<g>
</g>
<g>
</g>
<g>
</g>
<g>
</g>
<g>
</g>
<g>
</g>
<g>
</g>
<g>
</g>
<g>
</g>
<g>
</g>
<g>
</g>
<g>
</g>
<g>
</g>
<g>
</g>
<g>
</g>
</svg>
