<?xml version="1.0" encoding="iso-8859-1"?>
<!-- Generator: Adobe Illustrator 19.0.0, SVG Export Plug-In . SVG Version: 6.00 Build 0)  -->
<svg xmlns="http://www.w3.org/2000/svg" xmlns:xlink="http://www.w3.org/1999/xlink" version="1.1" id="Layer_1" x="0px" y="0px" viewBox="0 0 512 512" style="enable-background:new 0 0 512 512;" xml:space="preserve">
<rect x="386.844" y="415.289" style="fill:#4A8DC6;" width="56.889" height="68.267"/>
<rect x="147.911" y="415.289" style="fill:#77AAD4;" width="261.689" height="68.267"/>
<rect x="68.267" y="415.289" style="fill:#4A8DC6;" width="102.4" height="68.267"/>
<g>
	<path style="fill:#77AAD4;" d="M73.956,204.8v159.289H34.133C15.36,364.089,0,348.729,0,329.956v-91.022   C0,220.16,15.36,204.8,34.133,204.8H73.956z"/>
	<path style="fill:#77AAD4;" d="M503.467,103.176c-4.714,0-8.533,3.821-8.533,8.533v127.224H512V111.709   C512,106.997,508.181,103.176,503.467,103.176z"/>
</g>
<path style="fill:#4A8DC6;" d="M512,238.933v91.022c0,18.773-15.36,34.133-34.133,34.133h-39.822V204.8h39.822  C496.64,204.8,512,220.16,512,238.933z"/>
<path style="fill:#A5C6E3;" d="M258.207,0.011l168.459,432.344H460.8V204.8C460.8,92.433,370.301,1.195,258.207,0.011z"/>
<path style="fill:#D2E3F1;" d="M258.207,0.011C257.468,0,256.74,0,256,0C142.894,0,51.2,91.694,51.2,204.8v227.556h375.467V204.8  C426.667,92.581,351.448,1.434,258.207,0.011z"/>
<polygon style="fill:#A5C6E3;" points="477.867,466.489 477.867,512 443.733,512 420.978,489.244 443.733,466.489 "/>
<polygon style="fill:#D2E3F1;" points="443.733,466.489 443.733,512 34.133,512 34.133,466.489 68.267,466.489 170.667,466.489   409.6,466.489 "/>
<path style="fill:#FF2796;" d="M398.973,111.707h-28.592L256,272.646l170.667,25.782V204.8  C426.667,170.485,416.472,138.502,398.973,111.707z"/>
<path style="fill:#FD5F6E;" d="M370.381,111.707H113.027c-17.499,26.795-27.694,58.778-27.694,93.093v93.628l307.2-25.782V204.8  C392.533,170.485,384.375,138.502,370.381,111.707z"/>
<path style="fill:#FA9647;" d="M426.667,298.428v35.669h-34.133L358.4,303.371l34.133-30.726  C404.628,280.292,416.051,288.927,426.667,298.428z"/>
<path style="fill:#F9B233;" d="M392.533,272.646v61.451h-307.2v-35.669C130.617,257.889,190.43,233.244,256,233.244  C306.199,233.244,353.018,247.683,392.533,272.646z"/>
<path style="fill:#A5C6E3;" d="M469.333,440.889H42.667c-4.713,0-8.533-3.821-8.533-8.533s3.821-8.533,8.533-8.533h426.667  c4.714,0,8.533,3.821,8.533,8.533S474.047,440.889,469.333,440.889z"/>
<circle style="fill:#FF2796;" cx="335.644" cy="179.974" r="22.756"/>
<g>
</g>
<g>
</g>
<g>
</g>
<g>
</g>
<g>
</g>
<g>
</g>
<g>
</g>
<g>
</g>
<g>
</g>
<g>
</g>
<g>
</g>
<g>
</g>
<g>
</g>
<g>
</g>
<g>
</g>
</svg>
