<?xml version="1.0" encoding="iso-8859-1"?>
<!-- Generator: Adobe Illustrator 19.0.0, SVG Export Plug-In . SVG Version: 6.00 Build 0)  -->
<svg xmlns="http://www.w3.org/2000/svg" xmlns:xlink="http://www.w3.org/1999/xlink" version="1.1" id="Layer_1" x="0px" y="0px" viewBox="0 0 512 512" style="enable-background:new 0 0 512 512;" xml:space="preserve">
<path style="fill:#134A79;" d="M377.599,8.258v495.484c69.666,0,126.142-110.918,126.142-247.742S447.266,8.258,377.599,8.258z"/>
<path style="fill:#185E98;" d="M470.71,256c0-136.824-41.687-247.742-93.11-247.742c-58.017,0-106.878,76.929-121.599,181.677  v132.129c14.721,104.749,63.583,181.677,121.599,181.677C429.023,503.742,470.71,392.824,470.71,256z"/>
<path style="fill:#4A8DC6;" d="M134.401,8.258C64.734,8.258,8.258,119.176,8.258,256s56.476,247.742,126.142,247.742  c58.017,0,106.878-76.929,121.599-181.677V189.935C241.279,85.187,192.417,8.258,134.401,8.258z"/>
<path style="fill:#1D71B8;" d="M332.848,132.129v247.742c50.168,0,90.839-55.459,90.839-123.871S383.018,132.129,332.848,132.129z"/>
<path style="fill:#4A8DC6;" d="M390.655,256c0-68.412-25.881-123.871-57.806-123.871c-32.356,0-60.757,23.073-76.848,57.806v132.129  c16.092,34.733,44.492,57.806,76.848,57.806C364.774,379.871,390.655,324.412,390.655,256z"/>
<g>
	<path style="fill:#77AAD4;" d="M179.152,132.129c-50.168,0-90.839,55.459-90.839,123.871s40.67,123.871,90.839,123.871   c32.356,0,60.757-23.073,76.848-57.806V189.935C239.908,155.202,211.508,132.129,179.152,132.129z"/>
	<path style="fill:#77AAD4;" d="M332.848,388.129c-34.654,0-66.183-23.399-84.341-62.593c-0.504-1.088-0.765-2.273-0.765-3.472   V189.935c0-1.199,0.261-2.384,0.765-3.472c18.158-39.194,49.687-62.593,84.341-62.593c26.962,0,52.139,14.084,70.892,39.655   c18.189,24.802,28.205,57.643,28.205,92.474s-10.016,67.671-28.205,92.474C384.988,374.045,359.81,388.129,332.848,388.129z    M264.258,320.216c15.466,32.221,41.003,51.397,68.59,51.397c45.535,0,82.581-51.864,82.581-115.613   s-37.046-115.613-82.581-115.613c-27.587,0-53.125,19.177-68.59,51.397V320.216z"/>
</g>
<path style="fill:#A5C6E3;" d="M179.152,388.129c-26.962,0-52.139-14.084-70.892-39.655C90.071,323.672,80.055,290.83,80.055,256  s10.016-67.671,28.205-92.474c18.752-25.572,43.93-39.655,70.892-39.655c34.654,0,66.183,23.399,84.341,62.593  c0.504,1.088,0.765,2.273,0.765,3.472v132.129c0,1.199-0.261,2.384-0.765,3.472C245.335,364.73,213.806,388.129,179.152,388.129z   M179.152,140.387c-45.535,0-82.581,51.864-82.581,115.613s37.046,115.613,82.581,115.613c27.587,0,53.125-19.177,68.59-51.397  V191.784C232.276,159.565,206.739,140.387,179.152,140.387z"/>
<g>
	<circle style="fill:#FFFFFF;" cx="82.581" cy="98.546" r="8.258"/>
	<circle style="fill:#FFFFFF;" cx="115.613" cy="65.514" r="8.258"/>
</g>
<path style="fill:#77AAD4;" d="M377.599,512c-31.073,0-60.097-19.112-83.931-55.272c-22.198-33.675-38.479-81.091-45.847-133.514  c-0.054-0.381-0.08-0.765-0.08-1.15V189.935c0-0.384,0.026-0.769,0.08-1.15c7.367-52.423,23.65-99.839,45.847-133.514  C317.503,19.112,346.526,0,377.599,0c36.958,0,71.248,27.372,96.556,77.073C498.559,125.004,512,188.548,512,256  s-13.441,130.996-37.845,178.927C448.849,484.628,414.557,512,377.599,512z M264.258,321.484  c7.07,49.819,22.404,94.602,43.201,126.155c14.388,21.827,38.234,47.845,70.141,47.845c30.429,0,59.493-24.168,81.837-68.051  c23.246-45.654,36.047-106.537,36.047-171.433s-12.801-125.779-36.047-171.433c-22.344-43.883-51.408-68.051-81.837-68.051  c-31.907,0-55.753,26.018-70.141,47.845c-20.797,31.551-36.131,76.335-43.201,126.155V321.484z"/>
<path style="fill:#A5C6E3;" d="M134.401,512c-36.958,0-71.248-27.372-96.555-77.073C13.441,386.996,0,323.452,0,256  S13.441,125.004,37.845,77.073C63.151,27.372,97.443,0,134.401,0c31.073,0,60.097,19.112,83.931,55.272  c22.198,33.675,38.479,81.091,45.847,133.514c0.054,0.381,0.08,0.765,0.08,1.15v132.129c0,0.384-0.026,0.769-0.08,1.15  c-7.367,52.423-23.65,99.839-45.847,133.514C194.497,492.888,165.474,512,134.401,512z M134.401,16.516  c-30.429,0-59.493,24.167-81.837,68.051C29.317,130.221,16.516,191.104,16.516,256s12.801,125.779,36.047,171.433  c22.344,43.883,51.408,68.051,81.837,68.051c31.907,0,55.753-26.018,70.141-47.845c20.798-31.552,36.131-76.335,43.201-126.155  V190.516c-7.07-49.819-22.404-94.602-43.201-126.155C190.154,42.535,166.308,16.516,134.401,16.516z"/>
<circle style="fill:#FFFFFF;" cx="429.419" cy="413.454" r="8.258"/>
<path style="fill:#A5C6E3;" d="M256,189.935v132.129c36.486,0,66.065-29.578,66.065-66.065S292.486,189.935,256,189.935z"/>
<path style="fill:#D2E3F1;" d="M289.032,256c0-36.486-14.789-66.065-33.032-66.065c-36.486,0-66.065,29.578-66.065,66.065  s29.578,66.065,66.065,66.065C274.244,322.065,289.032,292.486,289.032,256z"/>
<g>
</g>
<g>
</g>
<g>
</g>
<g>
</g>
<g>
</g>
<g>
</g>
<g>
</g>
<g>
</g>
<g>
</g>
<g>
</g>
<g>
</g>
<g>
</g>
<g>
</g>
<g>
</g>
<g>
</g>
</svg>
