<?xml version="1.0" encoding="iso-8859-1"?>
<!-- Generator: Adobe Illustrator 19.0.0, SVG Export Plug-In . SVG Version: 6.00 Build 0)  -->
<svg xmlns="http://www.w3.org/2000/svg" xmlns:xlink="http://www.w3.org/1999/xlink" version="1.1" id="Layer_1" x="0px" y="0px" viewBox="0 0 512 512" style="enable-background:new 0 0 512 512;" xml:space="preserve">
<path style="fill:#A5C6E3;" d="M258.238,8.416L256,260.197l218.23-33.574C474.23,106.843,377.738,9.602,258.238,8.416z"/>
<path style="fill:#D2E3F1;" d="M429.465,226.623L256,260.197L37.77,226.623c0-120.53,97.7-218.23,218.23-218.23  c0.75,0,1.5,0.011,2.238,0.022C353.006,9.927,429.465,107.033,429.465,226.623z"/>
<path style="fill:#77AAD4;" d="M256,0C131.04,0,29.377,101.663,29.377,226.623c0,4.637,3.758,8.393,8.393,8.393  s8.393-3.757,8.393-8.393c0-22.44,3.554-44.062,10.107-64.35h66.028c-3.707,20.63-5.63,42.253-5.63,64.35  c0,4.637,3.758,8.393,8.393,8.393s8.393-3.757,8.393-8.393c0-22.184,2.022-43.826,5.904-64.35h66.505  c-1.255,20.602-1.905,42.232-1.905,64.35c0,4.637,3.758,8.393,8.393,8.393c4.635,0,8.393-3.757,8.393-8.393  c0-22.16,0.663-43.795,1.935-64.35h66.634c1.274,20.555,1.935,42.19,1.935,64.35c0,4.637,3.758,8.393,8.393,8.393  c4.635,0,8.393-3.757,8.393-8.393c0-22.117-0.65-43.748-1.905-64.35h66.505c3.882,20.524,5.905,42.165,5.905,64.35  c0,4.637,3.758,8.393,8.393,8.393c4.635,0,8.393-3.757,8.393-8.393c0-22.097-1.924-43.72-5.63-64.35h66.028  c6.552,20.288,10.107,41.91,10.107,64.35c0,4.637,3.758,8.393,8.393,8.393c4.635,0,8.393-3.757,8.393-8.393  C482.623,101.663,380.96,0,256,0z M398.497,72.743h-39.952c-0.906-1.6-1.824-3.187-2.762-4.75  c-9.656-16.093-20.546-29.52-32.338-40.086C351.623,37.496,377.116,52.929,398.497,72.743z M231.968,20.884  c-5.741,11.64-10.74,28.181-15.061,49.781c-0.137,0.686-0.271,1.384-0.405,2.077h-43.494  C189.805,46.165,210.126,28.413,231.968,20.884z M256,16.787c2.345,0,12.949,9.556,22.381,55.956h-44.764  C243.051,26.343,253.655,16.787,256,16.787z M295.093,70.666c-4.32-21.601-9.319-38.142-15.061-49.781  c21.842,7.529,42.163,25.281,58.96,51.859h-43.494C295.363,72.05,295.23,71.351,295.093,70.666z M156.215,67.994  c-0.938,1.562-1.856,3.149-2.762,4.75h-39.952c21.381-19.814,46.875-35.247,75.052-44.836  C176.761,38.472,165.872,51.901,156.215,67.994z M62.491,145.486c8.63-20.506,20.425-39.364,34.775-55.956h47.553  c-8.004,17.179-14.401,36.001-19.061,55.956H62.491z M143.004,145.486c4.987-20.187,11.869-39.038,20.483-55.956h50.051  c-2.728,17.11-4.908,35.942-6.495,55.956H143.004z M223.879,145.486c1.625-20.111,3.86-38.959,6.661-55.956h50.92  c2.801,16.997,5.037,35.846,6.661,55.956H223.879z M304.957,145.486c-1.587-20.014-3.767-38.846-6.495-55.956h50.051  c8.614,16.918,15.497,35.769,20.483,55.956H304.957z M386.243,145.486c-4.659-19.955-11.057-38.778-19.061-55.956h47.553  c14.349,16.592,26.145,35.451,34.775,55.956H386.243z"/>
<polygon style="fill:#FE4382;" points="507.803,226.623 507.803,512 474.23,512 440.656,369.311 474.23,226.623 "/>
<polygon style="fill:#FB7A5B;" points="4.197,226.623 4.197,512 71.344,512 256,327.344 440.656,512 474.23,512 474.23,226.623 "/>
<polygon style="fill:#134A79;" points="440.656,293.771 440.656,327.344 384.699,349.727 407.082,293.771 "/>
<polygon style="fill:#1D71B8;" points="407.082,293.771 407.082,327.344 317.552,349.727 339.934,293.771 "/>
<polygon style="fill:#134A79;" points="339.934,293.771 339.934,327.344 283.978,349.727 306.361,293.771 "/>
<polygon style="fill:#1D71B8;" points="172.066,293.771 149.683,349.727 306.361,327.344 306.361,293.771 "/>
<polygon style="fill:#134A79;" points="172.066,293.771 172.066,327.344 116.109,349.727 138.492,293.771 "/>
<g>
	<rect x="71.344" y="293.771" style="fill:#1D71B8;" width="67.148" height="33.574"/>
	<polygon style="fill:#1D71B8;" points="440.656,327.344 440.656,512 407.082,512 362.317,419.672 407.082,327.344  "/>
</g>
<polygon style="fill:#4A8DC6;" points="407.082,327.344 407.082,512 339.934,512 295.169,419.672 339.934,327.344 "/>
<polygon style="fill:#092339;" points="339.934,327.344 339.934,489.617 272.787,489.617 306.361,327.344 "/>
<polygon style="fill:#0E3759;" points="306.361,327.344 306.361,489.617 222.426,489.617 256,327.344 "/>
<rect x="160.874" y="327.344" style="fill:#134A79;" width="95.126" height="162.273"/>
<polygon style="fill:#1D71B8;" points="138.492,327.344 93.727,419.672 138.492,512 172.066,512 172.066,327.344 "/>
<rect x="71.344" y="327.344" style="fill:#4A8DC6;" width="67.148" height="184.656"/>
<rect x="172.066" y="478.426" style="fill:#FEECCC;" width="134.295" height="33.574"/>
<rect x="306.361" y="478.426" style="fill:#FCD999;" width="33.574" height="33.574"/>
<g>
</g>
<g>
</g>
<g>
</g>
<g>
</g>
<g>
</g>
<g>
</g>
<g>
</g>
<g>
</g>
<g>
</g>
<g>
</g>
<g>
</g>
<g>
</g>
<g>
</g>
<g>
</g>
<g>
</g>
</svg>
