<?xml version="1.0" encoding="iso-8859-1"?>
<!-- Generator: Adobe Illustrator 19.0.0, SVG Export Plug-In . SVG Version: 6.00 Build 0)  -->
<svg xmlns="http://www.w3.org/2000/svg" xmlns:xlink="http://www.w3.org/1999/xlink" version="1.1" id="Layer_1" x="0px" y="0px" viewBox="0 0 512 512" style="enable-background:new 0 0 512 512;" xml:space="preserve">
<rect x="238.933" y="205.369" style="fill:#4A8DC6;" width="34.133" height="56.889"/>
<polygon style="fill:#134A79;" points="284.444,251.733 311.751,388.267 256,411.022 268.925,251.733 "/>
<g>
	<polygon style="fill:#185E98;" points="268.925,251.733 281.338,388.267 256,411.022 200.249,388.267 227.556,251.733  "/>
	<polygon style="fill:#185E98;" points="311.751,388.267 281.338,388.267 256,445.156 318.578,422.4  "/>
</g>
<g>
	<polygon style="fill:#1D71B8;" points="281.338,388.267 284.444,422.4 256,445.156 193.422,422.4 200.249,388.267  "/>
	<path style="fill:#1D71B8;" d="M335.644,422.4h-34.133l17.067,34.133h34.133v-17.067C352.711,430.08,345.031,422.4,335.644,422.4z"/>
</g>
<path style="fill:#F9B233;" d="M256,46.933c47.127,0,85.333,38.207,85.333,85.333S303.127,217.6,256,217.6V46.933z"/>
<path style="fill:#FBC566;" d="M256,46.933c28.274,0,51.2,38.207,51.2,85.333S284.274,217.6,256,217.6  c-47.127,0-85.333-38.207-85.333-85.333S208.873,46.933,256,46.933z"/>
<path style="fill:#4A8DC6;" d="M318.578,439.467v17.067H159.289v-17.067c0-9.387,7.68-17.067,17.067-17.067h17.067h91.022h17.067  C310.898,422.4,318.578,430.08,318.578,439.467z"/>
<g>
	<path style="fill:#D2E3F1;" d="M316.302,362.667H51.2c-23.527,0-42.667-19.14-42.667-42.667V137.956   c0-4.714,3.821-8.533,8.533-8.533s8.533,3.82,8.533,8.533V320c0,14.115,11.484,25.6,25.6,25.6h265.102   c4.713,0,8.533,3.82,8.533,8.533C324.836,358.847,321.015,362.667,316.302,362.667z"/>
	<path style="fill:#D2E3F1;" d="M302.649,294.4H136.533c-23.527,0-42.667-19.14-42.667-42.667v-96.711   c0-4.714,3.821-8.533,8.533-8.533c4.713,0,8.533,3.82,8.533,8.533v96.711c0,14.115,11.484,25.6,25.6,25.6h166.116   c4.713,0,8.533,3.82,8.533,8.533C311.182,290.581,307.362,294.4,302.649,294.4z"/>
	<path style="fill:#D2E3F1;" d="M460.8,328.533H202.524c-4.713,0-8.533-3.82-8.533-8.533c0-4.714,3.821-8.533,8.533-8.533H460.8   c14.116,0,25.6-11.485,25.6-25.6V137.956c0-4.714,3.821-8.533,8.533-8.533s8.533,3.82,8.533,8.533v147.911   C503.467,309.394,484.327,328.533,460.8,328.533z"/>
	<path style="fill:#D2E3F1;" d="M375.467,260.267H216.178c-4.713,0-8.533-3.819-8.533-8.533c0-4.714,3.821-8.533,8.533-8.533   h159.289c14.116,0,25.6-11.485,25.6-25.6v-62.578c0-4.714,3.821-8.533,8.533-8.533s8.533,3.82,8.533,8.533V217.6   C418.133,241.127,398.994,260.267,375.467,260.267z"/>
</g>
<path style="fill:#1D71B8;" d="M352.711,465.067H159.289c-4.713,0-8.533-3.82-8.533-8.533c0-4.714,3.821-8.533,8.533-8.533h193.422  c4.713,0,8.533,3.82,8.533,8.533C361.244,461.247,357.424,465.067,352.711,465.067z"/>
<path style="fill:#FB7A5B;" d="M494.933,115.2c9.421,0,17.067,7.646,17.067,17.067c0,9.421-7.646,17.067-17.067,17.067  s-17.067-7.646-17.067-17.067C477.867,122.846,485.513,115.2,494.933,115.2z"/>
<path style="fill:#1D71B8;" d="M409.6,98.133V166.4c18.853,0,34.133-15.28,34.133-34.133S428.453,98.133,409.6,98.133z"/>
<path style="fill:#4A8DC6;" d="M409.6,98.133c6.281,0,11.378,15.28,11.378,34.133c0,18.853-5.097,34.133-11.378,34.133  c-18.853,0-34.133-15.28-34.133-34.133S390.747,98.133,409.6,98.133z"/>
<path style="fill:#FE4382;" d="M102.4,98.133V166.4c18.853,0,34.133-15.28,34.133-34.133S121.253,98.133,102.4,98.133z"/>
<path style="fill:#FB7A5B;" d="M102.4,98.133c6.281,0,11.378,15.28,11.378,34.133c0,18.853-5.097,34.133-11.378,34.133  c-18.853,0-34.133-15.28-34.133-34.133S83.547,98.133,102.4,98.133z"/>
<path style="fill:#A5C6E3;" d="M17.067,115.2c9.421,0,17.067,7.646,17.067,17.067c0,9.421-7.646,17.067-17.067,17.067  S0,141.687,0,132.267C0,122.846,7.646,115.2,17.067,115.2z"/>
<g>
</g>
<g>
</g>
<g>
</g>
<g>
</g>
<g>
</g>
<g>
</g>
<g>
</g>
<g>
</g>
<g>
</g>
<g>
</g>
<g>
</g>
<g>
</g>
<g>
</g>
<g>
</g>
<g>
</g>
</svg>
