<svg id="Capa_1" enable-background="new 0 0 512 512" height="512" viewBox="0 0 512 512" width="512" xmlns="http://www.w3.org/2000/svg"><g><path d="m449.561 512h-387.122c-34.484 0-62.439-27.955-62.439-62.439v-387.122c0-34.484 27.955-62.439 62.439-62.439h387.122c34.484 0 62.439 27.955 62.439 62.439v387.122c0 34.484-27.955 62.439-62.439 62.439z" fill="#e7a561"/><path d="m360.855 360.855c-74.496 74.497-161.063 125.551-246.706 151.145h335.412c34.484 0 62.439-27.955 62.439-62.439v-335.412c-25.594 85.643-76.648 172.21-151.145 246.706z" fill="#e49542"/><path d="m49.951 441.236v-370.472c0-11.495 9.318-20.813 20.813-20.813h370.472c11.495 0 20.813 9.318 20.813 20.813v370.472c0 11.495-9.318 20.813-20.813 20.813h-370.472c-11.494 0-20.813-9.319-20.813-20.813z" fill="#f1d59d"/><path d="m360.855 360.855c-40.914 40.914-85.471 74.753-131.514 101.193h211.894c11.495 0 20.813-9.318 20.813-20.813v-211.893c-26.439 46.043-60.278 90.599-101.193 131.513z" fill="#efcb84"/><path d="m389.509 403.754h-96.351c-10.589 0-17.477-11.144-12.741-20.615l48.176-96.351c5.25-10.499 20.232-10.499 25.482 0l48.176 96.351c4.735 9.471-2.153 20.615-12.742 20.615z" fill="#ac80dd"/><path d="m181.521 117.439 9.918 20.095c1.763 3.572 5.171 6.049 9.114 6.622l22.177 3.222c9.928 1.443 13.892 13.643 6.708 20.646l-16.047 15.642c-2.853 2.781-4.155 6.787-3.481 10.714l3.788 22.087c1.696 9.888-8.683 17.428-17.563 12.76l-19.835-10.428c-3.526-1.854-7.739-1.854-11.265 0l-19.835 10.428c-8.88 4.668-19.259-2.872-17.563-12.76l3.788-22.087c.673-3.927-.628-7.933-3.481-10.714l-16.047-15.642c-7.184-7.003-3.22-19.203 6.708-20.646l22.177-3.222c3.942-.573 7.351-3.049 9.114-6.622l9.918-20.095c4.438-8.997 17.267-8.997 21.707 0z" fill="#df75a5"/><g fill="#cba763"><path d="m391.285 233.106h-99.902c-6.897 0-12.488-5.591-12.488-12.488v-99.902c0-6.897 5.591-12.488 12.488-12.488h99.902c6.897 0 12.488 5.591 12.488 12.488v99.902c-.001 6.897-5.592 12.488-12.488 12.488z"/><circle cx="170.667" cy="341.333" r="62.439"/></g></g></svg>