<?xml version="1.0" encoding="iso-8859-1"?>
<!-- Generator: Adobe Illustrator 19.0.0, SVG Export Plug-In . SVG Version: 6.00 Build 0)  -->
<svg xmlns="http://www.w3.org/2000/svg" xmlns:xlink="http://www.w3.org/1999/xlink" version="1.1" id="Layer_1" x="0px" y="0px" viewBox="0 0 512 512" style="enable-background:new 0 0 512 512;" xml:space="preserve">
<path style="fill:#FCD999;" d="M256,0v512c141.385,0,256-114.615,256-256S397.385,0,256,0z"/>
<path style="fill:#FEECCC;" d="M466.489,256C466.489,114.615,372.25,0,256,0c-29.924,0-58.641,5.152-85.333,14.587v482.825  C197.359,506.848,226.076,512,256,512C372.25,512,466.489,397.385,466.489,256z"/>
<path style="fill:#092339;" d="M170.667,14.587v482.825C270.093,462.267,341.333,367.461,341.333,256S270.093,49.733,170.667,14.587  z"/>
<path style="fill:#0E3759;" d="M307.2,256c0-111.461-56.992-206.267-136.533-241.413C71.241,49.733,0,144.539,0,256  s71.241,206.267,170.667,241.413C250.208,462.267,307.2,367.461,307.2,256z"/>
<g>
	<circle style="fill:#092339;" cx="42.667" cy="256" r="8.533"/>
	<circle style="fill:#092339;" cx="105.153" cy="406.847" r="8.533"/>
	<circle style="fill:#092339;" cx="76.8" cy="290.133" r="8.533"/>
	<circle style="fill:#092339;" cx="236.18" cy="105.153" r="8.533"/>
	<circle style="fill:#092339;" cx="202.047" cy="139.287" r="8.533"/>
</g>
<g>
</g>
<g>
</g>
<g>
</g>
<g>
</g>
<g>
</g>
<g>
</g>
<g>
</g>
<g>
</g>
<g>
</g>
<g>
</g>
<g>
</g>
<g>
</g>
<g>
</g>
<g>
</g>
<g>
</g>
</svg>
