<?xml version="1.0" encoding="iso-8859-1"?>
<!-- Generator: Adobe Illustrator 19.0.0, SVG Export Plug-In . SVG Version: 6.00 Build 0)  -->
<svg xmlns="http://www.w3.org/2000/svg" xmlns:xlink="http://www.w3.org/1999/xlink" version="1.1" id="Layer_1" x="0px" y="0px" viewBox="0 0 512 512" style="enable-background:new 0 0 512 512;" xml:space="preserve">
<path style="fill:#FD5F6E;" d="M503.248,273.683L335.004,256l168.244-17.683c4.535-0.477,7.825-4.541,7.35-9.076  c-0.478-4.535-4.526-7.826-9.076-7.35l-168.245,17.683l160.892-52.277c4.337-1.409,6.712-6.068,5.302-10.405  c-1.408-4.338-6.071-6.71-10.405-5.302l-160.892,52.277l146.508-84.587c3.95-2.28,5.303-7.331,3.022-11.281  c-2.281-3.951-7.332-5.303-11.281-3.022l-146.507,84.586L445.634,96.365c3.389-3.051,3.662-8.273,0.611-11.663  c-3.051-3.389-8.273-3.663-11.663-0.611L308.862,197.29l99.437-136.864c2.681-3.69,1.863-8.854-1.827-11.535  c-3.686-2.68-8.854-1.864-11.535,1.827L295.5,187.581l68.808-154.547c1.855-4.166-0.019-9.048-4.185-10.903  c-4.164-1.855-9.049,0.019-10.903,4.185l-68.808,154.547l35.173-165.475c0.948-4.462-1.899-8.846-6.36-9.795  c-4.458-0.946-8.846,1.898-9.795,6.361l-35.172,165.476l-16.516,157.139v169.173c0,4.561,3.696,8.258,8.258,8.258  c4.562,0,8.258-3.697,8.258-8.258V334.569l35.173,165.476c0.825,3.882,4.252,6.543,8.069,6.543c0.569,0,1.147-0.059,1.725-0.182  c4.462-0.948,7.309-5.334,6.36-9.795l-35.173-165.475l68.808,154.547c1.369,3.075,4.386,4.901,7.548,4.901  c1.123,0,2.264-0.23,3.355-0.716c4.166-1.855,6.039-6.736,4.185-10.903L295.5,324.419l99.438,136.864  c1.616,2.224,4.133,3.405,6.687,3.405c1.682,0,3.381-0.513,4.847-1.578c3.691-2.681,4.508-7.845,1.827-11.535L308.861,314.71  l125.72,113.198c1.579,1.421,3.554,2.122,5.524,2.122c2.258,0,4.509-0.922,6.139-2.732c3.051-3.389,2.778-8.612-0.611-11.663  L319.915,302.437l146.507,84.586c1.301,0.751,2.721,1.108,4.121,1.108c2.854,0,5.63-1.481,7.159-4.13  c2.28-3.95,0.927-9-3.022-11.281l-146.508-84.587l160.892,52.277c0.848,0.275,1.708,0.406,2.553,0.406  c3.48,0,6.719-2.219,7.852-5.708c1.409-4.337-0.965-8.997-5.302-10.405l-160.892-52.277l168.245,17.683  c0.294,0.031,0.585,0.046,0.873,0.046c4.173,0,7.757-3.153,8.203-7.396C511.074,278.223,507.784,274.16,503.248,273.683z"/>
<path style="fill:#FB7A5B;" d="M256,0c-4.562,0-8.258,3.697-8.258,8.258v169.173L212.569,11.954  c-0.947-4.462-5.336-7.308-9.795-6.361c-4.462,0.948-7.309,5.334-6.36,9.795l35.173,165.475L162.778,26.317  c-1.855-4.166-6.737-6.039-10.903-4.185c-4.166,1.855-6.039,6.736-4.185,10.903l68.808,154.547L117.06,50.718  c-2.68-3.69-7.844-4.508-11.535-1.827c-3.691,2.681-4.508,7.845-1.827,11.535l99.437,136.864L77.417,84.091  c-3.387-3.05-8.609-2.779-11.663,0.611c-3.051,3.389-2.778,8.612,0.611,11.663l125.72,113.198L45.579,124.978  c-3.952-2.281-9.001-0.927-11.281,3.022c-2.28,3.95-0.927,9,3.022,11.281l146.508,84.587L22.935,171.589  c-4.332-1.408-8.996,0.963-10.405,5.302c-1.409,4.337,0.965,8.997,5.302,10.405l160.892,52.277L10.478,221.891  c-4.543-0.479-8.599,2.814-9.076,7.35c-0.477,4.535,2.814,8.599,7.35,9.076L176.996,256L8.752,273.683  c-4.535,0.477-7.825,4.541-7.35,9.076c0.446,4.242,4.029,7.396,8.203,7.396c0.288,0,0.579-0.015,0.873-0.046l168.245-17.683  L17.831,324.703c-4.337,1.409-6.712,6.068-5.302,10.405c1.133,3.489,4.371,5.708,7.852,5.708c0.847,0,1.707-0.131,2.553-0.406  l160.892-52.277L37.32,372.719c-3.95,2.28-5.303,7.331-3.022,11.281c1.53,2.649,4.305,4.13,7.159,4.13  c1.401,0,2.822-0.357,4.121-1.108l146.507-84.586L66.365,415.635c-3.389,3.051-3.662,8.273-0.611,11.663  c1.63,1.811,3.879,2.732,6.138,2.732c1.969,0,3.945-0.7,5.524-2.122L203.137,314.71L103.7,451.574  c-2.681,3.69-1.863,8.854,1.827,11.535c1.466,1.065,3.163,1.578,4.847,1.578c2.552,0,5.072-1.18,6.687-3.405l99.438-136.864  L147.69,478.966c-1.855,4.166,0.019,9.048,4.185,10.903c1.091,0.486,2.232,0.716,3.355,0.716c3.161,0,6.179-1.827,7.548-4.901  l68.808-154.547l-35.173,165.475c-0.948,4.462,1.899,8.846,6.36,9.795c0.579,0.123,1.156,0.182,1.725,0.182  c3.815,0,7.244-2.66,8.069-6.543l35.174-165.476l16.516-157.139V8.258C264.258,3.697,260.561,0,256,0z"/>
<path style="fill:#FA9647;" d="M256,30.28c-3.882,0-7.742,0.098-11.576,0.292v450.856c3.834,0.194,7.693,0.292,11.576,0.292  c124.662,0,225.72-101.059,225.72-225.72S380.661,30.28,256,30.28z"/>
<path style="fill:#F9B233;" d="M437.677,256c0-124.662-81.34-225.72-181.677-225.72c-124.662,0-225.72,101.059-225.72,225.72  S131.338,481.72,256,481.72C356.337,481.72,437.677,380.662,437.677,256z"/>
<path style="fill:#FCD999;" d="M256,74.323v363.355c100.338,0,181.677-81.34,181.677-181.677S356.337,74.323,256,74.323z"/>
<path style="fill:#FEECCC;" d="M404.645,256c0-100.338-66.551-181.677-148.645-181.677c-21.236,0-41.616,3.656-60.559,10.352v342.65  c18.943,6.697,39.323,10.352,60.559,10.352C338.094,437.677,404.645,356.338,404.645,256z"/>
<path style="fill:#0E3759;" d="M316.559,256c0-79.101-50.558-146.384-121.118-171.325C124.88,109.618,74.322,176.899,74.322,256  S124.88,402.384,195.44,427.325C266.001,402.384,316.559,335.101,316.559,256z"/>
<g>
	<circle style="fill:#092339;" cx="195.44" cy="383.527" r="8.258"/>
	<circle style="fill:#092339;" cx="228.473" cy="350.494" r="8.258"/>
	<circle style="fill:#092339;" cx="115.612" cy="256" r="8.258"/>
</g>
<g>
</g>
<g>
</g>
<g>
</g>
<g>
</g>
<g>
</g>
<g>
</g>
<g>
</g>
<g>
</g>
<g>
</g>
<g>
</g>
<g>
</g>
<g>
</g>
<g>
</g>
<g>
</g>
<g>
</g>
</svg>
