<?xml version="1.0" encoding="iso-8859-1"?>
<!-- Generator: Adobe Illustrator 19.0.0, SVG Export Plug-In . SVG Version: 6.00 Build 0)  -->
<svg xmlns="http://www.w3.org/2000/svg" xmlns:xlink="http://www.w3.org/1999/xlink" version="1.1" id="Layer_1" x="0px" y="0px" viewBox="0 0 512 512" style="enable-background:new 0 0 512 512;" xml:space="preserve">
<path style="fill:#A5C6E3;" d="M483.556,227.556c0-124.644-100.727-226.202-225.064-227.533L256,512  c33.678,0,63.977-14.711,84.833-38.036l53.305-59.654c40.96-6.258,72.351-41.643,72.351-84.355c0-4.574-0.375-9.068-1.07-13.449  C477.082,289.166,483.556,259.106,483.556,227.556z"/>
<path style="fill:#D2E3F1;" d="M449.422,227.556c0,31.551-5.495,61.611-15.406,88.951c0.58,4.38,0.899,8.875,0.899,13.449  c0,42.712-26.681,78.097-61.508,84.355l-45.306,59.654C310.386,497.289,284.626,512,256,512c-33.678,0-63.977-14.711-84.833-38.036  l-53.305-59.654c-40.96-6.258-72.351-41.643-72.351-84.355c0-4.574,0.375-9.068,1.07-13.449  c-11.662-27.341-18.136-57.401-18.136-88.951C28.444,102.081,130.526,0,256,0c0.831,0,1.661,0.011,2.492,0.023  C364.009,1.593,449.422,103.06,449.422,227.556z"/>
<g>
	<path style="fill:#A5C6E3;" d="M89.965,246.8c-7.072,50.713,9.086,95.025,42.691,107.256   c33.605,12.231,74.466-11.327,101.646-54.721L89.965,246.8z"/>
	<path style="fill:#A5C6E3;" d="M422.035,246.8c7.072,50.713-9.086,95.025-42.691,107.256   c-33.605,12.231-74.466-11.327-101.646-54.721L422.035,246.8z"/>
</g>
<path style="fill:#134A79;" d="M179.936,224.152c-33.605-12.231-69.575-2.113-89.972,22.647c-0.29,32.079,20.76,62.95,54.365,75.181  s69.575,2.113,89.972-22.647C234.592,267.256,213.542,236.384,179.936,224.152z"/>
<path style="fill:#0E3759;" d="M399.064,228.204l-37.899,95.858c2.173-0.603,4.346-1.297,6.508-2.082  c33.599-12.231,54.647-43.099,54.363-75.184C415.698,239.104,407.859,232.835,399.064,228.204z"/>
<path style="fill:#134A79;" d="M332.06,224.154c23.177-8.431,47.468-6.246,67.004,4.05c-0.478,40.539-14.95,79.144-37.899,95.858  c-31.664,8.784-64.375-1.559-83.467-24.724C277.413,267.253,298.462,236.385,332.06,224.154z"/>
<g>
	<circle style="fill:#A5C6E3;" cx="187.733" cy="62.578" r="8.533"/>
	<circle style="fill:#A5C6E3;" cx="221.867" cy="96.711" r="8.533"/>
	<circle style="fill:#A5C6E3;" cx="119.467" cy="170.667" r="8.533"/>
	<circle style="fill:#A5C6E3;" cx="392.533" cy="136.533" r="8.533"/>
</g>
<g>
	<path style="fill:#1D71B8;" d="M238.933,420.458c-4.714,0-8.533-3.821-8.533-8.533v-34.133c0-4.713,3.82-8.533,8.533-8.533   s8.533,3.821,8.533,8.533v34.133C247.467,416.637,243.647,420.458,238.933,420.458z"/>
	<path style="fill:#1D71B8;" d="M273.067,420.458c-4.714,0-8.533-3.821-8.533-8.533v-34.133c0-4.713,3.82-8.533,8.533-8.533   c4.714,0,8.533,3.821,8.533,8.533v34.133C281.6,416.637,277.78,420.458,273.067,420.458z"/>
</g>
<path style="fill:#77AAD4;" d="M284.444,448.902h-9.029c1.06-3.003,0.398-6.476-2.002-8.878c-3.334-3.333-8.736-3.333-12.068,0  L256,445.368l-5.343-5.344c-3.334-3.333-8.736-3.333-12.068,0c-2.402,2.402-3.063,5.877-2.002,8.878h-9.031  c-4.714,0-8.533,3.821-8.533,8.533s3.82,8.533,8.533,8.533h56.889c4.714,0,8.533-3.821,8.533-8.533S289.158,448.902,284.444,448.902  z"/>
<g>
</g>
<g>
</g>
<g>
</g>
<g>
</g>
<g>
</g>
<g>
</g>
<g>
</g>
<g>
</g>
<g>
</g>
<g>
</g>
<g>
</g>
<g>
</g>
<g>
</g>
<g>
</g>
<g>
</g>
</svg>
