<svg id="Capa_1" enable-background="new 0 0 512 512" height="512" viewBox="0 0 512 512" width="512" xmlns="http://www.w3.org/2000/svg"><g><g><path d="m28.171 297.526h-20.544c-4.212 0-7.627-3.415-7.627-7.627s3.415-7.627 7.627-7.627h20.545c4.212 0 7.627 3.415 7.627 7.627s-3.416 7.627-7.628 7.627z" fill="#e49542"/></g><g><path d="m38.444 264.397h-20.545c-4.212 0-7.627-3.415-7.627-7.627s3.415-7.627 7.627-7.627h20.545c4.212 0 7.627 3.415 7.627 7.627-.001 4.213-3.415 7.627-7.627 7.627z" fill="#e49542"/></g><g><path d="m48.716 231.269h-20.545c-4.212 0-7.627-3.415-7.627-7.627s3.415-7.627 7.627-7.627h20.545c4.212 0 7.627 3.415 7.627 7.627s-3.415 7.627-7.627 7.627z" fill="#e49542"/></g><g><path d="m58.988 198.14h-20.544c-4.212 0-7.627-3.415-7.627-7.627s3.415-7.627 7.627-7.627h20.545c4.212 0 7.627 3.415 7.627 7.627s-3.416 7.627-7.628 7.627z" fill="#e49542"/></g><g><path d="m70.205 165.012h-20.544c-4.212 0-7.627-3.415-7.627-7.627s3.415-7.627 7.627-7.627h20.545c4.212 0 7.627 3.415 7.627 7.627-.001 4.212-3.415 7.627-7.628 7.627z" fill="#e49542"/></g><g><path d="m170.957 77.261v15.471c0 3.37-2.732 6.101-6.101 6.101h-47.377c-3.37 0-6.101-2.732-6.101-6.101v-15.471c0-5.673-4.599-10.272-10.272-10.272h-20.546c-5.673 0-10.272 4.599-10.272 10.272v80.124h141.759v-80.124c0-5.673-4.599-10.272-10.272-10.272h-20.545c-5.674-.001-10.273 4.598-10.273 10.272z" fill="#a2f4c1"/></g><g><path d="m201.774 66.988h-18.49c5.673 0 10.272 4.599 10.272 10.272v80.124h18.49v-80.123c.001-5.674-4.598-10.273-10.272-10.273z" fill="#86f1a7"/></g><g><path d="m436.594 365.163-187.757-172.736c-1.111-1.022-2.464-1.709-3.919-2.005l-32.872-.072v82.086h18.212c5.126 0 10.067 1.916 13.853 5.373l171.359 156.457c7.571 6.913 17.453 10.745 27.705 10.745h58.656c5.616 0 10.169-4.553 10.169-10.169v-55.574h-39.24c-13.434 0-26.277-5.008-36.166-14.105z" fill="#df75a5"/></g><g><path d="m244.918 190.422c1.455.296 2.808.983 3.919 2.005l187.757 172.736c9.89 9.097 22.733 14.105 36.166 14.105h39.24v-22.703c0-5.616-4.553-10.169-10.169-10.169h-29.071c-5.153 0-10.118-1.936-13.91-5.425l-187.756-172.735c-7.584-6.978-17.514-10.85-27.82-10.85h-31.227v32.964z" fill="#ac80dd"/></g><g><path d="m485.292 379.268v65.743h16.539c5.616 0 10.169-4.553 10.169-10.169v-55.574z" fill="#dd5790"/></g><g><path d="m485.292 346.397v32.872h26.708v-22.703c0-5.616-4.553-10.169-10.169-10.169z" fill="#9d66d5"/></g><g><path d="m212.047 424.467v-267.082h-141.759l-61.793 196.344c-1.256 3.991-1.895 8.151-1.895 12.335v58.403c0 11.347 9.198 20.545 20.545 20.545h164.358c11.346-.001 20.544-9.199 20.544-20.545z" fill="#ffe07d"/></g><g><path d="m47.689 383.377v-14.156c0-2.092.32-4.172.948-6.168l47.271-150.201c2.693-8.557 10.626-14.377 19.597-14.377h34.908c11.347 0 20.545 9.198 20.545 20.545v164.358c0 11.347-9.198 20.545-20.545 20.545h-82.179c-11.347-.001-20.545-9.199-20.545-20.546z" fill="#ffd064"/></g><g><path d="m193.556 157.385v257.836c0 5.673-4.599 10.272-10.272 10.272h-176.628c.539 10.866 9.489 19.517 20.488 19.517h164.358c11.347 0 20.545-9.198 20.545-20.545v-267.08z" fill="#ffd064"/></g></g></svg>