<?xml version="1.0" encoding="iso-8859-1"?>
<!-- Generator: Adobe Illustrator 19.0.0, SVG Export Plug-In . SVG Version: 6.00 Build 0)  -->
<svg xmlns="http://www.w3.org/2000/svg" xmlns:xlink="http://www.w3.org/1999/xlink" version="1.1" id="Layer_1" x="0px" y="0px" viewBox="0 0 512 512" style="enable-background:new 0 0 512 512;" xml:space="preserve">
<polygon style="fill:#1D71B8;" points="172.35,145.838 60.437,35.978 48.677,47.957 154.489,151.828 48.677,255.699 48.677,267.679   160.59,377.539 172.35,365.56 66.539,261.689 172.35,157.818 "/>
<polygon style="fill:#4A8DC6;" points="172.35,47.957 160.59,35.978 48.677,145.838 48.677,157.818 154.489,261.689 48.677,365.56   60.437,377.539 172.35,267.679 172.35,255.699 66.539,151.828 "/>
<g>
	<path style="fill:#77AAD4;" d="M166.47,50.361H54.557c-4.637,0-8.393-3.758-8.393-8.393s3.757-8.393,8.393-8.393H166.47   c4.637,0,8.393,3.758,8.393,8.393S171.107,50.361,166.47,50.361z"/>
	<path style="fill:#77AAD4;" d="M166.47,160.222H54.557c-4.637,0-8.393-3.758-8.393-8.393c0-4.635,3.757-8.393,8.393-8.393H166.47   c4.637,0,8.393,3.758,8.393,8.393C174.863,156.464,171.107,160.222,166.47,160.222z"/>
	<path style="fill:#77AAD4;" d="M166.47,270.082H54.557c-4.637,0-8.393-3.758-8.393-8.393c0-4.635,3.757-8.393,8.393-8.393H166.47   c4.637,0,8.393,3.758,8.393,8.393C174.863,266.324,171.107,270.082,166.47,270.082z"/>
	<path style="fill:#77AAD4;" d="M166.47,380.503H54.557c-4.637,0-8.393-3.758-8.393-8.393c0-4.635,3.757-8.393,8.393-8.393H166.47   c4.637,0,8.393,3.758,8.393,8.393C174.863,376.745,171.107,380.503,166.47,380.503z"/>
	<path style="fill:#77AAD4;" d="M54.557,22.383c-4.637,0-8.393,3.758-8.393,8.393v435.581h16.787V30.776   C62.951,26.141,59.194,22.383,54.557,22.383z"/>
	<path style="fill:#77AAD4;" d="M166.47,22.383c-4.637,0-8.393,3.758-8.393,8.393v435.588h16.787V30.776   C174.863,26.141,171.107,22.383,166.47,22.383z"/>
</g>
<polygon style="fill:#A5C6E3;" points="289.574,86.732 289.574,165.071 247.047,187.454 247.047,64.35 "/>
<polygon style="fill:#D2E3F1;" points="269.43,64.35 269.43,187.454 222.426,165.071 222.426,86.732 "/>
<polygon style="fill:#77AAD4;" points="289.574,165.071 311.956,198.645 256,221.027 269.43,165.071 "/>
<g>
	<polygon style="fill:#A5C6E3;" points="269.43,165.071 278.383,198.645 256,221.027 200.044,198.645 222.426,165.071  "/>
	<polygon style="fill:#A5C6E3;" points="311.956,198.645 311.956,232.219 256,265.792 278.383,198.645  "/>
</g>
<polygon style="fill:#D2E3F1;" points="278.383,198.645 278.383,265.792 200.044,232.219 200.044,198.645 "/>
<polygon style="fill:#0E3759;" points="311.956,232.219 311.956,344.131 244.809,377.705 278.383,232.219 "/>
<polygon style="fill:#185E98;" points="278.383,232.219 278.383,377.705 200.044,344.131 200.044,232.219 "/>
<polygon style="fill:#A5C6E3;" points="278.383,344.131 244.809,411.279 278.383,478.426 311.956,478.426 311.956,344.131 "/>
<polygon style="fill:#D2E3F1;" points="278.383,344.131 278.383,478.426 233.617,478.426 200.044,478.426 200.044,422.47   200.044,344.131 "/>
<polygon style="fill:#77AAD4;" points="256,41.967 289.574,86.732 269.43,86.732 256,64.35 "/>
<polygon style="fill:#A5C6E3;" points="256,41.967 269.43,86.732 222.426,86.732 "/>
<path style="fill:#FCD999;" d="M401.486,405.683L474.23,512h33.574C507.803,453.279,460.207,405.683,401.486,405.683z"/>
<g>
	<path style="fill:#FEECCC;" d="M401.486,405.683c-33.406,0-63.208,15.41-82.703,39.516L256,474.89   c-12.031-18.096-32.6-30.037-55.956-30.037c-2.305,0-4.577,0.112-6.827,0.347c-19.495-24.106-49.298-39.516-82.703-39.516   C51.793,405.683,4.197,453.279,4.197,512h128.699L256,497.272L379.104,512h95.126C474.23,453.279,441.663,405.683,401.486,405.683z   "/>
	<path style="fill:#FEECCC;" d="M200.044,444.852L233.617,512h33.574C267.191,474.912,237.132,444.852,200.044,444.852z"/>
</g>
<path style="fill:#FFFFFF;" d="M200.044,444.852c18.544,0,33.574,30.06,33.574,67.148H132.896  C132.896,474.912,162.956,444.852,200.044,444.852z"/>
<path style="fill:#FBC566;" d="M311.956,444.852L345.53,512h33.574C379.104,474.912,349.044,444.852,311.956,444.852z"/>
<path style="fill:#FCD999;" d="M311.956,444.852c18.544,0,33.574,30.06,33.574,67.148H244.809  C244.809,474.912,274.868,444.852,311.956,444.852z"/>
<path style="fill:#77AAD4;" d="M256,0c-4.637,0-8.393,3.758-8.393,8.393v44.765h16.787V8.393C264.393,3.758,260.637,0,256,0z"/>
<g>
</g>
<g>
</g>
<g>
</g>
<g>
</g>
<g>
</g>
<g>
</g>
<g>
</g>
<g>
</g>
<g>
</g>
<g>
</g>
<g>
</g>
<g>
</g>
<g>
</g>
<g>
</g>
<g>
</g>
</svg>
