<svg id="Capa_1" enable-background="new 0 0 512 512" height="512" viewBox="0 0 512 512" width="512" xmlns="http://www.w3.org/2000/svg"><g><g><circle cx="256" cy="256" fill="#a2f4c1" r="256"/></g><g><path d="m400.328 44.55c28.103 41.093 44.55 90.787 44.55 144.328 0 141.385-114.615 256-256 256-53.541 0-103.236-16.447-144.328-44.55 46.107 67.42 123.606 111.672 211.45 111.672 141.385 0 256-114.615 256-256 0-87.844-44.252-165.343-111.672-211.45z" fill="#86f1a7"/></g><g><circle cx="256" cy="256" fill="#e4fbef" r="208.13"/></g><g><path d="m359.019 366.518c-1.919 0-3.839-.732-5.304-2.197l-79.469-79.468c-2.929-2.929-2.929-7.678 0-10.606 2.93-2.929 7.678-2.929 10.607 0l79.469 79.468c2.929 2.929 2.929 7.678 0 10.606-1.465 1.465-3.384 2.197-5.303 2.197z" fill="#df75a5"/></g><g><path d="m276.813 256h-41.626v-124.878c0-11.495 9.318-20.813 20.813-20.813 11.495 0 20.813 9.318 20.813 20.813z" fill="#26457d"/></g><g><path d="m256 235.187v41.626h-104.065c-11.495 0-20.813-9.318-20.813-20.813 0-11.495 9.318-20.813 20.813-20.813z" fill="#ffe07d"/></g><g><path d="m443.89 166.375c.646 7.416.988 14.919.988 22.503 0 141.385-114.615 256-256 256-7.584 0-15.087-.341-22.503-.988 27.144 12.971 57.534 20.24 89.625 20.24 114.947 0 208.13-93.183 208.13-208.13 0-32.09-7.269-62.481-20.24-89.625z" fill="#d3effb"/></g><g><circle cx="256" cy="256" fill="#e7a561" r="33.301"/></g><g><g><path d="m256 76.409c4.268 0 7.726-3.459 7.726-7.726v-20.656c-2.565-.094-5.138-.157-7.726-.157s-5.161.064-7.726.157v20.656c0 4.267 3.459 7.726 7.726 7.726z" fill="#e49542"/></g><g><path d="m158.685 440.008 10.348-17.924c2.134-3.696.868-8.421-2.828-10.554-3.696-2.135-8.422-.868-10.554 2.828l-10.342 17.912c4.353 2.739 8.814 5.32 13.376 7.738z" fill="#e49542"/></g><g><path d="m155.65 97.642c1.431 2.479 4.028 3.865 6.698 3.865 1.311 0 2.639-.334 3.856-1.037 3.696-2.133 4.962-6.859 2.828-10.554l-10.348-17.924c-4.562 2.418-9.023 4.999-13.376 7.738z" fill="#e49542"/></g><g><path d="m463.973 248.274h-20.656c-4.268 0-7.726 3.459-7.726 7.726s3.459 7.726 7.726 7.726h20.656c.094-2.565.157-5.138.157-7.726s-.064-5.161-.157-7.726z" fill="#e49542"/></g><g><path d="m422.085 342.967c-3.695-2.135-8.423-.868-10.554 2.828-2.134 3.695-.867 8.421 2.828 10.554l17.912 10.342c2.739-4.353 5.32-8.814 7.738-13.376z" fill="#e49542"/></g><g><path d="m411.53 166.205c1.432 2.479 4.028 3.865 6.698 3.865 1.311 0 2.64-.334 3.856-1.037l17.924-10.348c-2.418-4.562-4.999-9.023-7.738-13.376l-17.912 10.342c-3.695 2.133-4.962 6.859-2.828 10.554z" fill="#e49542"/></g><g><path d="m97.642 356.35c3.696-2.133 4.962-6.859 2.828-10.554-2.134-3.696-6.859-4.962-10.554-2.828l-17.924 10.348c2.418 4.562 4.999 9.023 7.738 13.376z" fill="#e49542"/></g><g><path d="m76.409 256c0-4.267-3.459-7.726-7.726-7.726h-20.656c-.094 2.565-.157 5.138-.157 7.726s.064 5.161.157 7.726h20.656c4.267 0 7.726-3.459 7.726-7.726z" fill="#e49542"/></g><g><path d="m89.915 169.033c1.217.703 2.545 1.037 3.856 1.037 2.67 0 5.267-1.386 6.698-3.865 2.134-3.696.868-8.421-2.828-10.554l-17.911-10.342c-2.739 4.353-5.32 8.814-7.738 13.376z" fill="#e49542"/></g><g><path d="m263.726 463.973v-20.656c0-4.267-3.459-7.726-7.726-7.726s-7.726 3.459-7.726 7.726v20.656c2.565.094 5.138.157 7.726.157s5.161-.064 7.726-.157z" fill="#e49542"/></g><g><path d="m356.35 414.358c-2.133-3.696-6.861-4.962-10.554-2.828-3.695 2.133-4.962 6.859-2.828 10.554l10.348 17.923c4.562-2.418 9.023-4.999 13.376-7.738z" fill="#e49542"/></g><g><path d="m353.316 71.992-10.348 17.923c-2.134 3.696-.867 8.421 2.828 10.554 1.217.703 2.545 1.037 3.856 1.037 2.67 0 5.268-1.386 6.698-3.865l10.341-17.912c-4.352-2.738-8.813-5.319-13.375-7.737z" fill="#e49542"/></g></g></g></svg>